<svg width="360" height="65" fill="none" xmlns="http://www.w3.org/2000/svg"><path fill-rule="evenodd" clip-rule="evenodd" d="M2.635 26A9 9 0 000 32.364V60a5 5 0 005 5h14.163l1.315-5.468A2 2 0 0122.422 58h7.04a2 2 0 011.945 2.468L30.317 65h6.846l1.315-5.468A2 2 0 0140.422 58h7.04a2 2 0 011.945 2.468L48.317 65h6.846l1.315-5.468A2 2 0 0158.422 58h7.04a2 2 0 011.945 2.468L66.317 65h6.847l1.314-5.468A2 2 0 0176.422 58h7.04a2 2 0 011.945 2.468L84.317 65h243.265a9 9 0 006.357-2.63L357.357 39A9 9 0 00360 32.63V5a5 5 0 00-5-5H32.357a9 9 0 00-6.365 2.637L2.635 26.001zM345 20a5 5 0 100-10 5 5 0 000 10z" fill="#E7E7E7"/></svg>