<svg width="460" height="75" fill="none" xmlns="http://www.w3.org/2000/svg"><path fill-rule="evenodd" clip-rule="evenodd" d="M2.635 26A9 9 0 000 32.364V70a5 5 0 005 5h14.163l1.315-5.468A2 2 0 0122.422 68h7.04a2 2 0 011.945 2.468L30.317 75h6.846l1.315-5.468A2 2 0 0140.422 68h7.04a2 2 0 011.945 2.468L48.317 75h6.846l1.315-5.468A2 2 0 0158.422 68h7.04a2 2 0 011.945 2.468L66.317 75h6.847l1.314-5.468A2 2 0 0176.422 68h7.04a2 2 0 011.945 2.468L84.317 75h343.265a9 9 0 006.357-2.63L457.357 49A9 9 0 00460 42.63V5a5 5 0 00-5-5H32.357a9 9 0 00-6.365 2.637L2.635 26.001zM445 20a5 5 0 100-10 5 5 0 000 10z" fill="#E7E7E7"/></svg>