<svg width="71" height="33" fill="none" xmlns="http://www.w3.org/2000/svg"><path d="M37.538 27.95h-2.274v2.938c-.03 1.181-.364 1.575-1.546 1.575H4.973c-1.122 0-1.486-.364-1.516-1.484-.03-.97 0-1.94 0-3.06-.728 0-1.365.03-2.002 0-1-.03-1.394-.394-1.425-1.363-.03-5.15-.03-10.3 0-15.45 0-.94.364-1.303 1.304-1.364.273-.03.516 0 .88 0v-2.12c-.03-.03-.091-.091-.152-.091C.09 7.379 0 7.258 0 5.35V2.169C.03 1.018.364.684 1.486.654h66.828c.334 0 .698-.03 1.031 0 .698.06 1.122.455 1.153 1.182.03 1.484.03 2.938 0 4.423 0 .757-.455 1.181-1.213 1.211h-.97v2.151c.09.03.151.091.212.091 1.819.09 2 .242 2 2.06v14.299c0 1.545-.272 1.817-1.879 1.817h-1.546v2.94c0 1.271-.364 1.605-1.638 1.605h-10.46c-1.183 0-1.547-.364-1.547-1.576V27.95h-2.274v2.817c0 1.273-.334 1.636-1.607 1.636H39.115c-1.243 0-1.577-.363-1.607-1.636 0-.878.03-1.757.03-2.817zm30.594-2.364V12.045c-.212-.03-.363-.03-.515-.03-1.364-.061-1.668-.334-1.668-1.697V7.59c0-2.241 0-2.241 2.214-2.514v-2.09H2.365v2.15c.243 0 .364.03.516.03 1.364.062 1.667.334 1.667 1.697V9.59c0 2.211 0 2.211-2.213 2.514v13.481h65.797zM5.731 30.1h27.168v-2.12H5.73v2.12zm43.147-2.12h-8.975v2.09h8.975v-2.09zm15.889.03h-8.975v2.12h8.975v-2.12z" fill="#E7E7E7"/><path d="M14.796 14.287v7.362c0 1.393-.334 1.696-1.759 1.727H7.246c-1.183 0-1.547-.364-1.547-1.545V6.744c0-1.181.364-1.545 1.577-1.545h6.004c1.122 0 1.485.364 1.516 1.485v7.603zm-6.792 6.726h4.457V7.532H8.004v13.48zm9.067-6.727V6.924c0-1.394.304-1.727 1.729-1.727h5.791c1.213 0 1.577.364 1.577 1.545V21.83c0 1.181-.364 1.545-1.577 1.545h-5.913c-1.273 0-1.607-.333-1.637-1.606 0-2.514.03-4.998.03-7.482zM19.406 7.5v13.51h4.397V7.5h-4.397zm18.131 6.847v7.362c0 1.272-.334 1.636-1.607 1.636h-5.913c-1.243 0-1.607-.364-1.607-1.636V6.743c0-1.212.364-1.575 1.547-1.575h6.003c1.183 0 1.547.364 1.547 1.575.03 2.545.03 5.09.03 7.604zm-6.762-6.846v13.51h4.397V7.502h-4.397zm18.134 6.664v7.483c0 1.393-.334 1.697-1.759 1.697h-5.79c-1.183 0-1.547-.364-1.547-1.546V6.713c0-1.181.364-1.515 1.577-1.545h6.004c1.122 0 1.486.364 1.516 1.484v7.513zm-2.335-6.634h-4.396v13.48h4.396V7.532zm6.793 4.485c-.667 0-1.365.03-2.032 0-.879-.03-1.273-.394-1.273-1.242a102.83 102.83 0 010-4.302c.03-.848.394-1.242 1.273-1.242 1.425-.03 2.88-.03 4.306 0 .849.03 1.213.424 1.243 1.302.03 1.394.03 2.787 0 4.181-.03.909-.394 1.272-1.334 1.333h-.121c-.698-.03-1.395-.03-2.062-.03zm-1-4.514v2.15h2.122v-2.15h-2.123zm12.429 1.15c0 .727.03 1.424 0 2.15-.03.758-.455 1.213-1.213 1.213-1.485.03-2.94.03-4.426 0-.759 0-1.183-.485-1.183-1.242a102.83 102.83 0 010-4.302c.03-.848.394-1.242 1.273-1.272 1.425-.03 2.881-.03 4.306 0 .85.03 1.213.424 1.243 1.272.03.727 0 1.454 0 2.181zm-2.304-1.12h-2.153v2.12h2.153v-2.12z" fill="#E7E7E7"/></svg>