<svg width="71" height="71" fill="none" xmlns="http://www.w3.org/2000/svg"><path d="M34.272 37.775c.03-.532.03-.917.06-1.271.117-1.922 1.33-3.222 3.25-3.488.414-.06.799-.03 1.212-.03h23.617c2.424 0 4.286-.975 5.468-3.103 2.069-3.754-.532-8.424-4.847-8.69-.473-.03-.946-.03-1.449-.03H8.587c-3.607 0-6.267-1.596-7.804-4.818-2.335-4.877.798-10.73 6.119-11.557a16.717 16.717 0 012.423-.177H32.38c1.656 0 1.922-.266 1.922-1.921V0h2.335c-.06 1.567.266 3.133-.237 4.67-.473 1.478-1.625 2.217-3.163 2.365-.354.03-.738 0-1.093 0H8.646c-2.572 0-4.493 1.034-5.675 3.34-1.833 3.606.68 8.04 4.7 8.394.59.06 1.182.06 1.773.06h52.435c2.335 0 4.463.472 6.266 2.068 2.601 2.306 3.488 5.823 2.335 9.074a8.188 8.188 0 01-7.655 5.41c-4.996.059-9.99 0-14.957.029h-9.192c-1.744 0-2.128.443-1.862 2.394h32.957c.768.06 1.123.414 1.212 1.182.03.296 0 .592 0 .887V68.81c0 .296.03.591 0 .887-.09.739-.473 1.123-1.212 1.182-.296.03-.591 0-.887 0H2.143c-.325 0-.68.03-1.005-.03-.62-.088-1.005-.443-1.094-1.064-.03-.325-.03-.65-.03-1.005V39.844c0-.296-.029-.592 0-.887.09-.769.444-1.094 1.213-1.153.325-.03.65 0 1.005 0h30.592c.443-.03.886-.03 1.448-.03zM68.5 40.169H2.468v28.198H68.5V40.169z" fill="#E7E7E7"/><path d="M25.966 48.475c-.709 0-1.389.03-2.098 0-.916-.03-1.419-.532-1.448-1.449-.03-1.448-.03-2.867 0-4.315.03-.857.413-1.33 1.27-1.36a60.75 60.75 0 014.641 0c.857.03 1.212.385 1.242 1.242a60.84 60.84 0 010 4.64c-.03.858-.503 1.212-1.39 1.271-.739 0-1.477-.03-2.216-.03zm-1.004-4.7v2.187h2.157v-2.187h-2.157zm35.38.945c0-.65-.03-1.33 0-1.98.03-.946.296-1.36 1.212-1.389a40.498 40.498 0 014.64 0c.887.03 1.242.473 1.272 1.36.03 1.448.03 2.867 0 4.315-.03.946-.473 1.419-1.449 1.448-1.448.03-2.896.03-4.315 0-.916-.029-1.33-.472-1.36-1.418-.03-.798 0-1.567 0-2.335zm2.424 1.242h2.187v-2.158h-2.187v2.158zm-36.8 14.277c.74 0 1.478-.03 2.217 0 .946.03 1.36.295 1.39 1.212a40.496 40.496 0 010 4.64c-.03.887-.473 1.242-1.39 1.242-1.448.03-2.896.03-4.315 0-.946-.03-1.419-.473-1.448-1.449a99.54 99.54 0 010-4.197c.03-1.034.443-1.419 1.537-1.448.68-.03 1.33 0 2.01 0zm-1.004 2.453v2.158h2.157v-2.158h-2.157zm32.956-17.794c0 .739.03 1.478 0 2.216-.03.887-.414 1.33-1.271 1.33-1.478.06-2.956.03-4.434 0-.887-.029-1.36-.531-1.39-1.389a112.95 112.95 0 010-4.433c.03-.798.385-1.271 1.213-1.3 1.596-.06 3.162-.03 4.758 0 .74.029 1.124.472 1.124 1.24v2.336zm-2.335-1.123h-2.247v2.157h2.247v-2.157zM26.055 57.843c-.739 0-1.478.03-2.217 0-.946-.029-1.36-.413-1.39-1.36a106.968 106.968 0 010-4.314c.03-.917.533-1.42 1.479-1.42 1.389-.029 2.808-.029 4.197 0 .946.03 1.419.355 1.478 1.272a60.84 60.84 0 010 4.64c-.03.887-.384 1.094-1.3 1.182h-2.248zm1.034-2.364v-2.246h-2.128v2.246h2.128zm36.801 4.76c.738 0 1.477-.03 2.216 0 .887.03 1.3.443 1.33 1.3.03 1.508.03 3.015 0 4.552-.03.769-.473 1.242-1.241 1.271-1.537.03-3.104.03-4.64 0-.74-.03-1.154-.443-1.183-1.182a119.62 119.62 0 010-4.64c.03-.828.414-1.213 1.241-1.242.74-.089 1.508-.06 2.276-.06zm-1.065 2.453v2.158h2.099v-2.158h-2.099zm-30.859 1.094c0-.74-.03-1.478 0-2.217.03-.887.414-1.3 1.3-1.3 1.508-.03 3.016-.03 4.523 0 .798.029 1.212.443 1.242 1.27.03 1.508.03 3.015 0 4.522-.03.799-.444 1.242-1.242 1.271-1.507.03-3.015.03-4.522 0-.828-.029-1.242-.472-1.3-1.33-.03-.739 0-1.477 0-2.216zm4.64-1.094H34.42v2.187h2.187v-2.187zm-29.498 4.64c-.739 0-1.478.03-2.217 0-.827-.029-1.3-.472-1.33-1.3-.03-1.478-.03-2.956 0-4.434.03-.886.414-1.3 1.271-1.33 1.508-.03 3.015-.03 4.552 0 .828.03 1.242.414 1.242 1.242.03 1.507.03 3.015 0 4.522-.03.857-.444 1.241-1.33 1.3H7.107zm-1.093-4.67v2.158h2.157v-2.158H6.015zm61.42-8.395c0 .739.03 1.478 0 2.217-.03.916-.384 1.3-1.27 1.33-1.538.03-3.104.03-4.641 0-.828-.03-1.182-.355-1.182-1.153a119.62 119.62 0 010-4.64c.03-.798.443-1.242 1.24-1.271 1.508-.03 3.016-.03 4.553 0 .857.03 1.27.473 1.33 1.3 0 .74-.03 1.478-.03 2.217zm-2.512 1.182v-2.276h-2.158v2.276h2.158zM54.46 67.332c-.74 0-1.479.03-2.218 0-.916-.03-1.36-.444-1.389-1.36-.03-1.478-.03-2.956 0-4.433.03-.887.444-1.301 1.3-1.301 1.508-.03 3.016-.03 4.553 0 .857.03 1.211.355 1.241 1.241.03 1.537.03 3.104 0 4.64-.03.829-.414 1.154-1.241 1.213h-2.247zm1.063-2.483v-2.158h-2.217v2.158h2.217zM39.03 44.868c0 .71.03 1.39 0 2.099-.029.946-.413 1.418-1.3 1.448a54.61 54.61 0 01-4.433 0c-.917-.03-1.33-.502-1.33-1.419-.03-1.448-.03-2.867 0-4.315.03-.916.354-1.33 1.24-1.36a57.812 57.812 0 014.523 0c.917.03 1.242.414 1.3 1.3.03.77 0 1.508 0 2.247zm-4.64 1.064h2.217v-2.217H34.39v2.217zm4.642 8.424c0 .74.029 1.478 0 2.217-.03.857-.385 1.242-1.212 1.242-1.537.03-3.104.03-4.64 0-.828-.03-1.183-.414-1.183-1.271-.03-1.478-.03-2.956 0-4.434.03-.857.414-1.33 1.27-1.36a57.812 57.812 0 014.523 0c.857.03 1.212.503 1.242 1.39.029.739 0 1.477 0 2.216zm-2.424-1.123H34.42v2.217h2.188v-2.217zm-25.952-8.364c0 .71.03 1.39 0 2.098-.03 1.005-.414 1.449-1.39 1.478a52.54 52.54 0 01-4.315 0c-.916-.03-1.36-.502-1.36-1.389-.03-1.448-.03-2.867 0-4.315.03-.946.414-1.36 1.36-1.36 1.478-.03 2.956-.03 4.434 0 .916.03 1.27.384 1.3 1.3 0 .71-.03 1.449-.03 2.188zm-4.64 1.093h2.187v-2.216H6.015v2.216zm38.927 14.277c.709 0 1.389-.03 2.098 0 1.005.03 1.449.384 1.508 1.389a52.54 52.54 0 010 4.315c-.03.946-.532 1.39-1.508 1.39-1.39.03-2.808.03-4.197 0-.946-.03-1.36-.385-1.39-1.33a113.001 113.001 0 010-4.434c.03-.976.415-1.3 1.39-1.33.68-.03 1.39 0 2.099 0zm-1.124 4.61h2.217v-2.157H43.82v2.158zM13.08 63.696v-2.335c0-.71.443-1.123 1.093-1.123 1.596-.03 3.163-.03 4.759 0 .768.03 1.182.473 1.182 1.33.03 1.478.06 2.956 0 4.434-.03.886-.532 1.3-1.448 1.33a103.5 103.5 0 01-4.316 0c-.886-.03-1.27-.414-1.3-1.3 0-.77.03-1.538.03-2.336zm2.334 1.153h2.247v-2.158h-2.247v2.158zM7.02 57.815c-.74 0-1.478.03-2.217 0-.828-.03-1.212-.414-1.242-1.242-.03-1.478-.03-2.956 0-4.433.03-.858.444-1.36 1.271-1.39a57.812 57.812 0 014.523 0c.857.03 1.27.473 1.27 1.36.03 1.478.03 2.956 0 4.434-.03.916-.384 1.241-1.3 1.3h-.207c-.71-.03-1.419-.03-2.099-.03zm1.211-4.582H6.044v2.217h2.187v-2.217zm46.199-2.512c.71 0 1.39-.03 2.099 0 .975.03 1.36.384 1.39 1.33.029 1.508.029 3.015 0 4.523-.03.916-.326 1.211-1.213 1.211-1.537.03-3.103.03-4.64 0-.769-.03-1.183-.413-1.212-1.152a60.753 60.753 0 010-4.64c.03-.829.502-1.213 1.36-1.272h2.216zm1.124 2.513h-2.247v2.216h2.247v-2.217zM13.08 44.78c0-.74-.03-1.479 0-2.218.03-.827.325-1.182 1.123-1.212 1.596-.059 3.163-.029 4.759 0 .768 0 1.152.533 1.182 1.212.03 1.508.06 3.015 0 4.523-.03.827-.502 1.3-1.36 1.33a54.72 54.72 0 01-4.404 0c-.916-.03-1.241-.473-1.3-1.448v-.207c-.03-.65-.03-1.33 0-1.98zm2.364-1.065v2.246h2.217v-2.246h-2.217zm25.981 1.065c0-.74-.03-1.478 0-2.217.06-.887.355-1.212 1.242-1.242 1.507-.03 3.014-.03 4.522 0 .827.03 1.27.385 1.3 1.212.06 1.508.06 3.015 0 4.523-.03.857-.532 1.33-1.448 1.36-1.39.029-2.808.029-4.197 0-1.005-.03-1.39-.444-1.449-1.449 0-.71.03-1.448.03-2.187zm2.394 1.182h2.217v-2.217H43.82v2.217zm1.064 11.853c-.74 0-1.478.03-2.217 0-.828-.03-1.182-.325-1.212-1.123-.06-1.597-.03-3.163 0-4.76 0-.768.502-1.152 1.212-1.182a57.786 57.786 0 014.522 0c.857.03 1.33.532 1.36 1.449.03 1.389.059 2.808 0 4.197-.03 1.034-.444 1.39-1.537 1.419-.71.03-1.419 0-2.128 0zm1.182-4.611h-2.217v2.276h2.217v-2.276zM13.08 54.267c0-.71-.03-1.39 0-2.099.03-.945.384-1.389 1.33-1.418 1.477-.03 2.955-.03 4.404 0 .827.03 1.3.502 1.33 1.33a54.72 54.72 0 010 4.404c-.03.887-.444 1.27-1.33 1.3-1.508.03-3.015.03-4.523 0-.886-.03-1.182-.325-1.212-1.241-.029-.739 0-1.507 0-2.276zm4.64-1.064h-2.276v2.246h2.276v-2.246z" fill="#E7E7E7"/></svg>