<svg width="53" height="71" fill="none" xmlns="http://www.w3.org/2000/svg"><path d="M.03 35.447V2.224c0-.354 0-.739.03-1.093C.117.48.501.126 1.093.037c.354-.06.739-.03 1.093-.03h47.647c.325 0 .68-.03 1.005.03.71.089 1.153.473 1.182 1.212.03.325 0 .65 0 1.005v67.48c-.03.739-.443 1.152-1.182 1.212-.296.03-.591.03-.887.03H2.1c-.326 0-.68.029-1.005-.03-.621-.09-1.005-.444-1.064-1.094C0 69.497 0 69.113 0 68.758c.03-11.143.03-22.227.03-33.311zm49.597 32.986V2.431H2.453v66.002h47.174z" fill="#E7E7E7"/><path d="M26.099 16.53h14.276c.444 0 .887 0 1.33.03 1.774.178 3.134 1.449 3.193 3.252.088 2.541.088 5.083 0 7.625-.06 1.596-1.124 2.75-2.66 3.133-.207.06-.444.119-.65.148-1.508.266-1.804 1.035-.828 2.276 1.773 2.276 3.074 4.759 3.694 7.596 1.478 6.887-.295 12.917-5.29 17.824-7.42 7.241-18.77 7.241-26.248.03-4.522-4.375-6.325-9.814-5.556-16.11.413-3.428 1.773-6.443 3.872-9.163.147-.206.325-.384.473-.62.502-.857.147-1.596-.828-1.803-.325-.06-.65-.118-.976-.207-1.507-.384-2.6-1.508-2.66-3.015a117.1 117.1 0 010-7.862c.06-1.715 1.42-2.986 3.163-3.133 1.005-.089 1.98-.06 2.985-.06 4.198.06 8.454.06 12.71.06zm-.03 2.365H11.35c-1.507 0-1.832.325-1.861 1.803v5.882c0 1.36.236 1.567 1.537 1.774 1.596.236 2.69 1.123 3.133 2.719.354 1.33-.148 2.365-.916 3.37-3.34 4.197-4.434 8.926-3.311 14.128 1.448 6.65 7.035 12.06 14.395 12.769 5.616.561 10.404-1.3 14.158-5.587 3.547-4.049 4.729-8.808 3.753-14.128-.502-2.778-1.803-5.202-3.517-7.419-1.832-2.335-.62-5.439 2.247-5.882 1.448-.207 1.625-.414 1.625-1.921v-5.439c0-1.862-.266-2.098-2.128-2.098-4.788.03-9.577.03-14.394.03zm-.029-4.73h-9.843c-.325 0-.68.03-1.005-.03-.561-.118-.916-.472-.916-1.093-.03-.591.207-1.005.828-1.153a4.595 4.595 0 011.093-.118h19.715c.355 0 .739.03 1.094.118.59.119.857.532.827 1.123-.03.592-.354.976-.916 1.094-.325.089-.65.03-1.005.03-3.31.03-6.591.03-9.872.03zM9.458 7.101c-.03 1.271-1.064 2.306-2.335 2.306-1.3 0-2.394-1.094-2.365-2.394.03-1.242 1.094-2.335 2.335-2.335 1.301 0 2.395 1.123 2.365 2.423zm33.164-.059c0-1.271 1.064-2.335 2.305-2.365 1.271-.03 2.394 1.124 2.394 2.424 0 1.33-1.123 2.365-2.423 2.335-1.3-.059-2.306-1.094-2.276-2.394zM9.458 63.822c0 1.271-1.034 2.335-2.276 2.394-1.27.06-2.394-1.064-2.423-2.364 0-1.33 1.064-2.395 2.394-2.365a2.315 2.315 0 012.305 2.335zm33.165.058c-.03-1.33 1.034-2.423 2.335-2.423 1.27 0 2.305 1.035 2.335 2.306.03 1.3-1.064 2.453-2.365 2.453-1.212 0-2.305-1.094-2.305-2.335zM11.055 14.165c-.06 0-.325.03-.562-.03-.561-.117-.975-.502-.916-1.063.03-.384.325-1.005.562-1.035a6.87 6.87 0 012.335.06c.236.059.443.709.443 1.093 0 .71-.562.976-1.862.976zm29.528 0c-.09 0-.444 0-.74-.088-.62-.207-.945-.946-.68-1.537.356-.798 1.094-.769 1.804-.769.65.03 1.27.089 1.507.828.296.975-.325 1.566-1.891 1.566z" fill="#E7E7E7"/><path d="M25.922 54.334c-5.203-.059-9.43-4.374-9.34-9.547a9.506 9.506 0 019.635-9.37c5.173.09 9.4 4.434 9.281 9.607-.118 5.231-4.374 9.4-9.576 9.31zm.118-16.493c-3.429-.148-7.094 2.808-7.094 7.094 0 3.813 3.222 7.035 7.094 7.035 3.842 0 7.094-3.192 7.123-7.005 0-3.902-3.192-7.124-7.123-7.124z" fill="#E7E7E7"/><path d="M26.927 59.034c-.828.03-1.39-.325-1.448-1.005-.089-.739.414-1.241 1.389-1.33 5.586-.561 9.931-4.552 10.818-9.902.06-.413.06-.798.148-1.212.177-.768.62-1.152 1.3-1.064.68.06 1.183.65 1.064 1.42-.147 1.093-.354 2.186-.68 3.22-1.596 5.44-6.916 9.607-12.59 9.873zM11.852 44.108c.237-2.926 1.212-5.734 3.193-8.158.59-.74 1.241-.857 1.803-.384.59.472.62 1.093.03 1.832-1.626 2.099-2.572 4.434-2.631 7.123-.03 1.035-.503 1.538-1.242 1.508-.768-.03-1.153-.591-1.153-1.685v-.236z" fill="#E7E7E7"/></svg>