<svg width="71" height="55" fill="none" xmlns="http://www.w3.org/2000/svg"><path d="M51.992 53.114h-26.01v-4.611h-2.336v4.581H11.764v-4.581h-4.7v5.793H4.67v-9.4H2.424v-2.364h2.128c.03-.414.059-.739.089-1.153H1.21V27.162h3.37v-1.123c-.709-.03-1.389-.06-2.157-.118v-2.306H4.58c.03-.473.06-.827.06-1.182V4.255c0-1.685-.266-1.95-1.892-1.95-.798 0-1.626 0-2.424-.03-.118.03-.177 0-.325-.06V.058c1.448 0 2.897-.148 4.286.03 1.566.206 2.66 1.655 2.749 3.31.03.768 0 1.537 0 2.453h1.478c18.591 0 37.153 0 55.745.03 1.035 0 2.158.147 3.133.561 1.862.769 2.956 2.247 3.34 4.227.089.443.148.887.148 1.33 0 10.08.03 20.158 0 30.267 0 2.483-1.035 4.463-3.37 5.527-.886.414-1.92.591-2.867.62-3.753.06-7.537.03-11.29.03h-1.33c-.03 1.567-.03 3.074-.03 4.67zM7.094 36.62c1.389 0 2.66.03 3.96 0 .828-.03 1.449.178 2.04.828 1.035 1.153 2.187 2.187 3.28 3.31.415.414.829.65 1.45.621 3.9-.03 7.832 0 11.734-.03.473 0 1.005-.206 1.389-.502 1.182-.827 2.305-1.744 3.488-2.571a2.89 2.89 0 011.389-.473c1.33-.06 2.66-.06 3.99 0 .443.03.946.177 1.3.443 1.183.828 2.336 1.714 3.459 2.572.502.384 1.005.532 1.626.532 3.842-.03 7.684-.03 11.527 0 .591 0 1.034-.178 1.478-.562 1.773-1.626 3.606-3.192 5.38-4.788.472-.444.945-.621 1.595-.591.769.03 1.508 0 2.276 0V18.886c-.798 0-1.537-.03-2.246 0-.68.059-1.182-.177-1.685-.65-1.744-1.596-3.547-3.134-5.29-4.73-.444-.384-.858-.59-1.479-.59-3.872.029-7.744.029-11.645 0-.591 0-1.064.147-1.508.502-1.152.887-2.276 1.773-3.458 2.571a2.892 2.892 0 01-1.39.473c-1.3.06-2.57 0-3.871.03-.591.03-1.064-.178-1.508-.532-1.123-.887-2.276-1.774-3.458-2.572a2.297 2.297 0 00-1.3-.443c-3.961-.03-7.892 0-11.853-.03-.532 0-.887.148-1.27.532-1.154 1.183-2.306 2.247-3.4 3.429-.562.62-1.182.887-2.04.857-1.3-.059-2.63-.03-3.99-.03.03 6.355.03 12.533.03 18.917zm-.03-21.252c1.094 0 2.07-.029 3.045 0 .768.03 1.33-.177 1.862-.738 1.034-1.124 2.158-2.129 3.192-3.222.532-.591 1.123-.828 1.921-.828 3.843.03 7.685.118 11.528-.03 1.803-.059 3.162.474 4.522 1.567 2.572 2.099 2.601 2.07 5.882 1.98.473 0 1.005-.206 1.39-.472 1.152-.798 2.246-1.715 3.398-2.483.414-.296 1.005-.503 1.508-.503 4.433-.03 8.867 0 13.3-.03.592 0 1.035.178 1.478.562 1.656 1.508 3.43 2.927 5.025 4.523 1.035 1.034 2.129.916 3.34.739v-5.055a2.15 2.15 0 00-.207-.857c-.62-1.566-1.803-2.276-3.901-2.276H8.157c-.354 0-.708.03-1.093.06v7.063zm61.391 22.553c-1.537-.384-2.66 0-3.694 1.064-1.39 1.419-2.986 2.66-4.434 4.02-.591.532-1.153.768-1.95.768-3.725-.03-7.479-.118-11.203.03-1.892.059-3.488-.266-4.818-1.626-1.596-1.655-3.547-2.276-5.793-1.891-.532.088-1.064.236-1.508.532-1.152.798-2.246 1.684-3.399 2.482a2.296 2.296 0 01-1.3.444c-4.552.03-9.075.03-13.626 0-.414 0-.917-.237-1.242-.532-1.27-1.183-2.453-2.454-3.694-3.665-.237-.237-.592-.532-.917-.532-1.241-.06-2.483-.03-3.754-.03v7.094h56.928c.473 0 .976 0 1.449-.06 1.566-.206 2.867-1.477 2.955-2.985.06-1.714 0-3.399 0-5.113zM4.552 38.926v-9.281H3.547v9.28h1.005zm26.1 11.852v-2.275h-2.277v2.276h2.276zm-14.218 0v-2.216h-2.187v2.217h2.187zm4.7-2.275h-2.188v2.276h2.188v-2.276zm11.97-.03v2.276h2.247v-2.276h-2.246zm11.705.06h-2.246v2.245h2.246v-2.246zm2.454 2.216h2.276v-2.246h-2.276v2.246zm-7.183-2.217h-2.187v2.247h2.098c.03-.267.06-.473.09-.68.029-.503 0-1.005 0-1.567z" fill="#E7E7E7"/><path d="M36.563 27.221c0 6.769-5.291 13.006-13.065 12.946-7.833-.059-12.976-6.325-12.916-13.094.059-6.916 5.379-12.916 13.034-12.916 7.863.03 13.006 6.414 12.947 13.064zm-23.558.65c.089 1.863.68 3.518 1.744 5.173.798-2.217 2.217-3.576 4.257-4.197.118-.74-.207-1.123-.769-1.478-1.212-.739-2.453-.916-3.754-.266-.443.266-.916.502-1.478.768zm8.897-5.172c2.335-.562 2.69-3.281.887-6.119-1.803.148-3.458.621-5.055 1.774 2.188.798 3.518 2.217 4.168 4.345zm3.754-5.912c1.034 2.099.916 4.08-.03 5.971.473.591.946.62 1.537.473 2.217-.473 2.927-2.128 3.34-4.02-1.3-1.241-2.6-1.892-4.847-2.424zm2.364 12.385c-.65.443-.65 1.005-.502 1.626.414 1.714 1.833 2.985 3.665 3.221.207.03.532-.059.65-.206 1.035-1.272 1.803-2.66 2.07-4.493-2.1.886-4.05.886-5.883-.148zm-6.502 8.365c-1.035-2.099-.946-4.08.059-5.97-.473-.563-1.005-.622-1.626-.444-1.773.443-3.133 2.01-3.221 3.783 0 .207.147.473.325.62 1.241 1.006 2.69 1.686 4.463 2.01zm12.591-11.114c-.03-1.862-.65-3.488-1.714-5.143-.769 2.217-2.246 3.577-4.286 4.197.296 2.276 3.045 2.69 6 .946zm-4.64 9.518c-2.306-.769-3.577-2.306-4.227-4.286-.798 0-1.182.414-1.507.946-.857 1.537-.71 3.547.413 4.877.119.147.385.236.562.236 1.685-.177 3.222-.68 4.759-1.773zM19.183 25.152c.591-.739.62-1.034.414-1.832-.503-1.863-1.951-2.572-3.606-2.986-.178-.059-.473.03-.592.148-1.093 1.3-1.862 2.749-2.157 4.611 2.098-1.005 4.05-.916 5.94.06zm6.739 2.04c0-1.3-1.094-2.424-2.365-2.395-1.241.03-2.305 1.124-2.335 2.365-.03 1.271 1.123 2.424 2.394 2.394 1.242-.03 2.276-1.093 2.306-2.364zm39.016-.03c.089 6.473-4.966 12.946-12.916 12.975-7.774.03-13.065-6.207-13.065-13.005 0-6.828 5.32-13.035 13.065-12.976 7.98.06 13.005 6.562 12.916 13.005zM54.061 16.787c.975 2.069.946 4.05-.06 5.94.415.592.917.651 1.508.503 1.833-.413 3.222-1.95 3.34-3.783 0-.207-.147-.473-.325-.62a9.997 9.997 0 00-4.463-2.04zm-3.783 5.911c1.389-.118 1.655-1.123 1.95-2.069.473-1.537-.295-2.778-.975-3.99-2.07.089-3.99.768-5.025 1.774 2.07.738 3.4 2.157 4.05 4.285zm-2.867 6.09c.088-.68-.207-1.035-.68-1.33-1.744-1.095-3.163-.976-5.291.502.059 1.862.68 3.665 1.685 4.877 1.566-2.779 1.803-2.838 4.285-4.05zm8.748.265c-.118.532-.354.976-.295 1.39.177 1.832 1.98 3.517 3.813 3.546.236 0 .562-.207.68-.413a74.203 74.203 0 001.773-3.4c.118-.206.06-.532.06-.916-2.04 1.005-3.961.887-6.03-.207zm-6.177 2.513c-1.95-1.449-4.434.443-4.907 3.635 1.39 1.271 2.867 1.98 4.73 2.276-.858-2.01-.917-3.96.177-5.911zm7.892 4.404c-2.306-.769-3.606-2.276-4.256-4.345-2.365.561-2.72 3.399-.858 6.089 1.774-.09 3.43-.621 5.114-1.744zm-1.419-10.493c.384 2.394 3.37 2.778 6.06.886-.06-1.773-.65-3.399-1.715-5.054-.828 2.128-2.187 3.517-4.345 4.168zm-8.897-.325c.621-.473.621-1.035.473-1.626-.414-1.744-1.862-2.985-3.694-3.192-.178-.03-.473.03-.592.148-1.093 1.3-1.862 2.748-2.128 4.522 2.838-.887 3.665-.857 5.941.148zm6.74 1.98c-.03-1.271-1.094-2.335-2.336-2.335-1.3 0-2.364 1.123-2.364 2.424.03 1.27 1.093 2.335 2.335 2.335 1.3 0 2.394-1.123 2.364-2.424z" fill="#E7E7E7"/></svg>