<svg width="66" height="66" fill="none" xmlns="http://www.w3.org/2000/svg"><path d="M30.995 60.672c-1.174.8-2.229 1.588-3.352 2.263-.675.403-1.424.783-2.188.919a664.573 664.573 0 01-12.388 2.093c-2.402.387-4.264-1.408-3.972-3.84.57-4.75 1.194-9.492 1.79-14.237.16-1.259.384-2.517.428-3.782.017-.526-.24-1.154-.57-1.588-3.046-4.016-6.136-8.002-9.213-11.995-.309-.404-.641-.794-.916-1.218-1.37-2.103-.353-4.742 2.11-5.261 4.22-.892 8.454-1.727 12.694-2.52 1.079-.2 1.686-.679 2.066-1.724 1.686-4.603 3.5-9.162 5.152-13.779.686-1.913 1.88-2.826 3.871-3.107 3.853-.543 7.683-1.235 11.52-1.9 2.144-.37 3.484.336 4.274 2.405 1.767 4.62 3.562 9.227 5.234 13.881.462 1.286 1.157 1.886 2.477 2.124 3.996.719 7.971 1.547 11.954 2.324 3.046.593 4.131 3.348 2.239 5.827-3.213 4.21-6.46 8.393-9.709 12.579-.516.664-.77 1.295-.648 2.201.78 5.831 1.483 11.673 2.202 17.514.25 2.039-.736 3.511-2.755 3.888-3.409.637-6.838 1.17-10.258 1.747-.75.125-1.52.186-2.252.376-1.211.316-2.246.007-3.233-.682-2.154-1.496-4.325-2.971-6.557-4.508zm18.891-33.067c.014-1.004-.336-1.337-1.398-1.55-4.104-.825-8.199-1.713-12.32-2.436-1.917-.336-2.955-1.35-3.596-3.11-1.676-4.61-3.433-9.187-5.173-13.773-.248-.655-.397-1.482-1.326-1.496-.94-.017-1.093.807-1.343 1.465-1.802 4.743-3.607 9.482-5.374 14.237-.556 1.5-1.547 2.314-3.124 2.61-4.24.796-8.467 1.661-12.694 2.513-1.363.274-1.692 1.153-.888 2.306.193.279.407.54.614.808 3.053 3.958 6.075 7.94 9.176 11.866.882 1.116 1.217 2.28 1.04 3.657-.467 3.609-.922 7.221-1.386 10.83a2023.98 2023.98 0 01-.869 6.673c-.078.594.03 1.208.607 1.395.41.132.947-.075 1.411-.184.194-.044.353-.23.526-.35 3.247-2.228 6.493-4.46 9.743-6.685 2.076-1.422 3.022-1.425 5.071-.017 3.385 2.327 6.77 4.654 10.153 6.984.516.357 1.062.625 1.638.231.557-.38.55-.96.468-1.598-.732-5.58-1.404-11.17-2.17-16.75-.248-1.812.217-3.254 1.36-4.685 3.148-3.935 6.187-7.962 9.257-11.96.278-.354.472-.77.597-.981zm-7.46 29.525c.59-.067 1.005-.111 1.418-.162 1.85-.22 3.695-.465 5.547-.658 1.065-.112 1.587.213 1.648.912.055.645-.37 1.045-1.34 1.187-1.17.177-2.347.313-3.524.468l-3.433.459c.143 1.356.272 2.591.407 3.907 3.308-.546 6.52-1.055 9.726-1.614.804-.14 1.14-.716 1.03-1.629a857.046 857.046 0 00-1.058-8.31c-.02-.15-.135-.289-.234-.486-.57.055-1.116.099-1.658.163-1.347.156-2.687.35-4.034.475-.729.068-1.224-.322-1.31-.916-.08-.57.337-1.082 1.039-1.204.668-.115 1.343-.176 2.015-.265 1.241-.166 2.483-.336 3.752-.508-.02-.486-.014-.825-.055-1.154-.213-1.635-.43-3.273-.668-4.905-.224-1.54.068-2.86 1.086-4.139 3.165-3.975 6.228-8.036 9.328-12.059 1.367-1.774 1.072-2.503-1.143-2.93-3.986-.77-7.962-1.581-11.95-2.341-1.592-.302-2.728-1.082-3.23-2.673-.112-.357-.288-.689-.468-1.11-.485.055-.943.102-1.398.156-1.051.126-2.096.285-3.151.374-1.096.095-1.57-.207-1.625-.926-.054-.696.295-1.025 1.31-1.212.372-.067.756-.098 1.132-.149.947-.125 1.897-.254 2.91-.386-.104-.353-.159-.594-.247-.825-1.299-3.44-2.595-6.88-3.904-10.315-.468-1.232-.679-1.378-1.995-1.178-1.838.279-3.67.621-5.505.933-1.266.217-2.531.428-3.867.652l1.73 4.477c1.105-.149 2.065-.288 3.029-.403 1.051-.126 2.1-.255 3.155-.323.583-.037.953.32 1.03.906.075.58-.172 1-.752 1.153a10.23 10.23 0 01-1.249.218c-1.445.193-2.893.376-4.427.576 1.093 2.907 2.171 5.662 3.152 8.447.376 1.068 1.041 1.489 2.1 1.686 4.114.773 8.195 1.723 12.324 2.395 2.503.407 4.175 3.402 2.133 5.824-.478.567-.902 1.177-1.475 1.94 1.173-.129 2.093-.244 3.015-.329.92-.081 1.354.177 1.462.825.12.719-.264 1.16-1.19 1.292-1.34.19-2.694.302-4.027.533-.546.095-1.224.275-1.543.661-1.717 2.097-3.342 4.268-4.99 6.422-.095.122-.133.288-.268.593.794-.074 1.455-.129 2.117-.2 1.136-.125 2.266-.288 3.402-.383.651-.055 1.052.346 1.11.97.053.577-.282.953-.842 1.106a5.111 5.111 0 01-.743.163c-.923.112-1.852.196-2.775.315-1.204.156-2.405.336-3.663.512.546 4.373 1.082 8.606 1.635 12.992zm-13.387 2.22c-.76-.526-1.395-.936-1.992-1.39-.665-.506-1.282-.496-1.964-.014-1.306.93-2.639 1.821-3.962 2.73-.892.614-1.78 1.235-2.856 1.985.577 0 .902.044 1.218-.007 1.625-.258 3.236-.61 4.867-.794 1.9-.21 3.108-1.533 4.689-2.51z" fill="#E7E7E7"/><path d="M15.998 49.21c.305-2.307.607-4.614.912-6.92.102-.753.177-1.517.34-2.26.132-.607-.227-.956-.54-1.343-1.655-2.038-3.324-4.067-4.97-6.116-.311-.39-.633-.824-.766-1.292-.39-1.37.438-2.616 1.903-2.91 2.198-.442 4.393-.907 6.608-1.229.865-.125 1.218-.529 1.5-1.265.848-2.208 1.75-4.4 2.632-6.595.078-.196.153-.393.234-.586.417-1.008 1.174-1.544 2.263-1.523 1.034.02 1.753.56 2.14 1.512.923 2.273 1.896 4.526 2.717 6.832.373 1.052.903 1.54 2.025 1.696 2.05.282 4.078.73 6.11 1.14 2.052.414 2.788 2.27 1.506 3.915a205.671 205.671 0 01-5.058 6.208c-.57.675-.716 1.309-.573 2.19.44 2.715.763 5.449 1.12 8.176.138 1.069-.014 2.049-1.032 2.666-1.038.631-2.001.39-2.958-.25-1.757-1.178-3.558-2.297-5.312-3.481-.54-.363-.947-.35-1.476.007a220.175 220.175 0 01-5.326 3.46c-.42.264-.898.502-1.377.59-1.347.244-2.836-.858-2.622-2.622zm10.075-30.031c-.234.509-.326.688-.4.878-.98 2.43-1.978 4.848-2.931 7.287-.41 1.048-1.106 1.635-2.229 1.808-1.377.213-2.744.495-4.111.763-1.093.214-2.185.444-3.4.692.279.37.425.573.58.767 1.707 2.103 3.4 4.22 5.126 6.306.584.702.808 1.448.686 2.344-.333 2.429-.641 4.86-.954 7.293-.098.76-.173 1.523-.285 2.524 2.127-1.38 4.044-2.534 5.862-3.83 1.401-.997 2.636-1.062 4.047-.034 1.537 1.12 3.175 2.1 4.773 3.131.298.194.617.35 1.055.594-.034-.631-.03-1.093-.088-1.547-.343-2.643-.658-5.289-1.076-7.918-.162-1.017.078-1.818.71-2.574.973-1.17 1.93-2.358 2.886-3.545.9-1.11 1.791-2.222 2.775-3.443-.424-.129-.689-.234-.963-.285-2.158-.42-4.305-.879-6.476-1.221-1.248-.197-1.944-.869-2.371-1.992-.675-1.777-1.384-3.538-2.09-5.302-.329-.817-.678-1.624-1.126-2.696z" fill="#E7E7E7"/></svg>