<svg width="57" height="58" fill="none" xmlns="http://www.w3.org/2000/svg"><path d="M13.247 49.67H11.85c-3.322 0-6.645.007-9.967-.002-1.563-.003-1.88-.299-1.88-1.805-.006-13.18-.009-26.359.015-39.539 0-.532.159-1.12.418-1.583C1.522 4.787 2.687 2.874 3.793.932c.373-.657.851-.935 1.62-.932C21.84.015 38.266.012 54.694.015c1.243 0 1.58.335 1.598 1.604.024 1.68.006 3.362.006 5.041 0 9.409-.012 18.818.015 28.227.003 1.013-.287 1.748-1.051 2.44a1443.875 1443.875 0 00-12.624 11.588c-.595.55-1.214.78-2.008.77-2.839-.023-5.674.007-8.513-.02-.71-.006-1.255.173-1.796.672-2.273 2.104-4.604 4.147-6.89 6.239-.612.559-1.24.843-2.1.822-2.128-.057-4.255-.015-6.385-.021-1.408-.003-1.685-.281-1.7-1.721-.015-1.53-.003-3.063-.003-4.593.003-.406.003-.812.003-1.392zM54.088 2.245h-35.12c-4.144 0-8.291.018-12.435-.018-.69-.006-1.079.21-1.402.804-.767 1.407-1.64 2.758-2.384 4.174-.296.565-.51 1.252-.51 1.882-.03 12.361-.022 24.722-.022 37.08 0 .398.036.792.057 1.29H3.59c3.361 0 6.723-.002 10.08.004 1.563.003 1.77.206 1.782 1.733.009 1.53.003 3.062.003 4.592v1.354c2.043 0 3.91.027 5.772-.024.356-.01.756-.269 1.04-.52 2.4-2.133 4.79-4.279 7.153-6.45.532-.49 1.094-.7 1.81-.694 2.84.024 5.678-.024 8.513.03.855.015 1.473-.254 2.083-.822a1526.59 1526.59 0 0111.462-10.538c.567-.517.815-1.043.812-1.826-.024-10.27-.018-20.539-.018-30.808.006-.365.006-.732.006-1.243z" fill="#E7E7E7"/><path d="M20.98 40.811h-9.771c-.41 0-.822.01-1.231-.012-.714-.035-1.085-.424-1.112-1.138-.009-.26-.009-.523-.009-.783V7.523c0-.26.003-.523.006-.783.01-.78.428-1.156 1.184-1.189.298-.012.597-.015.896-.015H47.56c.224 0 .448-.006.672.003 1.097.054 1.39.347 1.428 1.416.006.186 0 .374 0 .56 0 8.06-.012 16.125.018 24.186.003.932-.257 1.617-.93 2.268a231.715 231.715 0 00-5.936 5.94c-.651.675-1.339.932-2.268.92-3.472-.045-6.944 0-10.413-.033-.696-.006-1.177.203-1.655.697a198.799 198.799 0 01-5.396 5.372c-.317.302-.923.499-1.357.442-.654-.09-.768-.714-.744-1.318.015-.334.003-.672.003-1.007-.003-1.338-.003-2.677-.003-4.17zM11.16 7.798v30.79h1.171c2.426 0 4.853.012 7.276-.003 3.89-.024 3.621-.161 3.603 3.556-.003.415 0 .83 0 1.243 1.56-1.285 2.893-2.59 4.174-3.941.586-.616 1.228-.876 2.077-.87 3.508.03 7.016-.003 10.523.027.688.006 1.18-.176 1.665-.678a202.494 202.494 0 015.064-5.067c.526-.508.732-1.025.73-1.754-.025-7.39-.016-14.778-.016-22.168V7.795c-12.14.003-24.145.003-36.267.003z" fill="#E7E7E7"/><path d="M33.092 22.613c0-2.202-.01-4.404.003-6.606.006-1.3.364-1.644 1.667-1.653 1.12-.006 2.241-.009 3.358 0 1.276.01 1.638.368 1.644 1.683.012 3.247.003 6.495.003 9.74 0 1.195.018 2.39-.006 3.582-.024 1.16-.41 1.54-1.56 1.557-1.156.018-2.315.015-3.472 0-1.267-.015-1.631-.391-1.637-1.7-.01-2.199 0-4.401 0-6.603zm4.371 6.024V16.64h-2.088v11.997h2.088zm-15.372-6.03c0-2.238-.009-4.476.003-6.717.006-1.187.347-1.524 1.527-1.54 1.082-.011 2.163-.005 3.245-.002 1.574.003 1.84.248 1.843 1.799.01 3.732.003 7.46.003 11.192 0 .673.015 1.345-.006 2.014-.038 1.204-.367 1.539-1.541 1.56-1.193.018-2.388.02-3.583 0-1.097-.018-1.482-.398-1.488-1.482-.012-2.271-.003-4.548-.003-6.825zm4.333 6.05V16.661h-2.03v11.996h2.03z" fill="#E7E7E7"/></svg>