<svg width="62" height="46" fill="none" xmlns="http://www.w3.org/2000/svg"><path d="M30.895.498c6.136 0 12.275-.016 18.412.006 5.77.02 10.526 3.717 11.948 9.291.244.96.379 1.974.382 2.966.032 6.896.035 13.796.013 20.693-.023 6.868-5.424 12.292-12.285 12.308-12.356.026-24.709.026-37.065 0C5.44 45.749.04 40.322.018 33.45a2973.91 2973.91 0 010-20.694C.047 5.963 5.455.568 12.242.504c.122 0 .241-.003.36-.003C18.7.495 24.797.495 30.895.498zm0 2.5c-5.98 0-11.958.013-17.937-.003-3.556-.01-6.496 1.216-8.62 4.152-1.374 1.9-1.82 4.057-1.813 6.355.016 5.818 0 11.634.01 17.452.002 1.162 0 2.33.092 3.485.218 2.744 1.49 4.952 3.601 6.682 1.951 1.598 4.25 2.15 6.727 2.147 6.662-.01 13.322-.003 19.984-.003 5.296 0 10.594-.003 15.89 0 3.514.003 6.402-1.258 8.498-4.15 1.373-1.896 1.816-4.056 1.813-6.354-.013-5.819 0-11.634-.01-17.452-.003-1.162 0-2.33-.093-3.486-.218-2.744-1.489-4.952-3.6-6.681-1.952-1.599-4.25-2.15-6.727-2.147-5.938.012-11.878.003-17.815.003z" fill="#E7E7E7"/><path d="M22.647 23.73c0-3.209-.007-6.418.003-9.627.006-1.74.866-2.237 2.378-1.355 5.5 3.21 10.998 6.425 16.49 9.65 1.46.858 1.489 1.833.06 2.674a4083.528 4083.528 0 01-16.592 9.715c-.362.211-.815.369-1.226.369-.728 0-1.104-.562-1.107-1.56-.013-3.286-.006-6.576-.006-9.865zm16.19.033c-4.611-2.7-9.024-5.283-13.475-7.886-.299 1.467-.228 14.805.086 15.723 4.43-2.597 8.842-5.177 13.39-7.837z" fill="#E7E7E7"/></svg>