<svg width="63" height="49" fill="none" xmlns="http://www.w3.org/2000/svg"><path fill-rule="evenodd" clip-rule="evenodd" d="M19.88 36.705H9l7.227 3.996a29.408 29.408 0 0115.16 7.514 29.408 29.408 0 0115.161-7.514l7.227-3.996h-10.88c-3.362 2.64-7.3 4.16-11.508 4.16-4.208 0-8.145-1.52-11.508-4.16z" fill="url(#paint0_linear_512_2200)"/><rect y=".209" width="63" height="31" rx="3" fill="url(#paint1_linear_512_2200)"/><path d="M50.53 15.303c.094 4.4-3.557 8.285-8.25 8.303-4.81.017-8.425-3.909-8.378-8.22.047-4.705 3.621-8.362 8.255-8.38 4.787-.017 8.46 3.769 8.373 8.297zm-1.047-.011c-.006-4.763-3.985-7.36-7.355-7.331-3.382.029-7.202 2.726-7.185 7.465.018 4.032 3.23 7.232 7.232 7.209 4.172-.024 7.331-3.2 7.308-7.343zM29.35 15.11V7.324c0-.368.105-.444.468-.34.257.077.41.247.45.51.018.105.012.216.012.328v15.423c0 .415-.234.544-.603.339a.573.573 0 01-.322-.491c-.005-.1-.005-.205-.005-.305v-7.676zm-3.663 8.507c-.603.129-.884-.029-1.06-.567L19.925 8.832c-.17-.52-.346-1.041-.515-1.562-.076-.222-.053-.252.187-.258.45-.011.644.123.784.545 1.416 4.259 2.826 8.519 4.236 12.778.334 1 .667 1.995.995 2.996.035.093.052.187.076.286zm-6.377-.024c-.468.176-.86 0-1.007-.433l-3.896-11.754a486.61 486.61 0 00-1.352-4.078c-.1-.293-.088-.31.222-.305.416.006.597.14.732.556.86 2.598 1.726 5.202 2.586 7.8.872 2.62 1.738 5.242 2.61 7.863.04.117.07.234.105.351zm35.684-8.184v7.963c0 .304-.1.368-.386.251a.604.604 0 01-.392-.509c-.012-.093-.012-.187-.012-.286V7.346c0-.398.117-.48.503-.357.205.064.293.187.293.421-.012 2.663-.006 5.33-.006 7.999zM9 15.245c0-2.633 0-5.266.006-7.899 0-.123.053-.24.082-.363.146.047.316.059.439.14.175.112.222.31.222.522-.006.97 0 1.942 0 2.92v12.702c0 .374-.14.468-.497.345-.158-.059-.258-.152-.252-.34.006-.292 0-.585 0-.877v-7.15z" fill="#000" stroke="#000"/><defs><linearGradient id="paint0_linear_512_2200" x1="9" y1="36.705" x2="53.774" y2="37.13" gradientUnits="userSpaceOnUse"><stop stop-color="#E12555"/><stop offset="1" stop-color="#4BA1D9"/></linearGradient><linearGradient id="paint1_linear_512_2200" x1="0" y1=".209" x2="63.003" y2=".521" gradientUnits="userSpaceOnUse"><stop stop-color="#E12555"/><stop offset="1" stop-color="#4BA1D9"/></linearGradient></defs></svg>