<svg width="897" height="172" fill="none" xmlns="http://www.w3.org/2000/svg"><path d="M810.396.27l1.813 3.32a12.56 12.56 0 0011.011 6.525h25.557V86.3h9.84V10.115h25.557c4.592 0 8.805-2.505 11.006-6.524L896.999.27h-86.603zm-350.368 0v9.845h76.185v28.241h-76.185v47.945h9.841l.005-38.099 64.064.011a12.48 12.48 0 0012.121-12.524V.269h-86.031zm-266.879.774c-4.126 1.11-7.009 4.88-7.009 9.159l.006 59.511-65.558-65.556c-2.23-2.222-5.19-3.453-8.387-3.453h-2.246v86.467l2.836-.772a9.509 9.509 0 007.012-9.16V17.728l65.539 65.546a11.9 11.9 0 008.359 3.464h2.285V.27l-2.837.774zM14.71 2.089L11.379.269v73.78c0 4.594 2.507 8.797 6.52 10.998l3.323 1.82V13.09c0-4.595-2.491-8.8-6.512-11zm331.581 36.268H312.77c-9.892 0-17.934-8.038-17.934-17.937V10.17h63.645a12.54 12.54 0 0011.034-6.589L371.3.27h-86.307v23.199c0 13.635 11.098 24.734 24.727 24.734h33.527c9.887 0 17.927 8.038 17.927 17.927v10.39H284.7l1.852 3.334A12.551 12.551 0 00297.53 86.3h73.492V63.09c0-13.635-11.093-24.734-24.731-24.734zM697.977 10.3c7.532 0 13.665 6.12 13.665 13.67v39.5c0 7.538-6.133 13.67-13.665 13.67h-39.503c-7.537 0-13.668-6.132-13.668-13.67v-39.5c0-7.549 6.131-13.668 13.668-13.668h39.503zm0-10.03h-39.503c-13.091 0-23.7 10.608-23.7 23.7v39.5c0 13.081 10.609 23.7 23.7 23.7h39.503c13.087 0 23.7-10.619 23.7-23.7v-39.5c0-13.092-10.614-23.7-23.7-23.7zM.742 138.666H4.77l4.851 21.485c.58 3.029.976 5.194 1.19 6.496h.274c.763-3.396 1.251-5.562 1.465-6.496l5.537-21.485h3.935l5.63 21.485c.426 1.783.914 3.949 1.463 6.496h.183c.031-.283.443-2.448 1.236-6.496l4.897-21.485h4.027l-8.055 31.803h-4.301l-5.537-21.231a730.095 730.095 0 01-1.373-6.241h-.183a90.378 90.378 0 01-.778 3.397c-.366 1.5-.595 2.448-.686 2.844l-5.446 21.231H8.796L.742 138.666zm72.516 31.803v-31.803h21.416v2.887H76.92v11.04h16.017v2.845H76.919v12.144H95.04v2.887H73.258zm96.982 0v-31.803h4.21l12.63 20.296 4.119 6.709h.274c-.366-2.633-.549-5.633-.549-9.002v-18.003h3.661v31.803h-4.21l-12.676-20.424-4.073-6.539h-.183a83.71 83.71 0 01.458 8.959v18.004h-3.661zm66.109-11.889h12.905l-4.027-10.7c-.244-.651-.641-1.685-1.19-3.1a253.105 253.105 0 00-1.098-3.015h-.275c-1.281 3.482-2.029 5.52-2.242 6.115l-4.073 10.7zm-8.603 11.889l12.813-31.803h4.485l12.813 31.803h-4.027l-3.478-9.172h-15.101l-3.478 9.172h-4.027zm63.272 0v-31.803h4.759l7.505 17.111a560.36 560.36 0 011.968 4.883 381.11 381.11 0 011.327 3.185h.183c.183-.425 1.296-3.114 3.34-8.068l7.46-17.111h4.85v31.803h-3.661v-17.961c0-2.293.153-5.506.458-9.639h-.183l-1.739 4.246-8.969 20.976h-3.204l-8.969-20.976-1.83-4.246h-.183c.366 4.558.549 7.771.549 9.639v17.961h-3.661zm69.45 0v-31.803h21.416v2.887h-17.755v11.04h16.016v2.845h-16.016v12.144h18.121v2.887h-21.782zm92.771-28.916v-2.887h24.529v2.887h-10.434v28.916h-3.661v-28.916h-10.434zm58.33 28.916v-31.803h3.661v14.012h16.84v-14.012h3.661v31.803h-3.661v-14.946h-16.84v14.946h-3.661zm62.265 0v-31.803h21.417v2.887h-17.756v11.04h16.017v2.845h-16.017v12.144h18.122v2.887h-21.783zm94.603-15.88c0-4.926 1.327-8.931 3.981-12.017 2.684-3.114 6.33-4.671 10.937-4.671 1.556 0 3.005.227 4.347.68 1.343.424 2.456 1.005 3.341 1.741.915.736 1.663 1.457 2.242 2.165.61.68 1.114 1.401 1.51 2.166l-3.112 1.019c-2.166-3.256-4.942-4.883-8.328-4.883-3.509 0-6.254 1.274-8.237 3.821-1.953 2.52-2.929 5.846-2.929 9.979 0 4.302 1.007 7.671 3.02 10.105 2.014 2.406 4.668 3.609 7.963 3.609 2.99 0 5.293-.905 6.91-2.717s2.425-3.949 2.425-6.412v-2.972h-9.701v-2.887h13.271v17.154h-2.655l-.274-4.671c-1.8 3.624-5.156 5.435-10.068 5.435-4.362 0-7.901-1.486-10.616-4.458-2.685-2.972-4.027-7.035-4.027-12.186zm67.848 3.991h12.904l-4.027-10.7c-.244-.651-.64-1.685-1.189-3.1a231.461 231.461 0 00-1.099-3.015h-.274c-1.282 3.482-2.029 5.52-2.243 6.115l-4.072 10.7zm-8.604 11.889l12.814-31.803h4.484l12.814 31.803h-4.027l-3.478-9.172h-15.102l-3.478 9.172h-4.027zm63.272 0v-31.803h4.76l7.505 17.111a535.102 535.102 0 011.967 4.883 342.52 342.52 0 011.327 3.185h.183c.183-.425 1.297-3.114 3.341-8.068l7.459-17.111h4.851v31.803h-3.661v-17.961c0-2.293.153-5.506.458-9.639h-.183l-1.739 4.246-8.97 20.976h-3.203l-8.969-20.976-1.831-4.246h-.183c.366 4.558.549 7.771.549 9.639v17.961h-3.661zm69.45 0v-31.803h21.417v2.887h-17.756v11.04h16.017v2.845h-16.017v12.144h18.122v2.887h-21.783z" fill="#fff"/></svg>