<svg width="49" height="49" fill="none" xmlns="http://www.w3.org/2000/svg"><path d="M40.206 48.786H8.58c-4.739 0-8.58-3.862-8.58-8.58V8.58C0 3.84 3.862 0 8.58 0h31.605c4.74 0 8.58 3.862 8.58 8.58v31.605a8.553 8.553 0 01-8.559 8.601zM8.58 2.004A6.575 6.575 0 002.004 8.58v31.605a6.575 6.575 0 006.576 6.576h31.605a6.575 6.575 0 006.576-6.576V8.58a6.575 6.575 0 00-6.576-6.576H8.58z" fill="#E7E7E7"/><path d="M24.404 35.593c-6.179 0-11.19-5.031-11.19-11.19 0-6.158 5.032-11.189 11.19-11.189 6.158 0 11.19 5.031 11.19 11.19 0 6.158-5.032 11.189-11.19 11.189zm0-20.375a9.185 9.185 0 109.185 9.185c0-5.072-4.133-9.185-9.185-9.185zm14.487-1.836a3.47 3.47 0 01-3.465-3.466c0-1.9 1.565-3.465 3.465-3.465s3.465 1.565 3.465 3.465a3.47 3.47 0 01-3.465 3.466zm0-5.178c-.94 0-1.69.773-1.69 1.691a1.71 1.71 0 001.69 1.691 1.71 1.71 0 001.691-1.69c0-.92-.752-1.692-1.69-1.692z" fill="#E7E7E7"/></svg>