<svg width="56" height="37" fill="none" xmlns="http://www.w3.org/2000/svg"><path d="M30.636 29.886a990.59 990.59 0 01-3.522 2.32c-2.314 1.532-4.648 3.086-6.962 4.618-.625.415-1.396.063-1.5-.683-.188-1.243-.417-2.465-.626-3.707-.145-.89-.312-1.76-.458-2.651-.25-1.326-.5-2.672-.73-3.997-.166-.87-.312-1.76-.458-2.651-.104-.642-.23-1.284-.334-1.906-.041-.269-.229-.372-.437-.497-.938-.497-1.876-.994-2.814-1.47-2.335-1.222-4.648-2.444-6.982-3.645a560.76 560.76 0 01-5.128-2.693c-.229-.124-.458-.29-.562-.497-.313-.538 0-1.16.625-1.304.667-.166 1.334-.29 2-.435 1.147-.228 2.314-.456 3.46-.704 1.189-.249 2.398-.477 3.586-.725 1.083-.228 2.188-.456 3.272-.684.98-.207 1.959-.393 2.939-.6 1.188-.249 2.355-.497 3.543-.746l3.376-.683c1.501-.311 3.002-.622 4.523-.932 1.146-.228 2.272-.456 3.418-.684 1.168-.248 2.335-.476 3.502-.725a260.77 260.77 0 013.835-.787l4.002-.807c1.334-.27 2.667-.56 4.001-.829 1.543-.31 3.064-.642 4.607-.953 1.25-.248 2.5-.517 3.751-.766l.438-.062c.73-.02 1.167.56.938 1.243-.271.787-.563 1.553-.855 2.32l-3.501 9.443c-.521 1.409-1.063 2.796-1.584 4.205-.5 1.346-.98 2.692-1.46 4.017-.625 1.72-1.27 3.438-1.917 5.157-.875 2.361-1.75 4.743-2.647 7.104-.333.911-.667 1.822-1 2.713-.25.683-.855 1.056-1.71.497-1.166-.766-2.334-1.512-3.5-2.278-2.002-1.305-4.023-2.61-6.024-3.894-.396-.207-.73-.414-1.105-.642zm-5.67-5.881c5.545 3.582 11.006 7.103 16.529 10.665C45.351 24.294 49.165 13.96 53 3.646c-.02-.02-.063-.041-.083-.062-9.317 6.793-18.592 13.586-27.95 20.42zm23.137-20.65c0-.02-.02-.041-.02-.083C33.305 6.296 18.548 9.34 3.688 12.385c.146.104.229.166.312.207 1.793.953 3.606 1.885 5.399 2.837 2.376 1.243 4.73 2.465 7.107 3.708.208.124.375.124.604 0 2.793-1.43 5.607-2.859 8.42-4.288 2.064-1.056 4.148-2.091 6.212-3.147 2.334-1.181 4.648-2.382 6.982-3.563 2.772-1.408 5.565-2.816 8.337-4.225.333-.186.688-.372 1.042-.559zM19.84 31.833h.104c.167-.518.313-1.035.48-1.553l1.938-6.276c.104-.352.27-.62.583-.828.459-.31.917-.663 1.376-.994 2.355-1.74 4.731-3.459 7.086-5.198 1.71-1.243 3.44-2.486 5.148-3.728 2.48-1.802 4.94-3.604 7.42-5.426.209-.145.396-.311.584-.456a.27.27 0 01-.063-.083A30908.86 30908.86 0 0017.86 20.857c.646 3.665 1.313 7.331 1.98 10.976zm4.022-6.337c-.292.973-.563 1.884-.854 2.796-.271.89-.563 1.78-.813 2.692-.271.89-.584 1.781-.792 2.692.02.021.062.042.083.042 2.46-1.636 4.94-3.273 7.462-4.95a425.31 425.31 0 01-5.086-3.272z" fill="url(#paint0_linear_154_3709)"/><defs><linearGradient id="paint0_linear_154_3709" x1="0" y1="20.597" x2="55.986" y2="21.917" gradientUnits="userSpaceOnUse"><stop stop-color="#00B0FF"/><stop offset="1" stop-color="#026B9E"/></linearGradient></defs></svg>