<svg width="58" height="45" fill="none" xmlns="http://www.w3.org/2000/svg"><path d="M25.614 43.98c-4.07-.103-8.141-.187-12.212-.354-1.837-.084-3.695-.23-5.532-.501-3.403-.48-5.49-2.526-6.534-5.74-.543-1.692-.773-3.424-.94-5.178-.5-6.012-.5-12.066-.146-18.099.146-2.505.313-5.01 1.128-7.41.855-2.485 2.338-4.343 4.822-5.345A7.852 7.852 0 018.37.831c3.09-.23 6.2-.417 9.311-.605 1.816-.105 3.653-.209 5.47-.209 4.885-.02 9.749-.042 14.634.063 3.757.083 7.536.25 11.293.542 3.006.23 5.929 2.046 7.119 5.804.542 1.712.793 3.486.96 5.281.522 6.033.501 12.066.167 18.1-.146 2.505-.313 5.01-1.127 7.41-.856 2.484-2.338 4.342-4.823 5.344-.689.272-1.44.46-2.17.522-3.007.25-6.013.48-9.04.606-4.175.167-8.37.23-12.567.334-.668 0-1.336-.021-1.983-.042 0 .02 0 .02 0 0zm4.05-1.773c6.137-.23 12.463-.439 18.809-.71 1.774-.084 3.298-.773 4.488-2.15.752-.856 1.127-1.88 1.461-2.944.877-2.839.981-5.782 1.086-8.684.167-5.428.23-10.876-.313-16.304-.188-1.816-.543-3.611-1.274-5.281-.897-2.109-2.547-3.278-4.801-3.528-1.357-.147-2.735-.21-4.113-.25-5.866-.189-11.71-.481-17.577-.481-5.74 0-11.481.334-17.222.543-.981.041-1.983.125-2.923.396-2.066.606-3.36 2.046-4.05 4.071-.876 2.547-1.022 5.219-1.169 7.87-.292 5.49-.313 11.002.147 16.492.167 1.962.354 3.924 1.002 5.803.751 2.213 2.254 3.57 4.488 4.071.981.23 2.004.334 3.027.376 6.22.25 12.462.48 18.934.71z" fill="#E7E7E7"/><path d="M21.043 22.668V12.98c0-.23-.021-.48 0-.71.083-.835.71-1.19 1.461-.835.438.21.835.48 1.253.71 5.47 3.194 10.938 6.388 16.387 9.582.188.104.376.188.543.313.668.501.647 1.232-.021 1.712-.188.146-.418.25-.626.355-5.637 3.131-11.273 6.284-16.91 9.415-.208.125-.417.25-.626.334-.835.355-1.42-.021-1.482-.919-.02-.396 0-.772 0-1.169.02-3.006.02-6.054.02-9.101zm1.983-8.726v17.472c5.114-2.839 10.146-5.636 15.28-8.496-5.155-3.048-10.165-5.97-15.28-8.976z" fill="#E7E7E7"/></svg>