<svg width="48" height="48" fill="none" xmlns="http://www.w3.org/2000/svg"><path d="M24.096 47.912c-4.322-.042-8.246-1.023-11.858-3.09-.459-.25-.835-.271-1.336-.125-2.86.898-5.761 1.754-8.621 2.651-.397.126-.752.105-1.044-.167-.313-.292-.355-.647-.23-1.085.856-2.985 1.65-5.991 2.485-8.977.104-.355.062-.605-.105-.897C1.697 33.424.652 30.376.214 27.12a23.682 23.682 0 01.271-7.954c.982-4.55 3.048-8.517 6.305-11.857 3.34-3.424 7.327-5.678 12.003-6.722a22.987 22.987 0 018.1-.397C32.78.963 37.79 3.551 41.777 7.998c3.173 3.528 5.115 7.661 5.845 12.38 1.796 11.585-5.177 22.545-15.844 26.219a25.486 25.486 0 01-7.682 1.315zM3.199 45.115c.355-.105.543-.147.731-.21 2.338-.709 4.676-1.398 6.972-2.15.69-.229 1.211-.146 1.817.21a21.246 21.246 0 008.997 2.964c3.57.355 7.077-.042 10.396-1.462 8.037-3.444 12.671-9.56 13.799-18.245.459-3.57-.084-7.056-1.44-10.396C40.44 5.722 29.69-.123 18.834 2.466 9.796 4.616 3.053 12.13 1.99 21.588c-.418 3.695.083 7.306 1.544 10.75.48 1.128 1.086 2.193 1.65 3.257.27.501.417.96.23 1.545-.356 1.106-.627 2.255-.94 3.382A355.419 355.419 0 013.2 45.115z" fill="#E7E7E7"/><path d="M8.627 17.893c.083-3.194 1.399-5.866 3.486-8.204.167-.188.439-.397.668-.418.919-.083 1.837-.167 2.735-.125.355.02.814.334 1.002.647 1.232 1.858 2.275 3.8 3.09 5.887.396 1.023.208 1.962-.355 2.839a10.813 10.813 0 01-1.295 1.628c-.355.376-.438.73-.188 1.128.585.897 1.107 1.837 1.817 2.63 2.108 2.338 4.613 4.175 7.348 5.699.772.417.898.438 1.482-.209.793-.877 1.607-1.774 2.275-2.755.71-1.023 1.712-1.378 2.986-.71.73.396 1.398.877 2.087 1.294 1.19.73 2.38 1.461 3.57 2.171.73.439.835.647.668 1.461-.438 2.338-1.336 4.426-3.32 5.908-1.21.898-2.588 1.378-4.07 1.524-5.323.564-9.958-1.169-14.091-4.384-4.07-3.173-7.035-7.223-9.04-11.982a9.438 9.438 0 01-.855-4.03zm23.84 9.477c-.376.501-.606.919-.919 1.253-.772.835-1.524 1.69-2.359 2.484-.814.752-1.732.835-2.755.313-3.507-1.816-6.618-4.154-9.102-7.265-.689-.856-1.232-1.816-1.524-2.88-.209-.773-.167-1.44.48-2.046.48-.46.898-1.002 1.295-1.545.354-.48.522-1.023.23-1.608-.836-1.607-1.67-3.235-2.527-4.822-.083-.167-.375-.313-.584-.334-.793-.083-1.524.042-1.942.877-.271.522-.668 1.002-.94 1.524-1.586 2.84-1.774 5.72-.333 8.705 1.169 2.38 2.526 4.634 4.238 6.66 3.423 4.07 7.515 7.034 12.943 7.765 1.857.25 3.715.292 5.532-.376 2.129-.793 3.84-3.11 3.82-5.24-1.837-1.127-3.654-2.275-5.553-3.465z" fill="#E7E7E7"/></svg>