<svg width="61" height="45" fill="none" xmlns="http://www.w3.org/2000/svg"><path d="M60.58 35.77c-.02-.563-.04-1.148-.062-1.711-.042-.96-.062-1.963-.146-2.965a65.09 65.09 0 00-1.795-10.605c-1.253-5.01-2.965-9.748-5.052-14.09a2.954 2.954 0 00-1.023-1.19c-1.545-1.107-3.069-2.025-4.634-2.756A26.946 26.946 0 0039.37.032c-1.064-.126-1.816.125-2.4.814-.314.355-.439.689-.376 1.002.083.292.334.522.772.689.25.083.501.167.752.271.376.125.772.271 1.148.417a25.923 25.923 0 013.465 1.608 15.54 15.54 0 01-.48-.125c-1.273-.355-2.484-.69-3.716-.94a40.095 40.095 0 00-5.49-.73 40.765 40.765 0 00-5.532 0 46.22 46.22 0 00-5.47.751c-1.231.25-2.421.564-3.694.919-.147.041-.314.083-.46.125 1.503-.835 3.09-1.524 4.885-2.13.063-.02.105-.041.167-.041.209-.063.418-.125.606-.23.25-.146.438-.376.5-.626a.618.618 0 00-.125-.543l-.083-.104c-.46-.564-.96-1.19-1.92-1.107l-.627.063c-.543.042-1.106.104-1.67.188-4.217.73-8.12 2.442-11.67 5.073a2.68 2.68 0 00-.772.918l-.292.626C6.2 8.403 5.49 9.927 4.885 11.471A72.459 72.459 0 00.835 26.19C.292 29.57.021 32.702 0 35.77c0 .564.146.982.46 1.295.27.292.563.584.834.877.627.688 1.274 1.377 1.983 1.983C6.66 42.764 10.71 44.37 15.72 44.81c.126.02.272.02.397.02.71 0 1.42-.208 1.774-1.19 0-.02.021-.062.063-.083.02-.02.02-.042.042-.063.146-.25.292-.5.459-.751.355-.585.71-1.17 1.065-1.775.208-.354.271-.647.188-.897-.084-.25-.293-.46-.669-.606-.166-.083-.354-.146-.521-.208-.084-.021-.146-.063-.23-.084a13.915 13.915 0 01-4.906-3.215c5.637 2.547 11.336 3.841 16.93 3.862h.105c5.51 0 11.105-1.252 16.68-3.695-1.42 1.399-3.111 2.443-5.157 3.194-.438.167-.856.355-.981.71s.062.752.292 1.127l.564.94c.376.605.751 1.21 1.085 1.837.355.668.856.94 1.691.877 3.925-.272 7.307-1.295 10.333-3.132 2.109-1.273 3.883-2.839 5.282-4.655.25-.418.397-.814.376-1.253zm-17.389 4.927c.167-.083.293-.146.439-.209 3.027-1.377 5.427-3.444 7.118-6.179.105-.167.188-.334.293-.522.041-.062.062-.125.104-.188.23-.417.167-.814-.188-1.127-.23-.209-.605-.376-1.127-.042l-.042.042c-.02.021-.042.021-.063.042-2.964 1.941-6.367 3.36-10.395 4.363-4.322 1.064-8.685 1.378-12.943.898-5.908-.669-10.96-2.38-15.448-5.261-.355-.23-.814-.439-1.253-.021-.48.438-.292.94-.062 1.315 1.42 2.526 3.486 4.551 6.116 6.033.418.23.856.46 1.315.668l.501.25-.25.44a30.056 30.056 0 01-1.002 1.607.732.732 0 01-.397.125c-4.927-.376-8.893-1.983-12.129-4.927-.396-.355-.751-.772-1.106-1.148l-.5-.564c-.23-.25-.335-.542-.335-.98a63.745 63.745 0 011.315-11.566A71.383 71.383 0 017.536 9.801c.104-.23.209-.459.313-.668.167-.355.334-.73.48-1.085.293-.773.814-1.378 1.587-1.9 3.194-2.108 6.367-3.444 9.728-4.05l-.209.084c-2.15.918-4.906 2.233-7.244 4.237-.396.355-.793.731-1.169 1.107l-.438.438a1.098 1.098 0 00-.25.292c-.251.376-.251.752 0 1.065.292.376.688.46 1.106.25.313-.166.647-.333.96-.5.23-.126.46-.25.71-.355 4.091-2.088 8.454-3.382 12.984-3.82 8.163-.815 15.761.647 22.609 4.362l.02.021c.23.126.46.25.69.355.375.167.75.042 1.022-.313.25-.334.25-.71 0-1.023a16.01 16.01 0 00-.98-1.064c-1.942-1.88-4.322-3.361-7.704-4.864-.209-.084-.397-.167-.605-.25.02 0 .041 0 .062.02.668.146 1.357.271 2.025.46 2.965.834 5.762 2.233 8.309 4.112.25.188.459.542.563.772 1.211 2.443 2.318 5.177 3.361 8.35a70.786 70.786 0 012.61 10.751c.459 2.86.73 5.804.793 8.747 0 .397-.084.689-.334 1.002-1.879 2.359-4.321 4.07-7.41 5.282-1.942.751-4.009 1.19-6.305 1.336-.167.02-.376-.063-.397-.105-.334-.522-.647-1.064-.981-1.628l-.25-.438c-.084-.042-.042-.063 0-.084z" fill="url(#paint0_linear_154_3703)"/><path d="M17.556 20.698c-1.607 1.274-2.442 3.048-2.505 5.26-.02 1.066.23 2.11.772 3.195.856 1.733 2.422 2.943 4.28 3.32.417.083.814.124 1.232.124a6.096 6.096 0 003.882-1.42 6.796 6.796 0 002.36-4.842 6.754 6.754 0 00-1.88-5.073c-2.233-2.317-5.657-2.547-8.14-.564zm8.246 5.26c0 1.4-.501 2.61-1.44 3.55-1.691 1.712-4.3 1.712-6.054.041-.94-.897-1.483-2.233-1.462-3.632.021-1.399.585-2.714 1.545-3.611.835-.752 1.879-1.17 2.944-1.17.208 0 .417.021.647.042a4.369 4.369 0 013.11 2.192c.48.835.689 1.67.71 2.589z" fill="url(#paint1_linear_154_3703)"/><path d="M40.144 19.425c-1.796-.271-3.612.292-5.01 1.545-1.378 1.232-2.15 3.048-2.172 4.99 0 1.94.773 3.757 2.13 4.988 1.21 1.107 2.567 1.67 4.029 1.67a7.08 7.08 0 001.148-.104c3.173-.605 5.219-3.34 5.24-6.93 0-.94-.376-2.13-.981-3.132-.96-1.649-2.568-2.755-4.384-3.027zm2.254 9.979a4.223 4.223 0 01-3.611 1.378c-1.42-.168-2.651-1.003-3.361-2.276-.46-.814-.668-1.733-.647-2.902.083-1.273.626-3.006 2.609-4.008 1.754-.897 3.883-.438 5.156 1.107 1.629 1.983 1.587 4.801-.146 6.7z" fill="url(#paint2_linear_154_3703)"/><defs><linearGradient id="paint0_linear_154_3703" x1="0" y1="24.956" x2="60.575" y2="26.23" gradientUnits="userSpaceOnUse"><stop stop-color="#5165F6"/><stop offset="1" stop-color="#001FFF"/></linearGradient><linearGradient id="paint1_linear_154_3703" x1="15.05" y1="26.726" x2="27.588" y2="26.911" gradientUnits="userSpaceOnUse"><stop stop-color="#5165F6"/><stop offset="1" stop-color="#001FFF"/></linearGradient><linearGradient id="paint2_linear_154_3703" x1="32.962" y1="26.74" x2="45.51" y2="26.925" gradientUnits="userSpaceOnUse"><stop stop-color="#5165F6"/><stop offset="1" stop-color="#001FFF"/></linearGradient></defs></svg>