<svg width="59" height="35" fill="none" xmlns="http://www.w3.org/2000/svg"><path d="M57.788 27.968c-1.63-2.271-3.308-4.591-4.912-6.813-.642-.913-1.308-1.802-1.95-2.715-.79-1.086-.79-1.456 0-2.542 2.419-3.357 4.838-6.714 7.232-10.046.938-1.308 1.061-2.64.37-3.949-.69-1.283-1.826-1.925-3.406-1.9-2.172.024-4.492.049-6.763 0-1.654-.05-2.814.617-3.678 2.073-1.53 2.542-3.11 5.11-4.665 7.602-.543.889-1.086 1.752-1.629 2.641l-.074.123c-.123.223-.271.47-.469.667-.345.37-.839.543-1.283.42-.444-.1-.815-.47-.938-.963-.099-.346-.123-.74-.123-1.136V8.667c0-1.703 0-3.455-.025-5.183-.05-2.049-1.481-3.431-3.554-3.456a648.29 648.29 0 00-9.824 0c-.494 0-.987.099-1.382.272-1.308.543-2.073 1.58-2.197 3.011-.123 1.432.47 2.567 1.703 3.307.543.321.74.667.716 1.26-.025.715-.025 1.455-.025 2.147v1.184c0 .198-.024.42-.024.617 0 .1-.025.198-.025.272v.074l-.395.197-.05-.049a1.376 1.376 0 00-.197-.148c-.148-.123-.296-.222-.395-.37-.271-.37-.518-.716-.79-1.086-.715-.963-1.456-1.95-2.048-3.012-.79-1.382-1.481-2.863-2.123-4.27-.173-.345-.32-.69-.469-1.036-.79-1.605-1.95-2.394-3.579-2.394H3.66c-.518 0-.962.074-1.308.197C1.364.57.6 1.261.253 2.175c-.395.938-.32 2.048.173 3.11 2.592 5.528 5.38 10.169 8.49 14.241 3.975 5.183 8.936 9.7 14.736 13.427 2.863 1.852 6.837 1.778 9.429-.172 1.653-1.234 2.443-2.74 2.443-4.616v-2.962c0-.32.025-.642.099-.938a1.37 1.37 0 01.913-.987c.124-.025.222-.05.346-.05.345 0 .69.149.987.395.173.149.32.346.444.519l.1.123c.592.765 1.209 1.53 1.8 2.271 1.506 1.925 3.086 3.9 4.592 5.874.987 1.309 2.221 1.901 3.875 1.876a91.272 91.272 0 013.678 0h2.517c.37 0 .765-.024 1.185-.099 1.012-.172 1.9-.74 2.419-1.604.518-.839.666-1.826.37-2.764-.222-.667-.666-1.308-1.061-1.851zm-1.21 3.356c-.32.642-.938.74-1.48.74h-.914c-1.876 0-3.801-.024-5.677.026h-.074c-.79 0-1.357-.297-1.851-.914-1.63-2.122-3.332-4.27-4.961-6.343l-1.308-1.654c-.272-.345-.543-.69-.84-1.012-1.06-1.135-2.394-1.48-3.825-.962-1.457.518-2.271 1.653-2.37 3.258-.024.642-.024 1.308-.024 1.95v.814c0 2.913-1.63 4.616-4.542 4.813-1.481.099-2.838-.271-4.171-1.135-7.504-4.838-13.551-11.157-17.97-18.759-.986-1.678-1.9-3.455-2.788-5.158-.42-.79-.815-1.555-1.234-2.345a6.049 6.049 0 01-.198-.42c-.197-.543-.173-1.061.074-1.431.247-.346.642-.543 1.16-.543 2.074-.05 4.196-.05 6.245-.025h1.086c.84 0 1.185.592 1.48 1.234.198.42.42.864.618 1.284.691 1.456 1.407 2.986 2.246 4.393.889 1.506 1.975 2.912 3.036 4.27l.123.148c.691.864 1.605 1.185 2.666.913 1.16-.296 1.827-1.012 2.024-2.196a4.12 4.12 0 00.074-.815V5.531c0-.123-.025-.271-.025-.42 0-.049-.024-.073-.024-.123-.099 0-.222-.024-.321-.024-.296-.025-.592-.05-.889-.099-.74-.123-1.184-.617-1.184-1.284 0-.715.469-1.234 1.258-1.357.198-.025.395-.025.593-.025h8.861c1.382.025 1.85.47 1.85 1.851v7.701c0 .543.05.963.124 1.333.321 1.358 1.21 2.27 2.567 2.592 1.432.345 2.666-.025 3.628-1.16.223-.272.42-.593.618-.889l1.48-2.394C43.3 8.666 44.953 6 46.533 3.384c.493-.84 1.11-1.185 2.048-1.16h6.738c.617.074 1.087.346 1.284.79.197.42.123.962-.197 1.456-.247.37-.494.716-.766 1.061-.098.148-.222.297-.32.445l-6.072 8.392c-.1.148-.222.296-.321.444-1.136 1.654-1.136 3.036 0 4.64 1.234 1.728 2.493 3.48 3.702 5.159.518.716 1.012 1.407 1.53 2.122l.519.716a71.76 71.76 0 001.604 2.197c.346.469.642 1.012.296 1.678z" fill="#E7E7E7"/></svg>