<svg width="50" height="66" fill="none" xmlns="http://www.w3.org/2000/svg"><path d="M22.962 4.288h4.15c.038-.333.09-.652.11-.972.16-2.631 2.318-4.011 4.752-2.964 3.696 1.59 7.364 3.246 11.046 4.875.35.153.704.296 1.05.455 1.7.782 2.69 2.098 2.693 3.975.007 4.756.027 9.512-.143 14.265-.05 1.441-.605 2.893-1.098 4.28-.635 1.795-1.404 3.546-2.19 5.28-.332.734-.278 1.329.076 2.03 1.985 3.933 3.9 7.9 5.912 11.82 1.054 2.05.884 3.859-.537 5.667-4.515 5.756-10.094 9.938-17.339 11.515-9.975 2.173-18.732-.367-26.232-7.217-1.496-1.367-2.77-2.982-4.083-4.536-1.35-1.594-1.452-3.342-.507-5.211 2.028-4.01 3.999-8.047 6.028-12.056.354-.697.405-1.275.072-2.005-.806-1.772-1.524-3.587-2.251-5.392-.751-1.867-1.183-3.798-1.176-5.82.01-4.121.013-8.242-.007-12.359-.01-2.063.965-3.46 2.815-4.28C9.975 3.921 13.898 2.31 17.713.471c2.631-1.268 5.29.35 5.18 3.22-.006.162.038.332.069.597zM41.98 37.595h-.245c-.133 1.245-.364 2.489-.384 3.737-.054 3.396-.017 6.796-.02 10.195 0 1.231-.276 1.7-1.003 1.744-.776.048-1.14-.49-1.143-1.744-.007-3.44.007-6.88-.003-10.321a16.786 16.786 0 011.363-6.68c1.01-2.38 1.975-4.777 2.988-7.154 1.36-3.195 1.092-6.534 1.044-9.995h-1.36c-1.614 0-3.23.014-4.84-.006-.915-.014-1.422-.456-1.378-1.122.038-.622.503-.986 1.374-.996 1.7-.02 3.4-.004 5.096-.01.364-.004.73-.052 1.149-.082 0-1.73-.027-3.342.007-4.954.027-1.309-.53-2.131-1.744-2.651C39.416 6.07 35.976 4.523 32.525 3c-.503-.221-.992-.49-1.513-.663-.924-.306-1.57.068-1.631 1.006-.133 1.976-.072 3.876 1.55 5.416 1.25 1.187 1.74 2.77 1.717 4.511-.024 1.7-.014 3.4-.004 5.097.01 1.69-.503 3.199-1.693 4.392-1.197 1.2-1.635 2.594-1.611 4.256.054 3.312.01 6.627.013 9.941.004 1.462-.56 2.659-1.737 3.509-1.424 1.03-2.981 1.183-4.559.377-1.577-.806-2.376-2.149-2.39-3.91-.027-3.484-.03-6.966 0-10.45.014-1.353-.388-2.496-1.346-3.448-1.377-1.363-1.955-3.039-1.952-4.946.004-1.53.007-3.06 0-4.586-.006-1.908.548-3.59 1.921-4.96.986-.983 1.459-2.163 1.37-3.563-.027-.422.004-.85-.006-1.275-.035-1.343-.65-1.785-1.877-1.255-3.964 1.724-7.911 3.482-11.868 5.226-1.007.445-1.48 1.237-1.486 2.311-.01 1.571 0 3.145.01 4.716 0 .156.092.31.17.547h1.404c1.57 0 3.145-.017 4.716.01.89.014 1.291.374 1.291 1.054s-.4 1.044-1.291 1.058c-1.615.027-3.23.006-4.842.013-.448.003-.9.038-1.462.061 0 1.35.01 2.574-.003 3.798-.02 2.322.401 4.545 1.326 6.684.959 2.216 1.843 4.463 2.791 6.683.966 2.261 1.38 4.62 1.38 7.065.004 3.186 0 6.371 0 9.556 0 .296.02.599-.02.891-.099.755-.503 1.156-1.119 1.153-.615-.004-1.013-.418-1.087-1.17-.031-.295-.01-.595-.01-.89-.004-3.526.02-7.051-.024-10.577-.014-.99-.228-1.972-.364-3.07-.252.187-.34.221-.37.282-1.816 3.645-3.632 7.286-5.437 10.934-.435.877-.38 1.747.262 2.498 1.24 1.449 2.41 2.982 3.8 4.277 6.916 6.446 15.072 8.812 24.315 6.847 6.953-1.478 12.28-5.548 16.486-11.181.673-.901.567-1.782.085-2.737-1.734-3.444-3.434-6.905-5.148-10.359-.078-.18-.197-.353-.302-.534zM22.785 6.597c-.347 1.543-1.278 2.716-2.247 3.91-.517.639-.813 1.597-.87 2.437-.13 1.819-.024 3.651-.048 5.477-.014 1.173.37 2.18 1.197 2.985 1.499 1.458 2.097 3.243 2.073 5.29-.01.836 0 1.673 0 2.53h4.335c0-.776.037-1.452-.007-2.125-.156-2.292.486-4.264 2.176-5.879.7-.67 1.02-1.557 1.027-2.532.013-1.955.085-3.914-.038-5.858-.047-.796-.357-1.707-.853-2.319-.969-1.193-1.9-2.373-2.274-3.92-1.517.004-2.948.004-4.47.004zm.12 25.045c0 1.887-.042 3.659.013 5.426.037 1.21.86 1.955 2.026 1.993 1.186.037 2.114-.609 2.19-1.816.115-1.84.03-3.688.03-5.6-1.425-.003-2.757-.003-4.26-.003z" fill="#E7E7E7"/><path d="M25.022 52.231c2.472 0 4.338 1.877 4.331 4.355a4.322 4.322 0 01-4.385 4.331c-2.336-.03-4.28-1.989-4.3-4.324-.018-2.424 1.916-4.359 4.354-4.362zm.034 6.45c1.21-.014 2.186-1.007 2.145-2.187-.04-1.129-1-2.084-2.125-2.114-1.183-.031-2.162.945-2.169 2.158-.01 1.258.895 2.156 2.15 2.142zm-.028-10.795c.717 0 1.435-.006 2.152.004.65.01 1.027.367 1.102.993.07.584-.395 1.084-1.105 1.104a75.353 75.353 0 01-4.305 0c-.72-.02-1.183-.513-1.101-1.108.085-.612.439-.992 1.101-.992h2.156zm3.278-32.031c0 .85.027 1.7-.007 2.546-.054 1.367-.894 2.196-2.25 2.247-.677.024-1.36.024-2.037 0-1.302-.047-2.2-.812-2.254-2.11a64.067 64.067 0 01.007-5.6c.058-1.258.914-1.979 2.176-2.037a22.93 22.93 0 012.162 0c1.38.065 2.148.867 2.193 2.282.034.89.01 1.781.01 2.672zm-2.336 2.56v-5.29h-1.924v5.29h1.924z" fill="#E7E7E7"/></svg>