<svg width="64" height="70" fill="none" xmlns="http://www.w3.org/2000/svg"><path d="M39.68 65.358c0 1.196-.019 2.191.007 3.187.014.66-.175 1.192-.835 1.4-.606.194-.989-.153-1.39-.598-.248-.273-.747-.437-1.141-.448-1.958-.044-3.92.029-5.878-.037-3.447-.116-5.66-3.31-4.431-6.374.751-1.867 2.177-2.892 4.2-2.947 2.003-.05 4.012-.025 6.014-.021.558 0 1.014-.015 1.375-.62.182-.303.846-.489 1.261-.445.624.065.825.623.817 1.232-.01 1.04-.003 2.075-.003 3.191.474.037.824.084 1.174.084 3.373.007 6.746-.091 10.116.03 4.007.141 6.943-3.425 6.042-7.425-1.838 1.506-3.971 1.706-6.196 1.619-.404-.019-.93.116-1.21.383-.62.583-1.317.77-2.119.755-.59-.011-1.185.007-1.776-.004-2.95-.07-4.824-1.93-4.886-4.909-.044-2.049-.011-4.102-.011-6.151 0-3.92.003-7.837 0-11.757-.004-1.965.62-3.72 2.465-4.53 2.108-.925 4.34-1.25 6.45.245.325.23.847.237 1.28.244 3.14.04 3.472.117 6.061 1.59v-2.53c-.043-.033-.109-.124-.182-.128-2.636-.175-3.234-.813-3.234-3.453 0-1.094-.066-2.192.025-3.279.051-.605.365-1.185.55-1.78.168-.532.504-1.086.446-1.596-.34-3.07-1.572-5.784-3.633-8.078-.317-.353-1.046-.466-1.586-.47-5.648-.033-11.3-.022-16.95-.022-6.242 0-12.485.033-18.728-.029-1.098-.011-1.772.38-2.392 1.196-1.722 2.265-2.735 4.814-3.082 7.622-.044.353.073.838.303 1.094.598.667.758 1.41.74 2.264-.029 1.229 0 2.462-.01 3.69-.015 1.937-.76 2.703-2.703 2.808-.219.011-.438.048-.722.077v2.476c.07.022.182.095.226.066 1.754-1.233 3.72-1.641 5.827-1.503.697.047 1.375.03 1.827-.638a.468.468 0 01.223-.157c1.74-.569 3.512-.536 5.215.011 1.414.452 2.352 1.535 2.745 2.994a6.28 6.28 0 01.201 1.612c.014 6.013.014 12.03.004 18.043-.008 3.078-1.835 4.92-4.909 4.982-.682.014-1.367.021-2.05-.015-.353-.018-.841-.022-1.031-.24-1.036-1.175-2.389-.876-3.672-.898-3.34-.058-6.057-2.199-6.808-5.437-.16-.7-.157-1.444-.157-2.17-.011-5.878-.008-11.756-.008-17.635v-1.484c-.5-.033-.933-.047-1.363-.098C.96 30.2.073 29.315.037 28.082a67.516 67.516 0 01.011-4.784c.018-.467.19-1.054.507-1.357.63-.601.744-1.305.81-2.09.824-9.812 9.01-18.378 18.74-19.578a34.55 34.55 0 014.08-.255C29.243-.012 34.3.003 39.358.007c10.966.007 19.93 7.319 22.103 18.029.109.536.17 1.08.23 1.622.094.897.196 1.74.915 2.455.324.32.364 1.01.386 1.535.051 1.273.03 2.553.015 3.825-.026 2.046-.733 2.772-2.768 2.885-.175.01-.346.04-.678.076v1.627c0 8.066.018 16.132-.019 24.195-.003 1.123-.12 2.29-.437 3.362-1.007 3.399-4.117 5.692-7.654 5.729-3.373.033-6.743.007-10.116.007-.496.004-.992.004-1.656.004zm19.764-44.405c-.128-.977-.204-1.867-.365-2.739-1.564-8.5-9.31-15.44-17.916-15.738-6.232-.216-12.49-.314-18.714-.015-8.504.408-14.338 4.908-17.61 12.73-.754 1.802-1.133 3.709-1.225 5.755h2.228c.062-.285.128-.5.154-.719 1.09-9.003 8.42-15.542 17.474-15.563a2048.46 2048.46 0 0116.399.003c7.935.044 14.904 5.583 16.77 13.31.234.967.387 1.951.591 2.98.7-.004 1.357-.004 2.214-.004zm-11.698 35.07V32.706c-.843 0-1.568-.051-2.29.011-1.44.12-2.229.952-2.232 2.41-.018 6.145-.018 12.29 0 18.434.004 1.462.897 2.356 2.367 2.454.678.048 1.36.008 2.155.008zm-32.477-.154c3.49.573 4.682-.372 4.606-3.643-.128-5.371-.033-10.743-.037-16.118 0-.5-.004-1.006-.08-1.495-.153-1.003-.751-1.692-1.758-1.816-.875-.11-1.776-.022-2.735-.022.004 7.753.004 15.385.004 23.094zm.346-46.676h31.817c-2.144-1.258-4.15-2.039-6.312-2.064a864.53 864.53 0 00-19.258.003c-2.151.026-4.153.814-6.247 2.06zM5.93 40.889v6.874h6.845v-6.874H5.93zm44.343 6.848h6.786v-6.815h-6.786v6.815zM37.22 61.853c-2.403 0-4.762-.069-7.118.03-1.243.05-2.082 1.137-2.07 2.322.01 1.065.812 2.177 1.859 2.218 2.443.087 4.89.029 7.446.029 0-1.28.008-2.414-.003-3.545 0-.317-.062-.623-.114-1.054zm-24.36-27.87c-4.511-.435-6.97 1.2-6.842 4.46H12.8c.026-.387.058-.697.058-1.004.004-1.123 0-2.25 0-3.457zm37.4 4.43h6.851c.033-2.757-2.414-5.426-6.852-4.31v4.31zm-37.48 16.3V50.29H5.973c.127 3.38 2.541 4.945 6.804 4.423zm44.338-4.525c-2.016 0-3.92-.004-5.823.003-.306 0-.613.052-.963.084v4.45c4.234.455 6.564-1.062 6.786-4.537zm3.498-22.28v-4.475H56.14v4.474h4.474zM2.468 23.381v4.514H6.91v-4.514H2.469z" fill="#E7E7E7"/></svg>