<svg width="71" height="71" fill="none" xmlns="http://www.w3.org/2000/svg"><path d="M9.059 28.46H2.206c-.334 0-.697.03-1.031 0-.697-.06-1.122-.455-1.152-1.152-.03-1.484-.03-2.968 0-4.422.03-.879.455-1.212 1.455-1.212 2.244-.03 4.457 0 6.701 0h.85V18.28h-6.58c-2.396 0-2.426-.06-2.426-2.393V13.16c0-1.363.333-1.696 1.667-1.696 2.305 0 4.61-.03 6.944 0 .576 0 .94-.121 1.304-.636.333-.516.91-.88 1.486-1.424V1.83c0-1.424.303-1.727 1.728-1.727h3.517c1.183 0 1.547.364 1.577 1.545v7.453h3.396V5.709c0-1.394-.03-2.787 0-4.211.03-.97.364-1.394 1.243-1.394 1.425-.03 2.88-.03 4.306 0 .88.03 1.243.424 1.243 1.394.03 2.03 0 4.09 0 6.12V9.07H31.8c.03-.333.06-.727.06-1.09V1.498c0-1.06.395-1.424 1.456-1.454 1.273-.03 2.577-.03 3.85 0 1.123.03 1.486.363 1.517 1.514.03 2.121 0 4.242 0 6.362v1.151h3.335c.03-.272.091-.575.091-.848V1.74c0-1.363.334-1.696 1.637-1.696h3.518c1.334 0 1.637.333 1.637 1.696v7.301h3.335c.03-.273.061-.606.061-.939V1.619c0-1.272.334-1.606 1.607-1.606 1.243 0 2.486-.03 3.76 0 1.061.03 1.425.394 1.455 1.455.03 2.332.03 4.695 0 7.028 0 .606.061 1.03.637 1.424.516.333.88.909 1.425 1.454h7.49c1.546 0 1.819.272 1.819 1.878v3.393c-.03 1.181-.364 1.545-1.577 1.545h-7.429v3.393h6.61c2.396 0 2.426.03 2.426 2.423v2.848c-.03 1.182-.364 1.545-1.546 1.575h-6.822c-.182 0-.364.03-.637.03v3.363h7.459c1.152 0 1.516.364 1.516 1.485a82.23 82.23 0 010 3.847c-.03 1.121-.394 1.454-1.516 1.484h-7.46v3.394h7.551c1.061 0 1.425.393 1.455 1.454a82.23 82.23 0 010 3.847c-.03 1.12-.364 1.484-1.516 1.484-2.122.03-4.245 0-6.367 0h-1.153v3.333c.334.03.637.06.97.06h6.49c1.212 0 1.576.364 1.576 1.545.03 1.242.03 2.484 0 3.757-.03 1.181-.364 1.514-1.607 1.514h-7.368c-.849.728-1.486 1.152-2.001 1.697-.212.212-.364.636-.364.94-.03 2.332 0 4.695-.03 7.027 0 1.333-.334 1.666-1.668 1.666-1.213 0-2.426.03-3.639 0-1.121-.03-1.485-.363-1.516-1.514-.03-2.302 0-4.605 0-6.938 0-.181-.03-.363-.03-.605h-3.305c-.03.333-.06.636-.06.969v6.483c0 1.212-.364 1.575-1.547 1.575a78.55 78.55 0 01-3.76 0c-1.182-.03-1.516-.363-1.516-1.605v-7.422h-3.335c-.03.303-.06.605-.06.939v6.483c0 1.272-.365 1.605-1.638 1.605-1.243 0-2.487.03-3.76 0-1.061-.03-1.425-.394-1.425-1.454-.03-2.484 0-4.998 0-7.543h-3.396v6.574c0 2.393-.061 2.423-2.396 2.423H23.37c-1.364 0-1.698-.333-1.698-1.666v-7.331h-3.396v7.452c0 1.182-.363 1.545-1.576 1.545-1.244 0-2.487.03-3.76 0-1.122-.03-1.486-.363-1.486-1.514v-7.725c-.607-.637-1.122-1.243-1.698-1.758-.243-.212-.637-.333-.97-.333-2.305-.03-4.61 0-6.944-.03-1.425 0-1.728-.303-1.759-1.727v-3.302c0-1.515.304-1.818 1.759-1.818h7.247v-3.392H1.63c-1.183 0-1.547-.364-1.547-1.576 0-1.242-.03-2.484 0-3.756.03-1.121.364-1.485 1.516-1.485 2.123-.03 4.245 0 6.368 0h1.152v-3.332a11.11 11.11 0 00-.97-.06H1.66c-1.213 0-1.577-.364-1.577-1.546-.03-1.181 0-2.332 0-3.514 0-1.424.304-1.757 1.698-1.757H9.09c-.03-.97-.03-2.03-.03-3.241zm26.167 30.657h22.165c1.061-.09 1.668-.636 1.759-1.696.03-.303 0-.606 0-.909v-43.26c-.06-1.151-.637-1.727-1.759-1.818-.212-.03-.455 0-.667 0H13.88c-1.971 0-2.456.485-2.456 2.515v42.684c0 2.03.455 2.484 2.577 2.484h21.225zM15.881 9.102V2.437h-2.123v6.665h2.123zm8.096-6.726v6.665h2.122V2.376h-2.122zm10.218 6.726h2.153V2.407h-2.153v6.695zm10.249-6.726v6.665h2.122V2.376h-2.122zm10.248 0v6.665h2.153V2.376h-2.152zM9.09 13.767H2.42v2.12h6.67v-2.12zm59.097 2.15v-2.15h-6.671v2.15h6.67zM2.357 26.098h6.671v-2.12h-6.67v2.12zm65.798.06v-2.18h-6.67v2.18h6.67zM2.358 36.337h6.67v-2.152h-6.67v2.151zm65.828-2.121h-6.702v2.12h6.702v-2.12zM2.357 46.546H9.06v-2.121H2.358v2.12zm65.829-2.091h-6.671v2.12h6.67v-2.12zM9.028 56.815v-2.12h-6.67v2.12h6.67zm59.158-.03v-2.12h-6.702v2.12h6.702zM13.758 61.45v6.665h2.123V61.45h-2.123zm12.372 0h-2.153v6.665h2.153V61.45zm8.095 0v6.665h2.123V61.45h-2.123zm12.341 6.725v-6.664h-2.122v6.664h2.122zm8.127-6.725v6.695h2.122V61.45h-2.122z" fill="#E7E7E7"/><path d="M13.668 35.246v-19.63c0-1.667.243-1.909 1.88-1.909h39.418c1.637 0 1.88.242 1.88 1.909v39.382c0 1.575-.273 1.848-1.82 1.848H15.488c-1.546 0-1.819-.273-1.819-1.848V35.246zm2.335 19.267H54.51V16.04H16.003v38.473z" fill="#E7E7E7"/></svg>