<svg width="59" height="66" fill="none" xmlns="http://www.w3.org/2000/svg"><path d="M36.993 60.932c0 1.116-.017 2.044.006 2.972.014.615-.163 1.111-.778 1.305-.564.18-.921-.142-1.295-.557-.232-.255-.697-.408-1.065-.418-1.825-.041-3.654.027-5.48-.034-3.212-.11-5.276-3.087-4.13-5.943.7-1.74 2.03-2.696 3.916-2.747 1.866-.048 3.74-.024 5.606-.02.52 0 .945-.014 1.282-.578.17-.283.789-.456 1.176-.415.581.061.768.581.762 1.149-.01.969-.004 1.934-.004 2.975.442.034.769.078 1.095.078 3.145.007 6.29-.085 9.43.027 3.737.133 6.474-3.192 5.634-6.922-1.713 1.404-3.702 1.591-5.776 1.51-.377-.017-.867.108-1.129.357-.578.544-1.227.717-1.975.703-.55-.01-1.105.007-1.656-.003-2.75-.065-4.497-1.798-4.555-4.576-.041-1.91-.01-3.825-.01-5.735 0-3.655.003-7.306 0-10.96-.004-1.833.578-3.469 2.298-4.223 1.965-.864 4.045-1.166 6.014.228.302.214.789.22 1.193.227 2.927.038 3.237.109 5.65 1.482v-2.359c-.04-.03-.102-.115-.17-.119-2.457-.163-3.015-.758-3.015-3.22 0-1.02-.061-2.043.024-3.056.047-.564.34-1.105.513-1.659.157-.496.47-1.013.415-1.489-.316-2.862-1.465-5.392-3.386-7.53-.296-.33-.976-.435-1.48-.439-5.265-.03-10.535-.02-15.8-.02-5.821 0-11.642.03-17.462-.027-1.023-.01-1.652.353-2.23 1.115-1.605 2.111-2.55 4.487-2.873 7.105-.04.33.068.782.282 1.02.558.622.708 1.316.69 2.111-.027 1.146 0 2.295-.01 3.44-.013 1.806-.707 2.52-2.519 2.618-.204.01-.408.045-.673.072v2.308c.065.02.17.089.21.062 1.636-1.15 3.469-1.53 5.434-1.401.649.044 1.281.027 1.703-.595a.437.437 0 01.207-.146c1.622-.53 3.274-.5 4.862.01 1.319.422 2.193 1.431 2.56 2.791.129.483.187 1 .187 1.503.013 5.606.013 11.215.003 16.821-.007 2.87-1.71 4.587-4.576 4.644a25.88 25.88 0 01-1.91-.013c-.33-.017-.786-.02-.963-.224-.965-1.095-2.226-.816-3.423-.837-3.114-.054-5.647-2.05-6.347-5.069-.15-.653-.147-1.346-.147-2.023-.01-5.48-.006-10.96-.006-16.44v-1.384c-.466-.03-.87-.044-1.272-.092C.895 28.156.07 27.33.035 26.18a62.945 62.945 0 01.01-4.46c.017-.436.177-.983.472-1.265.588-.561.694-1.218.755-1.948C2.04 9.359 9.672 1.373 18.743.255a32.33 32.33 0 013.804-.238c4.716-.028 9.431-.014 14.146-.01C46.916.012 55.273 6.83 57.3 16.814c.102.5.16 1.006.214 1.512.089.837.184 1.622.854 2.288.302.3.34.942.36 1.432.048 1.186.027 2.38.014 3.566-.024 1.907-.684 2.584-2.58 2.69-.164.01-.324.037-.633.07v1.517c0 7.52.017 15.04-.017 22.557-.004 1.047-.112 2.135-.408 3.134-.938 3.169-3.838 5.307-7.136 5.341-3.145.03-6.286.007-9.43.007-.463.003-.926.003-1.544.003zm18.426-41.398c-.119-.91-.19-1.74-.34-2.553C53.621 9.056 46.4 2.587 38.376 2.308c-5.81-.2-11.644-.292-17.447-.014-7.928.381-13.368 4.576-16.417 11.869-.704 1.68-1.057 3.457-1.142 5.364h2.077c.058-.265.119-.465.143-.67 1.016-8.393 7.85-14.489 16.291-14.51 5.096-.013 10.192-.023 15.288.004 7.398.041 13.895 5.205 15.636 12.41.217.9.36 1.818.55 2.777.653-.004 1.265-.004 2.064-.004zM44.513 52.23V30.491c-.785 0-1.462-.047-2.135.01-1.343.113-2.077.888-2.08 2.248a2895.51 2895.51 0 000 17.185c.003 1.364.835 2.197 2.206 2.288.632.045 1.268.007 2.009.007zm-30.278-.143c3.254.534 4.365-.346 4.294-3.396-.12-5.008-.03-10.015-.034-15.026 0-.466-.004-.939-.075-1.394-.143-.935-.7-1.578-1.639-1.694-.815-.102-1.655-.02-2.55-.02.004 7.228.004 14.344.004 21.53zm.323-43.516H44.22c-1.999-1.173-3.868-1.9-5.884-1.924a810.403 810.403 0 00-17.954.003c-2.006.024-3.873.759-5.824 1.921zm-9.03 29.55v6.409h6.382v-6.41H5.528zm41.34 6.385h6.328v-6.354h-6.327v6.354zm-12.167 13.16c-2.24 0-4.44-.064-6.636.028-1.16.047-1.941 1.06-1.931 2.165.01.993.758 2.03 1.734 2.067 2.278.082 4.559.027 6.942.027 0-1.193.007-2.25-.003-3.304 0-.296-.058-.582-.106-.983zM11.988 31.681C7.782 31.277 5.49 32.8 5.61 35.84h6.324c.023-.36.054-.65.054-.935.003-1.047 0-2.097 0-3.223zm34.867 4.131h6.388c.03-2.57-2.25-5.059-6.388-4.018v4.018zM11.913 51.01v-4.124H5.57c.12 3.151 2.37 4.61 6.344 4.124zm41.337-4.22c-1.88 0-3.655-.003-5.43.004-.285 0-.57.048-.897.078v4.148c3.947.425 6.12-.99 6.327-4.23zm3.26-20.772v-4.17h-4.17v4.17h4.171zM2.302 21.8v4.208h4.14v-4.209h-4.14z" fill="#E7E7E7"/></svg>