<svg width="2201" height="17" fill="none" xmlns="http://www.w3.org/2000/svg"><path fill-rule="evenodd" clip-rule="evenodd" d="M.034 1.115l.503.275c.607.333.982.969.982 1.663l-.01 11.143-.501-.275a1.893 1.893 0 01-.983-1.662L.034 1.115zm79.152.566l-.274-.501 13.08.01-.275.502c-.333.606-.97.984-1.663.984l-3.86-.004-.01 11.508-1.486-.002.01-11.507-3.86-.003c-.694 0-1.33-.38-1.662-.987zm-36.468.956l.001-1.487 12.994.011-.004 5.35a1.885 1.885 0 01-1.833 1.89L44.2 8.39l-.005 5.755-1.487-.002.006-7.241 11.507.01.004-4.266-11.507-.01zm-23.59-1.389a1.435 1.435 0 00-1.06 1.383l-.007 8.988-9.894-9.91a1.778 1.778 0 00-1.266-.522h-.339l-.01 13.06.428-.117a1.436 1.436 0 001.06-1.382l.007-8.989 9.891 9.908c.332.333.792.524 1.262.524h.345l.011-13.06-.429.117zm14.76 5.662l-5.063-.005a2.71 2.71 0 01-2.706-2.71v-1.55l9.614.008c.696 0 1.335-.38 1.667-.994l.27-.5-13.036-.01-.003 3.503a3.74 3.74 0 003.732 3.74l5.064.003a2.71 2.71 0 012.706 2.71l-.002 1.57-11.55-.01.279.504c.332.6.968.975 1.657.975l11.1.01.003-3.506a3.74 3.74 0 00-3.732-3.74zm38.465-2.143a2.065 2.065 0 00-2.062-2.066l-5.966-.005a2.066 2.066 0 00-2.067 2.063l-.004 5.966a2.066 2.066 0 002.063 2.066l5.966.005a2.067 2.067 0 002.066-2.063l.004-5.966zM64.326 1.18l5.966.005a3.58 3.58 0 013.577 3.582l-.005 5.967a3.58 3.58 0 01-3.582 3.576l-5.967-.005a3.58 3.58 0 01-3.576-3.582l.004-5.967a3.58 3.58 0 013.583-3.576z" fill="url(#paint0_linear_511_2065)"/><path fill-rule="evenodd" clip-rule="evenodd" d="M348.69 4.954a2.066 2.066 0 00-2.062-2.066l-5.967-.005a2.066 2.066 0 00-2.066 2.063l-.005 5.966a2.067 2.067 0 002.063 2.066l5.966.005a2.067 2.067 0 002.066-2.063l.005-5.966zm-8.028-3.586l5.967.005a3.58 3.58 0 013.577 3.582l-.005 5.966a3.581 3.581 0 01-3.583 3.577l-5.966-.005a3.58 3.58 0 01-3.577-3.582l.005-5.967a3.578 3.578 0 013.582-3.576zm-21.617 1.47l.002-1.487 12.994.01-.005 5.35a1.885 1.885 0 01-1.832 1.89l-9.676-.009-.006 5.754h-1.486l.006-7.242 11.507.009.003-4.265-11.507-.01zm36.476-.955l-.274-.502 13.081.011-.276.501a1.894 1.894 0 01-1.663.984l-3.86-.003-.009 11.507h-1.486l.009-11.508-3.86-.003c-.694 0-1.33-.38-1.662-.987zm-60.065-.433a1.436 1.436 0 00-1.06 1.382l-.006 8.989-9.894-9.91a1.776 1.776 0 00-1.266-.522h-.339l-.011 13.06.429-.117a1.437 1.437 0 001.06-1.383l.007-8.988 9.891 9.908c.332.332.792.524 1.262.524h.345l.011-13.06-.429.117zm-19.091-.13l.503.276c.607.333.982.968.982 1.662l-.009 11.144-.502-.276a1.892 1.892 0 01-.983-1.662l.009-11.143zm33.859 5.777l-5.063-.004a2.71 2.71 0 01-2.706-2.712l.001-1.548 9.613.008c.696 0 1.335-.38 1.667-.994l.27-.5-13.035-.01-.003 3.503a3.74 3.74 0 003.732 3.74l5.063.003a2.71 2.71 0 012.706 2.71l-.001 1.57-11.551-.01.279.504c.333.6.968.975 1.658.975l11.1.01.003-3.506a3.741 3.741 0 00-3.733-3.74z" fill="url(#paint1_linear_511_2065)"/><path fill-rule="evenodd" clip-rule="evenodd" d="M552.686 1.604l.502.276c.607.332.983.968.983 1.662l-.009 11.143-.502-.275a1.895 1.895 0 01-.984-1.662l.01-11.144zm79.155.567l-.274-.502 13.081.01-.275.502c-.333.607-.97.985-1.664.984l-3.86-.003-.009 11.507-1.486-.001.009-11.507-3.86-.003c-.693 0-1.33-.38-1.662-.987zm-36.472.956l.001-1.487 12.994.01-.005 5.35a1.884 1.884 0 01-1.832 1.89l-9.676-.01-.005 5.755-1.487-.001.006-7.242 11.507.01.003-4.266-11.506-.01zm-23.59-1.388a1.436 1.436 0 00-1.06 1.383l-.006 8.989-9.894-9.91a1.776 1.776 0 00-1.266-.523h-.339l-.011 13.06.429-.116a1.437 1.437 0 001.06-1.383l.007-8.989 9.891 9.908a1.8 1.8 0 001.262.525h.345l.011-13.06-.429.116zm14.765 5.652l-5.063-.004a2.71 2.71 0 01-2.706-2.712l.001-1.548 9.613.008c.696 0 1.335-.38 1.667-.994l.27-.5-13.036-.01-.003 3.504a3.741 3.741 0 003.732 3.739l5.064.004a2.711 2.711 0 012.706 2.71l-.002 1.569-11.55-.01.279.504c.332.6.968.975 1.657.975l11.1.01.003-3.506a3.74 3.74 0 00-3.732-3.74zm38.463-2.143a2.066 2.066 0 00-2.062-2.066l-5.967-.005a2.066 2.066 0 00-2.066 2.063l-.005 5.966a2.066 2.066 0 002.063 2.067l5.966.005a2.067 2.067 0 002.066-2.063l.005-5.967zm-8.028-3.586l5.967.005a3.58 3.58 0 013.576 3.583l-.004 5.966a3.581 3.581 0 01-3.583 3.577l-5.966-.005a3.58 3.58 0 01-3.577-3.583l.005-5.966a3.578 3.578 0 013.582-3.577z" fill="url(#paint2_linear_511_2065)"/><path fill-rule="evenodd" clip-rule="evenodd" d="M908.175 2.381l-.274-.501 13.081.01-.275.502c-.333.606-.97.984-1.663.984l-3.861-.003-.009 11.507-1.486-.002.009-11.507-3.86-.003c-.693 0-1.329-.38-1.662-.987zm-36.477.956l.002-1.487 12.994.01-.005 5.35a1.885 1.885 0 01-1.832 1.89l-9.676-.009-.006 5.755-1.486-.002.006-7.241 11.507.01.003-4.266-11.507-.01zm-23.587-1.389a1.434 1.434 0 00-1.059 1.383l-.007 8.988-9.893-9.91a1.78 1.78 0 00-1.267-.522h-.339l-.011 13.06.429-.117a1.435 1.435 0 001.06-1.382l.007-8.989 9.891 9.908c.332.333.792.524 1.262.524h.346l.01-13.06-.429.117zm-19.094-.122l.502.275c.608.333.983.968.983 1.662l-.009 11.144-.502-.276a1.892 1.892 0 01-.983-1.662l.009-11.143zm33.86 5.776l-5.063-.004a2.71 2.71 0 01-2.706-2.712l.001-1.548 9.613.008c.696 0 1.335-.38 1.667-.994l.27-.5-13.035-.01-.003 3.503a3.74 3.74 0 003.731 3.74l5.064.003a2.71 2.71 0 012.706 2.71l-.002 1.57-11.55-.01.279.504c.332.6.968.975 1.658.975l11.1.01.003-3.506a3.741 3.741 0 00-3.733-3.74zm38.464-2.138a2.065 2.065 0 00-2.062-2.066l-5.966-.005a2.065 2.065 0 00-2.066 2.062l-.005 5.967a2.066 2.066 0 002.063 2.066l5.966.005a2.067 2.067 0 002.066-2.063l.004-5.966zm-8.027-3.586l5.966.004a3.58 3.58 0 013.577 3.583l-.005 5.966a3.58 3.58 0 01-3.582 3.577l-5.967-.005a3.58 3.58 0 01-3.576-3.582l.004-5.967a3.58 3.58 0 013.583-3.576z" fill="url(#paint3_linear_511_2065)"/><path fill-rule="evenodd" clip-rule="evenodd" d="M1184.5 2.586l-.27-.501 13.08.01-.28.502a1.89 1.89 0 01-1.66.984l-3.86-.003-.01 11.507-1.48-.002.01-11.507-3.86-.003c-.7 0-1.33-.38-1.67-.987zm-36.47.956V2.055l12.99.01v5.35c0 1.027-.81 1.859-1.84 1.89l-9.67-.009-.01 5.755-1.48-.002V7.808l11.51.01V3.551l-11.5-.01zm-23.59-1.387c-.62.167-1.06.736-1.06 1.383l-.01 8.988-9.89-9.91a1.78 1.78 0 00-1.27-.522h-.34l-.01 13.06.43-.117a1.44 1.44 0 001.06-1.382l.01-8.989 9.89 9.908c.33.333.79.524 1.26.524h.35l.01-13.06-.43.117zm-19.09-.133l.5.275c.61.333.98.969.98 1.663l-.01 11.143-.5-.275c-.6-.333-.98-.968-.98-1.662l.01-11.144zm33.86 5.783l-5.07-.004a2.709 2.709 0 01-2.7-2.712V3.541l9.61.008c.7 0 1.34-.38 1.67-.994l.27-.5-13.04-.01v3.504a3.738 3.738 0 003.73 3.738l5.07.005a2.708 2.708 0 012.7 2.71v1.569l-11.55-.01.28.504c.33.6.97.975 1.66.975l11.1.01v-3.506a3.74 3.74 0 00-3.73-3.74zm38.46-2.143c0-1.14-.92-2.065-2.06-2.066l-5.97-.005a2.065 2.065 0 00-2.06 2.063l-.01 5.966c0 1.139.93 2.066 2.07 2.066l5.96.005a2.068 2.068 0 002.07-2.063V5.662zm-8.03-3.586l5.97.005a3.581 3.581 0 013.58 3.582l-.01 5.966c0 1.976-1.6 3.579-3.58 3.577l-5.97-.005a3.58 3.58 0 01-3.57-3.582V5.653a3.58 3.58 0 013.58-3.577z" fill="url(#paint4_linear_511_2065)"/><path fill-rule="evenodd" clip-rule="evenodd" d="M1424.36 3.757V2.27l12.99.01v5.35c0 1.027-.81 1.859-1.83 1.89l-9.68-.01v5.755h-1.49V8.022l11.51.009V3.766l-11.5-.009zm36.47-.955l-.27-.502 13.08.011-.27.501c-.34.607-.97.985-1.67.984l-3.86-.003-.01 11.507h-1.48l.01-11.508-3.86-.003c-.7 0-1.33-.38-1.67-.987zm-60.06-.432c-.63.167-1.06.736-1.06 1.382l-.01 8.989-9.89-9.91a1.797 1.797 0 00-1.27-.522h-.34l-.01 13.06.43-.117a1.44 1.44 0 001.06-1.383l.01-8.988 9.89 9.908c.33.332.79.524 1.26.524h.35l.01-13.06-.43.117zm-19.1-.133l.51.275c.6.333.98.968.98 1.662l-.01 11.144-.5-.276a1.893 1.893 0 01-.99-1.662l.01-11.143zm33.86 5.79l-5.06-.004a2.717 2.717 0 01-2.71-2.711l.01-1.548 9.61.008c.7 0 1.33-.381 1.67-.994l.27-.5-13.04-.01V5.77c0 2.06 1.67 3.737 3.73 3.739l5.06.004a2.71 2.71 0 012.71 2.71v1.57l-11.55-.01.28.504c.33.6.96.974 1.65.975l11.1.009.01-3.506c0-2.06-1.68-3.737-3.74-3.739zM1454 5.884c0-1.14-.92-2.065-2.06-2.066l-5.96-.005c-1.14 0-2.07.923-2.07 2.063l-.01 5.967c0 1.138.93 2.065 2.07 2.066l5.96.005a2.07 2.07 0 002.07-2.063V5.884zm-8.02-3.586l5.96.005a3.581 3.581 0 013.58 3.583l-.01 5.966c0 1.976-1.6 3.578-3.58 3.577l-5.96-.005a3.582 3.582 0 01-3.58-3.583V5.875a3.59 3.59 0 013.59-3.577z" fill="url(#paint5_linear_511_2065)"/><path fill-rule="evenodd" clip-rule="evenodd" d="M1737.17 3l-.27-.501 13.08.01-.28.502a1.89 1.89 0 01-1.66.984l-3.86-.003-.01 11.507-1.49-.002.01-11.507-3.86-.003c-.69 0-1.33-.38-1.66-.986zm-36.47.956V2.47l12.99.011v5.35c0 1.026-.81 1.858-1.83 1.89l-9.68-.01-.01 5.755-1.48-.002V8.222l11.51.01V3.965l-11.5-.01zm-23.6-1.389c-.62.168-1.06.736-1.06 1.383v8.988l-9.9-9.91a1.757 1.757 0 00-1.26-.522h-.34l-.01 13.06.43-.117a1.44 1.44 0 001.06-1.382V5.078l9.89 9.908c.34.333.8.524 1.27.524h.34l.01-13.06-.43.117zm-19.09-.13l.5.275c.61.333.99.969.99 1.663l-.01 11.143-.5-.275a1.893 1.893 0 01-.99-1.662l.01-11.144zm33.87 5.778l-5.07-.004a2.702 2.702 0 01-2.7-2.712V3.951l9.61.008c.7 0 1.33-.38 1.67-.994l.27-.5-13.04-.01v3.504c0 2.06 1.67 3.737 3.73 3.739l5.06.004a2.71 2.71 0 012.71 2.71v1.569l-11.55-.01.28.504c.33.6.96.975 1.65.976l11.1.008.01-3.505c0-2.06-1.68-3.737-3.73-3.739zm38.46-2.142a2.07 2.07 0 00-2.06-2.066l-5.97-.005c-1.14 0-2.06.923-2.07 2.063v5.966c0 1.139.92 2.066 2.06 2.066l5.97.005a2.06 2.06 0 002.06-2.063l.01-5.966zm-8.03-3.586l5.97.005a3.573 3.573 0 013.57 3.582v5.967a3.582 3.582 0 01-3.58 3.576l-5.97-.004a3.582 3.582 0 01-3.58-3.583l.01-5.966c0-1.978 1.6-3.579 3.58-3.577z" fill="url(#paint6_linear_511_2065)"/><path d="M105.817 14.095c-.552 0-.828-.316-.828-.948l.009-11.152c.001-.644.264-.966.791-.966.579 0 .868.323.867.968l-.003 4.243 6.868.006.004-4.244c0-.644.277-.967.83-.966.552 0 .828.323.828.968l-.009 11.152c-.001.631-.277.947-.83.946-.553 0-.829-.316-.828-.948l.004-5.25-6.869-.006-.004 5.25c0 .632-.277.948-.83.947zm12.077.188a.855.855 0 01-.582-.218.627.627 0 01-.246-.493c0-.198.023-.362.069-.494l4.717-11.898 1.777.002 4.698 11.905c.046.132.068.296.068.494 0 .19-.082.355-.247.493a.852.852 0 01-.582.217c-.408 0-.688-.211-.839-.633l-1.329-3.415-5.329-.005-1.335 3.424c-.178.414-.458.621-.84.62zm2.847-5.702l3.987.003-2.009-4.916-1.978 4.913zm16.571 5.54a.766.766 0 01-.591-.247c-.145-.165-.217-.385-.217-.662l.009-10.599c0-.27.076-.496.227-.68.152-.191.365-.286.642-.286.526 0 .789.323.789.968l-.004 4.579 1.579.001c.177 0 .378-.089.602-.266.224-.184.487-.48.79-.888.303-.414.662-.97 1.077-1.666.139-.23.307-.5.504-.81.198-.315.425-.617.682-.907.263-.296.56-.539.889-.73a2.14 2.14 0 011.105-.294c.685 0 1.026.296 1.026.889 0 .315-.099.513-.297.591-.19.08-.434.138-.73.178-.283.039-.54.2-.77.482-.224.277-.514.7-.87 1.273-.303.493-.546.888-.731 1.184-.178.295-.336.542-.474.74a4.425 4.425 0 01-.494.581 12.73 12.73 0 01-.77.69l-.04-.513c.408.33.766.675 1.075 1.037.316.356.595.711.838 1.067.243.355.467.694.671 1.017.348.533.63.925.847 1.175.224.243.467.392.73.445l.385.079a.834.834 0 01.434.208c.125.111.187.299.187.562 0 .54-.323.81-.968.809-.48 0-.976-.16-1.489-.475-.507-.323-.997-.804-1.47-1.442l-.483-.692c-.21-.316-.404-.605-.581-.869-.401-.605-.746-1.056-1.035-1.352-.283-.297-.563-.445-.839-.445l-1.382-.001-.003 4.362c0 .263-.079.48-.237.65-.152.172-.356.257-.613.257zm10.998.187a.855.855 0 01-.582-.218.627.627 0 01-.246-.494c0-.197.023-.361.069-.493l4.718-11.898 1.776.001 4.698 11.906c.046.132.069.296.068.494 0 .19-.082.355-.247.493a.85.85 0 01-.582.216c-.408 0-.687-.21-.838-.632l-1.33-3.416-5.329-.004-1.335 3.424c-.178.414-.458.62-.84.62zm2.847-5.702l3.987.003-2.009-4.916-1.978 4.913zm10.385 5.534c-.553 0-.829-.303-.828-.908l.009-11.132c0-.658.264-.987.79-.986l3.77.003c1.697.001 2.921.249 3.67.743.75.494 1.124 1.3 1.123 2.419 0 1.085-.33 1.92-.988 2.506-.652.578-1.606.867-2.863.866l-3.849-.003-.005 5.585c0 .606-.277.908-.829.908zm.835-8.15l2.902.002c.724 0 1.316-.029 1.776-.087.467-.06.81-.204 1.027-.434.224-.236.336-.615.336-1.134.001-.421-.088-.744-.265-.968-.171-.224-.483-.378-.937-.464-.454-.086-1.099-.13-1.935-.13l-2.901-.003-.003 3.218zm13.358 8.162c-.283 0-.507-.082-.671-.247-.158-.158-.237-.378-.236-.661l.008-10.363-2.842-.002c-.296 0-.533-.073-.711-.218-.171-.151-.256-.355-.256-.612 0-.256.086-.457.257-.602.178-.15.415-.226.711-.226l7.52.006c.645 0 .967.277.967.83-.001.553-.323.829-.968.828l-2.803-.002-.008 10.362a.851.851 0 01-.267.651c-.178.171-.412.256-.701.256zm7.471-.132c-.526 0-.789-.33-.789-.987l.009-10.817c.001-.658.264-.986.791-.986l8.408.007c.658 0 .986.29.986.87 0 .526-.33.788-.988.788l-7.539-.006-.003 3.118 5.112.004c.737.001 1.105.29 1.105.87-.001.526-.369.789-1.106.788l-5.112-.004-.004 4.698 7.54.006c.658 0 .986.29.986.87 0 .526-.33.788-.988.788l-8.408-.007zm18.794.154c-.552 0-.829-.317-.828-.948l.009-11.152c.001-.645.264-.967.79-.967.323 0 .606.168.849.504l3.647 5.115 3.675-5.109c.238-.335.514-.503.83-.503.539 0 .809.324.808.968l-.009 11.152c0 .632-.277.947-.83.947-.552 0-.828-.336-.828-1.007l.008-9.198-2.935 4.162c-.112.164-.22.273-.326.325a.929.929 0 01-.375.07c-.151 0-.283-.024-.394-.07-.106-.053-.214-.162-.326-.326l-2.927-4.167-.008 9.198c-.001.67-.277 1.006-.83 1.006zm13.666.011c-.54 0-.809-.317-.809-.948l.009-11.152c.001-.645.278-.967.83-.967.553 0 .829.343.828 1.027l-.007 9.09 6.896-9.607c.251-.335.534-.503.849-.503.527 0 .79.323.789.968l-.009 11.152c-.001.632-.277.947-.83.947-.552 0-.828-.297-.828-.89l.007-9.207-6.817 9.548c-.158.223-.296.368-.415.433-.112.073-.276.109-.493.109zm13.281.01c-.553 0-.829-.303-.828-.908l.009-11.132c0-.658.264-.987.79-.986l3.77.003c1.697.001 2.921.249 3.67.743.75.494 1.124 1.3 1.124 2.419-.001 1.085-.331 1.92-.989 2.505-.652.579-1.606.868-2.863.867l-3.849-.004-.004 5.586c-.001.605-.278.908-.83.907zm.835-8.15l2.902.002c.724 0 1.316-.029 1.776-.088.468-.058.81-.203 1.027-.433.224-.237.336-.615.337-1.135 0-.42-.089-.743-.266-.967-.171-.224-.483-.379-.937-.465-.454-.085-1.099-.129-1.934-.13l-2.902-.002-.003 3.217zm9.43 8.337a.851.851 0 01-.582-.218.625.625 0 01-.247-.494c.001-.197.024-.362.07-.493l4.717-11.898 1.776.001 4.698 11.906c.046.132.069.296.069.494 0 .19-.083.355-.247.493a.854.854 0 01-.583.216c-.408 0-.687-.21-.838-.632l-1.33-3.416-5.329-.004-1.335 3.423c-.178.415-.458.622-.839.622zm2.847-5.702l3.987.003-2.01-4.917-1.977 4.914zm22.451-4.285c.329-.322.655-.322.977 0 .329.33.328.656-.001.978l-5.175 5.177c-.329.322-.655.322-.977-.001-.329-.33-.329-.655.001-.977l5.175-5.177zm-5.379.913c-.322-.329-.322-.654.001-.977.329-.328.654-.328.977.001l5.177 5.176c.322.329.321.655-.001.977-.33.328-.655.328-.977-.001l-5.177-5.176zm123.014 9.012c-.552 0-.828-.316-.828-.948l.009-11.152c.001-.645.264-.967.791-.966.579 0 .868.323.867.967l-.003 4.244 6.869.006.003-4.244c.001-.645.277-.967.83-.966.552 0 .829.323.828.967l-.009 11.152c-.001.632-.277.947-.83.947-.552 0-.829-.316-.828-.948l.004-5.25-6.868-.006-.005 5.25c0 .632-.277.947-.83.947zm12.077.188a.855.855 0 01-.582-.218.627.627 0 01-.246-.494c0-.197.023-.362.069-.493l4.718-11.898 1.776.001 4.698 11.906c.046.132.069.296.068.494 0 .19-.082.355-.247.493a.85.85 0 01-.582.216c-.408 0-.688-.21-.839-.632l-1.329-3.416-5.329-.004-1.335 3.424c-.178.414-.458.62-.84.62zm2.847-5.702l3.987.003-2.009-4.916-1.978 4.913zm16.572 5.54a.766.766 0 01-.592-.248c-.145-.164-.217-.385-.217-.66l.009-10.6c0-.27.076-.497.227-.68.152-.192.366-.287.642-.287.526 0 .789.323.789.968l-.004 4.58h1.579c.178 0 .378-.088.602-.265.224-.184.487-.48.79-.888.303-.414.662-.97 1.077-1.667.139-.23.307-.5.504-.809.198-.315.425-.618.682-.907.264-.296.56-.54.889-.73a2.14 2.14 0 011.105-.295c.685 0 1.027.297 1.026.89 0 .315-.099.512-.296.591a2.972 2.972 0 01-.731.177c-.283.04-.54.2-.77.483-.224.276-.514.7-.87 1.273-.303.493-.546.887-.731 1.183-.178.296-.336.543-.474.74a4.35 4.35 0 01-.494.582c-.184.184-.441.414-.77.69l-.039-.513c.407.33.765.675 1.074 1.037.316.355.595.711.838 1.066.244.356.467.695.671 1.018.348.533.631.924.847 1.175.224.243.467.391.73.444.099.02.227.046.385.08a.836.836 0 01.434.207c.125.112.188.3.187.563 0 .54-.323.809-.967.808-.481 0-.977-.158-1.49-.475-.507-.322-.996-.803-1.47-1.442-.105-.151-.266-.382-.483-.69-.21-.317-.404-.606-.581-.87-.401-.605-.746-1.056-1.035-1.353-.283-.296-.562-.444-.839-.444l-1.381-.002-.004 4.362c0 .264-.079.48-.237.652a.777.777 0 01-.612.256zm10.997.186a.855.855 0 01-.582-.217.627.627 0 01-.246-.494c0-.197.023-.362.07-.493l4.717-11.898 1.776.001 4.698 11.906c.046.131.069.296.069.493a.628.628 0 01-.248.493.85.85 0 01-.582.217c-.408 0-.687-.211-.838-.632l-1.33-3.416-5.329-.004-1.335 3.423c-.178.415-.458.622-.84.621zm2.847-5.702l3.987.004-2.009-4.917-1.978 4.913zm10.385 5.535c-.553 0-.829-.303-.828-.908l.009-11.132c0-.658.264-.987.79-.987l3.77.003c1.697.002 2.921.25 3.67.744.75.494 1.124 1.3 1.124 2.418-.001 1.086-.331 1.921-.989 2.506-.652.579-1.606.867-2.863.866l-3.849-.003-.004 5.586c-.001.605-.278.908-.83.907zm.835-8.15l2.902.002c.724 0 1.316-.029 1.776-.088.468-.058.81-.203 1.027-.433.224-.237.336-.615.337-1.135 0-.42-.089-.743-.266-.967-.171-.224-.483-.379-.937-.465-.454-.086-1.099-.129-1.934-.13l-2.902-.002-.003 3.217zm13.358 8.162c-.283 0-.507-.083-.671-.247-.158-.158-.237-.379-.236-.662l.008-10.362-2.842-.002c-.296 0-.533-.073-.711-.218-.171-.152-.256-.356-.256-.612.001-.257.086-.457.257-.602.178-.151.415-.227.711-.226l7.52.006c.645 0 .967.277.967.83-.001.552-.323.828-.968.828l-2.803-.003-.008 10.363a.851.851 0 01-.267.65c-.178.172-.412.257-.701.257zm7.471-.132c-.526 0-.789-.33-.788-.988l.008-10.816c.001-.658.264-.987.791-.986l8.408.007c.658 0 .987.29.986.869 0 .526-.329.79-.987.789l-7.54-.007-.003 3.119 5.112.004c.737 0 1.105.29 1.105.87-.001.526-.369.789-1.106.788l-5.112-.004-.004 4.698 7.54.006c.658 0 .987.29.986.869 0 .526-.33.79-.987.789l-8.409-.007zm18.794.153c-.552 0-.828-.316-.828-.948l.009-11.152c.001-.644.264-.967.79-.966.323 0 .606.168.849.504l3.647 5.115 3.675-5.11c.238-.335.514-.502.83-.502.539 0 .809.323.808.968l-.009 11.152c0 .631-.277.947-.829.947-.553 0-.829-.337-.829-1.008l.008-9.198-2.935 4.163c-.112.164-.22.273-.326.325a.929.929 0 01-.375.069c-.151 0-.283-.023-.394-.07-.106-.052-.214-.16-.326-.325l-2.927-4.167-.008 9.197c0 .671-.277 1.007-.83 1.006zm13.666.012c-.54-.001-.809-.317-.809-.949l.01-11.152c0-.644.277-.966.829-.966.553 0 .829.343.828 1.027l-.007 9.09 6.896-9.607c.251-.336.534-.503.849-.503.527 0 .79.323.789.968l-.009 11.152c0 .631-.277.947-.83.946-.552 0-.828-.296-.828-.889l.008-9.207-6.818 9.547c-.158.224-.296.368-.415.434-.111.072-.276.108-.493.108zm13.281.01c-.553 0-.829-.303-.828-.908l.009-11.133c0-.657.264-.986.79-.986l3.77.003c1.697.002 2.921.25 3.671.743.749.494 1.124 1.3 1.123 2.42-.001 1.085-.331 1.92-.989 2.505-.652.579-1.606.867-2.863.866l-3.849-.003-.004 5.586c-.001.605-.277.908-.83.907zm.836-8.15l2.901.002c.724 0 1.316-.029 1.776-.088.468-.059.81-.203 1.027-.433.224-.237.336-.615.337-1.135 0-.421-.089-.743-.266-.967-.171-.224-.483-.379-.937-.465-.454-.086-1.099-.13-1.934-.13l-2.902-.002-.002 3.217zm9.429 8.336a.852.852 0 01-.582-.217.621.621 0 01-.246-.494c0-.197.023-.362.069-.493l4.717-11.898h1.777l4.697 11.907c.046.131.069.296.069.493 0 .19-.083.355-.247.493a.854.854 0 01-.583.217c-.407 0-.687-.211-.838-.632l-1.329-3.416-5.33-.004-1.335 3.423c-.178.414-.457.622-.839.621zm2.847-5.702l3.987.004-2.009-4.917-1.978 4.913zm22.451-4.284c.329-.322.655-.322.977 0 .329.33.329.655-.001.977l-5.175 5.177c-.329.323-.655.322-.977 0-.329-.33-.329-.655.001-.977l5.175-5.177zm-5.379.913c-.322-.33-.322-.655.001-.977.329-.329.655-.328.977 0l5.177 5.176c.322.33.321.655-.001.977-.329.33-.655.329-.977 0l-5.177-5.176zm123.015 9.012c-.553 0-.829-.317-.829-.948l.009-11.152c.001-.645.264-.967.791-.967.579 0 .868.323.867.968l-.003 4.244 6.869.005.003-4.243c.001-.645.277-.967.83-.967.553 0 .829.323.828.968l-.009 11.152c0 .631-.277.947-.83.947-.552 0-.828-.317-.828-.948l.004-5.25-6.868-.006-.005 5.25c0 .632-.277.947-.829.947zm12.076.187a.855.855 0 01-.582-.217.627.627 0 01-.246-.494c0-.197.023-.362.07-.493l4.717-11.898 1.776.001 4.698 11.906c.046.131.069.296.068.493a.623.623 0 01-.247.493.85.85 0 01-.582.217c-.408 0-.687-.211-.838-.632l-1.33-3.416-5.329-.004-1.335 3.423c-.178.414-.458.621-.84.621zm2.847-5.702l3.987.004-2.009-4.917-1.978 4.913zm16.572 5.54a.766.766 0 01-.592-.247c-.145-.165-.217-.385-.217-.661l.009-10.6c0-.27.076-.496.227-.68.152-.19.366-.286.642-.286.526 0 .789.323.789.968l-.004 4.58h1.579c.178 0 .378-.088.602-.266.224-.184.487-.48.79-.887.303-.414.662-.97 1.078-1.667.138-.23.306-.5.503-.809.198-.316.425-.618.682-.907.264-.296.56-.54.889-.73a2.141 2.141 0 011.106-.295c.684 0 1.026.297 1.025.889 0 .316-.099.513-.296.592a2.972 2.972 0 01-.731.177c-.283.04-.539.2-.77.483-.224.276-.514.7-.869 1.272-.304.493-.547.888-.732 1.184-.178.296-.336.542-.474.74a4.35 4.35 0 01-.494.582c-.184.184-.441.414-.77.69l-.039-.514c.407.33.766.675 1.075 1.038.315.355.594.71.837 1.066.244.356.467.695.671 1.017.348.533.631.925.848 1.175.223.244.466.392.729.445.099.02.227.046.385.08a.836.836 0 01.434.207c.125.112.188.3.187.563 0 .539-.323.809-.967.808-.481 0-.977-.159-1.49-.475-.507-.323-.996-.803-1.47-1.442l-.483-.691-.581-.87c-.401-.605-.746-1.056-1.035-1.352-.283-.296-.562-.445-.839-.445l-1.381-.001-.004 4.362c0 .263-.079.48-.237.651a.777.777 0 01-.612.256zm10.998.187a.856.856 0 01-.583-.218.627.627 0 01-.246-.493c0-.198.024-.362.07-.494l4.717-11.898 1.776.002 4.698 11.905c.046.132.069.296.069.494a.628.628 0 01-.248.493.85.85 0 01-.582.217c-.408 0-.687-.211-.838-.633l-1.33-3.415-5.329-.005-1.335 3.424c-.178.414-.458.621-.839.62zm2.846-5.702l3.987.003-2.009-4.916-1.978 4.913zm10.385 5.535c-.553 0-.829-.303-.828-.909l.009-11.132c0-.658.264-.986.79-.986l3.77.003c1.697.002 2.921.25 3.671.743.749.494 1.124 1.3 1.123 2.42-.001 1.085-.331 1.92-.989 2.505-.652.578-1.606.867-2.863.866l-3.849-.003-.004 5.586c-.001.605-.277.908-.83.907zm.836-8.151l2.901.002c.724.001 1.316-.028 1.776-.087.468-.059.81-.203 1.027-.433.224-.237.336-.615.337-1.135 0-.421-.089-.744-.266-.967-.171-.224-.483-.38-.937-.465-.454-.086-1.099-.13-1.934-.13l-2.902-.002-.002 3.217zm13.357 8.163c-.283 0-.507-.083-.671-.248-.158-.158-.237-.378-.236-.661l.008-10.362-2.842-.003c-.296 0-.533-.073-.71-.217a.777.777 0 01-.257-.613c.001-.256.086-.457.258-.601.177-.151.414-.227.71-.227l7.52.006c.645 0 .967.278.967.83-.001.553-.323.829-.968.828l-2.803-.002-.008 10.362c0 .27-.089.487-.267.652-.178.17-.412.256-.701.256zm7.471-.132c-.526 0-.789-.33-.788-.988l.008-10.816c.001-.658.264-.987.791-.987l8.408.007c.658 0 .987.29.986.87 0 .526-.329.789-.987.788l-7.54-.006-.003 3.119 5.112.004c.737 0 1.105.29 1.105.87 0 .526-.369.788-1.106.788l-5.112-.004-.004 4.697 7.54.006c.658 0 .987.29.986.87 0 .526-.329.789-.987.788l-8.409-.007zm18.794.153c-.552 0-.828-.316-.828-.948l.009-11.152c.001-.645.264-.967.791-.966.322 0 .605.168.848.504l3.647 5.115 3.676-5.11c.237-.335.513-.502.829-.502.539 0 .809.323.808.968l-.009 11.152c0 .631-.277.947-.829.946-.553 0-.829-.336-.829-1.007l.008-9.198-2.935 4.162c-.112.165-.22.273-.325.326a.937.937 0 01-.376.069 1.03 1.03 0 01-.394-.07c-.105-.053-.214-.161-.326-.326l-2.927-4.167-.008 9.198c0 .671-.277 1.006-.83 1.006zm13.666.011c-.539 0-.809-.316-.808-.948l.009-11.152c0-.645.277-.967.829-.966.553 0 .829.342.828 1.027l-.007 9.089 6.896-9.607c.251-.335.534-.503.85-.502.526 0 .789.323.788.967l-.009 11.152c0 .632-.277.947-.83.947-.552 0-.828-.297-.828-.889l.008-9.208-6.818 9.548c-.158.224-.296.368-.414.434-.112.072-.277.108-.494.108zm13.281.011c-.553 0-.829-.303-.828-.909l.009-11.132c0-.658.264-.987.79-.986l3.77.003c1.698.001 2.921.249 3.671.743.749.494 1.124 1.3 1.123 2.419-.001 1.085-.331 1.92-.989 2.506-.652.578-1.606.867-2.863.866l-3.849-.003-.004 5.586c-.001.605-.277.907-.83.907zm.836-8.151l2.901.002c.724 0 1.316-.028 1.777-.087.467-.059.809-.203 1.026-.434.224-.236.336-.614.337-1.134 0-.421-.089-.744-.266-.968-.171-.223-.483-.378-.937-.464-.454-.086-1.099-.13-1.934-.13l-2.902-.002-.002 3.217zm9.429 8.336a.851.851 0 01-.582-.217.624.624 0 01-.246-.493c0-.198.023-.362.069-.494l4.717-11.898 1.777.002 4.697 11.905c.046.132.069.296.069.494 0 .19-.082.355-.247.493a.853.853 0 01-.582.217c-.408 0-.688-.211-.839-.633l-1.329-3.415-5.33-.005-1.335 3.424c-.178.414-.457.621-.839.62zm2.847-5.701l3.987.003-2.009-4.916-1.978 4.913zm22.451-4.285c.329-.322.655-.322.977.001.329.33.329.655-.001.977L812.967 11c-.329.322-.655.322-.977 0-.329-.33-.329-.656.001-.978l5.175-5.177zm-5.379.914c-.322-.33-.322-.655.001-.977.329-.329.655-.329.977 0l5.177 5.176c.322.33.322.655-.001.977-.329.329-.655.329-.977 0l-5.177-5.176zm123.015 9.012c-.553-.001-.829-.317-.829-.949l.01-11.152c0-.644.263-.966.79-.966.579 0 .868.323.867.968l-.003 4.243 6.869.006.003-4.244c.001-.644.277-.967.83-.966.553 0 .829.323.828.968l-.009 11.152c0 .631-.277.947-.83.946-.552 0-.828-.316-.828-.948l.004-5.25-6.868-.006-.005 5.25c0 .632-.277.948-.829.947zm12.077.187a.856.856 0 01-.583-.218.627.627 0 01-.246-.493c0-.198.023-.362.07-.494l4.717-11.898 1.776.002 4.698 11.905c.046.132.069.296.069.494a.628.628 0 01-.248.493.85.85 0 01-.582.217c-.408 0-.687-.211-.838-.633l-1.33-3.415-5.329-.005-1.335 3.424c-.178.414-.458.621-.839.62zm2.846-5.702l3.987.003-2.009-4.916-1.978 4.913zm16.572 5.54a.766.766 0 01-.592-.247c-.145-.165-.217-.385-.217-.662l.009-10.599c0-.27.076-.496.227-.68.152-.191.366-.286.642-.286.526 0 .789.323.789.968l-.004 4.579 1.579.001c.178 0 .379-.088.602-.266.224-.184.488-.48.791-.888.303-.414.662-.97 1.077-1.666.138-.23.306-.5.504-.81.197-.315.424-.617.681-.907.264-.296.56-.539.889-.73a2.141 2.141 0 011.106-.294c.684 0 1.026.296 1.025.889 0 .315-.099.513-.296.591a2.972 2.972 0 01-.731.178c-.283.039-.539.2-.77.482-.224.277-.514.7-.869 1.273-.303.493-.547.888-.732 1.184-.178.295-.336.542-.474.74a4.35 4.35 0 01-.494.581c-.184.184-.441.414-.77.69l-.039-.513c.407.33.766.675 1.075 1.037.315.356.594.711.838 1.067.243.355.466.694.67 1.017.348.533.631.925.848 1.175.223.244.466.392.73.445l.384.079a.83.83 0 01.434.207c.125.112.188.3.188.563-.001.54-.324.81-.968.809-.481 0-.977-.16-1.49-.475-.506-.323-.996-.804-1.469-1.442l-.483-.692a355.41 355.41 0 00-.582-.868c-.401-.606-.746-1.057-1.035-1.353-.283-.297-.562-.445-.839-.445l-1.381-.001-.004 4.362c0 .263-.079.48-.237.65a.777.777 0 01-.612.257zm10.998.187a.851.851 0 01-.582-.218.625.625 0 01-.247-.494c0-.197.024-.361.07-.493l4.717-11.898 1.776.001 4.698 11.906c.046.132.069.296.069.494 0 .19-.083.355-.247.493a.854.854 0 01-.583.216c-.408 0-.687-.21-.838-.632l-1.33-3.416-5.329-.004-1.335 3.424c-.178.414-.458.62-.839.62zm2.847-5.702l3.987.003-2.01-4.916-1.977 4.913zm10.384 5.535c-.553 0-.829-.304-.828-.909l.009-11.132c0-.658.264-.987.79-.986l3.77.003c1.698.001 2.921.249 3.671.743.749.494 1.124 1.3 1.123 2.419-.001 1.085-.331 1.92-.989 2.506-.652.578-1.606.867-2.863.866l-3.849-.003-.004 5.585c-.001.606-.277.908-.83.908zm.836-8.151l2.901.002c.724 0 1.316-.028 1.777-.087.467-.06.809-.204 1.026-.434.224-.236.336-.615.337-1.134 0-.421-.089-.744-.266-.968-.171-.224-.483-.378-.937-.464-.454-.086-1.099-.13-1.934-.13l-2.902-.003-.002 3.218zm13.358 8.162c-.28 0-.51-.082-.67-.247-.16-.158-.24-.379-.24-.661l.01-10.363-2.84-.002c-.3 0-.53-.073-.71-.218a.782.782 0 01-.26-.612c0-.256.09-.457.26-.602.18-.15.41-.226.71-.226l7.52.006c.64 0 .97.277.97.83 0 .553-.33.829-.97.828l-2.8-.002-.01 10.362a.84.84 0 01-.27.651c-.18.171-.41.256-.7.256zm7.47-.132c-.53 0-.79-.33-.79-.987l.01-10.817c0-.658.26-.986.79-.986l8.41.007c.66 0 .99.29.99.87-.01.526-.33.788-.99.788l-7.54-.006V6.68l5.11.004c.73.001 1.1.29 1.1.87 0 .526-.37.79-1.1.788l-5.12-.004v4.698l7.54.006c.66 0 .99.29.99.87 0 .526-.33.788-.99.788l-8.41-.007zm18.79.154c-.55 0-.82-.317-.82-.949l.01-11.151c0-.645.26-.967.79-.967.32 0 .6.168.84.504l3.65 5.115 3.68-5.109c.23-.335.51-.503.83-.503.54 0 .81.324.8.968v11.152c-.01.632-.28.947-.83.947-.56 0-.83-.336-.83-1.007V4.65l-2.93 4.162c-.11.164-.22.273-.33.325a.904.904 0 01-.37.07c-.15 0-.28-.024-.4-.07-.1-.053-.21-.162-.32-.326l-2.93-4.167-.01 9.198c0 .67-.27 1.006-.83 1.006zm13.67.011c-.54 0-.81-.317-.81-.948l.01-11.152c0-.645.28-.967.83-.967.55 0 .83.343.83 1.027l-.01 9.09 6.9-9.607c.25-.335.53-.503.85-.503.52 0 .79.323.79.968l-.01 11.152c0 .631-.28.947-.83.947-.56 0-.83-.297-.83-.89l.01-9.207-6.82 9.548c-.16.223-.3.368-.42.434-.11.072-.27.108-.49.108zm13.28.011c-.55 0-.83-.304-.83-.91l.01-11.131c0-.658.27-.987.79-.986l3.77.003c1.7.001 2.92.249 3.67.743s1.13 1.3 1.13 2.419c-.01 1.085-.33 1.92-.99 2.505-.65.579-1.61.868-2.87.867l-3.84-.004-.01 5.586c0 .606-.28.908-.83.908zm.84-8.152l2.9.003c.72 0 1.31-.029 1.77-.088.47-.058.81-.203 1.03-.433.23-.237.34-.615.34-1.135 0-.42-.09-.743-.27-.967-.17-.224-.48-.379-.94-.465-.45-.085-1.09-.129-1.93-.13l-2.9-.002v3.217zm9.43 8.338a.871.871 0 01-.59-.218.633.633 0 01-.24-.494c0-.197.02-.362.07-.493l4.71-11.898 1.78.001 4.7 11.906c.04.132.07.296.07.494 0 .19-.09.355-.25.493a.846.846 0 01-.58.216c-.41 0-.69-.21-.84-.632l-1.33-3.416-5.33-.004-1.33 3.423c-.18.415-.46.622-.84.622zm2.84-5.702l3.99.003-2.01-4.916-1.98 4.913zm22.45-4.285c.33-.322.66-.322.98 0 .33.33.33.656 0 .978l-5.17 5.177c-.33.322-.66.322-.98-.001-.33-.33-.33-.655 0-.977l5.17-5.177zm-5.37.913c-.33-.329-.33-.654 0-.977.33-.328.65-.328.97.001l5.18 5.176c.32.329.32.655 0 .977-.33.328-.66.328-.98-.001l-5.17-5.176zm123.01 9.012c-.55 0-.83-.316-.83-.948l.01-11.152c0-.645.26-.967.79-.966.58 0 .87.323.87.968v4.243l6.86.006.01-4.244c0-.645.27-.967.83-.966.55 0 .83.323.83.967l-.01 11.152c0 .632-.28.947-.83.947-.56 0-.83-.316-.83-.948v-5.25l-6.87-.006v5.25c0 .632-.28.947-.83.947zm12.08.187a.871.871 0 01-.59-.217.633.633 0 01-.24-.494c0-.197.02-.362.07-.493l4.71-11.898 1.78.001 4.7 11.906c.04.132.07.296.07.493 0 .191-.08.356-.25.494a.845.845 0 01-.58.216c-.41 0-.69-.21-.84-.632l-1.33-3.416-5.33-.004-1.33 3.423c-.18.415-.46.622-.84.621zm2.84-5.701l3.99.003-2.01-4.916-1.98 4.913zm16.57 5.54a.766.766 0 01-.59-.247c-.14-.165-.21-.386-.21-.662v-10.6c.01-.269.08-.496.23-.68.15-.19.37-.286.64-.286.53 0 .79.323.79.968v4.58h1.58c.18 0 .38-.088.6-.265.22-.184.49-.48.79-.888.3-.414.66-.97 1.08-1.667.14-.23.3-.5.5-.809.2-.315.43-.618.68-.907.27-.296.56-.54.89-.73.34-.197.71-.295 1.11-.295.68 0 1.02.297 1.02.89 0 .315-.1.512-.29.591-.19.079-.44.138-.73.177-.29.04-.54.2-.77.483-.23.276-.52.7-.87 1.273-.31.493-.55.887-.73 1.183-.18.296-.34.543-.48.74-.14.197-.3.391-.49.582a14.1 14.1 0 01-.77.69l-.04-.513c.41.33.76.675 1.07 1.037.32.356.6.711.84 1.067.24.355.47.694.67 1.017.35.533.63.924.85 1.175.22.243.47.391.73.444.1.02.23.046.38.08.17.026.31.095.44.207.12.112.18.3.18.563 0 .54-.32.809-.96.808-.48 0-.98-.158-1.49-.475-.51-.322-1-.803-1.47-1.442-.11-.151-.27-.382-.49-.69-.21-.317-.4-.607-.58-.87-.4-.605-.74-1.056-1.03-1.353-.28-.296-.56-.444-.84-.444l-1.38-.002-.01 4.362c0 .264-.08.48-.23.652-.15.17-.36.256-.62.256zm11 .186a.865.865 0 01-.58-.217c-.16-.139-.25-.303-.25-.494 0-.197.03-.362.07-.493l4.72-11.898 1.78.001 4.7 11.906c.04.131.06.296.06.493 0 .191-.08.355-.24.494a.87.87 0 01-.59.216c-.4 0-.68-.211-.83-.632l-1.33-3.416-5.33-.004-1.34 3.423c-.18.414-.46.622-.84.621zm2.85-5.702l3.99.004-2.01-4.917-1.98 4.913zm10.38 5.536c-.55-.001-.82-.304-.82-.91V3c.01-.658.27-.987.8-.987l3.77.003c1.69.002 2.92.25 3.67.744s1.12 1.3 1.12 2.418c0 1.086-.33 1.921-.99 2.506-.65.579-1.61.867-2.86.866l-3.85-.003-.01 5.586c0 .605-.27.908-.83.907zm.84-8.152l2.9.003c.72 0 1.32-.029 1.78-.088.46-.058.81-.203 1.02-.433.23-.237.34-.615.34-1.135 0-.42-.09-.743-.26-.967-.18-.224-.49-.379-.94-.465-.46-.086-1.1-.129-1.94-.13l-2.9-.002v3.217zm13.36 8.162c-.29 0-.51-.082-.67-.246-.16-.158-.24-.379-.24-.662l.01-10.362-2.84-.002c-.3 0-.54-.073-.71-.218-.18-.152-.26-.356-.26-.612 0-.257.09-.457.26-.602.17-.151.41-.227.71-.226l7.52.006c.64 0 .96.277.96.83 0 .552-.32.828-.96.828l-2.81-.003-.01 10.363c0 .27-.08.487-.26.65-.18.172-.41.257-.7.257zm7.47-.131c-.53 0-.79-.33-.79-.988l.01-10.816c0-.658.26-.987.79-.986l8.41.007c.66 0 .98.29.98.869 0 .526-.33.79-.98.789l-7.54-.007-.01 3.119 5.12.004c.73 0 1.1.29 1.1.87 0 .526-.37.789-1.11.788l-5.11-.004v4.698l7.54.006c.66 0 .98.29.98.869 0 .526-.33.79-.98.789l-8.41-.007zm18.79.153c-.55 0-.83-.316-.83-.948l.01-11.152c0-.644.27-.967.79-.966.33 0 .61.168.85.504l3.65 5.115 3.67-5.11c.24-.335.52-.502.83-.502.54 0 .81.323.81.968l-.01 11.152c0 .631-.27.947-.83.947-.55 0-.82-.337-.82-1.008V4.874l-2.93 4.163c-.11.164-.22.273-.33.325a.904.904 0 01-.37.069c-.15 0-.29-.023-.4-.07-.1-.052-.21-.16-.32-.325l-2.93-4.167-.01 9.197c0 .671-.27 1.007-.83 1.006zm13.67.011c-.54 0-.81-.316-.81-.948l.01-11.152c0-.644.28-.966.83-.966.55 0 .83.343.83 1.027l-.01 9.09 6.9-9.607c.25-.336.53-.503.84-.503.53 0 .79.323.79.968l-.01 11.152c0 .631-.27.947-.83.946-.55 0-.82-.296-.82-.889V4.994l-6.81 9.547c-.16.224-.3.368-.42.434-.11.072-.27.109-.49.108zm13.28.011c-.55 0-.83-.303-.83-.908l.01-11.133c0-.657.26-.986.79-.986l3.77.003c1.7.002 2.92.25 3.67.743.75.494 1.12 1.3 1.12 2.42 0 1.085-.33 1.92-.99 2.505-.65.579-1.6.867-2.86.866l-3.85-.003v5.586c0 .605-.28.908-.83.907zm.83-8.15l2.91.002c.72 0 1.31-.029 1.77-.088.47-.059.81-.203 1.03-.433.22-.237.34-.615.34-1.135 0-.421-.09-.743-.27-.967-.17-.224-.48-.379-.94-.465-.45-.086-1.1-.129-1.93-.13l-2.9-.002-.01 3.217zm9.43 8.336a.865.865 0 01-.58-.217.633.633 0 01-.24-.494c0-.197.02-.362.07-.494l4.71-11.897 1.78.001 4.7 11.906c.04.131.07.296.07.493 0 .19-.09.355-.25.493a.863.863 0 01-.58.217c-.41 0-.69-.211-.84-.632l-1.33-3.416-5.33-.004-1.34 3.423c-.17.414-.45.621-.84.621zm2.85-5.702l3.99.004-2.01-4.917-1.98 4.913zm22.45-4.284c.33-.322.66-.322.98 0 .33.33.33.655 0 .978l-5.18 5.176c-.33.323-.65.322-.97 0-.33-.33-.33-.655 0-.977l5.17-5.177zm-5.38.913c-.32-.33-.32-.655 0-.977.33-.329.66-.328.98 0l5.18 5.176c.32.33.32.655 0 .977-.33.33-.66.329-.98 0l-5.18-5.176zm123.02 9.012c-.55 0-.83-.317-.83-.948l.01-11.152c0-.645.26-.967.79-.967.58 0 .87.323.87.968l-.01 4.244 6.87.005.01-4.243c0-.645.27-.967.83-.967.55 0 .82.323.82.968l-.01 11.152c0 .632-.27.947-.83.947-.55 0-.82-.317-.82-.948v-5.25l-6.87-.006v5.25c0 .632-.28.947-.83.947zm12.07.187a.865.865 0 01-.58-.217.633.633 0 01-.24-.494c0-.197.02-.362.07-.493l4.71-11.898 1.78.001 4.7 11.906c.04.131.07.296.07.493 0 .191-.09.355-.25.493a.864.864 0 01-.58.217c-.41 0-.69-.211-.84-.632l-1.33-3.416-5.33-.004-1.34 3.423c-.17.415-.45.621-.84.621zm2.85-5.702l3.99.004-2.01-4.917-1.98 4.913zm16.57 5.54a.766.766 0 01-.59-.247c-.14-.165-.22-.385-.22-.661l.01-10.6c0-.27.08-.496.23-.68.15-.19.37-.286.64-.286.53 0 .79.323.79.968v4.58h1.58c.17 0 .37-.088.6-.266.22-.184.49-.48.79-.887.3-.414.66-.97 1.08-1.667.13-.23.3-.5.5-.809.2-.316.42-.618.68-.907.26-.296.56-.54.89-.73.34-.197.7-.295 1.11-.295.68 0 1.02.297 1.02.889 0 .316-.1.513-.3.592-.19.079-.43.138-.73.177-.28.04-.54.2-.77.483-.22.276-.51.7-.87 1.272-.3.493-.54.888-.73 1.184a9.35 9.35 0 01-.47.74c-.14.197-.3.39-.49.582-.19.184-.45.414-.77.69l-.04-.513c.4.329.76.675 1.07 1.037.32.355.6.71.84 1.066.24.356.47.695.67 1.017.35.533.63.925.85 1.175.22.244.46.392.73.445.1.02.22.046.38.08.17.026.31.095.44.207.12.112.18.3.18.563 0 .539-.32.809-.97.808-.48 0-.97-.159-1.48-.475-.51-.323-1-.803-1.47-1.442-.11-.151-.27-.382-.49-.691-.21-.316-.4-.606-.58-.87-.4-.605-.74-1.056-1.03-1.352-.29-.296-.57-.445-.84-.445h-1.38l-.01 4.361c0 .263-.08.48-.23.651a.8.8 0 01-.62.256zm11 .186a.846.846 0 01-.58-.217.614.614 0 01-.25-.493c0-.198.03-.362.07-.494l4.72-11.898 1.78.002 4.69 11.905c.05.132.07.296.07.494 0 .19-.08.355-.25.493a.827.827 0 01-.58.217c-.41 0-.68-.211-.84-.633l-1.33-3.415-5.32-.005-1.34 3.424c-.18.414-.46.621-.84.62zm2.85-5.701l3.98.003-2-4.916-1.98 4.913zm10.38 5.535c-.55 0-.83-.303-.83-.909l.01-11.132c0-.658.27-.986.79-.986l3.77.003c1.7.002 2.92.25 3.67.743.75.494 1.13 1.3 1.13 2.42 0 1.085-.33 1.92-.99 2.505-.65.578-1.61.867-2.86.866l-3.85-.003-.01 5.586c0 .605-.28.908-.83.907zm.84-8.151l2.9.002c.72.001 1.32-.028 1.78-.087.46-.059.81-.203 1.02-.433.23-.237.34-.615.34-1.135 0-.421-.09-.744-.27-.967-.17-.224-.48-.38-.93-.465-.46-.086-1.1-.13-1.94-.13l-2.9-.002v3.217zm13.36 8.163c-.29 0-.51-.083-.68-.248-.15-.158-.23-.378-.23-.661l.01-10.362-2.85-.003c-.29 0-.53-.073-.71-.217-.17-.152-.25-.356-.25-.612 0-.257.08-.458.25-.602.18-.151.42-.227.72-.227l7.52.006c.64.001.96.278.96.83 0 .553-.32.829-.97.828l-2.8-.002-.01 10.362a.87.87 0 01-.26.652.99.99 0 01-.7.256zm7.47-.133c-.53 0-.79-.33-.79-.987l.01-10.816c0-.658.26-.987.79-.987l8.41.007c.65 0 .98.29.98.87 0 .526-.33.789-.99.788l-7.54-.006v3.119l5.11.004c.74 0 1.11.29 1.11.87 0 .526-.37.788-1.11.788l-5.11-.004v4.697l7.54.006c.65 0 .98.29.98.87 0 .526-.33.789-.99.788l-8.4-.007zm18.79.154c-.55 0-.83-.317-.83-.948l.01-11.152c0-.645.27-.967.79-.966.32 0 .61.168.85.504l3.65 5.115 3.67-5.11c.24-.335.52-.502.83-.502.54 0 .81.323.81.968l-.01 11.151c0 .632-.28.948-.83.947-.55 0-.83-.336-.83-1.007l.01-9.198-2.93 4.162c-.12.165-.22.273-.33.326a.904.904 0 01-.37.069c-.16 0-.29-.024-.4-.07-.1-.053-.21-.161-.32-.326l-2.93-4.167-.01 9.198c0 .671-.28 1.006-.83 1.006zm13.67.011c-.54 0-.81-.316-.81-.948l.01-11.152c0-.645.27-.967.83-.966.55 0 .83.342.82 1.027v9.089l6.89-9.607c.25-.335.54-.503.85-.502.53 0 .79.323.79.967l-.01 11.152c0 .632-.27.947-.83.947-.55 0-.83-.297-.83-.889l.01-9.208-6.82 9.548c-.15.224-.29.368-.41.434-.11.072-.28.108-.49.108zm13.28.011c-.56 0-.83-.304-.83-.909l.01-11.132c0-.658.26-.987.79-.986l3.77.003c1.7.001 2.92.25 3.67.743.75.494 1.12 1.3 1.12 2.419 0 1.085-.33 1.92-.99 2.506-.65.578-1.6.867-2.86.866l-3.85-.003v5.586c0 .605-.28.907-.83.907zm.83-8.151l2.9.002c.73 0 1.32-.028 1.78-.087.47-.059.81-.203 1.03-.434.22-.236.33-.614.33-1.134 0-.421-.08-.744-.26-.968-.17-.223-.48-.378-.94-.464-.45-.086-1.1-.13-1.93-.13l-2.9-.002-.01 3.217zm9.43 8.337a.846.846 0 01-.58-.218c-.16-.138-.25-.303-.25-.493 0-.198.03-.362.07-.494l4.72-11.898 1.78.002 4.69 11.905c.05.132.07.296.07.494 0 .19-.08.355-.24.493a.87.87 0 01-.59.217c-.4 0-.68-.211-.83-.633l-1.33-3.415-5.33-.005-1.34 3.424c-.18.414-.46.621-.84.62zm2.85-5.702l3.99.003-2.01-4.916-1.98 4.913zm22.45-4.285c.33-.322.66-.321.98.001.33.33.33.655 0 .977l-5.18 5.177c-.33.322-.65.322-.98 0-.32-.33-.32-.656 0-.978l5.18-5.177zm-5.38.914c-.32-.33-.32-.655 0-.977.33-.329.66-.329.98 0l5.18 5.176c.32.33.32.655 0 .977-.33.329-.66.329-.98 0l-5.18-5.176zm123.02 9.011c-.56 0-.83-.316-.83-.948l.01-11.152c0-.644.26-.966.79-.966.58 0 .87.323.86.968v4.243l6.87.006V3.35c0-.644.28-.966.83-.966.56 0 .83.323.83.968l-.01 11.152c0 .631-.27.947-.83.946-.55 0-.83-.316-.83-.948l.01-5.25-6.87-.006v5.25c0 .632-.28.948-.83.947zm12.07.187a.865.865 0 01-.58-.217c-.16-.138-.25-.303-.25-.493 0-.198.03-.362.07-.494l4.72-11.898 1.78.002 4.7 11.905c.04.132.06.296.06.494 0 .19-.08.355-.24.493a.87.87 0 01-.59.217c-.4 0-.68-.211-.83-.633l-1.33-3.415-5.33-.005-1.34 3.424c-.18.414-.46.621-.84.62zm2.85-5.701l3.99.003-2.01-4.916-1.98 4.913zm16.57 5.54a.766.766 0 01-.59-.247c-.15-.165-.22-.385-.22-.662l.01-10.599c0-.27.08-.496.23-.68.15-.191.36-.286.64-.286.53 0 .79.323.79.968v4.579l1.57.001c.18 0 .38-.088.61-.266.22-.184.48-.48.79-.887.3-.415.66-.97 1.07-1.667.14-.23.31-.5.51-.81.2-.315.42-.617.68-.907.26-.296.56-.539.89-.73.33-.196.7-.295 1.1-.294.69 0 1.03.296 1.03.889 0 .315-.1.513-.3.592-.19.078-.43.137-.73.177-.28.039-.54.2-.77.482-.22.277-.51.7-.87 1.273-.3.493-.54.888-.73 1.184-.18.295-.33.542-.47.74a4.65 4.65 0 01-.5.581 11.1 11.1 0 01-.77.69l-.04-.513c.41.33.77.675 1.08 1.037.31.356.59.711.84 1.067.24.355.46.694.67 1.017.35.533.63.925.84 1.175.23.244.47.392.73.445l.39.079c.16.026.31.095.43.207.13.112.19.3.19.563 0 .54-.32.81-.97.809-.48 0-.97-.16-1.49-.475-.5-.323-.99-.804-1.47-1.442-.1-.152-.26-.382-.48-.692-.21-.316-.4-.605-.58-.869-.4-.605-.75-1.056-1.04-1.352-.28-.297-.56-.445-.83-.445l-1.39-.001v4.362c0 .263-.08.48-.24.65-.15.172-.35.257-.61.257zm11 .187a.846.846 0 01-.58-.218.614.614 0 01-.25-.494c0-.197.02-.362.07-.493l4.72-11.898 1.77.001 4.7 11.906c.05.132.07.296.07.494 0 .19-.08.355-.25.493a.846.846 0 01-.58.217c-.41 0-.69-.212-.84-.633l-1.33-3.415-5.33-.005-1.33 3.423c-.18.415-.46.622-.84.622zm2.85-5.702l3.98.003-2.01-4.916-1.97 4.913zm10.38 5.535c-.55 0-.83-.304-.83-.909l.01-11.132c0-.658.27-.987.79-.986l3.77.003c1.7.001 2.92.249 3.67.743s1.13 1.3 1.13 2.419c-.01 1.085-.34 1.92-.99 2.506-.66.578-1.61.867-2.87.866l-3.85-.003v5.585c0 .606-.28.908-.83.908zm.84-8.151l2.9.002c.72 0 1.31-.028 1.77-.087.47-.06.81-.204 1.03-.434.22-.236.34-.615.34-1.134 0-.421-.09-.744-.27-.968-.17-.224-.48-.378-.94-.464-.45-.086-1.09-.13-1.93-.13l-2.9-.003v3.218zm13.35 8.162c-.28 0-.5-.082-.67-.247-.16-.158-.23-.379-.23-.661V4.229l-2.84-.002c-.29 0-.53-.073-.71-.218-.17-.151-.25-.355-.25-.612 0-.256.08-.457.25-.602.18-.15.42-.226.71-.226l7.52.006c.65 0 .97.277.97.83 0 .553-.32.829-.97.828l-2.8-.002-.01 10.362a.84.84 0 01-.27.651c-.17.171-.41.257-.7.256zm7.47-.132c-.52 0-.78-.33-.78-.987V3.564c.01-.658.27-.986.8-.986l8.4.007c.66 0 .99.29.99.87 0 .526-.33.788-.99.788l-7.54-.006v3.118l5.11.004c.74.001 1.11.29 1.11.87 0 .526-.37.79-1.11.788l-5.11-.004-.01 4.698 7.54.006c.66 0 .99.29.99.87 0 .526-.33.789-.99.788l-8.41-.007zm18.8.154c-.55 0-.83-.317-.83-.949l.01-11.151c0-.645.26-.967.79-.967.32 0 .61.168.85.504l3.65 5.115 3.67-5.109c.24-.335.51-.503.83-.502.54 0 .81.323.81.967l-.01 11.152c0 .632-.28.947-.83.947-.55 0-.83-.336-.83-1.007l.01-9.198-2.94 4.162c-.11.164-.22.273-.32.325a.954.954 0 01-.38.07c-.15 0-.28-.024-.39-.07-.11-.053-.21-.162-.33-.326l-2.92-4.167-.01 9.198c0 .67-.28 1.006-.83 1.006zm13.66.011c-.54 0-.8-.317-.8-.948V3.433c.01-.645.28-.967.83-.967.56 0 .83.343.83 1.027v9.09l6.89-9.607c.25-.335.54-.503.85-.503.53 0 .79.323.79.968l-.01 11.152c0 .632-.28.947-.83.947-.55 0-.83-.297-.83-.89l.01-9.207-6.82 9.548c-.16.223-.29.368-.41.434-.11.072-.28.108-.5.108zm13.29.01c-.56 0-.83-.303-.83-.908l.01-11.132c0-.658.26-.987.79-.986l3.77.003c1.69.001 2.92.249 3.67.743s1.12 1.3 1.12 2.419c0 1.085-.33 1.92-.99 2.505-.65.579-1.6.868-2.86.867l-3.85-.004v5.586c-.01.606-.28.908-.83.908zm.83-8.15l2.9.002c.73 0 1.32-.029 1.78-.088.47-.058.81-.203 1.03-.433.22-.237.33-.615.33-1.135 0-.42-.09-.743-.26-.967-.17-.224-.49-.379-.94-.465-.45-.085-1.1-.129-1.94-.13l-2.9-.002v3.218zm9.43 8.337a.846.846 0 01-.58-.218.614.614 0 01-.25-.494c0-.197.03-.362.07-.493l4.72-11.898 1.78.001 4.69 11.906c.05.132.07.296.07.493 0 .191-.08.356-.25.494a.828.828 0 01-.58.216c-.41 0-.69-.21-.84-.632l-1.33-3.416-5.33-.004-1.33 3.423c-.18.415-.46.622-.84.621zm2.85-5.702l3.98.003-2.01-4.916-1.97 4.913zm22.45-4.285c.33-.322.65-.322.98 0 .32.33.32.656-.01.978l-5.17 5.177c-.33.322-.66.322-.98-.001-.33-.33-.33-.655 0-.977l5.18-5.177zm-5.38.913c-.32-.329-.32-.654 0-.977.33-.328.65-.328.98.001l5.17 5.176c.33.329.33.655 0 .977-.33.329-.65.328-.97-.001l-5.18-5.176zm123.01 9.012c-.55 0-.82-.316-.82-.948V3.568c.01-.645.27-.967.8-.966.57 0 .86.323.86.968v4.243l6.87.006V3.575c0-.645.28-.967.83-.966.55 0 .83.323.83.967l-.01 11.152c0 .632-.28.947-.83.947-.55 0-.83-.317-.83-.948l.01-5.25-6.87-.006-.01 5.25c0 .632-.27.947-.83.947zm12.08.187a.846.846 0 01-.58-.217.614.614 0 01-.25-.494c0-.197.03-.361.07-.493l4.72-11.898 1.78.001 4.69 11.906c.05.132.07.296.07.493 0 .191-.08.356-.25.494a.828.828 0 01-.58.216c-.41 0-.68-.21-.84-.632l-1.33-3.416-5.32-.004-1.34 3.424c-.18.414-.46.62-.84.62zm2.85-5.701l3.98.003-2-4.916-1.98 4.913zm16.57 5.54a.766.766 0 01-.59-.248c-.15-.164-.22-.385-.22-.66l.01-10.6c0-.27.08-.497.23-.68.15-.192.36-.287.64-.287.52 0 .79.324.79.968l-.01 4.58h1.58c.18 0 .38-.088.6-.265.23-.184.49-.48.79-.888.31-.414.67-.97 1.08-1.667.14-.23.31-.5.51-.809.19-.315.42-.618.68-.907.26-.296.56-.539.89-.73.33-.197.7-.295 1.1-.295.69 0 1.03.297 1.03.89 0 .315-.1.512-.3.591-.19.079-.43.138-.73.177-.28.04-.54.2-.77.483-.22.276-.51.7-.87 1.273-.3.493-.55.887-.73 1.183a23.7 23.7 0 01-.47.74 4.65 4.65 0 01-.5.582 11.1 11.1 0 01-.77.69l-.04-.513c.41.33.77.675 1.08 1.037.31.355.59.711.84 1.066.24.356.46.695.67 1.018.34.533.63.924.84 1.175.23.243.47.391.73.444.1.02.23.046.39.08.16.026.31.095.43.207.13.112.19.3.19.563 0 .54-.32.809-.97.808-.48 0-.98-.158-1.49-.475-.51-.322-.99-.803-1.47-1.442-.1-.151-.26-.381-.48-.69-.21-.317-.41-.607-.58-.87-.4-.605-.75-1.056-1.04-1.353-.28-.296-.56-.444-.84-.444l-1.38-.002v4.362c0 .264-.08.48-.24.652-.15.17-.35.256-.61.256zm11 .186a.871.871 0 01-.59-.217.633.633 0 01-.24-.494c0-.197.02-.362.07-.493l4.72-11.898 1.77.001 4.7 11.906c.05.131.07.296.07.493 0 .191-.08.355-.25.493a.845.845 0 01-.58.217c-.41 0-.69-.211-.84-.632l-1.33-3.416-5.33-.004-1.33 3.423c-.18.415-.46.622-.84.621zm2.84-5.702l3.99.004-2.01-4.917-1.98 4.913zm10.39 5.535c-.55 0-.83-.303-.83-.908l.01-11.132c0-.658.26-.987.79-.987l3.77.003c1.7.002 2.92.25 3.67.744s1.12 1.3 1.12 2.418c0 1.086-.33 1.921-.99 2.506-.65.579-1.6.867-2.86.866l-3.85-.003v5.586c0 .605-.28.908-.83.907zm.83-8.15l2.91.002c.72 0 1.31-.029 1.77-.088.47-.058.81-.203 1.03-.433.22-.237.33-.615.34-1.135 0-.42-.09-.743-.27-.967-.17-.224-.48-.379-.94-.465-.45-.086-1.1-.129-1.93-.13l-2.9-.002-.01 3.217zm13.36 8.162c-.28 0-.51-.083-.67-.247-.16-.158-.24-.379-.24-.662l.01-10.362-2.84-.002c-.3 0-.53-.073-.71-.218a.782.782 0 01-.26-.612c0-.257.09-.457.26-.602.18-.151.42-.227.71-.226l7.52.006c.65 0 .97.277.97.83 0 .552-.32.828-.97.828l-2.8-.003-.01 10.363a.84.84 0 01-.27.65c-.18.172-.41.257-.7.257zm7.47-.132c-.52 0-.79-.33-.79-.988l.01-10.816c0-.658.27-.987.79-.986l8.41.007c.66 0 .99.29.99.869 0 .526-.33.79-.99.789l-7.54-.007V7.58l5.11.004c.74 0 1.11.29 1.1.87 0 .526-.36.789-1.1.788l-5.11-.004-.01 4.698 7.54.006c.66 0 .99.29.99.869 0 .526-.33.79-.99.789l-8.41-.007zm18.8.153c-.56 0-.83-.316-.83-.948l.01-11.152c0-.644.26-.967.79-.966.32 0 .6.168.85.504l3.64 5.115 3.68-5.11c.24-.335.51-.502.83-.502.54 0 .81.323.81.968l-.01 11.152c0 .631-.28.947-.83.947-.55 0-.83-.337-.83-1.008l.01-9.198-2.94 4.163c-.11.164-.22.273-.32.325a.955.955 0 01-.38.069.988.988 0 01-.39-.07c-.11-.052-.22-.16-.33-.325l-2.93-4.167v9.197c0 .671-.28 1.007-.83 1.006zm13.66.011c-.54 0-.81-.316-.81-.948l.01-11.152c0-.644.28-.966.83-.966.56 0 .83.343.83 1.027l-.01 9.09 6.9-9.607c.25-.336.53-.503.85-.503.53 0 .79.323.79.968l-.01 11.152c0 .631-.28.947-.83.946-.55 0-.83-.296-.83-.888l.01-9.208-6.82 9.547c-.16.224-.3.369-.41.434-.12.073-.28.109-.5.108zm13.28.011c-.55 0-.83-.303-.82-.908V3.727c0-.657.27-.986.79-.986l3.77.003c1.7.002 2.93.25 3.68.743.74.495 1.12 1.3 1.12 2.42 0 1.085-.33 1.92-.99 2.505-.65.579-1.61.867-2.86.866l-3.85-.003-.01 5.586c0 .605-.27.908-.83.907zm.84-8.15l2.9.002c.72 0 1.32-.029 1.78-.088.46-.059.81-.203 1.02-.433.23-.237.34-.615.34-1.135 0-.421-.09-.743-.27-.967-.17-.224-.48-.379-.93-.465-.46-.086-1.1-.129-1.94-.13l-2.9-.002v3.217zm9.43 8.336a.829.829 0 01-.58-.217.614.614 0 01-.25-.494c0-.197.02-.362.07-.493l4.72-11.898 1.77.001 4.7 11.906c.05.131.07.296.07.493 0 .191-.08.355-.25.493a.845.845 0 01-.58.217c-.41 0-.69-.211-.84-.632l-1.33-3.416-5.33-.004-1.33 3.423c-.18.415-.46.621-.84.621zm2.85-5.702l3.98.003-2.01-4.916-1.97 4.913zm22.45-4.284c.33-.322.65-.322.97 0 .33.33.33.655 0 .978l-5.17 5.177c-.33.322-.66.321-.98-.001-.33-.33-.33-.655 0-.977l5.18-5.177zm-5.38.913c-.32-.33-.32-.655 0-.977.33-.329.65-.328.98 0l5.17 5.176c.32.33.32.655 0 .977-.33.33-.65.329-.98 0l-5.17-5.176z" fill="#4A4A4A"/><path fill-rule="evenodd" clip-rule="evenodd" d="M1934.33 2.707l.5.275c.61.333.99.968.98 1.662v11.144l-.51-.276a1.9 1.9 0 01-.98-1.661l.01-11.144zM1977 4.229V2.742l13 .01-.01 5.35a1.88 1.88 0 01-1.83 1.89l-9.67-.01-.01 5.755-1.49-.001.01-7.241 11.51.009V4.238L1977 4.23zm36.49-.956l-.28-.502 13.08.011-.27.502a1.89 1.89 0 01-1.66.984l-3.86-.004-.01 11.507H2019l.01-11.508-3.86-.003c-.69 0-1.33-.38-1.66-.987zm-60.07-.431c-.62.167-1.06.736-1.06 1.382v8.99l-9.9-9.91a1.757 1.757 0 00-1.26-.523h-.34l-.01 13.06.42-.117a1.428 1.428 0 001.06-1.383l.01-8.988 9.89 9.908c.33.333.8.524 1.27.524h.34l.01-13.06-.43.117zm14.76 5.656l-5.06-.004a2.717 2.717 0 01-2.71-2.711l.01-1.548 9.61.008c.69 0 1.33-.38 1.67-.994l.27-.5-13.04-.01v3.503a3.74 3.74 0 003.73 3.74l5.06.003a2.71 2.71 0 012.71 2.71v1.57l-11.55-.01.28.504c.33.6.96.974 1.65.975l11.1.009.01-3.505c0-2.06-1.68-3.738-3.74-3.74zm38.48-2.141a2.07 2.07 0 00-2.06-2.067l-5.97-.004a2.067 2.067 0 00-2.07 2.062v5.967c0 1.138.92 2.065 2.06 2.066l5.97.005c1.13 0 2.06-.925 2.06-2.063l.01-5.966zm-8.03-3.587l5.97.005a3.58 3.58 0 013.57 3.583v5.966a3.582 3.582 0 01-3.58 3.577l-5.97-.005a3.582 3.582 0 01-3.58-3.583l.01-5.966c0-1.977 1.6-3.578 3.58-3.577z" fill="url(#paint7_linear_511_2065)"/><defs><linearGradient id="paint0_linear_511_2065" x1=".034" y1="1.115" x2="91.972" y2="2.76" gradientUnits="userSpaceOnUse"><stop stop-color="#E12555"/><stop offset="1" stop-color="#4BA1D9"/></linearGradient><linearGradient id="paint1_linear_511_2065" x1="276.365" y1="1.315" x2="368.307" y2="2.961" gradientUnits="userSpaceOnUse"><stop stop-color="#E12555"/><stop offset="1" stop-color="#4BA1D9"/></linearGradient><linearGradient id="paint2_linear_511_2065" x1="552.686" y1="1.604" x2="644.627" y2="3.25" gradientUnits="userSpaceOnUse"><stop stop-color="#E12555"/><stop offset="1" stop-color="#4BA1D9"/></linearGradient><linearGradient id="paint3_linear_511_2065" x1="829.017" y1="1.815" x2="920.961" y2="3.461" gradientUnits="userSpaceOnUse"><stop stop-color="#E12555"/><stop offset="1" stop-color="#4BA1D9"/></linearGradient><linearGradient id="paint4_linear_511_2065" x1="1105.35" y1="2.021" x2="1197.29" y2="3.666" gradientUnits="userSpaceOnUse"><stop stop-color="#E12555"/><stop offset="1" stop-color="#4BA1D9"/></linearGradient><linearGradient id="paint5_linear_511_2065" x1="1381.67" y1="2.235" x2="1473.62" y2="3.88" gradientUnits="userSpaceOnUse"><stop stop-color="#E12555"/><stop offset="1" stop-color="#4BA1D9"/></linearGradient><linearGradient id="paint6_linear_511_2065" x1="1658.01" y1="2.435" x2="1749.96" y2="4.081" gradientUnits="userSpaceOnUse"><stop stop-color="#E12555"/><stop offset="1" stop-color="#4BA1D9"/></linearGradient><linearGradient id="paint7_linear_511_2065" x1="1934.33" y1="2.707" x2="2026.27" y2="4.352" gradientUnits="userSpaceOnUse"><stop stop-color="#E12555"/><stop offset="1" stop-color="#4BA1D9"/></linearGradient></defs></svg>