<svg width="120" height="65" fill="none" xmlns="http://www.w3.org/2000/svg"><path fill-rule="evenodd" clip-rule="evenodd" d="M0 32.364A9 9 0 012.635 26L25.992 2.636A9 9 0 0132.357 0H115a5 5 0 015 5v27.63a9 9 0 01-2.643 6.37L93.939 62.37A9 9 0 0187.582 65H66.317l1.09-4.532A2 2 0 0065.462 58h-7.04a2 2 0 00-1.944 1.532L55.163 65h-6.846l1.09-4.532A2 2 0 0047.462 58h-7.04a2 2 0 00-1.944 1.532L37.163 65h-6.846l1.09-4.532A2 2 0 0029.462 58h-7.04a2 2 0 00-1.944 1.532L19.163 65H5a5 5 0 01-5-5V32.364zM105 20a5 5 0 100-10 5 5 0 000 10z" fill="#323232"/></svg>