<svg width="49" height="49" fill="none" xmlns="http://www.w3.org/2000/svg"><path d="M49 28.77V4.45c0-1.113-.294-2.036-.902-2.813C47.238.547 46.063 0 44.489 0H4.436A5.15 5.15 0 003.43.084C1.814.4.702 1.364.22 2.917c-.19.609-.21 1.28-.21 1.847-.02 13.451 0 26.903 0 39.452 0 .42.021.881.084 1.322.294 1.616 1.238 2.707 2.812 3.232.44.146.986.23 1.636.23h39.906c.42 0 .776-.02 1.091-.084 1.616-.293 2.749-1.259 3.231-2.79.21-.63.231-1.322.231-1.847V28.77zm-2.014 2.31v13.199c0 .63-.063 1.112-.231 1.49-.294.776-.944 1.217-1.783 1.217-3.105.02-6.274.02-9.337.02h-2.748c-.021 0-.042 0-.084-.02V32.82h7.889l.041-.126c.21-.692.21-8.96.063-9.82l-.02-.148h-7.952c0-.02 0-.042-.021-.063-.021-.105-.042-.189-.042-.252v-.188c0-.987-.021-1.994 0-3.001.02-.84.188-1.008 1.007-1.008h7.889V8.08H33.41c-4.679 0-8.896 3.127-10.239 7.617a11.892 11.892 0 00-.503 3.505v3.462H16.29V32.78h6.336v14.186h-.042c-.147.02-.294.02-.42.02h-5.161c-4.112 0-8.371 0-12.547.022h-.02c-.672 0-1.302-.252-1.742-.672-.44-.44-.692-1.09-.692-1.783.02-9.633.02-19.433.02-28.897V4.428c0-1.217.483-1.951 1.49-2.287.252-.084.567-.105.755-.105H5.82c3.336.021 6.651 0 9.987 0 9.295 0 18.904 0 28.366-.021h.021c.944 0 1.658.23 2.14.714.483.482.714 1.196.714 2.14-.063 8.709-.063 17.606-.063 26.21zM30.81 33.764v13.18h-6.127V30.827h-6.441V24.68h6.441v-5.855c.042-3.903 2.37-7.093 6.064-8.331a8.328 8.328 0 012.328-.399c1.595-.042 3.148-.02 4.805-.02h1.783V16.2H37.65c-1.259 0-2.58 0-3.86.02-.42 0-.986.043-1.469.232-.881.357-1.427 1.091-1.448 1.951a96.662 96.662 0 00-.02 4.281v1.973h8.014v6.127H30.83v.168c-.02.966-.02 1.91-.02 2.812z" fill="url(#paint0_linear_154_3700)"/><defs><linearGradient id="paint0_linear_154_3700" x1="0" y1="27.277" x2="49.003" y2="28.04" gradientUnits="userSpaceOnUse"><stop stop-color="#528CFF"/><stop offset="1" stop-color="#003EC4"/></linearGradient></defs></svg>