<svg width="61" height="45" fill="none" xmlns="http://www.w3.org/2000/svg"><path d="M60.58 35.77c-.02-.564-.04-1.148-.062-1.712-.042-.96-.062-1.962-.146-2.964a65.086 65.086 0 00-1.795-10.605c-1.253-5.01-2.965-9.749-5.052-14.09a2.954 2.954 0 00-1.023-1.19c-1.545-1.107-3.069-2.026-4.634-2.756A26.946 26.946 0 0039.37.03c-1.064-.125-1.816.125-2.4.814-.314.355-.439.69-.376 1.002.083.292.334.522.772.69.25.083.501.166.752.27.376.126.772.272 1.148.418a25.924 25.924 0 013.465 1.607 15.54 15.54 0 01-.48-.125c-1.273-.355-2.484-.689-3.716-.94a40.095 40.095 0 00-5.49-.73 40.765 40.765 0 00-5.532 0 46.22 46.22 0 00-5.47.752c-1.231.25-2.421.563-3.694.918-.147.042-.314.084-.46.125 1.503-.835 3.09-1.524 4.885-2.129.063-.02.105-.042.167-.042.209-.062.418-.125.606-.23.25-.145.438-.375.5-.626a.618.618 0 00-.125-.542l-.083-.105c-.46-.563-.96-1.19-1.92-1.106-.21.02-.418.042-.627.063-.543.041-1.106.104-1.67.187-4.217.731-8.12 2.443-11.67 5.073-.333.25-.605.585-.772.919l-.292.626C6.2 8.402 5.49 9.926 4.885 11.47a72.459 72.459 0 00-4.05 14.718C.292 29.57.021 32.701 0 35.77c0 .564.146.981.46 1.294.27.292.563.585.834.877.627.689 1.274 1.378 1.983 1.983 3.382 2.84 7.432 4.447 12.442 4.885.126.02.272.02.397.02.71 0 1.42-.208 1.774-1.189 0-.02.021-.063.063-.084.02-.02.02-.041.042-.062.146-.25.292-.501.459-.752.355-.584.71-1.169 1.065-1.774.208-.355.271-.647.188-.898-.084-.25-.293-.459-.669-.605-.166-.084-.354-.146-.521-.209-.084-.02-.146-.063-.23-.083a13.917 13.917 0 01-4.906-3.215c5.637 2.547 11.336 3.84 16.93 3.862h.105c5.51 0 11.105-1.253 16.68-3.695-1.42 1.398-3.111 2.442-5.157 3.194-.438.167-.856.355-.981.71-.125.354.062.751.292 1.127l.564.94c.376.605.751 1.21 1.085 1.836.355.668.856.94 1.691.877 3.925-.271 7.307-1.294 10.333-3.131 2.109-1.274 3.883-2.84 5.282-4.655.25-.418.397-.815.376-1.253zm-17.389 4.927c.167-.084.293-.147.439-.21 3.027-1.377 5.427-3.444 7.118-6.178.105-.167.188-.334.293-.522.041-.063.062-.126.104-.188.23-.418.167-.814-.188-1.127-.23-.21-.605-.376-1.127-.042l-.042.042c-.02.02-.042.02-.063.041-2.964 1.942-6.367 3.361-10.395 4.363-4.322 1.065-8.685 1.378-12.943.898-5.908-.668-10.96-2.38-15.448-5.26-.355-.23-.814-.439-1.253-.022-.48.439-.292.94-.062 1.316 1.42 2.526 3.486 4.55 6.116 6.033.418.23.856.459 1.315.668l.501.25-.25.439a30.056 30.056 0 01-1.002 1.607c-.042.042-.23.125-.397.125-4.927-.376-8.893-1.983-12.129-4.926-.396-.355-.751-.773-1.106-1.148l-.5-.564c-.23-.25-.335-.543-.335-.981a63.745 63.745 0 011.315-11.565A71.383 71.383 0 017.536 9.8c.104-.23.209-.46.313-.668.167-.355.334-.73.48-1.086.293-.772.814-1.378 1.587-1.9 3.194-2.108 6.367-3.444 9.728-4.05l-.209.084c-2.15.919-4.906 2.234-7.244 4.238-.396.355-.793.73-1.169 1.106l-.438.439a1.098 1.098 0 00-.25.292c-.251.376-.251.752 0 1.065.292.375.688.459 1.106.25.313-.167.647-.334.96-.5.23-.126.46-.251.71-.356 4.091-2.087 8.454-3.382 12.984-3.82 8.163-.814 15.761.647 22.609 4.363l.02.02c.23.126.46.251.69.356.375.167.75.042 1.022-.313.25-.334.25-.71 0-1.023a16.01 16.01 0 00-.98-1.065c-1.942-1.879-4.322-3.36-7.704-4.864-.209-.083-.397-.167-.605-.25.02 0 .041 0 .062.02.668.147 1.357.272 2.025.46 2.965.835 5.762 2.233 8.309 4.112.25.188.459.543.563.773 1.211 2.442 2.318 5.177 3.361 8.35a70.786 70.786 0 012.61 10.75c.459 2.86.73 5.804.793 8.748 0 .396-.084.688-.334 1.002-1.879 2.358-4.321 4.07-7.41 5.281-1.942.752-4.009 1.19-6.305 1.336-.167.021-.376-.063-.397-.104-.334-.522-.647-1.065-.981-1.629l-.25-.438c-.084-.042-.042-.063 0-.083z" fill="#E7E7E7"/><path d="M17.556 20.698c-1.607 1.273-2.442 3.048-2.505 5.26-.02 1.065.23 2.109.772 3.195.856 1.732 2.422 2.943 4.28 3.319.417.083.814.125 1.232.125a6.096 6.096 0 003.882-1.42 6.796 6.796 0 002.36-4.843 6.753 6.753 0 00-1.88-5.072c-2.233-2.318-5.657-2.547-8.14-.564zm8.246 5.26c0 1.4-.501 2.61-1.44 3.55-1.691 1.711-4.3 1.711-6.054.041-.94-.898-1.483-2.233-1.462-3.632.021-1.399.585-2.714 1.545-3.612.835-.751 1.879-1.169 2.944-1.169.208 0 .417.021.647.042a4.369 4.369 0 013.11 2.192c.48.835.689 1.67.71 2.589zm14.342-6.533c-1.795-.272-3.611.292-5.01 1.544-1.378 1.232-2.15 3.048-2.171 4.99 0 1.941.772 3.757 2.13 4.989 1.21 1.106 2.567 1.67 4.028 1.67.376 0 .773-.042 1.148-.105 3.173-.605 5.22-3.34 5.24-6.93 0-.94-.376-2.13-.981-3.131-.96-1.65-2.568-2.756-4.384-3.027zm2.255 9.978a4.223 4.223 0 01-3.612 1.378c-1.42-.167-2.651-1.002-3.36-2.276-.46-.814-.669-1.732-.648-2.901.084-1.274.626-3.006 2.61-4.008 1.753-.898 3.882-.439 5.156 1.106 1.628 1.983 1.586 4.801-.146 6.701z" fill="#E7E7E7"/></svg>