<svg width="56" height="37" fill="none" xmlns="http://www.w3.org/2000/svg"><path d="M30.636 29.886c-1.188.787-2.355 1.553-3.522 2.32-2.314 1.532-4.648 3.085-6.962 4.618-.625.414-1.396.062-1.5-.684-.188-1.242-.417-2.464-.626-3.707-.145-.89-.312-1.76-.458-2.65-.25-1.326-.5-2.672-.73-3.998-.166-.87-.312-1.76-.458-2.65-.104-.643-.23-1.285-.334-1.906-.041-.27-.229-.373-.437-.497-.938-.497-1.876-.994-2.814-1.47-2.335-1.223-4.648-2.445-6.982-3.646a560.63 560.63 0 01-5.128-2.692c-.229-.124-.458-.29-.562-.497-.313-.539 0-1.16.625-1.305.667-.166 1.334-.29 2-.435 1.147-.228 2.314-.455 3.46-.704 1.189-.249 2.398-.476 3.586-.725 1.083-.228 2.188-.455 3.272-.683.98-.207 1.959-.394 2.939-.6 1.188-.25 2.355-.498 3.543-.746l3.376-.684c1.501-.31 3.002-.621 4.523-.932 1.146-.228 2.272-.456 3.418-.683 1.168-.249 2.335-.477 3.502-.725 1.271-.27 2.564-.539 3.835-.787l4.002-.808c1.334-.27 2.667-.56 4.001-.828 1.543-.311 3.064-.642 4.607-.953 1.25-.249 2.5-.518 3.751-.766L55.001 0c.73-.021 1.167.559.938 1.242-.271.787-.563 1.553-.855 2.32l-3.501 9.444c-.521 1.408-1.063 2.796-1.584 4.204-.5 1.346-.98 2.692-1.46 4.018a489.295 489.295 0 01-1.917 5.157c-.875 2.36-1.75 4.742-2.647 7.104-.333.91-.667 1.822-1 2.713-.25.683-.855 1.056-1.71.497-1.166-.767-2.334-1.512-3.5-2.279-2.002-1.304-4.023-2.61-6.024-3.893-.396-.207-.73-.414-1.105-.642zm-5.67-5.882c5.545 3.583 11.006 7.104 16.529 10.666C45.351 24.294 49.165 13.96 53 3.646c-.02-.021-.063-.042-.083-.063-9.317 6.793-18.592 13.587-27.95 20.421zM48.103 3.356c0-.021-.02-.042-.02-.083-14.78 3.024-29.537 6.067-44.397 9.112.146.104.229.166.312.207 1.793.953 3.606 1.885 5.399 2.838 2.376 1.242 4.73 2.464 7.107 3.707.208.124.375.124.604 0 2.793-1.429 5.607-2.858 8.42-4.287 2.064-1.056 4.148-2.092 6.212-3.148 2.334-1.18 4.648-2.382 6.982-3.562 2.772-1.409 5.565-2.817 8.337-4.225.333-.187.688-.373 1.042-.56zM19.84 31.833h.104c.167-.518.313-1.036.48-1.554l1.938-6.275c.104-.352.27-.621.583-.828.459-.311.917-.663 1.376-.994 2.355-1.74 4.731-3.46 7.086-5.199 1.71-1.242 3.44-2.485 5.148-3.728 2.48-1.802 4.94-3.603 7.42-5.426.209-.145.396-.31.584-.456a.264.264 0 01-.063-.082c-8.879 4.514-17.737 9.03-26.636 13.565a1700.06 1700.06 0 001.98 10.977zm4.022-6.338c-.292.974-.563 1.885-.854 2.796-.271.89-.563 1.781-.813 2.692-.271.891-.584 1.782-.792 2.693.02.02.062.041.083.041 2.46-1.636 4.94-3.272 7.462-4.95a425.31 425.31 0 01-5.086-3.272z" fill="#E7E7E7"/></svg>