<svg width="48" height="48" fill="none" xmlns="http://www.w3.org/2000/svg"><path d="M24.096 47.912c-4.322-.041-8.246-1.023-11.858-3.09-.459-.25-.835-.27-1.336-.124-2.86.897-5.761 1.753-8.621 2.65-.397.126-.752.105-1.044-.166-.313-.293-.355-.647-.23-1.086.856-2.985 1.65-5.991 2.485-8.976.104-.355.062-.606-.105-.898C1.697 33.425.652 30.377.214 27.12a23.682 23.682 0 01.271-7.953c.982-4.551 3.048-8.517 6.305-11.858 3.34-3.423 7.327-5.678 12.003-6.721a22.987 22.987 0 018.1-.397C32.78.963 37.79 3.55 41.777 7.998c3.173 3.528 5.115 7.662 5.845 12.38 1.796 11.585-5.177 22.545-15.844 26.22a25.49 25.49 0 01-7.682 1.314zM3.199 45.115c.355-.104.543-.146.731-.209 2.338-.71 4.676-1.398 6.972-2.15.69-.23 1.211-.146 1.817.209a21.246 21.246 0 008.997 2.964c3.57.355 7.077-.041 10.396-1.461 8.037-3.445 12.671-9.561 13.799-18.245.459-3.57-.084-7.056-1.44-10.396C40.44 5.723 29.69-.123 18.834 2.467 9.796 4.616 3.053 12.131 1.99 21.587c-.418 3.695.083 7.307 1.544 10.751.48 1.128 1.086 2.192 1.65 3.257.27.5.417.96.23 1.545-.356 1.106-.627 2.254-.94 3.382A355.419 355.419 0 013.2 45.114z" fill="url(#paint0_linear_154_3688)"/><path d="M8.627 17.893c.083-3.194 1.399-5.866 3.486-8.204.167-.188.439-.397.668-.417.919-.084 1.837-.167 2.735-.126.355.021.814.334 1.002.647 1.232 1.858 2.275 3.8 3.09 5.887.396 1.023.208 1.963-.355 2.84a10.813 10.813 0 01-1.295 1.628c-.355.375-.438.73-.188 1.127.585.898 1.107 1.837 1.817 2.63 2.108 2.338 4.613 4.175 7.348 5.7.772.417.898.438 1.482-.21.793-.876 1.607-1.774 2.275-2.755.71-1.023 1.712-1.378 2.986-.71.73.397 1.398.877 2.087 1.295 1.19.73 2.38 1.46 3.57 2.17.73.439.835.648.668 1.462-.438 2.338-1.336 4.425-3.32 5.908-1.21.897-2.588 1.377-4.07 1.524-5.323.563-9.958-1.17-14.091-4.384-4.07-3.173-7.035-7.223-9.04-11.983a9.438 9.438 0 01-.855-4.029zm23.84 9.478c-.376.5-.606.918-.919 1.252-.772.835-1.524 1.691-2.359 2.484-.814.752-1.732.835-2.755.314-3.507-1.817-6.618-4.155-9.102-7.265-.689-.856-1.232-1.816-1.524-2.881-.209-.772-.167-1.44.48-2.046.48-.459.898-1.002 1.295-1.544.354-.48.522-1.023.23-1.608-.836-1.607-1.67-3.236-2.527-4.822-.083-.167-.375-.313-.584-.334-.793-.084-1.524.042-1.942.877-.271.521-.668 1.002-.94 1.524-1.586 2.838-1.774 5.72-.333 8.705 1.169 2.38 2.526 4.634 4.238 6.659 3.423 4.07 7.515 7.035 12.943 7.766 1.857.25 3.715.292 5.532-.376 2.129-.794 3.84-3.11 3.82-5.24-1.837-1.127-3.654-2.275-5.553-3.465z" fill="url(#paint1_linear_154_3688)"/><defs><linearGradient id="paint0_linear_154_3688" x1="0" y1="26.672" x2="47.907" y2="27.417" gradientUnits="userSpaceOnUse"><stop stop-color="#1CA031"/><stop offset="1" stop-color="#00FF28"/></linearGradient><linearGradient id="paint1_linear_154_3688" x1="8.626" y1="25.423" x2="40.073" y2="25.949" gradientUnits="userSpaceOnUse"><stop stop-color="#1CA031"/><stop offset="1" stop-color="#00FF28"/></linearGradient></defs></svg>