<svg width="58" height="45" fill="none" xmlns="http://www.w3.org/2000/svg"><path d="M25.614 43.981c-4.07-.104-8.141-.188-12.212-.355-1.837-.083-3.695-.23-5.532-.5-3.403-.48-5.49-2.526-6.534-5.741-.543-1.691-.773-3.424-.94-5.177-.5-6.012-.5-12.066-.146-18.1.146-2.505.313-5.01 1.128-7.41.855-2.484 2.338-4.342 4.822-5.344A7.852 7.852 0 018.37.832c3.09-.23 6.2-.418 9.311-.606 1.816-.104 3.653-.208 5.47-.208C28.036-.003 32.9-.024 37.785.08c3.757.084 7.536.25 11.293.543 3.006.23 5.929 2.046 7.119 5.803.542 1.712.793 3.487.96 5.282.522 6.033.501 12.066.167 18.099-.146 2.505-.313 5.01-1.127 7.41-.856 2.485-2.338 4.343-4.823 5.345-.689.271-1.44.46-2.17.522-3.007.25-6.013.48-9.04.605-4.175.167-8.37.23-12.567.334-.668 0-1.336-.02-1.983-.042 0 .021 0 .021 0 0zm4.05-1.774c6.137-.23 12.463-.438 18.809-.71 1.774-.083 3.298-.772 4.488-2.15.752-.856 1.127-1.879 1.461-2.943.877-2.84.981-5.783 1.086-8.685.167-5.427.23-10.876-.313-16.303-.188-1.817-.543-3.612-1.274-5.282-.897-2.108-2.547-3.277-4.801-3.528-1.357-.146-2.735-.209-4.113-.25-5.866-.188-11.71-.48-17.577-.48-5.74 0-11.481.333-17.222.542-.981.042-1.983.125-2.923.397-2.066.605-3.36 2.046-4.05 4.07-.876 2.547-1.022 5.22-1.169 7.87-.292 5.49-.313 11.002.147 16.492.167 1.963.354 3.925 1.002 5.804.751 2.212 2.254 3.57 4.488 4.07.981.23 2.004.334 3.027.376 6.22.25 12.462.48 18.934.71z" fill="url(#paint0_linear_154_3693)"/><path d="M21.043 22.668v-9.686c0-.23-.021-.48 0-.71.083-.835.71-1.19 1.461-.835.438.209.835.48 1.253.71 5.47 3.194 10.938 6.388 16.387 9.582.188.104.376.188.543.313.668.5.647 1.231-.021 1.711-.188.147-.418.251-.626.355-5.637 3.132-11.273 6.284-16.91 9.415-.208.125-.417.25-.626.334-.835.355-1.42-.02-1.482-.918-.02-.397 0-.773 0-1.17.02-3.005.02-6.053.02-9.101zm1.983-8.726v17.473c5.114-2.84 10.146-5.636 15.28-8.496-5.155-3.048-10.165-5.97-15.28-8.977z" fill="url(#paint1_linear_154_3693)"/><defs><linearGradient id="paint0_linear_154_3693" x1="0" y1="24.506" x2="57.558" y2="25.678" gradientUnits="userSpaceOnUse"><stop stop-color="#C50000"/><stop offset="1" stop-color="#FF4949"/></linearGradient><linearGradient id="paint1_linear_154_3693" x1="21.013" y1="23.931" x2="41.18" y2="24.21" gradientUnits="userSpaceOnUse"><stop stop-color="#C50000"/><stop offset="1" stop-color="#FF4949"/></linearGradient></defs></svg>