<svg width="49" height="49" fill="none" xmlns="http://www.w3.org/2000/svg"><path d="M40.206 48.787H8.58c-4.739 0-8.58-3.862-8.58-8.58V8.58C0 3.842 3.862 0 8.58 0h31.605c4.74 0 8.58 3.862 8.58 8.58v31.606a8.552 8.552 0 01-8.559 8.6zM8.58 2.005A6.575 6.575 0 002.004 8.58v31.606a6.575 6.575 0 006.576 6.576h31.605a6.575 6.575 0 006.576-6.576V8.58a6.575 6.575 0 00-6.576-6.575H8.58z" fill="url(#paint0_linear_154_3712)"/><path d="M24.404 35.593c-6.179 0-11.19-5.03-11.19-11.19 0-6.157 5.032-11.188 11.19-11.188 6.158 0 11.19 5.03 11.19 11.189 0 6.158-5.032 11.19-11.19 11.19zm0-20.374a9.185 9.185 0 109.185 9.185c0-5.073-4.133-9.185-9.185-9.185z" fill="url(#paint1_linear_154_3712)"/><path d="M38.891 13.382a3.47 3.47 0 01-3.465-3.465c0-1.9 1.565-3.466 3.465-3.466s3.465 1.566 3.465 3.466a3.47 3.47 0 01-3.465 3.465zm0-5.177c-.94 0-1.69.772-1.69 1.69 0 .92.772 1.692 1.69 1.692.919 0 1.691-.773 1.691-1.691 0-.919-.752-1.691-1.69-1.691z" fill="url(#paint2_linear_154_3712)"/><defs><linearGradient id="paint0_linear_154_3712" x1="0" y1="27.158" x2="48.769" y2="27.917" gradientUnits="userSpaceOnUse"><stop stop-color="#B100FF"/><stop offset="1" stop-color="#FF0076"/></linearGradient><linearGradient id="paint1_linear_154_3712" x1="13.215" y1="25.672" x2="35.595" y2="26.02" gradientUnits="userSpaceOnUse"><stop stop-color="#B100FF"/><stop offset="1" stop-color="#FF0076"/></linearGradient><linearGradient id="paint2_linear_154_3712" x1="35.426" y1="10.309" x2="42.357" y2="10.417" gradientUnits="userSpaceOnUse"><stop stop-color="#B100FF"/><stop offset="1" stop-color="#FF0076"/></linearGradient></defs></svg>