<svg width="49" height="49" fill="none" xmlns="http://www.w3.org/2000/svg"><path d="M49 28.77V4.45c0-1.112-.294-2.036-.902-2.812C47.238.546 46.063 0 44.489 0H4.436A5.15 5.15 0 003.43.084C1.814.399.702 1.364.22 2.917c-.19.608-.21 1.28-.21 1.847-.02 13.451 0 26.902 0 39.451 0 .42.021.882.084 1.322.294 1.616 1.238 2.708 2.812 3.232.44.147.986.231 1.636.231h39.906c.42 0 .776-.021 1.091-.084 1.616-.294 2.749-1.259 3.231-2.79.21-.63.231-1.323.231-1.848V28.77zm-2.014 2.309v13.2c0 .629-.063 1.112-.231 1.49-.294.776-.944 1.216-1.783 1.216-3.105.021-6.274.021-9.337.021h-2.748c-.021 0-.042 0-.084-.02V32.82h7.889l.041-.126c.21-.693.21-8.961.063-9.821l-.02-.147h-7.952c0-.021 0-.042-.021-.063-.021-.105-.042-.19-.042-.252v-.189c0-.986-.021-1.993 0-3 .02-.84.188-1.008 1.007-1.008h7.889V8.079H33.41c-4.679 0-8.896 3.127-10.239 7.618a11.892 11.892 0 00-.503 3.504v3.463H16.29v10.115h6.336v14.185h-.042c-.147.021-.294.021-.42.021h-5.161c-4.112 0-8.371 0-12.547.021h-.02c-.672 0-1.302-.251-1.742-.671-.44-.44-.692-1.091-.692-1.784.02-9.632.02-19.432.02-28.896V4.428c0-1.217.483-1.952 1.49-2.288.252-.083.567-.104.755-.104H5.82c3.336.02 6.651 0 9.987 0 9.295 0 18.904 0 28.366-.021h.021c.944 0 1.658.23 2.14.713.483.483.714 1.196.714 2.14-.063 8.71-.063 17.607-.063 26.21zM30.81 33.765v13.179h-6.127V30.826h-6.441v-6.149h6.441v-5.854c.042-3.904 2.37-7.093 6.064-8.332a8.328 8.328 0 012.328-.398c1.595-.042 3.148-.021 4.805-.021h1.783V16.2H37.65c-1.259 0-2.58 0-3.86.021-.42 0-.986.042-1.469.231-.881.357-1.427 1.091-1.448 1.952a96.657 96.657 0 00-.02 4.28v1.974h8.014v6.127H30.83v.168c-.02.965-.02 1.91-.02 2.812z" fill="#E7E7E7"/></svg>