<svg width="260" height="65" viewBox="0 0 260 65" fill="none" xmlns="http://www.w3.org/2000/svg">
<path fill-rule="evenodd" clip-rule="evenodd" d="M2.63511 26.0005C0.947851 27.6882 0 29.977 0 32.3635V60C0 62.7614 2.23858 65 5 65H19.1635L20.4778 59.5325C20.6938 58.6337 21.4979 58 22.4224 58H29.4623C30.7559 58 31.7092 59.2096 31.4069 60.4675L30.3173 65H37.1635L38.4778 59.5325C38.6938 58.6337 39.4979 58 40.4224 58H47.4623C48.7559 58 49.7092 59.2096 49.4069 60.4675L48.3173 65H55.1635L56.4778 59.5325C56.6938 58.6337 57.4979 58 58.4224 58H65.4623C66.7559 58 67.7092 59.2096 67.4069 60.4675L66.3173 65H73.1635L74.4778 59.5325C74.6938 58.6337 75.4979 58 76.4224 58H83.4623C84.7559 58 85.7092 59.2096 85.4069 60.4675L84.3173 65H227.582C229.965 65 232.252 64.0544 233.939 62.3706L257.357 39.0008C259.049 37.3124 260 35.0204 260 32.6302V5C260 2.23858 257.761 0 255 0H32.3567C29.9693 0 27.6797 0.948569 25.9918 2.63696L2.63511 26.0005ZM245 20C247.761 20 250 17.7614 250 15C250 12.2386 247.761 10 245 10C242.239 10 240 12.2386 240 15C240 17.7614 242.239 20 245 20Z" fill="#E7E7E7"/>
</svg>
