<svg width="71" height="33" viewBox="0 0 71 33" fill="none" xmlns="http://www.w3.org/2000/svg">
<path d="M37.5381 27.9491C36.7497 27.9491 36.0826 27.9491 35.264 27.9491C35.264 28.9488 35.264 29.9183 35.264 30.8877C35.2336 32.0691 34.9001 32.463 33.7176 32.463C24.136 32.463 14.5543 32.463 4.97273 32.463C3.85084 32.463 3.48698 32.0994 3.45666 30.9786C3.42633 30.0091 3.45666 29.0397 3.45666 27.9188C2.72894 27.9188 2.09219 27.9491 1.45543 27.9188C0.454823 27.8885 0.0606431 27.525 0.0303215 26.5556C0 21.4056 0 16.2556 0.0303215 11.1056C0.0303215 10.1665 0.39418 9.80293 1.33415 9.74234C1.60704 9.71204 1.84961 9.74234 2.21347 9.74234C2.21347 9.01528 2.21347 8.31851 2.21347 7.62175C2.18315 7.59145 2.12251 7.53087 2.06187 7.53087C0.0909647 7.3794 0 7.25822 0 5.34968C0 4.28939 0 3.22909 0 2.1688C0.0303215 1.01762 0.363859 0.684383 1.48576 0.654089C1.69801 0.654089 1.94058 0.654089 2.15283 0.654089C24.1966 0.654089 46.2404 0.654089 68.3144 0.654089C68.648 0.654089 69.0118 0.623795 69.3454 0.654089C70.0428 0.714677 70.4673 1.1085 70.4976 1.83556C70.5279 3.31998 70.5279 4.7741 70.4976 6.25851C70.4976 7.01586 70.0428 7.43998 69.2847 7.47028C68.9815 7.47028 68.6783 7.47028 68.3144 7.47028C68.3144 8.22763 68.3144 8.9244 68.3144 9.62116C68.4054 9.65146 68.4661 9.71204 68.5267 9.71204C70.346 9.80293 70.5279 9.9544 70.5279 11.772C70.5279 16.5282 70.5279 21.3147 70.5279 26.0709C70.5279 27.6159 70.255 27.8885 68.648 27.8885C68.1932 27.8885 67.7383 27.8885 67.1016 27.8885C67.1016 28.8883 67.1016 29.8577 67.1016 30.8271C67.1016 32.0994 66.7377 32.4327 65.4642 32.4327C61.9772 32.4327 58.4903 32.4327 55.0033 32.4327C53.8207 32.4327 53.4569 32.0691 53.4569 30.8574C53.4569 29.9183 53.4569 28.9791 53.4569 27.9491C52.6988 27.9491 52.0015 27.9491 51.1828 27.9491C51.1828 28.8883 51.1828 29.8274 51.1828 30.7665C51.1828 32.0388 50.8492 32.4024 49.5757 32.4024C46.0888 32.4024 42.6018 32.4024 39.1148 32.4024C37.8716 32.4024 37.5381 32.0388 37.5078 30.7665C37.5078 29.888 37.5381 29.0094 37.5381 27.9491ZM68.1325 25.5862C68.1325 21.0118 68.1325 16.5282 68.1325 12.0447C67.9203 12.0144 67.7687 12.0144 67.6171 12.0144C66.2526 11.9538 65.9494 11.6812 65.9494 10.3179C65.9494 9.4091 65.9494 8.50028 65.9494 7.59145C65.9494 5.34968 65.9494 5.34969 68.1628 5.07704C68.1628 4.38027 68.1628 3.68351 68.1628 2.98674C46.1797 2.98674 24.2876 2.98674 2.36508 2.98674C2.36508 3.74409 2.36508 4.44086 2.36508 5.13763C2.60765 5.13763 2.72894 5.16792 2.88055 5.16792C4.24502 5.22851 4.54823 5.50115 4.54823 6.86439C4.54823 7.77322 4.54823 8.68204 4.54823 9.59087C4.54823 11.8023 4.54823 11.8023 2.33476 12.1053C2.33476 16.5888 2.33476 21.0724 2.33476 25.5862C24.2876 25.5862 46.1797 25.5862 68.1325 25.5862ZM5.73077 30.1C14.8576 30.1 23.8934 30.1 32.8989 30.1C32.8989 29.3427 32.8989 28.6762 32.8989 27.9794C23.8327 27.9794 14.7969 27.9794 5.73077 27.9794C5.73077 28.7065 5.73077 29.373 5.73077 30.1ZM48.8783 27.9794C45.8159 27.9794 42.8443 27.9794 39.9032 27.9794C39.9032 28.7368 39.9032 29.4335 39.9032 30.0697C42.9656 30.0697 45.9068 30.0697 48.8783 30.0697C48.8783 29.3427 48.8783 28.7065 48.8783 27.9794ZM64.7668 28.0097C61.674 28.0097 58.7025 28.0097 55.7916 28.0097C55.7916 28.7671 55.7916 29.4335 55.7916 30.1303C58.8238 30.1303 61.765 30.1303 64.7668 30.1303C64.7668 29.373 64.7668 28.7065 64.7668 28.0097Z" fill="#E7E7E7"/>
<path d="M14.7957 14.2875C14.7957 16.7413 14.7957 19.1951 14.7957 21.649C14.7957 23.0425 14.4621 23.3454 13.037 23.3757C11.0965 23.3757 9.1862 23.3757 7.24562 23.3757C6.06308 23.3757 5.69922 23.0122 5.69922 21.8307C5.69922 16.8019 5.69922 11.7731 5.69922 6.74422C5.69922 5.56275 6.06308 5.19922 7.27594 5.19922C9.27716 5.19922 11.2784 5.19922 13.2796 5.19922C14.4015 5.19922 14.7654 5.56275 14.7957 6.68363C14.7957 9.22834 14.7957 11.7428 14.7957 14.2875ZM8.00366 21.0128C9.58038 21.0128 11.0055 21.0128 12.4609 21.0128C12.4609 16.4687 12.4609 12.0154 12.4609 7.53187C10.9448 7.53187 9.48941 7.53187 8.00366 7.53187C8.00366 12.0457 8.00366 16.4989 8.00366 21.0128Z" fill="#E7E7E7"/>
<path d="M17.0713 14.2855C17.0713 11.8317 17.0713 9.37786 17.0713 6.92403C17.0713 5.5305 17.3746 5.19727 18.7997 5.19727C20.7402 5.19727 22.6505 5.19727 24.5911 5.19727C25.8039 5.19727 26.1678 5.5608 26.1678 6.74227C26.1678 11.7711 26.1678 16.7999 26.1678 21.8288C26.1678 23.0102 25.8039 23.3738 24.5911 23.3738C22.6202 23.3738 20.6493 23.3738 18.6784 23.3738C17.4049 23.3738 17.0713 23.0405 17.041 21.7682C17.041 19.2538 17.0713 16.7696 17.0713 14.2855ZM19.4061 7.49962C19.4061 12.074 19.4061 16.5576 19.4061 21.0108C20.9222 21.0108 22.3776 21.0108 23.8027 21.0108C23.8027 16.4667 23.8027 11.9832 23.8027 7.49962C22.317 7.49962 20.9222 7.49962 19.4061 7.49962Z" fill="#E7E7E7"/>
<path d="M37.5369 14.3471C37.5369 16.8009 37.5369 19.2548 37.5369 21.7086C37.5369 22.9809 37.2034 23.3445 35.9299 23.3445C33.959 23.3445 31.9881 23.3445 30.0172 23.3445C28.774 23.3445 28.4102 22.9809 28.4102 21.7086C28.4102 16.71 28.4102 11.7418 28.4102 6.74327C28.4102 5.5315 28.774 5.16797 29.9566 5.16797C31.9578 5.16797 33.959 5.16797 35.9602 5.16797C37.1428 5.16797 37.5066 5.5315 37.5066 6.74327C37.5369 9.28798 37.5369 11.8327 37.5369 14.3471ZM30.7752 7.50062C30.7752 12.075 30.7752 16.5283 30.7752 21.0118C32.2913 21.0118 33.7468 21.0118 35.1719 21.0118C35.1719 16.4677 35.1719 11.9842 35.1719 7.50062C33.6558 7.50062 32.261 7.50062 30.7752 7.50062Z" fill="#E7E7E7"/>
<path d="M48.909 14.1653C48.909 16.6495 48.909 19.1639 48.909 21.648C48.909 23.0415 48.5754 23.3445 47.1503 23.3445C45.2097 23.3445 43.2995 23.3445 41.3589 23.3445C40.1764 23.3445 39.8125 22.9809 39.8125 21.7995C39.8125 16.7706 39.8125 11.7418 39.8125 6.71297C39.8125 5.5315 40.1764 5.19826 41.3892 5.16797C43.3904 5.16797 45.3917 5.16797 47.3929 5.16797C48.5148 5.16797 48.8786 5.5315 48.909 6.65238C48.909 9.19709 48.909 11.6812 48.909 14.1653ZM46.5742 7.53091C45.0581 7.53091 43.6027 7.53091 42.1776 7.53091C42.1776 12.075 42.1776 16.5586 42.1776 21.0118C43.6937 21.0118 45.1188 21.0118 46.5742 21.0118C46.5742 16.5283 46.5742 12.075 46.5742 7.53091Z" fill="#E7E7E7"/>
<path d="M53.3669 12.0156C52.6998 12.0156 52.0024 12.0459 51.3353 12.0156C50.456 11.9853 50.0618 11.6218 50.0618 10.7736C50.0315 9.34976 50.0315 7.89564 50.0618 6.47181C50.0921 5.62358 50.456 5.22975 51.3353 5.22975C52.7604 5.19946 54.2159 5.19946 55.641 5.22975C56.49 5.26005 56.8538 5.65387 56.8842 6.5324C56.9145 7.92593 56.9145 9.31946 56.8842 10.713C56.8538 11.6218 56.49 11.9854 55.55 12.0459C55.5197 12.0459 55.4894 12.0459 55.4287 12.0459C54.7313 12.0156 54.0339 12.0156 53.3669 12.0156ZM52.3662 7.50181C52.3662 8.28946 52.3662 8.95593 52.3662 9.6527C53.1243 9.6527 53.7914 9.6527 54.4887 9.6527C54.4887 8.89535 54.4887 8.19858 54.4887 7.50181C53.761 7.50181 53.094 7.50181 52.3662 7.50181Z" fill="#E7E7E7"/>
<path d="M64.7963 8.65204C64.7963 9.3791 64.8266 10.0759 64.7963 10.8029C64.7659 11.5603 64.3414 12.0147 63.5834 12.0147C62.0976 12.045 60.6422 12.045 59.1565 12.0147C58.3984 12.0147 57.9739 11.53 57.9739 10.7726C57.9436 9.3488 57.9436 7.89468 57.9739 6.47086C58.0042 5.62262 58.3681 5.2288 59.2474 5.1985C60.6725 5.16821 62.128 5.16821 63.5531 5.1985C64.4021 5.2288 64.7659 5.62262 64.7963 6.47086C64.8266 7.19792 64.7963 7.92498 64.7963 8.65204ZM62.4918 7.53115C61.7035 7.53115 61.0364 7.53115 60.339 7.53115C60.339 8.28851 60.339 8.98527 60.339 9.65175C61.097 9.65175 61.7944 9.65175 62.4918 9.65175C62.4918 8.89439 62.4918 8.22792 62.4918 7.53115Z" fill="#E7E7E7"/>
</svg>
