<svg width="64" height="70" viewBox="0 0 64 70" fill="none" xmlns="http://www.w3.org/2000/svg">
<path d="M39.6793 65.3578C39.6793 66.5539 39.6611 67.5494 39.6866 68.5449C39.7012 69.205 39.5116 69.7374 38.8516 69.9452C38.2462 70.1385 37.8633 69.7921 37.4622 69.3472C37.2142 69.0737 36.7146 68.9096 36.3208 68.8987C34.3626 68.8549 32.4007 68.9278 30.4425 68.8622C26.9964 68.7455 24.7829 65.5511 26.0118 62.4879C26.763 60.6208 28.1889 59.5961 30.2127 59.5415C32.2147 59.4904 34.224 59.5159 36.226 59.5196C36.7839 59.5196 37.2398 59.505 37.6008 58.8997C37.7831 58.597 38.4468 58.411 38.8625 58.4548C39.4861 58.5204 39.6866 59.0783 39.6793 59.6873C39.6684 60.7266 39.6757 61.7622 39.6757 62.8781C40.1498 62.9146 40.4998 62.962 40.8499 62.962C44.223 62.9693 47.5961 62.8708 50.9656 62.9911C54.9732 63.1334 57.9087 59.567 57.008 55.5666C55.1701 57.0727 53.0369 57.2733 50.8124 57.1857C50.4077 57.1675 49.8826 57.3024 49.6018 57.5686C48.9818 58.1521 48.2853 58.3381 47.4831 58.3235C46.8923 58.3125 46.2979 58.3308 45.7072 58.3198C42.7571 58.2506 40.8827 56.3908 40.8207 53.4115C40.777 51.3621 40.8098 49.3091 40.8098 47.2597C40.8098 43.3396 40.8134 39.4231 40.8098 35.503C40.8061 33.5375 41.4297 31.7834 43.2749 30.9739C45.3826 30.0477 47.6144 29.7231 49.7258 31.2182C50.0503 31.448 50.5718 31.4552 51.0057 31.4625C54.1455 31.5027 54.4773 31.5792 57.0664 33.0525C57.0664 32.1809 57.0664 31.3604 57.0664 30.5217C57.0226 30.4889 56.957 30.3977 56.8841 30.3941C54.2476 30.219 53.6495 29.5809 53.6495 26.9407C53.6495 25.8468 53.5839 24.7491 53.675 23.6624C53.7261 23.0571 54.0397 22.4773 54.2257 21.8829C54.3934 21.3505 54.7289 20.7962 54.6706 20.2857C54.3314 17.2152 53.0989 14.5022 51.0385 12.2084C50.7213 11.8547 49.992 11.7417 49.4523 11.738C43.8037 11.7052 38.1514 11.7161 32.5028 11.7161C26.2598 11.7161 20.0168 11.749 13.7738 11.687C12.6762 11.676 12.0016 12.0662 11.3816 12.8831C9.66043 15.1476 8.64667 17.6966 8.30024 20.5045C8.25648 20.8582 8.37318 21.3432 8.60292 21.5985C9.20096 22.2658 9.36141 23.0097 9.34318 23.863C9.31401 25.0919 9.34318 26.3245 9.33224 27.5534C9.31766 29.4897 8.57374 30.2555 6.6301 30.3613C6.4113 30.3722 6.1925 30.4087 5.90807 30.4378C5.90807 31.2912 5.90807 32.097 5.90807 32.9139C5.97735 32.9358 6.0904 33.0087 6.13416 32.9795C7.88818 31.747 9.8537 31.3386 11.9614 31.4771C12.6579 31.5245 13.3362 31.5063 13.7884 30.839C13.8358 30.7697 13.927 30.7113 14.0108 30.6822C15.7503 30.1133 17.5225 30.1461 19.2255 30.6931C20.6404 31.1453 21.5776 32.2283 21.9714 33.687C22.11 34.2048 22.172 34.7591 22.172 35.2988C22.1865 41.312 22.1865 47.3289 22.1756 53.3422C22.1683 56.42 20.3414 58.2615 17.2673 58.3235C16.5853 58.3381 15.8998 58.3454 15.2179 58.3089C14.8641 58.2907 14.3755 58.287 14.1859 58.0682C13.1502 56.894 11.7973 57.193 10.5137 57.1712C7.17344 57.1128 4.45671 54.9722 3.70551 51.7341C3.54506 51.0339 3.54871 50.29 3.54871 49.5643C3.53777 43.686 3.54142 37.8076 3.54142 31.9293C3.54142 31.4771 3.54142 31.0286 3.54142 30.4451C3.04184 30.4123 2.60789 30.3977 2.17759 30.3467C0.959624 30.2008 0.0734877 29.3147 0.0370216 28.0821C-0.014031 26.4886 -0.0140314 24.8913 0.0479609 23.2978C0.066194 22.831 0.23759 22.2439 0.554845 21.9412C1.18571 21.3396 1.29875 20.6358 1.36439 19.8517C2.18853 10.0387 10.3752 1.47281 20.1043 0.273077C21.4536 0.105333 22.8247 0.0251071 24.1849 0.0178139C29.2427 -0.011359 34.3006 0.00322791 39.3584 0.00687452C50.3238 0.0141677 59.2872 7.32562 61.4605 18.0357C61.5699 18.5718 61.6319 19.1151 61.6903 19.6585C61.7851 20.5555 61.8872 21.3979 62.6056 22.1126C62.9301 22.4335 62.9702 23.1227 62.9921 23.6479C63.0432 24.9205 63.0213 26.2005 63.0067 27.4732C62.9812 29.5189 62.2738 30.2446 60.2389 30.3576C60.0639 30.3686 59.8925 30.3977 59.5607 30.4342C59.5607 30.9994 59.5607 31.5282 59.5607 32.0606C59.5607 40.1269 59.5789 48.1932 59.5424 56.2559C59.5388 57.379 59.4221 58.5459 59.1048 59.618C58.0984 63.0167 54.9878 65.3104 51.4506 65.3469C48.0775 65.3797 44.708 65.3541 41.3349 65.3541C40.839 65.3578 40.343 65.3578 39.6793 65.3578ZM59.444 20.953C59.3163 19.9757 59.2398 19.0859 59.0793 18.2144C57.5149 9.71415 49.7695 2.77465 41.1635 2.47563C34.9314 2.26048 28.6739 2.16202 22.4491 2.46104C13.9452 2.86946 8.11062 7.36938 4.83961 15.1914C4.08477 16.9928 3.70551 18.9 3.61435 20.9457C4.39472 20.9457 5.09488 20.9457 5.84243 20.9457C5.90442 20.6613 5.97007 20.4461 5.99559 20.2273C7.08593 11.2239 14.4156 4.68548 23.4702 4.6636C28.9364 4.64901 34.4027 4.63807 39.869 4.66724C47.804 4.711 54.7727 10.2502 56.6397 17.9774C56.8731 18.9437 57.0263 19.9283 57.2305 20.9567C57.9306 20.953 58.587 20.953 59.444 20.953ZM47.7456 56.0225C47.7456 48.1713 47.7456 40.4733 47.7456 32.706C46.9033 32.706 46.1776 32.655 45.4556 32.717C44.0152 32.8373 43.2275 33.6687 43.2239 35.1274C43.2056 41.2719 43.2056 47.4165 43.2239 53.561C43.2275 55.0233 44.1209 55.9167 45.5905 56.0152C46.2688 56.0626 46.9507 56.0225 47.7456 56.0225ZM15.2689 55.8693C18.7587 56.4418 19.9512 55.4974 19.8746 52.2263C19.747 46.8549 19.8418 41.4834 19.8381 36.1083C19.8381 35.6087 19.8345 35.1019 19.7579 34.6132C19.6047 33.6104 19.0067 32.9212 18.0002 32.7972C17.125 32.6878 16.2243 32.7753 15.2653 32.7753C15.2689 40.528 15.2689 48.1604 15.2689 55.8693ZM15.6153 9.19269C26.3036 9.19269 36.7183 9.19269 47.432 9.19269C45.2878 7.93461 43.2822 7.15423 41.1198 7.12871C34.7017 7.05942 28.2837 7.05942 21.862 7.13235C19.7105 7.15788 17.7085 7.94555 15.6153 9.19269ZM5.92995 40.889C5.92995 43.2739 5.92995 45.5129 5.92995 47.7629C8.27107 47.7629 10.5137 47.7629 12.7746 47.7629C12.7746 45.4327 12.7746 43.1937 12.7746 40.889C10.4773 40.889 8.27107 40.889 5.92995 40.889ZM50.2727 47.7374C52.654 47.7374 54.8894 47.7374 57.0591 47.7374C57.0591 45.3817 57.0591 43.1426 57.0591 40.9219C54.7435 40.9219 52.5409 40.9219 50.2727 40.9219C50.2727 43.2338 50.2727 45.4473 50.2727 47.7374ZM37.2215 61.8534C34.8184 61.8534 32.459 61.7841 30.1033 61.8826C28.8598 61.9336 28.0211 63.0203 28.0321 64.2055C28.043 65.2703 28.8453 66.3825 29.8918 66.4226C32.3351 66.5101 34.7819 66.4518 37.3382 66.4518C37.3382 65.1718 37.3455 64.0377 37.3346 62.9073C37.3346 62.59 37.2726 62.2837 37.2215 61.8534ZM12.8585 33.9823C8.34765 33.5484 5.88984 35.1821 6.01747 38.4422C8.25649 38.4422 10.4955 38.4422 12.8002 38.4422C12.8257 38.0556 12.8585 37.7457 12.8585 37.4393C12.8622 36.3162 12.8585 35.1894 12.8585 33.9823ZM50.2582 38.413C52.643 38.413 54.8784 38.413 57.1101 38.413C57.143 35.6561 54.6961 32.9868 50.2582 34.1027C50.2582 35.4993 50.2582 36.8996 50.2582 38.413ZM12.7783 54.7133C12.7783 53.1927 12.7783 51.7596 12.7783 50.29C10.4554 50.29 8.21637 50.29 5.9737 50.29C6.10134 53.6704 8.5154 55.2348 12.7783 54.7133ZM57.1174 50.1879C55.1009 50.1879 53.1973 50.1842 51.2938 50.1915C50.9875 50.1915 50.6812 50.2426 50.3311 50.2754C50.3311 51.8216 50.3311 53.2839 50.3311 54.7243C54.5648 55.1801 56.895 53.6631 57.1174 50.1879ZM60.6145 27.9071C60.6145 26.3099 60.6145 24.8841 60.6145 23.4327C59.0574 23.4327 57.5951 23.4327 56.1401 23.4327C56.1401 24.9825 56.1401 26.4156 56.1401 27.9071C57.6608 27.9071 59.0939 27.9071 60.6145 27.9071ZM2.46932 23.3817C2.46932 24.9606 2.46932 26.3938 2.46932 27.8962C3.9936 27.8962 5.42672 27.8962 6.91089 27.8962C6.91089 26.3536 6.91089 24.8877 6.91089 23.3817C5.39754 23.3817 4.00089 23.3817 2.46932 23.3817Z" fill="#E7E7E7"/>
</svg>
