<svg width="71" height="52" viewBox="0 0 71 52" fill="none" xmlns="http://www.w3.org/2000/svg">
<path d="M43.8451 44.9441C43.8451 46.634 43.8451 48.1163 43.8451 49.6876C47.3432 49.6876 50.8117 49.6876 54.3691 49.6876C54.3691 50.5177 54.3691 51.2292 54.3691 52C42.5704 52 30.8012 52 18.8839 52C18.8839 51.6146 18.8839 51.2588 18.8839 50.9031C18.8839 50.577 18.8839 50.2509 18.8839 49.7765C21.6409 49.7765 24.309 49.7765 27.0956 49.7765C27.0956 48.146 27.0956 46.6636 27.0956 45.0331C18.1132 45.0331 9.10104 45.0331 0 45.0331C0 29.943 0 15.0011 0 0C23.6568 0 47.3136 0 71 0C71 14.9715 71 29.8837 71 44.9441C61.9879 44.9441 52.9758 44.9441 43.8451 44.9441ZM2.40125 2.31243C2.40125 15.7719 2.40125 29.1425 2.40125 42.5428C24.4868 42.5428 46.5132 42.5428 68.5691 42.5428C68.5691 29.1129 68.5691 15.7127 68.5691 2.31243C46.4835 2.31243 24.4868 2.31243 2.40125 2.31243ZM29.6155 49.6579C33.6175 49.6579 37.4714 49.6579 41.3845 49.6579C41.3845 48.0867 41.3845 46.5747 41.3845 45.0627C37.4121 45.0627 33.5286 45.0627 29.6155 45.0627C29.6155 46.634 29.6155 48.1163 29.6155 49.6579Z" fill="#E7E7E7"/>
</svg>
