<svg width="71" height="55" viewBox="0 0 71 55" fill="none" xmlns="http://www.w3.org/2000/svg">
<path d="M51.9917 53.1136C43.2132 53.1136 34.671 53.1136 25.9811 53.1136C25.9811 51.5766 25.9811 50.0987 25.9811 48.5026C25.183 48.5026 24.4737 48.5026 23.646 48.5026C23.646 49.9804 23.646 51.5174 23.646 53.084C19.6262 53.084 15.7542 53.084 11.7639 53.084C11.7639 51.547 11.7639 50.0691 11.7639 48.5026C10.1382 48.5026 8.66037 48.5026 7.06426 48.5026C7.06426 50.4238 7.06426 52.3451 7.06426 54.2959C6.23665 54.2959 5.49771 54.2959 4.67009 54.2959C4.67009 51.1628 4.67009 48.0888 4.67009 44.8965C3.87204 44.8965 3.19222 44.8965 2.42372 44.8965C2.42372 44.0689 2.42372 43.3596 2.42372 42.5319C3.10354 42.5319 3.81293 42.5319 4.55186 42.5319C4.58142 42.1181 4.61098 41.793 4.64054 41.3792C3.45823 41.3792 2.3646 41.3792 1.21186 41.3792C1.21186 36.5909 1.21186 31.9208 1.21186 27.162C2.33505 27.162 3.42868 27.162 4.58142 27.162C4.58142 26.7482 4.58142 26.4231 4.58142 26.0388C3.87204 26.0093 3.19222 25.9797 2.42372 25.9206C2.42372 25.1521 2.42372 24.4427 2.42372 23.6151C3.1331 23.6151 3.84248 23.6151 4.58142 23.6151C4.61098 23.1422 4.64054 22.7875 4.64054 22.4328C4.64054 16.3735 4.64054 10.3142 4.64054 4.2549C4.64054 2.57012 4.37452 2.3041 2.74885 2.3041C1.9508 2.3041 1.12319 2.3041 0.325133 2.27455C0.206903 2.3041 0.147788 2.27455 0 2.21543C0 1.53561 0 0.796669 0 0.0577296C1.44832 0.0577296 2.89664 -0.0900582 4.28585 0.0872872C5.8524 0.29419 6.94603 1.74251 7.0347 3.39773C7.06426 4.16623 7.0347 4.93473 7.0347 5.85101C7.59629 5.85101 8.06921 5.85101 8.51258 5.85101C27.1043 5.85101 45.6664 5.85101 64.2581 5.88057C65.2927 5.88057 66.4158 6.02836 67.3912 6.44216C69.2534 7.21066 70.347 8.68854 70.7312 10.6689C70.8199 11.1123 70.879 11.5556 70.879 11.999C70.879 22.0781 70.9086 32.1572 70.879 42.2659C70.879 44.7488 69.8445 46.7291 67.5095 47.7932C66.6227 48.207 65.5882 48.3843 64.6424 48.4139C60.8886 48.473 57.1052 48.4435 53.3514 48.4435C52.9376 48.4435 52.5533 48.4435 52.0213 48.4435C51.9918 50.01 51.9917 51.5174 51.9917 53.1136ZM7.09381 36.6204C8.48302 36.6204 9.754 36.65 11.0545 36.6204C11.8821 36.5909 12.5028 36.7978 13.094 37.448C14.1285 38.6008 15.2813 39.6353 16.3749 40.7585C16.7887 41.1723 17.2025 41.4088 17.8232 41.3792C21.7248 41.3496 25.656 41.3792 29.5576 41.3496C30.0305 41.3496 30.5625 41.1427 30.9468 40.8472C32.1291 40.0196 33.2523 39.1033 34.4346 38.2757C34.8188 38.0096 35.3508 37.8323 35.8238 37.8027C37.1539 37.7436 38.4839 37.7436 39.814 37.8027C40.2574 37.8323 40.7599 37.9801 41.1146 38.2461C42.2969 39.0737 43.4496 39.9604 44.5728 40.8176C45.0753 41.2019 45.5778 41.3496 46.1985 41.3496C50.041 41.3201 53.8834 41.3201 57.7259 41.3496C58.3171 41.3496 58.7604 41.1723 59.2038 40.788C60.9772 39.1624 62.8098 37.5958 64.5833 35.9997C65.0562 35.5564 65.5291 35.379 66.1794 35.4086C66.9479 35.4381 67.6868 35.4086 68.4553 35.4086C68.4553 29.8222 68.4553 24.4132 68.4553 18.8859C67.6573 18.8859 66.9183 18.8563 66.2089 18.8859C65.5291 18.945 65.0266 18.7086 64.5242 18.2356C62.7803 16.6395 60.9772 15.1025 59.2334 13.5064C58.79 13.1222 58.3762 12.9153 57.7555 12.9153C53.8834 12.9448 50.0114 12.9448 46.1098 12.9153C45.5186 12.9153 45.0457 13.0631 44.6024 13.4177C43.4496 14.3045 42.3264 15.1912 41.1441 15.9893C40.7599 16.2553 40.2278 16.4326 39.7549 16.4622C38.4544 16.5213 37.1834 16.4622 35.8829 16.4917C35.2917 16.5213 34.8188 16.3144 34.3754 15.9597C33.2523 15.073 32.0995 14.1862 30.9172 13.3882C30.5625 13.1222 30.06 12.9448 29.6167 12.9448C25.656 12.9153 21.7248 12.9448 17.7641 12.9153C17.2321 12.9153 16.8774 13.0631 16.4931 13.4473C15.3404 14.6296 14.1876 15.6937 13.094 16.876C12.5324 17.4967 11.9117 17.7627 11.0545 17.7332C9.754 17.674 8.42391 17.7036 7.06426 17.7036C7.09381 24.0585 7.09381 30.236 7.09381 36.6204ZM7.06426 15.3685C8.15789 15.3685 9.13329 15.339 10.1087 15.3685C10.8772 15.3981 11.4388 15.1912 11.9708 14.6296C13.0053 13.5064 14.1285 12.5015 15.163 11.4078C15.6951 10.8167 16.2862 10.5802 17.0843 10.5802C20.9268 10.6098 24.7692 10.6985 28.6117 10.5507C30.4147 10.4915 31.7744 11.0236 33.134 12.1172C35.7055 14.2158 35.7351 14.1862 39.016 14.0976C39.4889 14.0976 40.0209 13.8907 40.4052 13.6247C41.5579 12.8266 42.6516 11.9103 43.8043 11.1418C44.2181 10.8462 44.8093 10.6393 45.3117 10.6393C49.7454 10.6098 54.179 10.6393 58.6126 10.6098C59.2038 10.6098 59.6472 10.7871 60.0905 11.1714C61.7457 12.6788 63.5192 14.0976 65.1153 15.6937C66.1498 16.7282 67.2435 16.61 68.4553 16.4326C68.4553 14.7183 68.4553 13.0335 68.4553 11.3783C68.4553 11.0827 68.3666 10.7871 68.2484 10.5211C67.6277 8.95456 66.4454 8.24517 64.3468 8.24517C45.6073 8.24517 26.8974 8.24517 8.15789 8.24517C7.8032 8.24517 7.44851 8.27473 7.06426 8.30429C7.06426 10.6689 7.06426 12.9153 7.06426 15.3685ZM68.4553 37.921C66.9183 37.5367 65.7951 37.921 64.7606 38.985C63.3714 40.4038 61.7753 41.6452 60.327 43.0049C59.7358 43.5369 59.1742 43.7734 58.3762 43.7734C54.6519 43.7438 50.8981 43.6551 47.1739 43.8029C45.2822 43.862 43.6861 43.5369 42.356 42.1773C40.7599 40.522 38.8091 39.9013 36.5627 40.2856C36.0307 40.3742 35.4986 40.522 35.0553 40.8176C33.9025 41.6157 32.8089 42.5024 31.6561 43.3004C31.3015 43.5665 30.799 43.7438 30.3556 43.7438C25.8038 43.7734 21.2814 43.7734 16.7296 43.7438C16.3158 43.7438 15.8133 43.5073 15.4882 43.2118C14.2172 42.0295 13.0349 40.7585 11.7935 39.5466C11.557 39.3102 11.2023 39.0146 10.8772 39.0146C9.63577 38.9555 8.39435 38.985 7.12337 38.985C7.12337 41.4088 7.12337 43.7142 7.12337 46.0789C7.62585 46.0789 8.0101 46.0789 8.42391 46.0789C26.9565 46.0789 45.5186 46.0789 64.0512 46.0789C64.5242 46.0789 65.0266 46.0789 65.4996 46.0197C67.0661 45.8128 68.3666 44.5419 68.4553 43.0344C68.5144 41.3201 68.4553 39.6353 68.4553 37.921ZM4.55186 38.9259C4.55186 35.7633 4.55186 32.7188 4.55186 29.6448C4.16762 29.6448 3.87204 29.6448 3.54691 29.6448C3.54691 32.778 3.54691 35.8519 3.54691 38.9259C3.9016 38.9259 4.19717 38.9259 4.55186 38.9259ZM30.6512 50.7785C30.6512 49.9509 30.6512 49.2415 30.6512 48.5026C29.8531 48.5026 29.1438 48.5026 28.3753 48.5026C28.3753 49.2711 28.3753 49.9804 28.3753 50.7785C29.1438 50.7785 29.8531 50.7785 30.6512 50.7785ZM16.434 50.7785C16.434 50.01 16.434 49.3006 16.434 48.5617C15.6655 48.5617 14.9266 48.5617 14.2467 48.5617C14.2467 49.3597 14.2467 50.0691 14.2467 50.7785C14.9857 50.7785 15.6655 50.7785 16.434 50.7785ZM21.1337 48.5026C20.3356 48.5026 19.6558 48.5026 18.9464 48.5026C18.9464 49.3006 18.9464 50.0396 18.9464 50.7785C19.7149 50.7785 20.3947 50.7785 21.1337 50.7785C21.1337 50.01 21.1337 49.3006 21.1337 48.5026ZM33.1045 48.473C33.1045 49.3006 33.1045 50.01 33.1045 50.7489C33.9025 50.7489 34.6119 50.7489 35.3508 50.7489C35.3508 49.9509 35.3508 49.2415 35.3508 48.473C34.5823 48.473 33.873 48.473 33.1045 48.473ZM44.8093 48.5321C44.0112 48.5321 43.3018 48.5321 42.5629 48.5321C42.5629 49.3302 42.5629 50.0396 42.5629 50.7785C43.3314 50.7785 44.0408 50.7785 44.8093 50.7785C44.8093 49.9804 44.8093 49.3006 44.8093 48.5321ZM47.2625 50.7489C48.0606 50.7489 48.7995 50.7489 49.5385 50.7489C49.5385 49.9509 49.5385 49.2415 49.5385 48.5026C48.7404 48.5026 48.031 48.5026 47.2625 48.5026C47.2625 49.2711 47.2625 49.9509 47.2625 50.7489ZM40.0801 48.5321C39.2229 48.5321 38.5431 48.5321 37.8928 48.5321C37.8928 49.3302 37.8928 50.0396 37.8928 50.7785C38.6317 50.7785 39.282 50.7785 39.9914 50.7785C40.0209 50.5125 40.0505 50.3056 40.0801 50.0987C40.1096 49.5962 40.0801 49.0937 40.0801 48.5321Z" fill="#E7E7E7"/>
<path d="M36.5627 27.2212C36.5627 33.9899 31.2719 40.2265 23.4982 40.1674C15.6655 40.1083 10.5224 33.8421 10.5816 27.0734C10.6407 20.1569 15.961 14.1567 23.6164 14.1567C31.4788 14.1863 36.6218 20.5707 36.5627 27.2212ZM13.0053 27.8714C13.094 29.7336 13.6851 31.3888 14.7492 33.044C15.5472 30.8272 16.966 29.4676 19.0055 28.8468C19.1237 28.1079 18.7986 27.7237 18.237 27.369C17.0251 26.63 15.7837 26.4527 14.4832 27.103C14.0398 27.369 13.5669 27.6054 13.0053 27.8714ZM21.9021 22.6989C24.2372 22.1373 24.5918 19.418 22.7888 16.5805C20.9858 16.7282 19.3306 17.2012 17.7345 18.3539C19.9217 19.152 21.2518 20.5707 21.9021 22.6989ZM25.6559 16.7874C26.6904 18.8859 26.5722 20.8663 25.6264 22.758C26.0993 23.3491 26.5722 23.3787 27.1634 23.2309C29.3802 22.758 30.0895 21.1028 30.5034 19.2111C29.2028 17.9697 27.9023 17.3194 25.6559 16.7874ZM28.0205 29.172C27.3703 29.6153 27.3703 30.1769 27.518 30.7976C27.9318 32.512 29.3506 33.783 31.1832 34.0194C31.3901 34.049 31.7152 33.9603 31.8334 33.8125C32.868 32.5415 33.6365 31.1523 33.9025 29.3198C31.8039 30.2065 29.8531 30.2065 28.0205 29.172ZM21.5179 37.5368C20.4833 35.4382 20.572 33.4578 21.577 31.5661C21.1041 31.0045 20.572 30.9454 19.9513 31.1228C18.1779 31.5661 16.8182 33.1327 16.7295 34.9061C16.7295 35.113 16.8773 35.3791 17.0547 35.5269C18.2961 36.5318 19.7444 37.2116 21.5179 37.5368ZM34.1094 26.4231C34.0798 24.561 33.4591 22.9353 32.395 21.2801C31.6265 23.4969 30.1487 24.8566 28.1092 25.4773C28.4048 27.7532 31.1536 28.167 34.1094 26.4231ZM29.4688 35.9407C27.1634 35.1722 25.8924 33.6352 25.2421 31.6548C24.4441 31.6548 24.0598 32.0686 23.7347 32.6007C22.8775 34.1376 23.0253 36.1476 24.1485 37.4777C24.2667 37.6254 24.5327 37.7141 24.7101 37.7141C26.3949 37.5368 27.9318 37.0343 29.4688 35.9407ZM19.1828 25.1522C19.774 24.4132 19.8035 24.1176 19.5966 23.3196C19.0941 21.4575 17.6458 20.7481 15.9906 20.3343C15.8132 20.2752 15.5177 20.3638 15.3994 20.4821C14.3058 21.7826 13.5373 23.2309 13.2417 25.093C15.3403 24.0881 17.2911 24.1768 19.1828 25.1522ZM25.9219 27.1916C25.9219 25.8911 24.8283 24.7679 23.5573 24.7975C22.3159 24.827 21.2518 25.9206 21.2223 27.1621C21.1927 28.433 22.3455 29.5858 23.6164 29.5562C24.8579 29.5267 25.8924 28.4626 25.9219 27.1916Z" fill="#E7E7E7"/>
<path d="M64.9381 27.1615C65.0268 33.6346 59.9725 40.1077 52.0215 40.1373C44.2478 40.1668 38.957 33.9302 38.957 27.1319C38.957 20.3042 44.2774 14.0971 52.0215 14.1562C60.002 14.2153 65.0268 20.718 64.9381 27.1615ZM54.0609 16.7868C55.0363 18.8558 55.0068 20.8362 54.0018 22.7279C54.4156 23.319 54.9181 23.3781 55.5093 23.2304C57.3418 22.8165 58.731 21.2796 58.8493 19.447C58.8493 19.2401 58.7015 18.9741 58.5241 18.8263C57.2532 17.8213 55.8048 17.1119 54.0609 16.7868ZM50.2776 22.6983C51.6668 22.5801 51.9328 21.5751 52.2284 20.6293C52.7013 19.0923 51.9328 17.8509 51.253 16.639C49.1839 16.7277 47.2627 17.4075 46.2282 18.4125C48.2972 19.1514 49.6273 20.5702 50.2776 22.6983ZM47.4105 28.7872C47.4992 28.1074 47.2036 27.7527 46.7307 27.4571C44.9868 26.3635 43.568 26.4817 41.4399 27.9596C41.499 29.8217 42.1197 31.6247 43.1246 32.8366C44.6912 30.0581 44.9277 29.999 47.4105 28.7872ZM56.1595 29.0532C56.0413 29.5852 55.8048 30.0286 55.864 30.4424C56.0413 32.275 57.8443 33.9597 59.6769 33.9893C59.9133 33.9893 60.2385 33.7824 60.3567 33.5755C60.9774 32.4523 61.5686 31.3291 62.1302 30.1764C62.2484 29.9695 62.1893 29.6443 62.1893 29.2601C60.1498 30.2651 58.2286 30.1468 56.1595 29.0532ZM49.982 31.5656C48.0312 30.1173 45.5484 32.0089 45.0754 35.2012C46.4647 36.4721 47.9425 37.1815 49.8047 37.4771C48.9475 35.4672 48.8884 33.5164 49.982 31.5656ZM57.8739 35.9697C55.5684 35.2012 54.2678 33.6937 53.6176 31.6247C51.253 32.1863 50.8983 35.0238 52.7604 37.7136C54.5339 37.6249 56.1891 37.0928 57.8739 35.9697ZM56.4551 25.4767C56.8394 27.8709 59.8247 28.2551 62.5144 26.3635C62.4553 24.59 61.8641 22.9643 60.8001 21.3091C59.9725 23.4373 58.6128 24.8265 56.4551 25.4767ZM47.5583 25.1516C48.179 24.6787 48.179 24.1171 48.0312 23.5259C47.6174 21.782 46.1691 20.5406 44.3365 20.3337C44.1592 20.3042 43.8636 20.3633 43.7454 20.4815C42.6517 21.782 41.8832 23.2304 41.6172 25.0038C44.4547 24.1171 45.2823 24.1466 47.5583 25.1516ZM54.2974 27.1319C54.2678 25.861 53.2038 24.7969 51.9624 24.7969C50.6618 24.7969 49.5978 25.9201 49.5978 27.2206C49.6273 28.4916 50.6914 29.5557 51.9328 29.5557C53.2333 29.5557 54.327 28.4325 54.2974 27.1319Z" fill="#E7E7E7"/>
</svg>
