<svg width="53" height="71" viewBox="0 0 53 71" fill="none" xmlns="http://www.w3.org/2000/svg">
<path d="M0.0295594 35.4469C0.0295594 24.3628 0.0295594 13.2787 0.0295594 2.22421C0.0295594 1.86952 0.0295521 1.48527 0.0591097 1.13058C0.118225 0.48031 0.502473 0.12562 1.09362 0.0369469C1.44832 -0.0221682 1.83257 0.0073894 2.18726 0.0073894C18.0597 0.0073894 33.9321 0.0073894 49.834 0.0073894C50.1592 0.0073894 50.5139 -0.0221682 50.839 0.0369469C51.5484 0.12562 51.9917 0.509868 52.0213 1.24881C52.0509 1.57394 52.0213 1.89907 52.0213 2.25376C52.0213 24.4219 52.0213 46.5605 52.0213 68.7287C52.0213 69.0538 52.0213 69.379 52.0213 69.7337C51.9917 70.4726 51.5779 70.8864 50.839 70.9455C50.5434 70.9751 50.2478 70.9751 49.9523 70.9751C33.9912 70.9751 18.0597 70.9751 2.09859 70.9751C1.77346 70.9751 1.41876 71.0046 1.09362 70.9455C0.472916 70.8569 0.0886745 70.5022 0.0295594 69.8519C1.80361e-06 69.4972 0 69.113 0 68.7583C0.0295576 57.6151 0.0295594 46.531 0.0295594 35.4469ZM49.6271 68.4331C49.6271 46.3832 49.6271 24.4219 49.6271 2.43111C33.873 2.43111 18.1779 2.43111 2.45327 2.43111C2.45327 24.4515 2.45327 46.4128 2.45327 68.4331C18.1779 68.4331 33.8434 68.4331 49.6271 68.4331Z" fill="#E7E7E7"/>
<path d="M26.099 16.5306C30.8578 16.5306 35.6166 16.5306 40.3753 16.5306C40.8187 16.5306 41.2621 16.5306 41.7054 16.5602C43.4789 16.7375 44.8385 18.0085 44.8976 19.8115C44.9863 22.3535 44.9863 24.8954 44.8976 27.4374C44.8385 29.0335 43.7744 30.1862 42.2375 30.5705C42.0306 30.6296 41.7941 30.6887 41.5872 30.7183C40.0798 30.9843 39.7842 31.7528 40.7596 32.9942C42.533 35.2701 43.8336 37.753 44.4543 40.5905C45.9322 47.4774 44.1587 53.5072 39.1635 58.4137C31.7445 65.6553 20.3944 65.6553 12.9164 58.4433C8.39405 54.0687 6.59104 48.6302 7.35954 42.3344C7.77334 38.9057 9.13299 35.8908 11.2316 33.1715C11.3794 32.9646 11.5567 32.7873 11.7045 32.5508C12.207 31.6937 11.8523 30.9547 10.8769 30.7478C10.5518 30.6887 10.2266 30.6296 9.90149 30.5409C8.39405 30.1567 7.30042 29.0335 7.24131 27.5261C7.15264 24.8954 7.15264 22.2944 7.24131 19.6637C7.30042 17.9494 8.66007 16.6784 10.404 16.5306C11.4089 16.442 12.3843 16.4715 13.3893 16.4715C17.5865 16.5306 21.8427 16.5306 26.099 16.5306ZM26.0695 18.8952C21.1629 18.8952 16.2564 18.8952 11.3498 18.8952C9.84237 18.8952 9.51724 19.2204 9.48769 20.6983C9.48769 22.6491 9.48769 24.5999 9.48769 26.5802C9.48769 27.9399 9.72414 28.1468 11.0247 28.3537C12.6208 28.5901 13.7144 29.4769 14.1578 31.073C14.5125 32.4031 14.01 33.4376 13.2415 34.4425C9.90149 38.6397 8.80786 43.3689 9.93105 48.571C11.3794 55.2215 16.9658 60.6305 24.3256 61.3399C29.9415 61.9015 34.7298 60.0394 38.4836 55.7535C42.0306 51.7041 43.2129 46.9454 42.2375 41.625C41.735 38.8466 40.4344 36.4229 38.7201 34.2061C36.8875 31.871 38.0994 28.7675 40.9665 28.3241C42.4148 28.1172 42.5922 27.9103 42.5922 26.4029C42.5922 24.5999 42.5922 22.7968 42.5922 20.9643C42.5922 19.1021 42.3261 18.8657 40.464 18.8657C35.6757 18.8952 30.8874 18.8952 26.0695 18.8952Z" fill="#E7E7E7"/>
<path d="M26.0398 14.1652C22.7589 14.1652 19.478 14.1652 16.1971 14.1652C15.872 14.1652 15.5173 14.1947 15.1922 14.1356C14.6306 14.0174 14.2759 13.6627 14.2759 13.042C14.2463 12.4508 14.4828 12.037 15.1035 11.8892C15.4582 11.8006 15.8424 11.771 16.1971 11.771C22.7589 11.771 29.3207 11.771 35.912 11.771C36.2667 11.771 36.651 11.8006 37.0056 11.8892C37.5968 12.0075 37.8628 12.4213 37.8333 13.0124C37.8037 13.6036 37.4786 13.9878 36.917 14.106C36.5918 14.1947 36.2667 14.1356 35.912 14.1356C32.6016 14.1652 29.3207 14.1652 26.0398 14.1652Z" fill="#E7E7E7"/>
<path d="M9.45805 7.10145C9.42849 8.37243 8.39398 9.40694 7.123 9.40694C5.82247 9.40694 4.72884 8.31331 4.7584 7.01278C4.78796 5.77136 5.85203 4.67773 7.09344 4.67773C8.39398 4.67773 9.48761 5.80092 9.45805 7.10145Z" fill="#E7E7E7"/>
<path d="M42.6217 7.04192C42.6217 5.77094 43.6858 4.70687 44.9272 4.67731C46.1982 4.64776 47.3214 5.8005 47.3214 7.10103C47.3214 8.43112 46.1982 9.46564 44.8977 9.43608C43.5971 9.37697 42.5922 8.34245 42.6217 7.04192Z" fill="#E7E7E7"/>
<path d="M9.45844 63.822C9.45844 65.093 8.42392 66.157 7.1825 66.2161C5.91153 66.2753 4.78835 65.1521 4.75879 63.8515C4.75879 62.5214 5.82285 61.4574 7.15294 61.4869C8.42392 61.4869 9.45844 62.5214 9.45844 63.822Z" fill="#E7E7E7"/>
<path d="M42.6227 63.8808C42.5931 62.5507 43.6572 61.457 44.9577 61.457C46.2287 61.457 47.2632 62.4915 47.2928 63.7625C47.3223 65.0631 46.2287 66.2158 44.9282 66.2158C43.7163 66.2158 42.6227 65.1222 42.6227 63.8808Z" fill="#E7E7E7"/>
<path d="M11.0548 14.1655C10.9957 14.1655 10.7297 14.195 10.4932 14.1359C9.93161 14.0177 9.5178 13.6334 9.57691 13.0718C9.60647 12.6876 9.90204 12.0669 10.1385 12.0373C10.907 11.9191 11.7346 11.9486 12.4736 12.0964C12.71 12.1555 12.9169 12.8058 12.9169 13.1901C12.9169 13.8994 12.3553 14.1655 11.0548 14.1655Z" fill="#E7E7E7"/>
<path d="M40.5826 14.1653C40.4939 14.1653 40.1392 14.1653 39.8436 14.0766C39.2229 13.8697 38.8978 13.1308 39.1638 12.5396C39.5185 11.7416 40.2574 11.7711 40.9668 11.7711C41.6171 11.8007 42.2378 11.8598 42.4742 12.5987C42.7698 13.5741 42.1491 14.1653 40.5826 14.1653Z" fill="#E7E7E7"/>
<path d="M25.9216 54.3345C20.7195 54.2753 16.4928 49.9599 16.5814 44.7874C16.6701 39.5261 20.956 35.3585 26.2172 35.4176C31.3898 35.5063 35.6165 39.8512 35.4983 45.0238C35.3801 50.2555 31.1238 54.4231 25.9216 54.3345ZM26.0399 37.8413C22.6112 37.6935 18.9461 40.6493 18.9461 44.9351C18.9461 48.7481 22.1678 51.9699 26.0399 51.9699C29.8824 51.9699 33.1337 48.7776 33.1632 44.9647C33.1632 41.0631 29.971 37.8413 26.0399 37.8413Z" fill="#E7E7E7"/>
<path d="M26.9271 59.0341C26.0995 59.0637 25.5379 58.709 25.4788 58.0291C25.3901 57.2902 25.8926 56.7877 26.868 56.699C32.4544 56.1375 36.7993 52.1472 37.686 46.7973C37.7452 46.3835 37.7452 45.9992 37.8338 45.5854C38.0112 44.8169 38.4545 44.4327 39.1344 44.5213C39.8142 44.5804 40.3167 45.1716 40.1984 45.9401C40.0507 47.0337 39.8438 48.1274 39.5186 49.1619C37.9225 54.6005 32.6022 58.7681 26.9271 59.0341Z" fill="#E7E7E7"/>
<path d="M11.8525 44.1077C12.089 41.1815 13.0644 38.3735 15.0448 35.9498C15.6359 35.2109 16.2862 35.0927 16.8478 35.5656C17.4389 36.0385 17.4685 36.6592 16.8773 37.3981C15.2517 39.4967 14.3058 41.8318 14.2467 44.5215C14.2171 45.556 13.7442 46.0585 13.0053 46.029C12.2368 45.9994 11.8525 45.4378 11.8525 44.3442C11.8525 44.3442 11.8525 44.3146 11.8525 44.1077Z" fill="#E7E7E7"/>
</svg>
