<svg width="71" height="71" viewBox="0 0 71 71" fill="none" xmlns="http://www.w3.org/2000/svg">
<path d="M34.272 37.7746C34.3016 37.2425 34.3016 36.8583 34.3311 36.5036C34.4494 34.5823 35.6612 33.2818 37.5825 33.0158C37.9963 32.9567 38.3806 32.9862 38.7944 32.9862C46.6567 32.9862 54.5485 32.9862 62.4108 32.9862C64.8345 32.9862 66.6967 32.0108 67.879 29.8827C69.948 26.1289 67.347 21.4588 63.0316 21.1928C62.5586 21.1632 62.0857 21.1632 61.5832 21.1632C43.9078 21.1632 26.2619 21.1632 8.58651 21.1632C4.98049 21.1632 2.3203 19.5671 0.78331 16.3453C-1.55174 11.4683 1.58139 5.61594 6.90175 4.78832C7.6998 4.67009 8.5274 4.61098 9.32545 4.61098C17.0104 4.61098 24.6954 4.61098 32.3804 4.61098C34.0356 4.61098 34.3016 4.34496 34.3016 2.68974C34.3016 1.80301 34.3016 0.945842 34.3016 0C35.0996 0 35.7795 0 36.6366 0C36.5775 1.56655 36.9026 3.1331 36.4002 4.67009C35.9272 6.14797 34.7745 6.88691 33.2375 7.0347C32.8828 7.06426 32.4986 7.0347 32.1439 7.0347C24.3112 7.0347 16.4784 7.0347 8.64565 7.0347C6.07414 7.0347 4.15288 8.06921 2.97058 10.3747C1.13801 13.9807 3.65041 18.4144 7.67024 18.7691C8.26139 18.8282 8.85254 18.8282 9.44369 18.8282C26.9122 18.8282 44.4103 18.8282 61.8788 18.8282C64.2139 18.8282 66.342 19.3011 68.145 20.8972C70.7461 23.2027 71.6328 26.72 70.4801 29.9714C69.3273 33.1636 66.3124 35.3508 62.8246 35.3804C57.8294 35.4395 52.8342 35.3804 47.8685 35.41C44.7945 35.41 41.7206 35.41 38.6761 35.41C36.9322 35.41 36.548 35.8533 36.814 37.8041C37.2278 37.8041 37.6416 37.8041 38.0554 37.8041C48.2823 37.8041 58.5388 37.8041 68.7657 37.8041C69.0908 37.8041 69.4455 37.8041 69.7707 37.8041C70.5392 37.8632 70.8938 38.2179 70.9825 38.9864C71.0121 39.282 70.9825 39.5776 70.9825 39.8731C70.9825 49.5089 70.9825 59.1447 70.9825 68.81C70.9825 69.1056 71.0121 69.4012 70.9825 69.6967C70.8938 70.4357 70.5096 70.8199 69.7707 70.879C69.4751 70.9086 69.1795 70.879 68.8839 70.879C46.6271 70.879 24.3998 70.879 2.14299 70.879C1.81785 70.879 1.46316 70.9086 1.13802 70.8495C0.517314 70.7608 0.133044 70.4061 0.0443713 69.7854C0.0148138 69.4603 0.014821 69.1351 0.014821 68.7804C0.014821 59.1447 0.014821 49.5089 0.014821 39.8436C0.014821 39.548 -0.0147366 39.2524 0.014821 38.9569C0.103494 38.1884 0.458177 37.8632 1.22667 37.8041C1.55181 37.7746 1.87695 37.8041 2.23164 37.8041C12.429 37.8041 22.6264 37.8041 32.8237 37.8041C33.2671 37.7746 33.7104 37.7746 34.272 37.7746ZM68.4997 40.1687C46.4498 40.1687 24.4589 40.1687 2.46811 40.1687C2.46811 49.6271 2.46811 58.9969 2.46811 68.3666C24.5181 68.3666 46.5089 68.3666 68.4997 68.3666C68.4997 58.9378 68.4997 49.568 68.4997 40.1687Z" fill="#E7E7E7"/>
<path d="M25.9665 48.4748C25.2572 48.4748 24.5773 48.5044 23.868 48.4748C22.9517 48.4453 22.4492 47.9428 22.4196 47.0265C22.3901 45.5782 22.3901 44.1594 22.4196 42.7111C22.4492 41.8539 22.8334 41.381 23.6906 41.3515C25.2276 41.2924 26.7941 41.2924 28.3311 41.3515C29.1883 41.381 29.543 41.7357 29.5725 42.5929C29.6317 44.1299 29.6317 45.6964 29.5725 47.2334C29.543 48.0906 29.0701 48.4453 28.1834 48.5044C27.4444 48.5044 26.7055 48.4748 25.9665 48.4748ZM24.9616 43.7752C24.9616 44.5732 24.9616 45.2531 24.9616 45.9624C25.7301 45.9624 26.4099 45.9624 27.1193 45.9624C27.1193 45.2235 27.1193 44.5437 27.1193 43.7752C26.3803 43.7752 25.7005 43.7752 24.9616 43.7752Z" fill="#E7E7E7"/>
<path d="M60.3422 44.7207C60.3422 44.0705 60.3127 43.3906 60.3422 42.7404C60.3718 41.7945 60.6378 41.3807 61.5541 41.3512C63.0911 41.2625 64.6577 41.2625 66.1947 41.3512C67.0814 41.3807 67.4361 41.8241 67.4656 42.7108C67.4952 44.1591 67.4952 45.5779 67.4656 47.0262C67.4361 47.9721 66.9927 48.445 66.0173 48.4745C64.569 48.5041 63.1207 48.5041 61.7019 48.4745C60.7856 48.445 60.3718 48.0016 60.3422 47.0558C60.3127 46.2577 60.3422 45.4892 60.3422 44.7207ZM62.766 45.9622C63.5345 45.9622 64.2143 45.9622 64.9532 45.9622C64.9532 45.2232 64.9532 44.5434 64.9532 43.8045C64.2143 43.8045 63.5049 43.8045 62.766 43.8045C62.766 44.5138 62.766 45.1937 62.766 45.9622Z" fill="#E7E7E7"/>
<path d="M25.9665 60.2387C26.7055 60.2387 27.4444 60.2092 28.1834 60.2387C29.1292 60.2683 29.543 60.5343 29.5725 61.4506C29.6612 62.9876 29.6612 64.5541 29.5725 66.0911C29.543 66.9778 29.0996 67.3325 28.1834 67.3325C26.735 67.3621 25.2867 67.3621 23.868 67.3325C22.9221 67.303 22.4492 66.8596 22.4196 65.8842C22.3901 64.495 22.3901 63.0763 22.4196 61.687C22.4492 60.6525 22.863 60.2683 23.9566 60.2387C24.6364 60.2092 25.2867 60.2387 25.9665 60.2387ZM24.9616 62.692C24.9616 63.4901 24.9616 64.1699 24.9616 64.8497C25.7301 64.8497 26.4099 64.8497 27.1193 64.8497C27.1193 64.1108 27.1193 63.4309 27.1193 62.692C26.3803 62.692 25.7005 62.692 24.9616 62.692Z" fill="#E7E7E7"/>
<path d="M57.9177 44.8977C57.9177 45.6366 57.9473 46.3756 57.9177 47.1145C57.8882 48.0013 57.5039 48.4446 56.6468 48.4446C55.1689 48.5037 53.691 48.4742 52.2131 48.4446C51.3264 48.4151 50.8535 47.9126 50.8239 47.0554C50.7944 45.5775 50.7944 44.0997 50.8239 42.6218C50.8535 41.8237 51.2082 41.3508 52.0358 41.3212C53.6319 41.2621 55.1984 41.2917 56.7945 41.3212C57.5335 41.3508 57.9177 41.7942 57.9177 42.5627C57.9177 43.3312 57.9177 44.1292 57.9177 44.8977ZM55.5827 43.7745C54.7846 43.7745 54.0753 43.7745 53.3363 43.7745C53.3363 44.543 53.3363 45.2524 53.3363 45.9322C54.1344 45.9322 54.8437 45.9322 55.5827 45.9322C55.5827 45.1933 55.5827 44.543 55.5827 43.7745Z" fill="#E7E7E7"/>
<path d="M26.0549 57.8435C25.316 57.8435 24.5771 57.8731 23.8381 57.8435C22.8923 57.814 22.4785 57.4297 22.4489 56.4839C22.4194 55.0356 22.4194 53.6168 22.4489 52.1685C22.4785 51.2522 22.981 50.7497 23.9268 50.7497C25.316 50.7201 26.7348 50.7201 28.124 50.7497C29.0698 50.7793 29.5427 51.1044 29.6018 52.0207C29.661 53.5577 29.661 55.1242 29.6018 56.6612C29.5723 57.5479 29.2176 57.7548 28.3013 57.8435C28.2422 57.8435 28.1535 57.8435 28.0944 57.8435C27.385 57.8435 26.7052 57.8435 26.0549 57.8435ZM27.0894 55.4789C27.0894 54.7104 27.0894 53.9715 27.0894 53.2325C26.321 53.2325 25.6116 53.2325 24.9613 53.2325C24.9613 54.0306 24.9613 54.74 24.9613 55.4789C25.6707 55.4789 26.2914 55.4789 27.0894 55.4789Z" fill="#E7E7E7"/>
<path d="M63.8891 60.2387C64.628 60.2387 65.367 60.2092 66.1059 60.2387C66.9926 60.2683 67.4064 60.6821 67.436 61.5393C67.4656 63.0467 67.4656 64.5541 67.436 66.0911C67.4064 66.8596 66.9631 67.3325 66.1946 67.3621C64.6576 67.3917 63.0911 67.3917 61.5541 67.3621C60.8151 67.3325 60.4013 66.9187 60.3718 66.1798C60.3422 64.6428 60.3422 63.0763 60.3718 61.5393C60.4013 60.7116 60.7856 60.3274 61.6132 60.2978C62.3521 60.2092 63.1206 60.2387 63.8891 60.2387ZM62.825 62.692C62.825 63.3718 62.825 64.0812 62.825 64.8497C63.5344 64.8497 64.2142 64.8497 64.9236 64.8497C64.9236 64.1108 64.9236 63.4309 64.9236 62.692C64.2438 62.692 63.5935 62.692 62.825 62.692Z" fill="#E7E7E7"/>
<path d="M31.9663 63.7856C31.9663 63.0467 31.9367 62.3077 31.9663 61.5688C31.9958 60.6821 32.3801 60.2683 33.2668 60.2683C34.7742 60.2387 36.2817 60.2387 37.7891 60.2683C38.5872 60.2978 39.001 60.7116 39.0305 61.5392C39.0601 63.0467 39.0601 64.5541 39.0305 66.0615C39.001 66.8596 38.5872 67.303 37.7891 67.3325C36.2817 67.3621 34.7742 67.3621 33.2668 67.3325C32.4392 67.303 32.0254 66.8596 31.9663 66.0024C31.9367 65.2635 31.9663 64.5245 31.9663 63.7856ZM36.6068 62.692C35.8088 62.692 35.1289 62.692 34.4196 62.692C34.4196 63.4605 34.4196 64.1699 34.4196 64.8792C35.188 64.8792 35.8679 64.8792 36.6068 64.8792C36.6068 64.1107 36.6068 63.4309 36.6068 62.692Z" fill="#E7E7E7"/>
<path d="M7.10814 67.3325C6.3692 67.3325 5.63026 67.3621 4.89132 67.3325C4.06371 67.303 3.59079 66.8596 3.56123 66.032C3.53167 64.5541 3.53167 63.0762 3.56123 61.5984C3.59079 60.7116 3.97505 60.2978 4.83222 60.2683C6.33966 60.2387 7.8471 60.2387 9.38409 60.2683C10.2117 60.2978 10.6255 60.6821 10.6255 61.5097C10.6551 63.0171 10.6551 64.5246 10.6255 66.032C10.5959 66.8892 10.1821 67.2734 9.2954 67.3325C9.26585 67.3325 9.23628 67.3325 9.17717 67.3325C8.49734 67.3325 7.78796 67.3325 7.10814 67.3325ZM6.01452 62.6624C6.01452 63.49 6.01452 64.1403 6.01452 64.8201C6.78302 64.8201 7.49238 64.8201 8.1722 64.8201C8.1722 64.0516 8.1722 63.3718 8.1722 62.6624C7.43326 62.6624 6.78302 62.6624 6.01452 62.6624Z" fill="#E7E7E7"/>
<path d="M67.4353 54.2671C67.4353 55.006 67.4649 55.7449 67.4353 56.4839C67.4058 57.4002 67.0511 57.7844 66.1644 57.814C64.6274 57.8435 63.0608 57.8435 61.5238 57.814C60.6962 57.7844 60.3415 57.4593 60.3415 56.6612C60.3119 55.1242 60.3119 53.5577 60.3415 52.0207C60.3711 51.2226 60.7849 50.7793 61.5829 50.7497C63.0904 50.7201 64.5978 50.7201 66.1348 50.7497C66.992 50.7793 67.4058 51.2226 67.4649 52.0502C67.4649 52.7892 67.4353 53.5281 67.4353 54.2671ZM64.9229 55.4494C64.9229 54.6513 64.9229 53.9419 64.9229 53.1734C64.184 53.1734 63.5042 53.1734 62.7652 53.1734C62.7652 53.9419 62.7652 54.6513 62.7652 55.4494C63.5042 55.4494 64.1544 55.4494 64.9229 55.4494Z" fill="#E7E7E7"/>
<path d="M54.4593 67.3318C53.7203 67.3318 52.9814 67.3614 52.2424 67.3318C51.3262 67.3022 50.8828 66.8884 50.8532 65.9722C50.8237 64.4943 50.8237 63.0164 50.8532 61.5385C50.8828 60.6518 51.2966 60.238 52.1538 60.238C53.6612 60.2084 55.1686 60.2084 56.7056 60.238C57.5628 60.2675 57.9175 60.5927 57.947 61.4794C57.9766 63.0164 57.9766 64.583 57.947 66.1199C57.9175 66.9476 57.5332 67.2727 56.7056 67.3318C56.6465 67.3318 56.5578 67.3318 56.4987 67.3318C55.7893 67.3318 55.1095 67.3318 54.4593 67.3318ZM55.5233 64.849C55.5233 64.0509 55.5233 63.3711 55.5233 62.6913C54.7253 62.6913 54.0159 62.6913 53.3065 62.6913C53.3065 63.4598 53.3065 64.1396 53.3065 64.849C54.075 64.849 54.7548 64.849 55.5233 64.849Z" fill="#E7E7E7"/>
<path d="M39.0308 44.8681C39.0308 45.5775 39.0603 46.2573 39.0308 46.9667C39.0012 47.9125 38.617 48.3854 37.7302 48.415C36.2524 48.4741 34.7745 48.4741 33.2966 48.415C32.3803 48.3854 31.9665 47.9125 31.9665 46.9962C31.9369 45.5479 31.9369 44.1292 31.9665 42.6808C31.9961 41.7646 32.3212 41.3507 33.2079 41.3212C34.7154 41.2621 36.2228 41.2621 37.7302 41.3212C38.6465 41.3507 38.9717 41.735 39.0308 42.6217C39.0603 43.3902 39.0308 44.1292 39.0308 44.8681ZM34.3902 45.9322C35.1292 45.9322 35.8681 45.9322 36.6071 45.9322C36.6071 45.1637 36.6071 44.4839 36.6071 43.7154C35.8386 43.7154 35.1292 43.7154 34.3902 43.7154C34.3902 44.4839 34.3902 45.1637 34.3902 45.9322Z" fill="#E7E7E7"/>
<path d="M39.0315 54.3564C39.0315 55.0954 39.061 55.8343 39.0315 56.5732C39.0019 57.4304 38.6472 57.8146 37.8196 57.8146C36.2826 57.8442 34.7161 57.8442 33.1791 57.8146C32.3515 57.7851 31.9968 57.4008 31.9968 56.5437C31.9672 55.0658 31.9672 53.5879 31.9968 52.11C32.0263 51.2529 32.4106 50.7799 33.2677 50.7504C34.7752 50.6913 36.2826 50.6913 37.7901 50.7504C38.6472 50.7799 39.0019 51.2529 39.0315 52.1396C39.061 52.8785 39.0315 53.6175 39.0315 54.3564ZM36.6077 53.2332C35.7801 53.2332 35.0707 53.2332 34.4205 53.2332C34.4205 54.0313 34.4205 54.7407 34.4205 55.45C35.2185 55.45 35.8984 55.45 36.6077 55.45C36.6077 54.6815 36.6077 53.9722 36.6077 53.2332Z" fill="#E7E7E7"/>
<path d="M10.6558 44.8688C10.6558 45.5782 10.6853 46.2581 10.6558 46.9674C10.6262 47.9724 10.242 48.4158 9.26658 48.4453C7.81826 48.5044 6.3995 48.5044 4.95118 48.4453C4.0349 48.4158 3.5915 47.9428 3.5915 47.0561C3.56195 45.6078 3.56195 44.189 3.5915 42.7407C3.62106 41.7949 4.00534 41.3811 4.95118 41.3811C6.42906 41.3515 7.90694 41.3515 9.38482 41.3811C10.3011 41.4106 10.6558 41.7653 10.6853 42.6816C10.6853 43.391 10.6558 44.1299 10.6558 44.8688ZM6.01525 45.9625C6.84286 45.9625 7.52269 45.9625 8.20251 45.9625C8.20251 45.1644 8.20251 44.455 8.20251 43.7457C7.43402 43.7457 6.75418 43.7457 6.01525 43.7457C6.01525 44.5142 6.01525 45.194 6.01525 45.9625Z" fill="#E7E7E7"/>
<path d="M44.9426 60.2387C45.6519 60.2387 46.3318 60.2092 47.0411 60.2387C48.0461 60.2683 48.4895 60.623 48.5486 61.6279C48.6077 63.0763 48.6077 64.495 48.5486 65.9433C48.519 66.8892 48.0165 67.3325 47.0411 67.3325C45.6519 67.3621 44.2332 67.3621 42.844 67.3325C41.8981 67.303 41.4843 66.9483 41.4548 66.0024C41.4252 64.5246 41.4252 63.0467 41.4548 61.5688C41.4843 60.5934 41.8686 60.2683 42.844 60.2387C43.5238 60.2092 44.2332 60.2387 44.9426 60.2387ZM43.8194 64.8497C44.5879 64.8497 45.3268 64.8497 46.0362 64.8497C46.0362 64.0812 46.0362 63.4014 46.0362 62.692C45.2677 62.692 44.5583 62.692 43.8194 62.692C43.8194 63.4605 43.8194 64.1403 43.8194 64.8497Z" fill="#E7E7E7"/>
<path d="M13.0794 63.6962C13.0794 62.9277 13.0794 62.1592 13.0794 61.3612C13.0794 60.6518 13.5227 60.238 14.173 60.238C15.7691 60.2084 17.3357 60.2084 18.9318 60.238C19.7003 60.2675 20.1141 60.7109 20.1141 61.5681C20.1436 63.046 20.1732 64.5238 20.1141 66.0017C20.0845 66.8884 19.582 67.3022 18.6657 67.3318C17.2174 67.3614 15.7987 67.3614 14.3503 67.3318C13.4636 67.3022 13.0794 66.918 13.0498 66.0313C13.0498 65.2628 13.0794 64.4943 13.0794 63.6962ZM15.4144 64.849C16.242 64.849 16.9514 64.849 17.6608 64.849C17.6608 64.0805 17.6608 63.3711 17.6608 62.6913C16.8628 62.6913 16.1533 62.6913 15.4144 62.6913C15.4144 63.4598 15.4144 64.11 15.4144 64.849Z" fill="#E7E7E7"/>
<path d="M7.01949 57.8146C6.28055 57.8146 5.54161 57.8442 4.80267 57.8146C3.97506 57.7851 3.59079 57.4008 3.56123 56.5732C3.53167 55.0954 3.53167 53.6175 3.56123 52.1396C3.59079 51.2824 4.00461 50.7799 4.83222 50.7504C6.33966 50.6913 7.84707 50.6913 9.35451 50.7504C10.2117 50.7799 10.6255 51.2233 10.6255 52.11C10.6551 53.5879 10.6551 55.0658 10.6255 56.5437C10.5959 57.46 10.2412 57.7851 9.32496 57.8442C9.26584 57.8442 9.17718 57.8442 9.11807 57.8442C8.40869 57.8146 7.69931 57.8146 7.01949 57.8146ZM8.23134 53.2332C7.43329 53.2332 6.7239 53.2332 6.04407 53.2332C6.04407 54.0313 6.04407 54.7407 6.04407 55.45C6.81257 55.45 7.4924 55.45 8.23134 55.45C8.23134 54.6815 8.23134 53.9722 8.23134 53.2332Z" fill="#E7E7E7"/>
<path d="M54.4304 50.7211C55.1397 50.7211 55.8196 50.6916 56.529 50.7211C57.5044 50.7507 57.8886 51.1054 57.9182 52.0512C57.9477 53.5587 57.9477 55.0661 57.9182 56.5735C57.8886 57.4898 57.593 57.7854 56.7063 57.7854C55.1693 57.815 53.6028 57.815 52.0658 57.7854C51.2973 57.7558 50.8835 57.3716 50.8539 56.6327C50.7948 55.0957 50.7948 53.5291 50.8539 51.9921C50.8835 51.1645 51.3564 50.7803 52.2135 50.7211C52.2727 50.7211 52.3614 50.7211 52.4205 50.7211C53.1003 50.7211 53.7505 50.7211 54.4304 50.7211ZM55.5536 53.2335C54.6964 53.2335 53.987 53.2335 53.3072 53.2335C53.3072 54.0316 53.3072 54.741 53.3072 55.4504C54.1053 55.4504 54.8146 55.4504 55.5536 55.4504C55.5536 54.6523 55.5536 53.9429 55.5536 53.2335Z" fill="#E7E7E7"/>
<path d="M13.0798 44.7792C13.0798 44.0403 13.0502 43.3013 13.0798 42.5624C13.1093 41.7348 13.4049 41.3801 14.203 41.3505C15.7991 41.2914 17.3656 41.321 18.9617 41.3505C19.7302 41.3505 20.1145 41.8826 20.144 42.5624C20.1736 44.0698 20.2031 45.5773 20.144 47.0847C20.1145 47.9123 19.6415 48.3852 18.7844 48.4148C17.3065 48.4739 15.8286 48.4739 14.3803 48.4148C13.464 48.3852 13.1389 47.9419 13.0798 46.9665C13.0798 46.9074 13.0798 46.8187 13.0798 46.7596C13.0502 46.1093 13.0502 45.4295 13.0798 44.7792ZM15.4444 43.7151C15.4444 44.5428 15.4444 45.2521 15.4444 45.9615C16.2424 45.9615 16.9518 45.9615 17.6612 45.9615C17.6612 45.193 17.6612 44.4836 17.6612 43.7151C16.9223 43.7151 16.2424 43.7151 15.4444 43.7151Z" fill="#E7E7E7"/>
<path d="M41.4251 44.7797C41.4251 44.0408 41.3955 43.3018 41.4251 42.5629C41.4842 41.6762 41.7798 41.351 42.6665 41.3215C44.1739 41.2919 45.6813 41.2919 47.1888 41.3215C48.0164 41.351 48.4598 41.7057 48.4893 42.5333C48.5484 44.0408 48.5484 45.5482 48.4893 47.0557C48.4598 47.9128 47.9573 48.3857 47.041 48.4153C45.6518 48.4449 44.233 48.4449 42.8438 48.4153C41.8389 48.3857 41.4546 47.9719 41.3955 46.967C41.3955 46.2576 41.4251 45.5187 41.4251 44.7797ZM43.8192 45.962C44.6469 45.962 45.3267 45.962 46.0361 45.962C46.0361 45.1935 46.0361 44.4841 46.0361 43.7452C45.2676 43.7452 44.5582 43.7452 43.8192 43.7452C43.8192 44.5433 43.8192 45.2231 43.8192 45.962Z" fill="#E7E7E7"/>
<path d="M44.8827 57.8146C44.1438 57.8146 43.4048 57.8442 42.6659 57.8146C41.8383 57.7851 41.4836 57.4895 41.4541 56.6915C41.3949 55.0953 41.4245 53.5288 41.4541 51.9327C41.4541 51.1642 41.9565 50.7799 42.6659 50.7504C44.1733 50.6913 45.6808 50.6913 47.1882 50.7504C48.0454 50.7799 48.5183 51.2824 48.5479 52.1987C48.5774 53.5879 48.607 55.0067 48.5479 56.3959C48.5183 57.4304 48.1045 57.7851 47.0109 57.8146C46.3015 57.8442 45.5921 57.8146 44.8827 57.8146ZM46.065 53.2037C45.267 53.2037 44.5576 53.2037 43.8482 53.2037C43.8482 54.0017 43.8482 54.7407 43.8482 55.4796C44.6463 55.4796 45.3261 55.4796 46.065 55.4796C46.065 54.6815 46.065 53.9722 46.065 53.2037Z" fill="#E7E7E7"/>
<path d="M13.0795 54.2671C13.0795 53.5577 13.05 52.8779 13.0795 52.1685C13.1091 51.2226 13.4638 50.7793 14.4096 50.7497C15.8875 50.7201 17.3654 50.7201 18.8137 50.7497C19.6413 50.7793 20.1142 51.2522 20.1438 52.0798C20.2029 53.5577 20.2029 55.0356 20.1438 56.4839C20.1142 57.3706 19.7004 57.7548 18.8137 57.7844C17.3062 57.814 15.7988 57.814 14.2914 57.7844C13.4047 57.7548 13.1091 57.4593 13.0795 56.543C13.05 55.804 13.0795 55.0356 13.0795 54.2671ZM17.7201 53.203C16.8925 53.203 16.1831 53.203 15.4441 53.203C15.4441 54.001 15.4441 54.74 15.4441 55.4494C16.2422 55.4494 16.9811 55.4494 17.7201 55.4494C17.7201 54.6809 17.7201 53.9715 17.7201 53.203Z" fill="#E7E7E7"/>
</svg>
