<svg width="50" height="66" viewBox="0 0 50 66" fill="none" xmlns="http://www.w3.org/2000/svg">
<path d="M22.9619 4.28846C24.3898 4.28846 25.7021 4.28846 27.1129 4.28846C27.1503 3.95529 27.2013 3.63572 27.2217 3.31615C27.3815 0.684779 29.5403 -0.695499 31.9745 0.351609C35.67 1.94267 39.3383 3.59832 43.0201 5.22678C43.3703 5.37977 43.7239 5.52255 44.0706 5.68234C45.7705 6.46427 46.7598 7.77996 46.7632 9.65659C46.77 14.4128 46.7904 19.169 46.6204 23.9217C46.5694 25.3632 46.0153 26.8149 45.5223 28.202C44.8866 29.997 44.1182 31.7479 43.3329 33.4817C42.9997 34.216 43.0541 34.811 43.4077 35.5113C45.3931 39.4448 47.3072 43.4122 49.3198 47.3321C50.3737 49.3821 50.2037 51.1907 48.7826 52.9994C44.2678 58.7551 38.6889 62.9367 31.4442 64.5142C21.4694 66.6866 12.7118 64.147 5.21206 57.2966C3.71619 55.9299 2.4413 54.3151 1.12902 52.7614C-0.220666 51.167 -0.322657 49.4195 0.62246 47.5497C2.64868 43.5414 4.62051 39.5026 6.65013 35.4943C7.0037 34.7974 7.0547 34.2194 6.72152 33.4885C5.9158 31.7173 5.19846 29.9018 4.47092 28.0966C3.71959 26.2301 3.28783 24.2991 3.29463 22.2763C3.30482 18.1558 3.30822 14.0354 3.28783 9.91837C3.27763 7.85475 4.25334 6.45747 6.10278 5.63814C9.97504 3.9213 13.8983 2.30984 17.7128 0.470598C20.3441 -0.797491 23.0027 0.820768 22.8939 3.69012C22.8871 3.8533 22.9313 4.02329 22.9619 4.28846ZM41.9798 37.5953C41.8982 37.5953 41.8166 37.5953 41.7351 37.5953C41.6025 38.8396 41.3713 40.0839 41.3509 41.3316C41.2965 44.7279 41.3339 48.1276 41.3305 51.5273C41.3305 52.758 41.0551 53.2272 40.3276 53.2714C39.5524 53.319 39.1887 52.7818 39.1853 51.5273C39.1785 48.0868 39.1921 44.6463 39.1819 41.2058C39.1751 38.8838 39.6374 36.6638 40.5452 34.5254C41.5549 32.1456 42.5204 29.7488 43.5335 27.3724C44.8934 24.1767 44.6248 20.8382 44.5772 17.3773C44.0468 17.3773 43.6321 17.3773 43.2173 17.3773C41.6025 17.3773 39.9876 17.3909 38.3761 17.3705C37.4616 17.3569 36.9551 16.915 36.9993 16.2486C37.0367 15.6265 37.5024 15.2627 38.3727 15.2525C40.0726 15.2321 41.7724 15.2491 43.4689 15.2423C43.8327 15.2389 44.1998 15.1913 44.618 15.1607C44.618 13.4303 44.5908 11.8188 44.6248 10.2073C44.652 8.89846 44.0944 8.07573 42.8807 7.55558C39.4165 6.06991 35.976 4.52304 32.5253 2.99998C32.0221 2.779 31.5325 2.51042 31.0124 2.33703C30.0877 2.03106 29.4417 2.40503 29.3805 3.34335C29.2479 5.31857 29.3091 7.21901 30.9308 8.75907C32.1819 9.94557 32.6714 11.5298 32.6476 13.2705C32.6238 14.9703 32.634 16.6702 32.6442 18.3666C32.6544 20.0563 32.1411 21.5657 30.9512 22.759C29.7545 23.9591 29.3159 25.353 29.3397 27.0155C29.3941 30.3268 29.3499 33.6415 29.3533 36.9562C29.3567 38.4181 28.7924 39.6148 27.6161 40.4647C26.1916 41.4948 24.6346 41.6478 23.0571 40.8421C21.4796 40.0363 20.6807 38.6934 20.6671 36.9324C20.6399 33.4477 20.6365 29.9664 20.6671 26.4817C20.6807 25.1286 20.2795 23.9863 19.3208 23.0344C17.9439 21.6711 17.366 19.9951 17.3694 18.0879C17.3728 16.558 17.3762 15.0281 17.3694 13.5017C17.3626 11.5944 17.9167 9.91157 19.2902 8.54149C20.2761 7.55898 20.7487 6.37928 20.6603 4.9786C20.6331 4.55704 20.6637 4.12868 20.6535 3.70371C20.6195 2.36083 20.0042 1.91887 18.7769 2.44922C14.8128 4.17287 10.8658 5.93052 6.90851 7.67457C5.9022 8.11993 5.42964 8.91206 5.42284 9.98636C5.41264 11.557 5.42284 13.1311 5.43304 14.7018C5.43304 14.8581 5.52483 15.0111 5.60302 15.2491C6.08578 15.2491 6.54474 15.2491 7.0071 15.2491C8.57776 15.2491 10.1518 15.2321 11.7225 15.2593C12.6132 15.2729 13.0144 15.6333 13.0144 16.3132C13.0144 16.9931 12.6132 17.3569 11.7225 17.3705C10.1076 17.3977 8.49277 17.3773 6.88131 17.3841C6.43255 17.3875 5.98039 17.4215 5.41944 17.4453C5.41944 18.795 5.42964 20.0189 5.41604 21.2428C5.39564 23.5648 5.8172 25.7882 6.74192 27.9266C7.70064 30.1432 8.58456 32.3904 9.53308 34.6104C10.4986 36.8712 10.9134 39.2306 10.9134 41.675C10.9168 44.8605 10.9134 48.046 10.9134 51.2315C10.9134 51.5273 10.9338 51.8299 10.893 52.1223C10.7944 52.877 10.3898 53.2782 9.77446 53.2748C9.15911 53.2714 8.76135 52.8566 8.68655 52.1053C8.65595 51.8095 8.67635 51.5103 8.67635 51.2145C8.67295 47.6891 8.69675 44.1636 8.65255 40.6381C8.63896 39.6488 8.42478 38.6662 8.28879 37.5681C8.03721 37.7551 7.94882 37.7891 7.91822 37.8503C6.10278 41.4948 4.28734 45.1359 2.4821 48.7838C2.04693 49.6609 2.10133 50.5312 2.74387 51.2825C3.98476 52.7308 5.15426 54.2641 6.54474 55.5594C13.4597 62.0052 21.6156 64.3714 30.8594 62.4064C37.8118 60.9275 43.1391 56.858 47.3446 51.2247C48.0177 50.3238 47.9123 49.4433 47.4296 48.488C45.6957 45.0441 43.9958 41.5832 42.2824 38.1291C42.2042 37.9489 42.0852 37.7755 41.9798 37.5953ZM22.7851 6.59686C22.4383 8.14033 21.5068 9.31322 20.5379 10.5065C20.0212 11.1457 19.7254 12.1044 19.6676 12.9441C19.5384 14.7629 19.6438 16.5954 19.62 18.421C19.6064 19.5939 19.9906 20.6002 20.8167 21.406C22.316 22.8644 22.9143 24.6493 22.8905 26.6959C22.8803 27.5322 22.8905 28.3686 22.8905 29.2253C24.4068 29.2253 25.7735 29.2253 27.2251 29.2253C27.2251 28.4501 27.2625 27.7736 27.2183 27.1005C27.0619 24.8091 27.7045 22.8372 29.3941 21.2224C30.0945 20.5526 30.414 19.6653 30.4208 18.6896C30.4344 16.7348 30.5058 14.7765 30.3834 12.8319C30.3358 12.0364 30.0265 11.1253 29.5301 10.5133C28.5612 9.32002 27.6297 8.14033 27.2557 6.59346C25.7395 6.59686 24.3082 6.59686 22.7851 6.59686ZM22.9041 31.6425C22.9041 33.5293 22.8633 35.3005 22.9177 37.0684C22.9551 38.2787 23.7778 39.0232 24.9439 39.0606C26.1304 39.098 27.0585 38.4521 27.1333 37.2452C27.2489 35.4059 27.1639 33.5565 27.1639 31.6459C25.7395 31.6425 24.4068 31.6425 22.9041 31.6425Z" fill="#E7E7E7"/>
<path d="M25.0221 52.231C27.4937 52.231 29.3601 54.1076 29.3533 56.586C29.3465 59.0134 27.3849 60.9512 24.9677 60.9172C22.6321 60.8866 20.6875 58.9284 20.6671 56.5928C20.6501 54.1688 22.5845 52.2344 25.0221 52.231ZM25.0561 58.6802C26.2664 58.6666 27.2421 57.6739 27.2013 56.4942C27.1605 55.3655 26.2018 54.4102 25.0765 54.3796C23.8934 54.349 22.9143 55.3247 22.9075 56.5384C22.8973 57.7963 23.8016 58.6938 25.0561 58.6802Z" fill="#E7E7E7"/>
<path d="M25.0279 47.8865C25.7453 47.8865 26.4626 47.8797 27.1799 47.8899C27.8293 47.9001 28.2067 48.2571 28.2815 48.8826C28.3528 49.4674 27.8871 49.9671 27.1765 49.9875C25.7419 50.0283 24.3038 50.0283 22.8725 49.9875C22.1518 49.9671 21.6894 49.4742 21.771 48.8792C21.856 48.2673 22.2096 47.8865 22.8725 47.8865C23.5933 47.8865 24.3106 47.8865 25.0279 47.8865Z" fill="#E7E7E7"/>
<path d="M28.3058 15.8548C28.3058 16.7048 28.333 17.5547 28.299 18.4012C28.2446 19.7679 27.4049 20.5974 26.0484 20.6484C25.3719 20.6722 24.6886 20.6722 24.012 20.6484C22.7099 20.6008 21.8124 19.8359 21.758 18.5372C21.6798 16.6742 21.6798 14.8009 21.7648 12.9379C21.8226 11.68 22.6793 10.9593 23.9406 10.9015C24.6614 10.8675 25.3855 10.8675 26.1028 10.9015C27.4831 10.9661 28.2514 11.7684 28.2956 13.1827C28.3296 14.0734 28.3058 14.9641 28.3058 15.8548ZM25.9702 18.4148C25.9702 16.5722 25.9702 14.8383 25.9702 13.1249C25.2495 13.1249 24.6444 13.1249 24.046 13.1249C24.046 14.9335 24.046 16.647 24.046 18.4148C24.6988 18.4148 25.2767 18.4148 25.9702 18.4148Z" fill="#E7E7E7"/>
</svg>
