<svg width="71" height="71" viewBox="0 0 71 71" fill="none" xmlns="http://www.w3.org/2000/svg">
<path d="M9.05858 28.4597C6.72382 28.4597 4.48001 28.4597 2.2059 28.4597C1.87236 28.4597 1.50851 28.49 1.17497 28.4597C0.477579 28.3991 0.0530627 28.0053 0.0227412 27.3085C-0.00758039 25.8241 -0.00758039 24.3397 0.0227412 22.8856C0.0530627 22.007 0.477579 21.6738 1.47819 21.6738C3.72199 21.6435 5.93545 21.6738 8.17925 21.6738C8.45214 21.6738 8.69471 21.6738 9.02825 21.6738C9.02825 20.5226 9.02825 19.4623 9.02825 18.2808C6.81477 18.2808 4.63162 18.2808 2.44847 18.2808C0.0530626 18.2808 0.0227412 18.2203 0.0227412 15.8876C0.0227412 14.9788 0.0227412 14.07 0.0227412 13.1611C0.0227412 11.7979 0.356278 11.4647 1.69043 11.4647C3.99486 11.4647 6.29931 11.4344 8.63407 11.4647C9.21018 11.4647 9.57403 11.3435 9.93789 10.8285C10.2714 10.3135 10.8475 9.94995 11.4237 9.40466C11.4237 6.98112 11.4237 4.40612 11.4237 1.83111C11.4237 0.407288 11.7269 0.104347 13.152 0.104347C14.3345 0.104347 15.4867 0.104347 16.6693 0.104347C17.8518 0.104347 18.2157 0.467877 18.246 1.64935C18.246 4.10318 18.246 6.557 18.246 9.10171C19.3679 9.10171 20.4595 9.10171 21.642 9.10171C21.642 7.95054 21.642 6.82965 21.642 5.70877C21.642 4.31524 21.6117 2.9217 21.642 1.49788C21.6723 0.528465 22.0059 0.104347 22.8852 0.104347C24.3103 0.0740524 25.7657 0.0740524 27.1909 0.104347C28.0702 0.134641 28.434 0.528465 28.434 1.49788C28.4644 3.52759 28.434 5.58759 28.434 7.6173C28.434 8.07171 28.434 8.52612 28.434 9.07142C29.5559 9.07142 30.6172 9.07142 31.7997 9.07142C31.8301 8.73818 31.8604 8.34436 31.8604 7.98083C31.8604 5.82994 31.8604 3.67906 31.8604 1.49788C31.8604 0.437582 32.2546 0.0740524 33.3158 0.0437582C34.5893 0.0134641 35.8931 0.0134641 37.1666 0.0437582C38.2885 0.0740524 38.6524 0.407288 38.6827 1.55847C38.713 3.67906 38.6827 5.79965 38.6827 7.92024C38.6827 8.28377 38.6827 8.6473 38.6827 9.07142C39.8349 9.07142 40.8659 9.07142 42.0181 9.07142C42.0484 8.79877 42.1091 8.49583 42.1091 8.22318C42.1091 6.0723 42.1091 3.92141 42.1091 1.74023C42.1091 0.376994 42.4426 0.0437582 43.7464 0.0437582C44.929 0.0437582 46.0812 0.0437582 47.2637 0.0437582C48.5979 0.0437582 48.9011 0.376994 48.9011 1.74023C48.9011 3.76994 48.9011 5.82994 48.9011 7.85965C48.9011 8.22318 48.9011 8.61701 48.9011 9.04113C50.023 9.04113 51.0842 9.04113 52.2365 9.04113C52.2668 8.76848 52.2971 8.43524 52.2971 8.10201C52.2971 5.95112 52.2971 3.80024 52.2971 1.61905C52.2971 0.3467 52.6306 0.0134641 53.9041 0.0134641C55.1473 0.0134641 56.3905 -0.0168301 57.664 0.0134641C58.7253 0.0437582 59.0891 0.407288 59.1194 1.46758C59.1498 3.80024 59.1498 6.16318 59.1194 8.49583C59.1194 9.10171 59.1801 9.52583 59.7562 9.91966C60.2717 10.2529 60.6355 10.8285 61.1813 11.3738C63.607 11.3738 66.1237 11.3738 68.6707 11.3738C70.2171 11.3738 70.49 11.6464 70.49 13.252C70.49 14.3729 70.49 15.5241 70.49 16.645C70.4597 17.8264 70.1262 18.19 68.9133 18.19C66.8211 18.19 64.7593 18.19 62.6671 18.19C62.3032 18.19 61.909 18.19 61.4845 18.19C61.4845 19.3411 61.4845 20.4014 61.4845 21.5829C63.7283 21.5829 65.9115 21.5829 68.0946 21.5829C70.49 21.5829 70.5203 21.6132 70.5203 24.0064C70.5203 24.9456 70.5203 25.8847 70.5203 26.8541C70.49 28.0356 70.1565 28.3991 68.974 28.4294C66.6998 28.4294 64.4257 28.4294 62.1516 28.4294C61.9697 28.4294 61.7878 28.4597 61.5149 28.4597C61.5149 29.5503 61.5149 30.6409 61.5149 31.8223C62.5761 31.8223 63.6374 31.8223 64.6683 31.8223C66.0934 31.8223 67.5488 31.8223 68.974 31.8223C70.1262 31.8223 70.49 32.1859 70.49 33.3068C70.5204 34.5791 70.5204 35.8818 70.49 37.1541C70.4597 38.275 70.0958 38.6082 68.974 38.6385C66.5179 38.6385 64.0619 38.6385 61.5149 38.6385C61.5149 39.7594 61.5149 40.8197 61.5149 42.0315C61.9394 42.0315 62.3942 42.0315 62.8187 42.0315C64.9109 42.0315 66.9727 42.0315 69.0649 42.0315C70.1262 42.0315 70.49 42.4253 70.5203 43.4856C70.5507 44.7579 70.5507 46.0606 70.5203 47.333C70.49 48.4538 70.1565 48.8174 69.0043 48.8174C66.8818 48.8477 64.7592 48.8174 62.6367 48.8174C62.2729 48.8174 61.909 48.8174 61.4845 48.8174C61.4845 49.9685 61.4845 51.0288 61.4845 52.1497C61.8181 52.18 62.1213 52.2103 62.4548 52.2103C64.6077 52.2103 66.7605 52.2103 68.9436 52.2103C70.1565 52.2103 70.5203 52.5738 70.5203 53.7553C70.5507 54.9974 70.5507 56.2394 70.5203 57.5118C70.49 58.6933 70.1565 59.0265 68.9133 59.0265C66.3057 59.0265 63.698 59.0265 61.5452 59.0265C60.6962 59.7536 60.0594 60.1777 59.544 60.723C59.3317 60.935 59.1801 61.3591 59.1801 61.6621C59.1498 63.9947 59.1801 66.3577 59.1498 68.6903C59.1498 70.0233 58.8162 70.3565 57.4821 70.3565C56.2692 70.3565 55.0564 70.3868 53.8435 70.3565C52.7216 70.3262 52.3577 69.993 52.3274 68.8418C52.2971 66.5395 52.3274 64.2371 52.3274 61.9044C52.3274 61.7227 52.2971 61.5409 52.2971 61.2986C51.1752 61.2986 50.1443 61.2986 48.992 61.2986C48.9617 61.6318 48.9314 61.9347 48.9314 62.268C48.9314 64.4189 48.9314 66.5697 48.9314 68.7509C48.9314 69.9627 48.5675 70.3262 47.385 70.3262C46.1418 70.3565 44.8987 70.3565 43.6251 70.3262C42.4426 70.2959 42.1091 69.9627 42.1091 68.7206C42.1091 66.6303 42.1091 64.5703 42.1091 62.48C42.1091 62.1165 42.1091 61.7227 42.1091 61.2986C40.9872 61.2986 39.9259 61.2986 38.7737 61.2986C38.7434 61.6015 38.7131 61.9044 38.7131 62.2377C38.7131 64.3886 38.7131 66.5395 38.7131 68.7206C38.7131 69.993 38.3492 70.3262 37.0757 70.3262C35.8325 70.3262 34.5893 70.3565 33.3158 70.3262C32.2546 70.2959 31.8907 69.9324 31.8907 68.8721C31.8604 66.388 31.8907 63.8736 31.8907 61.3289C30.7385 61.3289 29.6772 61.3289 28.4947 61.3289C28.4947 63.5403 28.4947 65.7215 28.4947 67.9027C28.4947 70.2959 28.434 70.3262 26.0993 70.3262C25.1896 70.3262 24.28 70.3262 23.3703 70.3262C22.0059 70.3262 21.6723 69.993 21.6723 68.66C21.6723 66.4789 21.6723 64.2674 21.6723 62.0862C21.6723 61.8742 21.6723 61.6318 21.6723 61.3289C20.5504 61.3289 19.4892 61.3289 18.2763 61.3289C18.2763 61.9953 18.2763 62.6618 18.2763 63.3283C18.2763 65.1459 18.2763 66.9636 18.2763 68.7812C18.2763 69.9627 17.9125 70.3262 16.6996 70.3262C15.4564 70.3262 14.2132 70.3565 12.9397 70.3262C11.8178 70.2959 11.454 69.9627 11.454 68.8115C11.454 66.2062 11.454 63.6009 11.454 61.0865C10.8475 60.4503 10.3321 59.8444 9.75597 59.3294C9.5134 59.1174 9.11921 58.9962 8.78568 58.9962C6.48124 58.9659 4.17679 58.9962 1.84203 58.9659C0.416921 58.9659 0.11371 58.663 0.083388 57.2391C0.083388 56.1486 0.083388 55.058 0.083388 53.9371C0.083388 52.4224 0.3866 52.1194 1.84203 52.1194C4.23744 52.1194 6.60253 52.1194 9.08889 52.1194C9.08889 50.9985 9.08889 49.9383 9.08889 48.7265C8.27021 48.7265 7.45154 48.7265 6.63285 48.7265C4.96517 48.7265 3.29748 48.7265 1.6298 48.7265C0.447258 48.7265 0.083388 48.363 0.083388 47.1512C0.083388 45.9091 0.0530664 44.6671 0.083388 43.3947C0.11371 42.2738 0.447247 41.9103 1.59947 41.9103C3.72197 41.88 5.84448 41.9103 7.96699 41.9103C8.33085 41.9103 8.69471 41.9103 9.11921 41.9103C9.11921 40.7591 9.11921 39.6988 9.11921 38.5779C8.78567 38.5476 8.45215 38.5174 8.14893 38.5174C5.9961 38.5174 3.84326 38.5174 1.66011 38.5174C0.44725 38.5174 0.083388 38.1538 0.083388 36.9724C0.0530664 35.7909 0.083388 34.6397 0.083388 33.4582C0.083388 32.0344 0.386615 31.7012 1.78141 31.7012C3.81295 31.7012 5.8748 31.7012 7.90634 31.7012C8.2702 31.7012 8.66439 31.7012 9.08889 31.7012C9.05857 30.7318 9.05858 29.6715 9.05858 28.4597ZM35.2261 59.1174C42.3213 59.1174 49.3862 59.1174 56.4815 59.1174C56.7847 59.1174 57.0879 59.1174 57.3911 59.1174C58.4524 59.0265 59.0588 58.4812 59.1498 57.4209C59.1801 57.118 59.1498 56.815 59.1498 56.5121C59.1498 42.3647 59.1498 28.187 59.1498 14.0397C59.1498 13.767 59.1498 13.4944 59.1498 13.252C59.0891 12.1008 58.513 11.5252 57.3911 11.4344C57.1789 11.4041 56.9363 11.4344 56.724 11.4344C42.4426 11.4344 28.1611 11.4344 13.8797 11.4344C11.9088 11.4344 11.4237 11.9191 11.4237 13.9488C11.4237 28.187 11.4237 42.4253 11.4237 56.6333C11.4237 58.663 11.8785 59.1174 14.001 59.1174C21.0659 59.1174 28.1308 59.1174 35.2261 59.1174ZM15.8809 9.10171C15.8809 6.79936 15.8809 4.61818 15.8809 2.437C15.0926 2.437 14.4255 2.437 13.7584 2.437C13.7584 4.70906 13.7584 6.89024 13.7584 9.10171C14.4558 9.10171 15.1229 9.10171 15.8809 9.10171ZM23.9768 2.37641C23.9768 4.67877 23.9768 6.85995 23.9768 9.04113C24.7651 9.04113 25.4322 9.04113 26.0993 9.04113C26.0993 6.76906 26.0993 4.58788 26.0993 2.37641C25.4019 2.37641 24.7348 2.37641 23.9768 2.37641ZM34.1951 9.10171C34.9835 9.10171 35.6506 9.10171 36.348 9.10171C36.348 6.85995 36.348 4.64847 36.348 2.4067C35.5899 2.4067 34.8925 2.4067 34.1951 2.4067C34.1951 4.64847 34.1951 6.82965 34.1951 9.10171ZM44.4438 2.37641C44.4438 4.67877 44.4438 6.89024 44.4438 9.04113C45.2019 9.04113 45.8992 9.04113 46.5663 9.04113C46.5663 6.76906 46.5663 4.58788 46.5663 2.37641C45.8689 2.37641 45.2019 2.37641 44.4438 2.37641ZM54.6925 2.37641C54.6925 4.64847 54.6925 6.85995 54.6925 9.04113C55.4506 9.04113 56.1479 9.04113 56.8453 9.04113C56.8453 6.76906 56.8453 4.58788 56.8453 2.37641C56.1176 2.37641 55.4506 2.37641 54.6925 2.37641ZM9.08889 13.767C6.78445 13.767 4.57098 13.767 2.41815 13.767C2.41815 14.5244 2.41815 15.2211 2.41815 15.8876C4.69227 15.8876 6.87542 15.8876 9.08889 15.8876C9.08889 15.1908 9.08889 14.5244 9.08889 13.767ZM68.1856 15.9179C68.1856 15.1303 68.1856 14.4638 68.1856 13.767C65.9115 13.767 63.698 13.767 61.5149 13.767C61.5149 14.5244 61.5149 15.2211 61.5149 15.9179C63.789 15.9179 65.9418 15.9179 68.1856 15.9179ZM2.3575 26.0967C4.66194 26.0967 6.84509 26.0967 9.02825 26.0967C9.02825 25.3091 9.02825 24.6426 9.02825 23.9762C6.75413 23.9762 4.57098 23.9762 2.3575 23.9762C2.3575 24.7032 2.3575 25.3697 2.3575 26.0967ZM68.1553 26.1573C68.1553 25.3394 68.1553 24.6729 68.1553 23.9762C65.8811 23.9762 63.698 23.9762 61.4845 23.9762C61.4845 24.7335 61.4845 25.4303 61.4845 26.1573C63.7586 26.1573 65.9115 26.1573 68.1553 26.1573ZM2.3575 36.3362C4.63162 36.3362 6.84509 36.3362 9.02825 36.3362C9.02825 35.5788 9.02825 34.882 9.02825 34.1853C6.75413 34.1853 4.57098 34.1853 2.3575 34.1853C2.3575 34.9123 2.3575 35.5788 2.3575 36.3362ZM68.1856 34.2156C65.8812 34.2156 63.6677 34.2156 61.4845 34.2156C61.4845 34.9729 61.4845 35.6394 61.4845 36.3362C63.7283 36.3362 65.9418 36.3362 68.1856 36.3362C68.1856 35.6091 68.1856 34.9729 68.1856 34.2156ZM2.3575 46.5453C4.69226 46.5453 6.87543 46.5453 9.05858 46.5453C9.05858 45.7879 9.05858 45.1215 9.05858 44.4247C6.78446 44.4247 4.6013 44.4247 2.3575 44.4247C2.3575 45.1518 2.3575 45.8182 2.3575 46.5453ZM68.1856 44.455C65.8812 44.455 63.6677 44.455 61.5149 44.455C61.5149 45.2124 61.5149 45.9091 61.5149 46.5756C63.789 46.5756 65.9721 46.5756 68.1856 46.5756C68.1856 45.8485 68.1856 45.1821 68.1856 44.455ZM9.02825 56.815C9.02825 56.0274 9.02825 55.3306 9.02825 54.6944C6.72381 54.6944 4.54066 54.6944 2.3575 54.6944C2.3575 55.4518 2.3575 56.1183 2.3575 56.815C4.6013 56.815 6.78445 56.815 9.02825 56.815ZM68.1856 56.7847C68.1856 56.0274 68.1856 55.3306 68.1856 54.6641C65.9115 54.6641 63.698 54.6641 61.4845 54.6641C61.4845 55.4215 61.4845 56.088 61.4845 56.7847C63.698 56.7847 65.8812 56.7847 68.1856 56.7847ZM13.7584 61.45C13.7584 63.7524 13.7584 65.9336 13.7584 68.1148C14.5165 68.1148 15.2139 68.1148 15.8809 68.1148C15.8809 65.8427 15.8809 63.6615 15.8809 61.45C15.1532 61.45 14.5165 61.45 13.7584 61.45ZM26.1296 61.45C25.3412 61.45 24.6742 61.45 23.9768 61.45C23.9768 63.7221 23.9768 65.9336 23.9768 68.1148C24.7348 68.1148 25.4322 68.1148 26.1296 68.1148C26.1296 65.873 26.1296 63.6918 26.1296 61.45ZM34.2255 61.45C34.2255 63.7524 34.2255 65.9639 34.2255 68.1148C34.9835 68.1148 35.6809 68.1148 36.348 68.1148C36.348 65.8427 36.348 63.6615 36.348 61.45C35.6203 61.45 34.9532 61.45 34.2255 61.45ZM46.5663 68.1753C46.5663 65.873 46.5663 63.6918 46.5663 61.5106C45.8083 61.5106 45.1109 61.5106 44.4438 61.5106C44.4438 63.7827 44.4438 65.9639 44.4438 68.1753C45.1715 68.1753 45.8083 68.1753 46.5663 68.1753ZM54.6925 61.45C54.6925 63.7827 54.6925 65.9942 54.6925 68.1451C55.4506 68.1451 56.1176 68.1451 56.815 68.1451C56.815 65.873 56.815 63.6615 56.815 61.45C56.057 61.45 55.4202 61.45 54.6925 61.45Z" fill="#E7E7E7"/>
<path d="M13.668 35.2462C13.668 28.7026 13.668 22.1591 13.668 15.6156C13.668 13.9494 13.9105 13.707 15.5479 13.707C28.6771 13.707 41.8367 13.707 54.9659 13.707C56.6033 13.707 56.8459 13.9494 56.8459 15.6156C56.8459 28.7329 56.8459 41.8806 56.8459 54.998C56.8459 56.5733 56.573 56.8459 55.0266 56.8459C41.8367 56.8459 28.6771 56.8459 15.4873 56.8459C13.9409 56.8459 13.668 56.5733 13.668 54.998C13.668 48.4241 13.668 41.82 13.668 35.2462ZM16.0027 54.5133C28.9197 54.5133 41.7457 54.5133 54.5111 54.5133C54.5111 41.6383 54.5111 28.8238 54.5111 16.0397C41.6244 16.0397 28.8287 16.0397 16.0027 16.0397C16.0027 28.8541 16.0027 41.6383 16.0027 54.5133Z" fill="#E7E7E7"/>
</svg>
