<svg width="66" height="66" viewBox="0 0 66 66" fill="none" xmlns="http://www.w3.org/2000/svg">
<path d="M30.9949 60.672C29.8212 61.4725 28.7662 62.2595 27.6434 62.9346C26.9683 63.3383 26.2186 63.7182 25.4554 63.8539C21.3339 64.5968 17.2022 65.282 13.0671 65.9469C10.6654 66.3336 8.80305 64.5391 9.09478 62.1069C9.66467 57.3578 10.2888 52.6155 10.8859 47.8698C11.0453 46.6113 11.2692 45.3528 11.3133 44.0875C11.3302 43.5617 11.0724 42.9341 10.7434 42.4999C7.69719 38.4836 4.60689 34.4977 1.53015 30.5051C1.22146 30.1014 0.889026 29.7113 0.614258 29.2873C-0.756194 27.1841 0.261468 24.545 2.72421 24.026C6.94412 23.1338 11.1776 22.2993 15.4179 21.5056C16.4966 21.3054 17.1038 20.8271 17.4837 19.7823C19.1696 15.1791 20.9845 10.62 22.6365 6.00318C23.3217 4.08997 24.5158 3.17747 26.507 2.89592C30.3605 2.35316 34.1903 1.66115 38.0269 0.996281C40.1708 0.62653 41.5107 1.33211 42.3011 3.40136C44.0684 8.02154 45.8629 12.6282 47.5353 17.2823C47.9966 18.5679 48.692 19.1683 50.0116 19.4058C54.0076 20.1249 57.9833 20.9526 61.9657 21.7295C65.0119 22.3231 66.0974 25.0776 64.2046 27.5573C60.9922 31.767 57.7458 35.9496 54.4961 40.1356C53.9805 40.8004 53.7261 41.4314 53.8482 42.3371C54.6284 48.1683 55.3306 54.0097 56.0497 59.8511C56.3007 61.8898 55.3136 63.362 53.2952 63.7385C49.8861 64.3763 46.4566 64.9089 43.0372 65.4855C42.2875 65.611 41.5175 65.6721 40.7848 65.8621C39.5738 66.1775 38.5391 65.8689 37.552 65.1802C35.398 63.6843 33.2269 62.2087 30.9949 60.672ZM49.8861 27.6048C49.8996 26.6007 49.5502 26.2682 48.4885 26.0545C44.3839 25.2302 40.2895 24.3415 36.168 23.6189C34.2514 23.2831 33.2134 22.2688 32.5722 20.5083C30.8965 15.8982 29.1393 11.3222 27.3991 6.7359C27.1515 6.0812 27.0022 5.2535 26.0728 5.23993C25.1331 5.22297 24.9805 6.04728 24.7295 6.70537C22.9282 11.4477 21.1235 16.1866 19.3562 20.9425C18.7999 22.4418 17.8094 23.2559 16.232 23.5511C11.9917 24.3482 7.76503 25.2132 3.53834 26.0647C2.17467 26.3395 1.84563 27.218 2.64958 28.3714C2.84294 28.6496 3.05665 28.9108 3.26357 29.1787C6.31656 33.1374 9.33902 37.1199 12.4395 41.0447C13.3215 42.1607 13.6573 43.3242 13.4809 44.7015C13.0128 48.3108 12.5582 51.9235 12.0935 55.5328C11.8085 57.7581 11.5168 59.9834 11.2251 62.2053C11.1471 62.7989 11.2556 63.4129 11.8323 63.5995C12.2427 63.7318 12.7787 63.5248 13.2434 63.4163C13.4368 63.3722 13.5962 63.1856 13.7692 63.0669C17.0156 60.8382 20.2619 58.6061 23.5117 56.3808C25.5877 54.9595 26.5341 54.9561 28.583 56.3639C31.9684 58.6909 35.3539 61.018 38.7359 63.3484C39.2515 63.7046 39.7976 63.9726 40.3743 63.5791C40.9306 63.1992 40.9239 62.6191 40.8424 61.9814C40.1097 56.4012 39.4381 50.8108 38.6714 45.2307C38.4238 43.4192 38.8885 41.9775 40.0317 40.546C43.1797 36.6111 46.2191 32.5845 49.289 28.5851C49.5672 28.2323 49.7606 27.8151 49.8861 27.6048ZM42.4266 57.1305C43.0169 57.0627 43.4307 57.0186 43.8445 56.9677C45.6933 56.7472 47.5387 56.503 49.3908 56.3096C50.456 56.1977 50.9784 56.5233 51.0394 57.2221C51.0937 57.8666 50.6697 58.2669 49.6995 58.4094C48.5292 58.5858 47.3521 58.7215 46.175 58.8775C45.0556 59.0268 43.9361 59.176 42.7421 59.3355C42.8846 60.6923 43.0135 61.9271 43.1492 63.2433C46.4566 62.6971 49.669 62.1883 52.8746 61.6286C53.6786 61.4895 54.0144 60.9128 53.9058 60.0003C53.57 57.2289 53.2104 54.4575 52.8475 51.6894C52.8271 51.5402 52.7118 51.4011 52.6134 51.2043C52.0435 51.2586 51.4974 51.3027 50.9546 51.3672C49.6079 51.5232 48.268 51.7166 46.9213 51.8421C46.192 51.9099 45.6967 51.5198 45.6119 50.9262C45.5305 50.3563 45.9477 49.8441 46.6499 49.7219C47.3182 49.6066 47.9932 49.5456 48.6649 49.4574C49.9064 49.2911 51.148 49.1215 52.4167 48.9485C52.3963 48.4634 52.4031 48.1242 52.3624 47.7952C52.1487 46.1601 51.9316 44.5217 51.6941 42.89C51.4702 41.35 51.762 40.0304 52.7796 38.7515C55.9446 34.7759 59.0077 30.7154 62.1082 26.6922C63.4753 24.9181 63.1801 24.1888 60.965 23.7614C56.9792 22.9914 53.0035 22.1806 49.0143 21.4208C47.4233 21.1189 46.2869 20.3386 45.7849 18.7477C45.6729 18.3915 45.4966 18.0591 45.3168 17.6385C44.8317 17.6927 44.3737 17.7402 43.9192 17.7945C42.8676 17.92 41.8228 18.0794 40.7678 18.1676C39.6721 18.2626 39.1972 17.9607 39.143 17.2416C39.0887 16.5462 39.4381 16.2171 40.4523 16.0305C40.8255 15.9627 41.2088 15.9322 41.5853 15.8813C42.5318 15.7558 43.4816 15.6269 44.4958 15.4946C44.3907 15.1418 44.3364 14.9009 44.2482 14.6703C42.949 11.2306 41.6532 7.79087 40.3438 4.35457C39.8757 3.12319 39.6654 2.97733 38.3492 3.17747C36.5106 3.45563 34.6788 3.79824 32.8436 4.11033C31.5783 4.32743 30.313 4.53774 28.9765 4.76163C29.5939 6.35597 30.1502 7.79766 30.7065 9.23934C31.8124 9.09009 32.7724 8.95101 33.7358 8.83567C34.7874 8.71016 35.8356 8.58126 36.8905 8.51341C37.474 8.4761 37.8437 8.83228 37.9218 9.41913C37.9964 9.9992 37.7488 10.4198 37.1687 10.5725C36.7616 10.6776 36.341 10.7353 35.9204 10.7896C34.4753 10.9829 33.0268 11.1661 31.4935 11.3663C32.5858 14.2734 33.6645 17.0279 34.6449 19.8129C35.0214 20.8814 35.6863 21.302 36.7447 21.4988C40.8594 22.2722 44.9402 23.222 49.0686 23.8937C51.572 24.3007 53.2444 27.2961 51.2022 29.7181C50.7239 30.2846 50.2999 30.8952 49.7266 31.6584C50.9003 31.5295 51.8196 31.4142 52.7423 31.3294C53.6616 31.248 54.0958 31.5058 54.2044 32.1537C54.3231 32.8729 53.9398 33.3138 53.0137 33.4461C51.6738 33.6361 50.3203 33.748 48.9871 33.9787C48.441 34.0737 47.7625 34.2535 47.4437 34.6402C45.7272 36.7366 44.1024 38.9076 42.4537 41.0616C42.3588 41.1838 42.3215 41.35 42.1858 41.6553C42.9795 41.5806 43.641 41.5264 44.3025 41.4551C45.4389 41.3296 46.5685 41.1668 47.7049 41.0718C48.3562 41.0175 48.7565 41.4178 48.8141 42.042C48.8684 42.6187 48.5326 42.9952 47.9729 43.1479C47.7286 43.2157 47.481 43.2801 47.23 43.3107C46.3073 43.4226 45.3778 43.5074 44.4551 43.6262C43.2509 43.7822 42.0501 43.962 40.7916 44.1384C41.3377 48.5109 41.8737 52.7444 42.4266 57.1305ZM29.0376 59.349C28.2777 58.8232 27.6434 58.4128 27.0463 57.9582C26.3815 57.4528 25.7641 57.463 25.0823 57.9447C23.7763 58.8741 22.4431 59.7663 21.1202 60.6754C20.228 61.2894 19.3392 61.9101 18.2639 62.6598C18.8406 62.6598 19.1662 62.7039 19.4817 62.653C21.1066 62.3952 22.7179 62.0424 24.3495 61.8593C26.2492 61.6489 27.4568 60.326 29.0376 59.349Z" fill="#E7E7E7"/>
<path d="M15.998 49.2099C16.3033 46.9032 16.6052 44.5965 16.9105 42.2898C17.0123 41.5367 17.0869 40.7735 17.2498 40.0306C17.3821 39.4234 17.0225 39.074 16.7104 38.6873C15.055 36.6485 13.386 34.62 11.7408 32.5711C11.4287 32.181 11.1065 31.7468 10.9742 31.2787C10.5841 29.9082 11.4118 28.6633 12.8772 28.3682C15.0754 27.9272 17.2701 27.4624 19.4852 27.1402C20.3502 27.0147 20.703 26.611 20.9846 25.8749C21.8326 23.6666 22.735 21.4752 23.6169 19.2804C23.695 19.0837 23.7696 18.8869 23.851 18.6936C24.2682 17.6861 25.0247 17.1501 26.1136 17.1705C27.1482 17.1908 27.8674 17.7302 28.2541 18.6834C29.1768 20.9562 30.1503 23.2086 30.9712 25.5153C31.3444 26.5669 31.8736 27.0554 32.9964 27.2114C35.0453 27.493 37.0738 27.9407 39.1058 28.3512C41.158 28.765 41.8942 30.6206 40.6119 32.2658C38.9701 34.369 37.2774 36.4348 35.5541 38.4735C34.9842 39.1486 34.8384 39.7829 34.9808 40.6649C35.4218 43.3787 35.7441 46.1128 36.1003 48.8401C36.2393 49.9087 36.0867 50.889 35.069 51.5064C34.031 52.1374 33.0676 51.8965 32.111 51.2554C30.3539 50.0783 28.5526 48.9589 26.7988 47.775C26.2595 47.412 25.8524 47.4256 25.3232 47.7818C23.5661 48.9622 21.7885 50.1122 19.9975 51.2418C19.5768 51.5064 19.0985 51.7439 18.6202 51.8321C17.2735 52.0763 15.7843 50.9738 15.998 49.2099ZM26.0729 19.1787C25.8388 19.6875 25.7472 19.8673 25.6726 20.0572C24.6923 22.4861 23.695 24.9047 22.7418 27.3437C22.3313 28.3919 21.6359 28.9788 20.5131 29.1518C19.1358 29.3655 17.7688 29.647 16.4017 29.915C15.3094 30.1287 14.2171 30.3594 13.0027 30.607C13.2809 30.9768 13.4267 31.1803 13.5828 31.3737C15.2891 33.4768 16.9818 35.5936 18.7084 37.6798C19.2919 38.382 19.5158 39.1282 19.3936 40.0238C19.0612 42.4526 18.7525 44.8848 18.4404 47.317C18.3421 48.0769 18.2674 48.8401 18.1555 49.8408C20.2824 48.4602 22.199 47.3069 24.0172 46.011C25.4182 45.0137 26.653 44.9493 28.0641 45.9771C29.6008 47.0965 31.2392 48.0769 32.837 49.1081C33.1355 49.3015 33.4543 49.4575 33.8919 49.7017C33.858 49.0708 33.8614 48.6095 33.8037 48.1549C33.4611 45.5124 33.1457 42.8664 32.7284 40.2375C32.5656 39.2198 32.8064 38.4193 33.4374 37.6628C34.4109 36.4925 35.3675 35.3052 36.3241 34.118C37.2231 33.0087 38.1152 31.8961 39.099 30.6749C38.6749 30.546 38.4104 30.4408 38.1356 30.3899C35.9781 29.9693 33.8309 29.5113 31.6599 29.1687C30.4115 28.972 29.7161 28.3003 29.2887 27.1775C28.6137 25.4 27.9047 23.6394 27.1991 21.8755C26.8701 21.058 26.5207 20.2506 26.0729 19.1787Z" fill="#E7E7E7"/>
</svg>
