<svg width="59" height="66" viewBox="0 0 59 66" fill="none" xmlns="http://www.w3.org/2000/svg">
<path d="M36.9927 60.9325C36.9927 62.0476 36.9757 62.9757 36.9995 63.9038C37.0131 64.5191 36.8363 65.0155 36.2209 65.2093C35.6566 65.3895 35.2996 65.0665 34.9257 64.6517C34.6945 64.3968 34.2287 64.2438 33.8615 64.2336C32.0359 64.1928 30.2069 64.2608 28.3812 64.1996C25.1685 64.0908 23.1049 61.1126 24.2506 58.2569C24.9509 56.5162 26.2802 55.5609 28.167 55.5099C30.0335 55.4623 31.9067 55.4861 33.7732 55.4895C34.2933 55.4895 34.7183 55.4759 35.0548 54.9116C35.2248 54.6294 35.8436 54.456 36.2311 54.4968C36.8125 54.558 36.9995 55.0782 36.9927 55.6459C36.9825 56.6148 36.9893 57.5804 36.9893 58.6207C37.4312 58.6547 37.7576 58.6989 38.084 58.6989C41.2287 58.7057 44.3734 58.6139 47.5147 58.7261C51.251 58.8586 53.9878 55.5337 53.1481 51.8043C51.4346 53.2083 49.4458 53.3953 47.372 53.3137C46.9946 53.2967 46.505 53.4225 46.2433 53.6707C45.6653 54.2146 45.016 54.388 44.268 54.3744C43.7173 54.3642 43.1631 54.3812 42.6124 54.371C39.862 54.3064 38.1146 52.5726 38.0568 49.795C38.016 47.8844 38.0466 45.9704 38.0466 44.0597C38.0466 40.4051 38.05 36.7538 38.0466 33.0991C38.0432 31.2667 38.6245 29.6314 40.3448 28.8767C42.3098 28.0131 44.3904 27.7106 46.3589 29.1045C46.6614 29.3186 47.1476 29.3254 47.5522 29.3322C50.4793 29.3696 50.7887 29.441 53.2025 30.8145C53.2025 30.002 53.2025 29.237 53.2025 28.4551C53.1617 28.4245 53.1005 28.3395 53.0325 28.3361C50.5745 28.1729 50.0169 27.578 50.0169 25.1166C50.0169 24.0967 49.9557 23.0734 50.0407 22.0603C50.0883 21.4959 50.3807 20.9554 50.5541 20.4012C50.7105 19.9049 51.0232 19.3881 50.9688 18.9121C50.6527 16.0496 49.5036 13.5202 47.5827 11.3818C47.287 11.052 46.607 10.9466 46.1039 10.9432C40.8377 10.9127 35.5682 10.9228 30.3021 10.9228C24.4818 10.9228 18.6615 10.9534 12.8412 10.8957C11.8179 10.8855 11.1889 11.2492 10.611 12.0108C9.00633 14.122 8.06121 16.4984 7.73824 19.1161C7.69744 19.4459 7.80624 19.8981 8.02042 20.136C8.57797 20.7582 8.72756 21.4517 8.71056 22.2473C8.68336 23.393 8.71056 24.5421 8.70036 25.6878C8.68676 27.493 7.99322 28.2069 6.18118 28.3055C5.9772 28.3157 5.77321 28.3497 5.50804 28.3769C5.50804 29.1724 5.50804 29.9238 5.50804 30.6853C5.57263 30.7057 5.67802 30.7737 5.71882 30.7465C7.35407 29.5974 9.18652 29.2166 11.1515 29.3458C11.8009 29.39 12.4332 29.373 12.8548 28.7509C12.899 28.6863 12.984 28.6319 13.0622 28.6047C14.6838 28.0743 16.3361 28.1049 17.9238 28.6149C19.2428 29.0365 20.1166 30.0462 20.4837 31.4061C20.6129 31.8888 20.6707 32.4056 20.6707 32.9087C20.6843 38.5148 20.6843 44.1243 20.6741 49.7304C20.6673 52.5998 18.9641 54.3166 16.0981 54.3744C15.4624 54.388 14.8232 54.3948 14.1875 54.3608C13.8577 54.3438 13.4021 54.3404 13.2254 54.1365C12.2598 53.0418 10.9986 53.3205 9.80186 53.3001C6.68773 53.2457 4.15495 51.2501 3.45461 48.2312C3.30503 47.5784 3.30843 46.8849 3.30843 46.2084C3.29823 40.728 3.30163 35.2477 3.30163 29.7674C3.30163 29.3458 3.30163 28.9277 3.30163 28.3837C2.83587 28.3531 2.43131 28.3395 2.03015 28.2919C0.894648 28.1559 0.0685119 27.3298 0.0345148 26.1807C-0.013081 24.695 -0.0130814 23.206 0.0447135 21.7203C0.061712 21.2851 0.221503 20.7378 0.517277 20.4556C1.10543 19.8947 1.21082 19.2385 1.27201 18.5076C2.04034 9.35899 9.67267 1.37309 18.7431 0.254587C20.001 0.0982008 21.2793 0.0234071 22.5473 0.0166077C27.2627 -0.0105899 31.9781 0.00300935 36.6935 0.00640905C46.9164 0.0132085 55.2729 6.82961 57.2991 16.8145C57.4011 17.3143 57.4589 17.8208 57.5133 18.3274C57.6017 19.1637 57.6969 19.9491 58.3666 20.6154C58.6692 20.9146 58.7066 21.5571 58.727 22.0467C58.7746 23.2332 58.7542 24.4265 58.7406 25.613C58.7168 27.5202 58.0572 28.1967 56.1602 28.3021C55.997 28.3123 55.8372 28.3395 55.5279 28.3735C55.5279 28.9005 55.5279 29.3934 55.5279 29.8898C55.5279 37.4099 55.5448 44.9301 55.5108 52.4468C55.5074 53.4939 55.3987 54.5818 55.1029 55.5813C54.1646 58.7499 51.2646 60.8883 47.9669 60.9223C44.8222 60.9529 41.6809 60.9291 38.5361 60.9291C38.0738 60.9325 37.6114 60.9325 36.9927 60.9325ZM55.4191 19.5343C55.3001 18.6232 55.2287 17.7936 55.0791 16.9811C53.6206 9.05641 46.3996 2.58678 38.3764 2.30801C32.5663 2.10742 26.7324 2.01563 20.9291 2.29441C13.001 2.67517 7.56146 6.87041 4.51193 14.1628C3.80819 15.8422 3.45461 17.6203 3.36962 19.5275C4.09716 19.5275 4.74991 19.5275 5.44684 19.5275C5.50464 19.2623 5.56584 19.0617 5.58964 18.8578C6.60615 10.4639 13.4395 4.36823 21.881 4.34783C26.9772 4.33423 32.0733 4.32403 37.1695 4.35123C44.5672 4.39202 51.064 9.55617 52.8047 16.7601C53.0223 17.6611 53.1651 18.579 53.3554 19.5377C54.0082 19.5343 54.6201 19.5343 55.4191 19.5343ZM44.5128 52.2292C44.5128 44.9097 44.5128 37.7329 44.5128 30.4915C43.7275 30.4915 43.0509 30.4439 42.3778 30.5017C41.0349 30.6139 40.3006 31.3891 40.2972 32.7489C40.2802 38.4774 40.2802 44.2059 40.2972 49.9344C40.3006 51.2977 41.1335 52.1306 42.5036 52.2224C43.1359 52.2666 43.7717 52.2292 44.5128 52.2292ZM14.2351 52.0864C17.4886 52.6202 18.6003 51.7397 18.5289 48.6901C18.4099 43.6824 18.4983 38.6746 18.4949 33.6635C18.4949 33.1977 18.4915 32.7251 18.4201 32.2696C18.2773 31.3347 17.7198 30.6921 16.7814 30.5765C15.9655 30.4745 15.1258 30.5561 14.2317 30.5561C14.2351 37.7839 14.2351 44.8995 14.2351 52.0864ZM14.558 8.57026C24.5226 8.57026 34.2321 8.57026 44.2204 8.57026C42.2214 7.39736 40.3516 6.66983 38.3356 6.64603C32.3521 6.58143 26.3686 6.58143 20.3817 6.64942C18.3759 6.67322 16.5095 7.40756 14.558 8.57026ZM5.52843 38.1205C5.52843 40.3439 5.52843 42.4313 5.52843 44.5289C7.71104 44.5289 9.80187 44.5289 11.9097 44.5289C11.9097 42.3565 11.9097 40.2691 11.9097 38.1205C9.76787 38.1205 7.71104 38.1205 5.52843 38.1205ZM46.8688 44.5051C49.0888 44.5051 51.1728 44.5051 53.1957 44.5051C53.1957 42.3089 53.1957 40.2215 53.1957 38.1511C51.0368 38.1511 48.9834 38.1511 46.8688 38.1511C46.8688 40.3065 46.8688 42.3701 46.8688 44.5051ZM34.7013 57.6653C32.4609 57.6653 30.2613 57.6007 28.0651 57.6925C26.9058 57.7401 26.1238 58.7533 26.134 59.8582C26.1442 60.8509 26.8922 61.8878 27.8679 61.9252C30.1457 62.0068 32.4269 61.9524 34.8101 61.9524C34.8101 60.7591 34.8169 59.7018 34.8067 58.6479C34.8067 58.3521 34.7489 58.0665 34.7013 57.6653ZM11.9879 31.6814C7.78244 31.2769 5.49104 32.7999 5.61003 35.8393C7.69745 35.8393 9.78486 35.8393 11.9335 35.8393C11.9573 35.4789 11.9879 35.1899 11.9879 34.9043C11.9913 33.8572 11.9879 32.8067 11.9879 31.6814ZM46.8552 35.8121C49.0786 35.8121 51.1626 35.8121 53.2432 35.8121C53.2738 33.2419 50.9926 30.7533 46.8552 31.7936C46.8552 33.0957 46.8552 34.4012 46.8552 35.8121ZM11.9131 51.0087C11.9131 49.5911 11.9131 48.255 11.9131 46.8849C9.74746 46.8849 7.66005 46.8849 5.56923 46.8849C5.68822 50.0364 7.93882 51.4949 11.9131 51.0087ZM53.25 46.7897C51.37 46.7897 49.5954 46.7863 47.8207 46.7931C47.5351 46.7931 47.2496 46.8407 46.9232 46.8713C46.9232 48.3128 46.9232 49.6761 46.9232 51.0189C50.8703 51.4439 53.0427 50.0296 53.25 46.7897ZM56.5104 26.0175C56.5104 24.5285 56.5104 23.1992 56.5104 21.8461C55.0587 21.8461 53.6954 21.8461 52.3389 21.8461C52.3389 23.291 52.3389 24.627 52.3389 26.0175C53.7566 26.0175 55.0927 26.0175 56.5104 26.0175ZM2.30212 21.7985C2.30212 23.2706 2.30212 24.6066 2.30212 26.0073C3.7232 26.0073 5.05928 26.0073 6.44295 26.0073C6.44295 24.5693 6.44295 23.2026 6.44295 21.7985C5.03208 21.7985 3.73 21.7985 2.30212 21.7985Z" fill="#E7E7E7"/>
</svg>
