<svg width="57" height="58" viewBox="0 0 57 58" fill="none" xmlns="http://www.w3.org/2000/svg">
<path d="M13.2466 49.6709C12.661 49.6709 12.2546 49.6709 11.8512 49.6709C8.52869 49.6709 5.20614 49.6769 1.8836 49.6679C0.320923 49.6649 0.00421164 49.3691 0.00421164 47.8632C-0.00176417 34.6836 -0.00475572 21.504 0.0191475 8.32432C0.0191475 7.79247 0.177514 7.20386 0.437461 6.74073C1.52207 4.78664 2.68735 2.87439 3.79287 0.932249C4.16636 0.27491 4.64442 -0.00296408 5.41231 2.38249e-05C21.8398 0.0149633 38.2673 0.0119752 54.6948 0.0149631C55.9377 0.0149631 56.2754 0.349608 56.2933 1.61947C56.3172 3.29867 56.2993 4.98086 56.2993 6.66006C56.2993 16.069 56.2873 25.4779 56.3142 34.8868C56.3172 35.8997 56.0274 36.6347 55.2625 37.3279C51.0286 41.1614 46.8276 45.0307 42.6386 48.915C42.044 49.4647 41.4255 49.6948 40.6307 49.6859C37.7922 49.6619 34.9567 49.6918 32.1182 49.6649C31.4071 49.659 30.8633 49.8382 30.3225 50.3372C28.0487 52.4407 25.7181 54.4844 23.4323 56.576C22.8198 57.1347 22.1924 57.4185 21.3319 57.3976C19.2045 57.3409 17.0771 57.3827 14.9467 57.3767C13.5394 57.3737 13.2615 57.0959 13.2466 55.6557C13.2317 54.1259 13.2436 52.5931 13.2436 51.0633C13.2466 50.6569 13.2466 50.2506 13.2466 49.6709ZM54.0882 2.24394C53.4668 2.24394 53.0216 2.24394 52.5764 2.24394C41.3747 2.24394 30.1701 2.24394 18.9684 2.24394C14.8242 2.24394 10.677 2.26187 6.53277 2.22601C5.84257 2.22004 5.45414 2.43516 5.13144 3.02976C4.36355 4.43706 3.49109 5.78759 2.7471 7.20386C2.4513 7.76857 2.23617 8.45579 2.23617 9.08623C2.20629 21.4472 2.21525 33.8081 2.21525 46.1661C2.21525 46.5635 2.2511 46.9579 2.27202 47.4569C2.78594 47.4569 3.18932 47.4569 3.58969 47.4569C6.95108 47.4569 10.3125 47.4539 13.6709 47.4599C15.2335 47.4629 15.4397 47.666 15.4517 49.1928C15.4606 50.7227 15.4547 52.2554 15.4547 53.7853C15.4547 54.2155 15.4547 54.6458 15.4547 55.1388C17.4984 55.1388 19.3658 55.1657 21.2273 55.1149C21.5828 55.1059 21.9832 54.846 22.2671 54.595C24.6664 52.4616 27.0567 50.3163 29.4201 48.1441C29.952 47.6541 30.5137 47.4449 31.2308 47.4509C34.0693 47.4748 36.9078 47.427 39.7433 47.4808C40.5979 47.4957 41.2163 47.2268 41.8259 46.6591C45.6295 43.1274 49.448 39.6136 53.2875 36.1208C53.8552 35.6039 54.1032 35.078 54.1002 34.2952C54.0763 24.0257 54.0823 13.7563 54.0823 3.48691C54.0882 3.12238 54.0882 2.75487 54.0882 2.24394Z" fill="#E7E7E7"/>
<path d="M20.9793 40.8113C17.618 40.8113 14.4149 40.8113 11.2089 40.8113C10.7996 40.8113 10.3872 40.8203 9.97789 40.7994C9.26378 40.7635 8.89327 40.3751 8.86638 39.661C8.85741 39.401 8.85742 39.1381 8.85742 38.8781C8.85742 28.4265 8.85742 17.9748 8.85742 7.52309C8.85742 7.26314 8.8604 7.0002 8.86339 6.74025C8.87235 5.96041 9.29066 5.58394 10.0466 5.55107C10.3454 5.53912 10.6442 5.53613 10.943 5.53613C23.1486 5.53613 35.3541 5.53613 47.5597 5.53613C47.7838 5.53613 48.0079 5.53016 48.232 5.53912C49.3286 5.5929 49.6214 5.88572 49.6602 6.95538C49.6662 7.14063 49.6602 7.32887 49.6602 7.51412C49.6602 15.5755 49.6483 23.6398 49.6781 31.7012C49.6811 32.6334 49.4212 33.3176 48.7489 33.969C46.7351 35.9141 44.7541 37.8921 42.812 39.909C42.1606 40.5842 41.4734 40.8412 40.5441 40.8292C37.0722 40.7844 33.6002 40.8292 30.1313 40.7964C29.4351 40.7904 28.954 40.9995 28.476 41.4925C26.7071 43.3122 24.9174 45.1139 23.0798 46.8648C22.7631 47.1666 22.1566 47.3638 21.7233 47.307C21.069 47.2174 20.9554 46.5929 20.9793 45.9893C20.9943 45.6547 20.9823 45.3171 20.9823 44.9824C20.9793 43.6438 20.9793 42.3053 20.9793 40.8113ZM11.1611 7.79797C11.1611 18.0943 11.1611 28.292 11.1611 38.5883C11.6003 38.5883 11.9648 38.5883 12.3324 38.5883C14.7585 38.5883 17.1847 38.6003 19.6079 38.5853C23.4981 38.5614 23.2292 38.424 23.2113 42.1409C23.2083 42.5562 23.2113 42.9716 23.2113 43.3839C24.771 42.0991 26.1036 40.7934 27.3854 39.4428C27.971 38.8273 28.6134 38.5674 29.462 38.5734C32.9698 38.6032 36.4776 38.5704 39.9854 38.6003C40.6726 38.6062 41.1656 38.424 41.6497 37.922C43.3079 36.204 44.9961 34.5128 46.7141 32.8545C47.24 32.3466 47.4462 31.8297 47.4432 31.1006C47.4193 23.7115 47.4282 16.3225 47.4282 8.93338C47.4282 8.57184 47.4282 8.2103 47.4282 7.79498C35.2884 7.79797 23.283 7.79797 11.1611 7.79797Z" fill="#E7E7E7"/>
<path d="M33.0919 22.6129C33.0919 20.4108 33.0829 18.2087 33.0949 16.0066C33.1008 14.7069 33.4594 14.3633 34.7621 14.3543C35.8826 14.3483 37.003 14.3453 38.1205 14.3543C39.3964 14.3633 39.7579 14.7218 39.7639 16.0365C39.7758 19.2843 39.7669 22.5322 39.7669 25.777C39.7669 26.9722 39.7848 28.1674 39.7609 29.3595C39.737 30.5188 39.3515 30.8983 38.2012 30.9162C37.0449 30.9342 35.8856 30.9312 34.7292 30.9162C33.4624 30.9013 33.0979 30.5248 33.0919 29.2161C33.0829 27.017 33.0919 24.8149 33.0919 22.6129ZM37.4632 28.6365C37.4632 24.5789 37.4632 20.6169 37.4632 16.64C36.7311 16.64 36.0798 16.64 35.3746 16.64C35.3746 20.6588 35.3746 24.6207 35.3746 28.6365C36.0768 28.6365 36.7311 28.6365 37.4632 28.6365Z" fill="#E7E7E7"/>
<path d="M22.0911 22.6065C22.0911 20.3685 22.0822 18.1306 22.0941 15.8897C22.1001 14.7035 22.4407 14.3658 23.6209 14.3509C24.7025 14.3389 25.7842 14.3449 26.8658 14.3479C28.4404 14.3509 28.7063 14.5959 28.7093 16.1466C28.7183 19.8785 28.7123 23.6074 28.7123 27.3393C28.7123 28.0116 28.7273 28.6839 28.7063 29.3532C28.6675 30.5573 28.3388 30.8919 27.1646 30.9128C25.9724 30.9308 24.7772 30.9338 23.5821 30.9128C22.4855 30.8949 22.1001 30.5155 22.0941 29.4308C22.0822 27.16 22.0911 24.8833 22.0911 22.6065ZM26.4236 28.657C26.4236 24.5785 26.4236 20.6165 26.4236 16.6606C25.6915 16.6606 25.0402 16.6606 24.3948 16.6606C24.3948 20.7002 24.3948 24.6592 24.3948 28.657C25.097 28.657 25.7214 28.657 26.4236 28.657Z" fill="#E7E7E7"/>
</svg>
