<svg width="51" height="66" viewBox="0 0 51 66" fill="none" xmlns="http://www.w3.org/2000/svg">
<path d="M23.5967 4.28846C25.0245 4.28846 26.3368 4.28846 27.7477 4.28846C27.7851 3.95529 27.8361 3.63572 27.8565 3.31615C28.0163 0.684779 30.1751 -0.695499 32.6093 0.351609C36.3047 1.94267 39.973 3.59832 43.6549 5.22678C44.0051 5.37977 44.3586 5.52255 44.7054 5.68234C46.4053 6.46427 47.3946 7.77996 47.398 9.65659C47.4048 14.4128 47.4252 19.169 47.2552 23.9217C47.2042 25.3632 46.65 26.8149 46.1571 28.202C45.5213 29.997 44.753 31.7479 43.9677 33.4817C43.6345 34.216 43.6889 34.811 44.0425 35.5113C46.0279 39.4448 47.9419 43.4122 49.9545 47.3321C51.0085 49.3821 50.8385 51.1907 49.4174 52.9994C44.9026 58.7551 39.3237 62.9367 32.0789 64.5142C22.1042 66.6866 13.3466 64.147 5.84682 57.2966C4.35095 55.9299 3.07607 54.3151 1.76378 52.7614C0.414099 51.1669 0.312108 49.4195 1.25723 47.5497C3.28345 43.5414 5.25527 39.5026 7.2849 35.4943C7.63846 34.7974 7.68946 34.2194 7.35629 33.4885C6.55056 31.7173 5.83322 29.9018 5.10569 28.0966C4.35435 26.2301 3.92259 24.2991 3.92939 22.2763C3.93959 18.1558 3.94299 14.0354 3.92259 9.91837C3.91239 7.85475 4.88811 6.45747 6.73754 5.63814C10.6098 3.9213 14.5331 2.30984 18.3475 0.470598C20.9789 -0.797491 23.6375 0.820768 23.5287 3.69012C23.5219 3.8533 23.5661 4.02329 23.5967 4.28846ZM42.6146 37.5953C42.533 37.5953 42.4514 37.5953 42.3698 37.5953C42.2372 38.8396 42.006 40.0839 41.9856 41.3316C41.9313 44.7279 41.9686 48.1276 41.9652 51.5273C41.9652 52.758 41.6899 53.2272 40.9623 53.2714C40.1872 53.319 39.8234 52.7818 39.82 51.5273C39.8132 48.0868 39.8268 44.6463 39.8166 41.2058C39.8098 38.8838 40.2722 36.6638 41.1799 34.5254C42.1896 32.1456 43.1551 29.7488 44.1683 27.3724C45.5281 24.1767 45.2596 20.8382 45.212 17.3773C44.6816 17.3773 44.2668 17.3773 43.8521 17.3773C42.2372 17.3773 40.6224 17.3909 39.0109 17.3705C38.0964 17.3569 37.5898 16.915 37.634 16.2486C37.6714 15.6265 38.1372 15.2627 39.0075 15.2525C40.7074 15.2321 42.4072 15.2491 44.1037 15.2423C44.4674 15.2389 44.8346 15.1913 45.2528 15.1607C45.2528 13.4303 45.2256 11.8188 45.2596 10.2073C45.2868 8.89846 44.7292 8.07573 43.5155 7.55558C40.0512 6.06991 36.6107 4.52304 33.16 2.99998C32.6569 2.779 32.1673 2.51042 31.6472 2.33703C30.7224 2.03106 30.0765 2.40503 30.0153 3.34335C29.8827 5.31857 29.9439 7.21901 31.5656 8.75907C32.8167 9.94557 33.3062 11.5298 33.2824 13.2705C33.2586 14.9703 33.2688 16.6702 33.279 18.3666C33.2892 20.0563 32.7759 21.5657 31.586 22.759C30.3893 23.9591 29.9507 25.353 29.9745 27.0155C30.0289 30.3268 29.9847 33.6415 29.9881 36.9562C29.9915 38.4181 29.4272 39.6148 28.2509 40.4647C26.8264 41.4948 25.2693 41.6478 23.6919 40.8421C22.1144 40.0363 21.3155 38.6934 21.3019 36.9324C21.2747 33.4477 21.2713 29.9664 21.3019 26.4817C21.3155 25.1286 20.9143 23.9863 19.9556 23.0344C18.5787 21.6711 18.0008 19.9951 18.0042 18.0879C18.0076 16.558 18.011 15.0281 18.0042 13.5017C17.9974 11.5944 18.5515 9.91157 19.925 8.54149C20.9109 7.55898 21.3835 6.37928 21.2951 4.9786C21.2679 4.55704 21.2985 4.12868 21.2883 3.70371C21.2543 2.36083 20.6389 1.91887 19.4116 2.44922C15.4476 4.17287 11.5005 5.93052 7.54327 7.67457C6.53696 8.11993 6.0644 8.91206 6.0576 9.98636C6.0474 11.557 6.0576 13.1311 6.0678 14.7018C6.0678 14.8581 6.15959 15.0111 6.23779 15.2491C6.72055 15.2491 7.17951 15.2491 7.64186 15.2491C9.21253 15.2491 10.7866 15.2321 12.3573 15.2593C13.248 15.2729 13.6491 15.6333 13.6491 16.3132C13.6491 16.9931 13.248 17.3569 12.3573 17.3705C10.7424 17.3977 9.12753 17.3773 7.51608 17.3841C7.06732 17.3875 6.61515 17.4215 6.0542 17.4453C6.0542 18.795 6.0644 20.0189 6.0508 21.2428C6.03041 23.5648 6.45197 25.7882 7.37669 27.9266C8.3354 30.1432 9.21933 32.3904 10.1678 34.6104C11.1334 36.8712 11.5481 39.2306 11.5481 41.675C11.5515 44.8605 11.5481 48.046 11.5481 51.2315C11.5481 51.5273 11.5685 51.8299 11.5277 52.1223C11.4291 52.877 11.0246 53.2782 10.4092 53.2748C9.79388 53.2714 9.39611 52.8566 9.32132 52.1053C9.29072 51.8095 9.31112 51.5103 9.31112 51.2145C9.30772 47.6891 9.33152 44.1636 9.28732 40.6381C9.27372 39.6488 9.05954 38.6662 8.92355 37.5681C8.67197 37.7551 8.58358 37.7891 8.55299 37.8503C6.73754 41.4948 4.9221 45.1359 3.11686 48.7838C2.6817 49.6609 2.7361 50.5312 3.37864 51.2825C4.61953 52.7308 5.78903 54.2641 7.17951 55.5594C14.0945 62.0052 22.2504 64.3714 31.4942 62.4064C38.4466 60.9275 43.7739 56.858 47.9793 51.2247C48.6525 50.3238 48.5471 49.4433 48.0643 48.488C46.3305 45.0441 44.6306 41.5832 42.9172 38.1291C42.839 37.9489 42.72 37.7755 42.6146 37.5953ZM23.4199 6.59686C23.0731 8.14033 22.1416 9.31322 21.1727 10.5065C20.6559 11.1457 20.3601 12.1044 20.3024 12.9441C20.1732 14.7629 20.2786 16.5954 20.2548 18.421C20.2412 19.5939 20.6253 20.6002 21.4515 21.406C22.9507 22.8644 23.5491 24.6493 23.5253 26.6959C23.5151 27.5322 23.5253 28.3686 23.5253 29.2253C25.0415 29.2253 26.4082 29.2253 27.8599 29.2253C27.8599 28.4501 27.8973 27.7736 27.8531 27.1005C27.6967 24.8091 28.3392 22.8372 30.0289 21.2224C30.7292 20.5526 31.0488 19.6653 31.0556 18.6896C31.0692 16.7348 31.1406 14.7765 31.0182 12.8319C30.9706 12.0364 30.6612 11.1253 30.1649 10.5133C29.196 9.32002 28.2645 8.14033 27.8905 6.59346C26.3742 6.59686 24.9429 6.59686 23.4199 6.59686ZM23.5389 31.6425C23.5389 33.5293 23.4981 35.3005 23.5525 37.0684C23.5899 38.2787 24.4126 39.0232 25.5787 39.0606C26.7652 39.098 27.6933 38.4521 27.7681 37.2452C27.8837 35.4059 27.7987 33.5565 27.7987 31.6459C26.3742 31.6425 25.0415 31.6425 23.5389 31.6425Z" fill="#E7E7E7"/>
<path d="M25.6569 52.2305C28.1285 52.2305 29.9949 54.1071 29.9881 56.5855C29.9813 59.0129 28.0197 60.9507 25.6025 60.9167C23.2669 60.8861 21.3223 58.9279 21.3019 56.5923C21.2849 54.1683 23.2193 52.2339 25.6569 52.2305ZM25.6909 58.6797C26.9012 58.6661 27.8769 57.6734 27.8361 56.4937C27.7953 55.365 26.8366 54.4097 25.7113 54.3791C24.5282 54.3485 23.5491 55.3242 23.5423 56.5379C23.5321 57.7958 24.4364 58.6933 25.6909 58.6797Z" fill="#E7E7E7"/>
<path d="M25.6627 47.886C26.38 47.886 27.0974 47.8792 27.8147 47.8894C28.4641 47.8996 28.8414 48.2566 28.9162 48.8821C28.9876 49.4669 28.5219 49.9666 27.8113 49.987C26.3766 50.0278 24.9386 50.0278 23.5073 49.987C22.7866 49.9666 22.3242 49.4737 22.4058 48.8787C22.4908 48.2668 22.8443 47.886 23.5073 47.886C24.228 47.886 24.9454 47.886 25.6627 47.886Z" fill="#E7E7E7"/>
<path d="M28.9406 15.8548C28.9406 16.7048 28.9678 17.5547 28.9338 18.4012C28.8794 19.7679 28.0397 20.5974 26.6832 20.6484C26.0067 20.6722 25.3233 20.6722 24.6468 20.6484C23.3447 20.6008 22.4472 19.8359 22.3928 18.5372C22.3146 16.6742 22.3146 14.8009 22.3996 12.9379C22.4574 11.68 23.3141 10.9593 24.5754 10.9015C25.2961 10.8675 26.0203 10.8675 26.7376 10.9015C28.1179 10.9661 28.8862 11.7684 28.9304 13.1827C28.9644 14.0734 28.9406 14.9641 28.9406 15.8548ZM26.605 18.4148C26.605 16.5722 26.605 14.8383 26.605 13.1249C25.8843 13.1249 25.2791 13.1249 24.6808 13.1249C24.6808 14.9335 24.6808 16.647 24.6808 18.4148C25.3335 18.4148 25.9115 18.4148 26.605 18.4148Z" fill="#E7E7E7"/>
</svg>
