<svg width="62" height="46" viewBox="0 0 62 46" fill="none" xmlns="http://www.w3.org/2000/svg">
<path d="M30.8949 0.49774C37.0311 0.49774 43.1705 0.481693 49.3067 0.504159C55.077 0.523414 59.8332 4.22054 61.255 9.79512C61.4989 10.7547 61.6337 11.7688 61.6369 12.7605C61.669 19.6573 61.6722 26.5574 61.6497 33.4542C61.6272 40.3221 56.226 45.7458 49.3645 45.7619C37.0086 45.7875 24.656 45.7875 12.3001 45.7619C5.43861 45.749 0.0405376 40.3221 0.0180724 33.451C-0.00439279 26.5541 -0.0076021 19.6541 0.0180724 12.7573C0.0469562 5.9632 5.45464 0.568345 12.2423 0.504159C12.3643 0.504159 12.4831 0.500949 12.6018 0.500949C18.6995 0.494531 24.7972 0.494531 30.8949 0.49774ZM30.8949 2.99779C24.9159 2.99779 18.937 3.01063 12.958 2.99458C9.40212 2.98496 6.4624 4.21091 4.33783 7.14743C2.96425 9.04735 2.51815 11.204 2.52456 13.5019C2.54061 19.3204 2.52453 25.1356 2.53416 30.9541C2.53737 32.1159 2.53417 33.2841 2.62724 34.4394C2.84548 37.1834 4.11636 39.3914 6.22808 41.1212C8.17935 42.7194 10.4772 43.2714 12.9548 43.2682C19.6174 43.2586 26.2767 43.265 32.9392 43.265C38.2346 43.265 43.5331 43.2618 48.8285 43.265C52.3427 43.2682 55.2311 42.007 57.3268 39.1154C58.7004 37.2187 59.1432 35.0588 59.14 32.761C59.1272 26.9425 59.14 21.1272 59.1304 15.3087C59.1272 14.1469 59.1304 12.9788 59.0373 11.8234C58.8191 9.07944 57.5482 6.87143 55.4365 5.14161C53.4852 3.54338 51.1873 2.99137 48.7097 2.99458C42.7725 3.00742 36.8321 2.99779 30.8949 2.99779Z" fill="#E7E7E7"/>
<path d="M22.6466 23.7305C22.6466 20.5212 22.6402 17.3119 22.6498 14.1026C22.6563 12.3631 23.5164 11.8657 25.0279 12.7483C30.5287 15.9576 36.0263 19.1733 41.5174 22.3987C42.9776 23.2555 43.0065 24.2312 41.5784 25.072C36.0551 28.323 30.5255 31.5612 24.9862 34.7866C24.6236 34.9984 24.171 35.1557 23.7602 35.1557C23.0317 35.1557 22.6563 34.594 22.6531 33.5959C22.6402 30.3096 22.6466 27.0201 22.6466 23.7305ZM38.8376 23.7626C34.2258 21.0636 29.813 18.4801 25.3617 15.8773C25.0632 17.344 25.1338 30.6819 25.4483 31.5998C29.8772 29.0034 34.29 26.4231 38.8376 23.7626Z" fill="#E7E7E7"/>
</svg>
