<svg width="63" height="49" viewBox="0 0 63 49" fill="none" xmlns="http://www.w3.org/2000/svg">
<path fill-rule="evenodd" clip-rule="evenodd" d="M19.8792 36.7051H9L16.2265 40.7009C22.0334 41.6847 27.263 44.3655 31.3873 48.2153C35.5117 44.3655 40.7413 41.6847 46.5483 40.7009L53.7747 36.7051H42.8955C39.5326 39.3457 35.5956 40.8641 31.3874 40.8641C27.1792 40.8641 23.2421 39.3457 19.8792 36.7051Z" fill="url(#paint0_linear_512_2200)"/>
<rect y="0.208984" width="63" height="31" rx="3" fill="url(#paint1_linear_512_2200)"/>
<path d="M50.5301 15.3035C50.6237 19.7034 46.9728 23.5884 42.2803 23.6059C37.4709 23.6235 33.855 19.6975 33.9018 15.3854C33.9486 10.6813 37.5235 7.02445 42.1575 7.0069C46.9435 6.98934 50.6179 10.7749 50.5301 15.3035ZM49.4828 15.2918C49.477 10.5291 45.4983 7.93134 42.1282 7.9606C38.7464 7.98985 34.9257 10.6871 34.9433 15.4264C34.9608 19.4576 38.173 22.6581 42.175 22.6347C46.3467 22.6113 49.5062 19.4342 49.4828 15.2918Z" fill="black" stroke="black"/>
<path d="M29.3496 15.1108C29.3496 12.513 29.3496 9.92104 29.3496 7.32324C29.3496 6.95463 29.4549 6.87857 29.8177 6.98388C30.0751 7.05994 30.2272 7.22962 30.2682 7.49291C30.2858 7.59823 30.2799 7.7094 30.2799 7.82056C30.2799 12.9635 30.2799 18.1006 30.2799 23.2436C30.2799 23.659 30.0459 23.7877 29.6773 23.5829C29.4842 23.4776 29.3672 23.3138 29.3555 23.0915C29.3496 22.992 29.3496 22.8867 29.3496 22.7872C29.3496 20.2245 29.3496 17.6677 29.3496 15.1108Z" fill="black" stroke="black"/>
<path d="M25.6868 23.6173C25.0841 23.746 24.8033 23.5881 24.6278 23.0498C23.0597 18.3105 21.4917 13.5713 19.9236 8.83205C19.754 8.31132 19.5784 7.79058 19.4087 7.26985C19.3327 7.04752 19.3561 7.01826 19.596 7.01241C20.0465 7.00071 20.2396 7.13528 20.38 7.55655C21.7959 11.816 23.206 16.0755 24.6161 20.3349C24.9496 21.3355 25.2831 22.3301 25.6107 23.3306C25.6458 23.4242 25.6634 23.5178 25.6868 23.6173Z" fill="black" stroke="black"/>
<path d="M19.3097 23.5931C18.8416 23.7686 18.4496 23.5931 18.3033 23.1601C17.0044 19.24 15.7055 15.3199 14.4066 11.4056C13.962 10.0424 13.5114 8.68495 13.0551 7.32754C12.9556 7.03499 12.9673 7.01744 13.2774 7.02329C13.6928 7.02914 13.8742 7.16371 14.0088 7.57913C14.8689 10.1769 15.7348 12.7806 16.5949 15.3784C17.4667 17.9996 18.3326 20.6208 19.2044 23.242C19.2453 23.359 19.2746 23.4761 19.3097 23.5931Z" fill="black" stroke="black"/>
<path d="M54.994 15.4086C54.994 18.0649 54.994 20.7154 54.994 23.3717C54.994 23.6759 54.8945 23.7403 54.6078 23.6233C54.3796 23.5297 54.2451 23.3541 54.2158 23.1143C54.2041 23.0206 54.2041 22.927 54.2041 22.8276C54.2041 17.667 54.2041 12.5065 54.2041 7.34604C54.2041 6.94817 54.3211 6.86626 54.7073 6.98913C54.9121 7.05349 54.9998 7.17636 54.9998 7.4104C54.9881 10.0726 54.994 12.7406 54.994 15.4086Z" fill="black" stroke="black"/>
<path d="M9.00024 15.2449C9.00024 12.612 9.00024 9.97907 9.0061 7.34616C9.0061 7.22329 9.05875 7.10627 9.08801 6.9834C9.23428 7.03021 9.40396 7.04191 9.52683 7.12382C9.70235 7.23499 9.74916 7.43392 9.74916 7.64455C9.74331 8.6158 9.74916 9.58706 9.74916 10.5642C9.74916 14.8002 9.74916 19.0304 9.74916 23.2665C9.74916 23.641 9.60874 23.7346 9.25183 23.6117C9.09386 23.5532 8.99439 23.4596 9.00024 23.2723C9.0061 22.9798 9.00024 22.6873 9.00024 22.3947C9.00024 20.0075 9.00024 17.6262 9.00024 15.2449Z" fill="black" stroke="black"/>
<defs>
<linearGradient id="paint0_linear_512_2200" x1="9" y1="36.7051" x2="53.7742" y2="37.13" gradientUnits="userSpaceOnUse">
<stop stop-color="#E12555"/>
<stop offset="1" stop-color="#4BA1D9"/>
</linearGradient>
<linearGradient id="paint1_linear_512_2200" x1="0" y1="0.208984" x2="63.0034" y2="0.521327" gradientUnits="userSpaceOnUse">
<stop stop-color="#E12555"/>
<stop offset="1" stop-color="#4BA1D9"/>
</linearGradient>
</defs>
</svg>
