<svg width="2201" height="17" viewBox="0 0 2201 17" fill="none" xmlns="http://www.w3.org/2000/svg">
<path fill-rule="evenodd" clip-rule="evenodd" d="M0.0336914 1.11523L0.536559 1.39039C1.14362 1.7232 1.51935 2.35866 1.51887 3.05266L1.50981 14.1961L1.00795 13.9207C0.402173 13.5879 0.0240668 12.9528 0.024631 12.2588L0.0336914 1.11523ZM79.1855 1.68139L78.912 1.17954L91.9924 1.19018L91.7173 1.69158C91.3843 2.29837 90.7477 2.67619 90.0542 2.67563L86.1941 2.67249L86.1847 14.1795L84.6985 14.1783L84.7079 2.67128L80.8478 2.66815C80.1543 2.66758 79.5182 2.28872 79.1855 1.68139ZM42.7178 2.63742L42.719 1.15039L55.7129 1.16096L55.7086 6.51062C55.7078 7.53685 54.9025 8.36894 53.8763 8.40078L44.2001 8.39126L44.1947 14.1456L42.7084 14.1444L42.7143 6.90293L54.2211 6.91229L54.2246 2.64678L42.7178 2.63742ZM19.1274 1.24834C18.5042 1.41559 18.0682 1.9845 18.0676 2.63082L18.0613 11.6194L8.16747 1.70985C7.83095 1.37387 7.38411 1.18754 6.90115 1.18715L6.56198 1.18687L6.55136 14.2468L6.97986 14.1305C7.60353 13.9613 8.03954 13.3943 8.04007 12.7478L8.04738 3.75927L17.9381 13.6672C18.2697 13.9998 18.7302 14.1911 19.2002 14.1915L19.5454 14.1918L19.5561 1.13172L19.1274 1.24834ZM33.888 6.90961L28.825 6.9055C27.331 6.90428 26.1173 5.68927 26.1185 4.19409L26.1197 2.64602L35.7327 2.65383C36.4288 2.6544 37.0677 2.27328 37.4001 1.65999L37.67 1.16005L24.6343 1.14945L24.6314 4.65342C24.6298 6.71282 26.3047 8.39057 28.3632 8.39224L33.4271 8.39636C34.9203 8.39757 36.1337 9.61268 36.1325 11.1063L36.1312 12.6755L24.5807 12.6661L24.86 13.1699C25.1921 13.7705 25.8277 14.1446 26.5173 14.1451L37.6174 14.1541L37.6203 10.6486C37.622 8.58904 35.9479 6.91129 33.888 6.90961ZM72.3534 4.7669C72.3543 3.62673 71.4288 2.70171 70.2912 2.70078L64.3247 2.69593C63.1862 2.69501 62.2595 3.61853 62.2585 4.75869L62.2537 10.725C62.2528 11.8636 63.1781 12.7904 64.3165 12.7913L70.283 12.7962C71.4206 12.7971 72.3476 11.8717 72.3486 10.7333L72.3534 4.7669ZM64.3259 1.1808L70.2924 1.18565C72.2689 1.18726 73.8707 2.79073 73.8691 4.76813L73.8642 10.7345C73.8626 12.7102 72.2583 14.3128 70.2817 14.3112L64.3152 14.3064C62.3379 14.3048 60.7369 12.6996 60.7386 10.7238L60.7434 4.75746C60.745 2.78015 62.3486 1.17919 64.3259 1.1808Z" fill="url(#paint0_linear_511_2065)"/>
<path fill-rule="evenodd" clip-rule="evenodd" d="M348.69 4.95381C348.691 3.81364 347.765 2.88861 346.628 2.88769L340.661 2.88284C339.523 2.88191 338.596 3.80543 338.595 4.9456L338.59 10.9119C338.589 12.0505 339.515 12.9773 340.653 12.9783L346.619 12.9831C347.757 12.984 348.684 12.0586 348.685 10.9202L348.69 4.95381ZM340.662 1.36771L346.629 1.37256C348.605 1.37417 350.207 2.97764 350.206 4.95504L350.201 10.9214C350.199 12.8971 348.595 14.4997 346.618 14.4981L340.652 14.4933C338.674 14.4917 337.073 12.8865 337.075 10.9107L337.08 4.94437C337.081 2.96706 338.685 1.3661 340.662 1.36771ZM319.045 2.83816L319.047 1.35113L332.041 1.36169L332.036 6.71136C332.035 7.73758 331.23 8.56967 330.204 8.60151L320.528 8.592L320.522 14.3464L319.036 14.3452L319.042 7.10367L330.549 7.11302L330.552 2.84751L319.045 2.83816ZM355.521 1.88325L355.247 1.3814L368.328 1.39203L368.052 1.89344C367.719 2.50022 367.083 2.87805 366.389 2.87749L362.529 2.87435L362.52 14.3814L361.034 14.3801L361.043 2.87314L357.183 2.87C356.489 2.86944 355.853 2.49058 355.521 1.88325ZM295.456 1.44999C294.833 1.61724 294.397 2.18614 294.396 2.83247L294.39 11.821L284.496 1.91149C284.16 1.57552 283.713 1.38919 283.23 1.38879L282.891 1.38852L282.88 14.4485L283.309 14.3321C283.932 14.163 284.368 13.596 284.369 12.9495L284.376 3.96092L294.267 13.8689C294.599 14.2015 295.059 14.3928 295.529 14.3931L295.874 14.3934L295.885 1.33337L295.456 1.44999ZM276.365 1.32085L276.868 1.59601C277.475 1.92881 277.85 2.56428 277.85 3.25828L277.841 14.4017L277.339 14.1264C276.733 13.7935 276.355 13.1584 276.356 12.4645L276.365 1.32085ZM310.224 7.09667L305.161 7.09256C303.667 7.09134 302.454 5.87633 302.455 4.38116L302.456 2.83308L312.069 2.8409C312.765 2.84146 313.404 2.46034 313.736 1.84705L314.006 1.34711L300.971 1.33651L300.968 4.84048C300.966 6.89988 302.641 8.57763 304.7 8.57931L309.763 8.58342C311.257 8.58464 312.47 9.79974 312.469 11.2934L312.468 12.8626L300.917 12.8532L301.196 13.357C301.529 13.9575 302.164 14.3316 302.854 14.3322L313.954 14.3412L313.957 10.8357C313.958 8.7761 312.284 7.09835 310.224 7.09667Z" fill="url(#paint1_linear_511_2065)"/>
<path fill-rule="evenodd" clip-rule="evenodd" d="M552.686 1.60449L553.188 1.87965C553.795 2.21245 554.171 2.84792 554.171 3.54192L554.162 14.6853L553.66 14.41C553.054 14.0771 552.676 13.442 552.676 12.7481L552.686 1.60449ZM631.841 2.17089L631.567 1.66904L644.648 1.67968L644.373 2.18108C644.04 2.78787 643.403 3.1657 642.709 3.16513L638.849 3.16199L638.84 14.669L637.354 14.6678L637.363 3.16078L633.503 3.15765C632.81 3.15708 632.173 2.77822 631.841 2.17089ZM595.369 3.12668L595.37 1.63965L608.364 1.65021L608.359 6.99988C608.359 8.0261 607.553 8.8582 606.527 8.89004L596.851 8.88052L596.846 14.6349L595.359 14.6337L595.365 7.39219L606.872 7.40155L606.875 3.13603L595.369 3.12668ZM571.779 1.73949C571.156 1.90674 570.72 2.47564 570.719 3.12197L570.713 12.1105L560.819 2.20099C560.483 1.86502 560.036 1.67869 559.553 1.67829L559.214 1.67802L559.203 14.738L559.632 14.6216C560.255 14.4525 560.691 13.8855 560.692 13.239L560.699 4.25042L570.59 14.1584C570.922 14.491 571.382 14.6823 571.852 14.6826L572.197 14.6829L572.208 1.62287L571.779 1.73949ZM586.544 7.39092L581.481 7.3868C579.987 7.38559 578.773 6.17058 578.775 4.6754L578.776 3.12733L588.389 3.13514C589.085 3.13571 589.724 2.75459 590.056 2.1413L590.326 1.64136L577.29 1.63076L577.287 5.13473C577.286 7.19413 578.961 8.87188 581.019 8.87355L586.083 8.87767C587.576 8.87888 588.79 10.094 588.789 11.5876L588.787 13.1568L577.237 13.1474L577.516 13.6512C577.848 14.2518 578.484 14.6259 579.173 14.6264L590.273 14.6355L590.276 11.1299C590.278 9.07034 588.604 7.3926 586.544 7.39092ZM625.007 5.2484C625.008 4.10823 624.082 3.18321 622.945 3.18228L616.978 3.17743C615.84 3.1765 614.913 4.10002 614.912 5.24019L614.907 11.2065C614.906 12.3451 615.831 13.2719 616.97 13.2728L622.936 13.2777C624.074 13.2786 625.001 12.3532 625.002 11.2147L625.007 5.2484ZM616.979 1.6623L622.946 1.66715C624.922 1.66876 626.524 3.27223 626.522 5.24963L626.518 11.216C626.516 13.1917 624.912 14.7943 622.935 14.7927L616.969 14.7879C614.991 14.7863 613.39 13.1811 613.392 11.2053L613.397 5.23896C613.398 3.26165 615.002 1.66069 616.979 1.6623Z" fill="url(#paint2_linear_511_2065)"/>
<path fill-rule="evenodd" clip-rule="evenodd" d="M908.175 2.38142L907.901 1.87957L920.982 1.8902L920.707 2.39161C920.374 2.99839 919.737 3.37622 919.044 3.37566L915.183 3.37252L915.174 14.8795L913.688 14.8783L913.697 3.37131L909.837 3.36817C909.144 3.36761 908.508 2.98874 908.175 2.38142ZM871.698 3.3373L871.7 1.85027L884.694 1.86084L884.689 7.2105C884.688 8.23673 883.883 9.06882 882.857 9.10066L873.181 9.09114L873.175 14.8455L871.689 14.8443L871.695 7.60281L883.202 7.61217L883.205 3.34666L871.698 3.3373ZM848.111 1.94815C847.488 2.11541 847.052 2.68431 847.052 3.33063L847.045 12.3192L837.152 2.40966C836.815 2.07369 836.368 1.88735 835.885 1.88696L835.546 1.88669L835.535 14.9466L835.964 14.8303C836.588 14.6611 837.024 14.0941 837.024 13.4476L837.031 4.45909L846.922 14.3671C847.254 14.6996 847.714 14.8909 848.184 14.8913L848.53 14.8916L848.54 1.83154L848.111 1.94815ZM829.017 1.82586L829.519 2.10101C830.127 2.43382 830.502 3.06928 830.502 3.76329L830.493 14.9067L829.991 14.6314C829.385 14.2985 829.007 13.6634 829.008 12.9695L829.017 1.82586ZM862.877 7.60168L857.814 7.59756C856.32 7.59635 855.107 6.38134 855.108 4.88616L855.109 3.33809L864.722 3.3459C865.418 3.34647 866.057 2.96534 866.389 2.35206L866.659 1.85212L853.624 1.84152L853.621 5.34548C853.619 7.40489 855.294 9.08264 857.352 9.08431L862.416 9.08843C863.91 9.08964 865.123 10.3047 865.122 11.7984L865.12 13.3676L853.57 13.3582L853.849 13.862C854.181 14.4625 854.817 14.8366 855.507 14.8372L866.607 14.8462L866.61 11.3407C866.611 9.2811 864.937 7.60335 862.877 7.60168ZM901.341 5.4637C901.342 4.32353 900.417 3.3985 899.279 3.39758L893.313 3.39273C892.174 3.3918 891.248 4.31532 891.247 5.45549L891.242 11.4218C891.241 12.5604 892.166 13.4872 893.305 13.4881L899.271 13.493C900.409 13.4939 901.336 12.5685 901.337 11.43L901.341 5.4637ZM893.314 1.8776L899.28 1.88245C901.257 1.88405 902.859 3.48752 902.857 5.46493L902.852 11.4313C902.851 13.407 901.246 15.0096 899.27 15.008L893.303 15.0032C891.326 15.0016 889.725 13.3964 889.727 11.4206L889.731 5.45426C889.733 3.47694 891.337 1.87599 893.314 1.8776Z" fill="url(#paint3_linear_511_2065)"/>
<path fill-rule="evenodd" clip-rule="evenodd" d="M1184.5 2.58649L1184.23 2.08464L1197.31 2.09528L1197.03 2.59668C1196.7 3.20347 1196.06 3.5813 1195.37 3.58073L1191.51 3.5776L1191.5 15.0846L1190.02 15.0834L1190.03 3.57639L1186.17 3.57325C1185.47 3.57269 1184.84 3.19382 1184.5 2.58649ZM1148.03 3.54238L1148.03 2.05535L1161.02 2.06591L1161.02 7.41558C1161.02 8.4418 1160.21 9.2739 1159.18 9.30573L1149.51 9.29622L1149.5 15.0506L1148.02 15.0494L1148.02 7.80789L1159.53 7.81724L1159.53 3.55173L1148.03 3.54238ZM1124.44 2.15518C1123.82 2.32243 1123.38 2.89134 1123.38 3.53766L1123.37 12.5262L1113.48 2.61669C1113.14 2.28072 1112.7 2.09438 1112.21 2.09399L1111.87 2.09371L1111.86 15.1537L1112.29 15.0373C1112.91 14.8682 1113.35 14.3012 1113.35 13.6547L1113.36 4.66612L1123.25 14.5741C1123.58 14.9067 1124.04 15.098 1124.51 15.0983L1124.86 15.0986L1124.87 2.03857L1124.44 2.15518ZM1105.35 2.02214L1105.85 2.2973C1106.46 2.63011 1106.83 3.26557 1106.83 3.95957L1106.82 15.103L1106.32 14.8277C1105.72 14.4948 1105.34 13.8597 1105.34 13.1657L1105.35 2.02214ZM1139.21 7.8048L1134.14 7.80069C1132.65 7.79947 1131.44 6.58446 1131.44 5.08928L1131.44 3.54121L1141.05 3.54902C1141.75 3.54959 1142.39 3.16847 1142.72 2.55518L1142.99 2.05524L1129.95 2.04464L1129.95 5.54861C1129.95 7.60801 1131.62 9.28576 1133.68 9.28743L1138.75 9.29155C1140.24 9.29276 1141.45 10.5079 1141.45 12.0015L1141.45 13.5707L1129.9 13.5613L1130.18 14.0651C1130.51 14.6656 1131.15 15.0398 1131.84 15.0403L1142.94 15.0493L1142.94 11.5438C1142.94 9.48423 1141.27 7.80648 1139.21 7.8048ZM1177.67 5.66194C1177.67 4.52177 1176.75 3.59674 1175.61 3.59582L1169.64 3.59097C1168.51 3.59004 1167.58 4.51356 1167.58 5.65373L1167.57 11.6201C1167.57 12.7586 1168.5 13.6855 1169.64 13.6864L1175.6 13.6912C1176.74 13.6922 1177.67 12.7667 1177.67 11.6283L1177.67 5.66194ZM1169.64 2.07584L1175.61 2.08069C1177.59 2.08229 1179.19 3.68576 1179.19 5.66317L1179.18 11.6295C1179.18 13.6053 1177.58 15.2079 1175.6 15.2063L1169.63 15.2014C1167.66 15.1998 1166.06 13.5946 1166.06 11.6188L1166.06 5.6525C1166.06 3.67518 1167.67 2.07423 1169.64 2.07584Z" fill="url(#paint4_linear_511_2065)"/>
<path fill-rule="evenodd" clip-rule="evenodd" d="M1424.36 3.75709L1424.36 2.27006L1437.35 2.28062L1437.35 7.63029C1437.35 8.65651 1436.54 9.48861 1435.52 9.52045L1425.84 9.51093L1425.84 15.2653L1424.35 15.2641L1424.35 8.0226L1435.86 8.03196L1435.86 3.76644L1424.36 3.75709ZM1460.83 2.80218L1460.56 2.30033L1473.64 2.31097L1473.37 2.81237C1473.03 3.41916 1472.4 3.79699 1471.7 3.79642L1467.84 3.79328L1467.83 15.3003L1466.35 15.2991L1466.36 3.79208L1462.5 3.78894C1461.8 3.78837 1461.17 3.40951 1460.83 2.80218ZM1400.77 2.36989C1400.14 2.53715 1399.71 3.10605 1399.71 3.75237L1399.7 12.7409L1389.81 2.8314C1389.47 2.49543 1389.02 2.30909 1388.54 2.3087L1388.2 2.30843L1388.19 15.3684L1388.62 15.252C1389.24 15.0829 1389.68 14.5159 1389.68 13.8694L1389.69 4.88083L1399.58 14.7888C1399.91 15.1214 1400.37 15.3127 1400.84 15.3131L1401.19 15.3133L1401.2 2.25328L1400.77 2.36989ZM1381.67 2.23686L1382.18 2.51201C1382.78 2.84482 1383.16 3.48028 1383.16 4.17428L1383.15 15.3177L1382.65 15.0424C1382.04 14.7095 1381.66 14.0744 1381.66 13.3805L1381.67 2.23686ZM1415.53 8.02733L1410.47 8.02321C1408.98 8.022 1407.76 6.80698 1407.76 5.31181L1407.77 3.76373L1417.38 3.77155C1418.08 3.77211 1418.71 3.39099 1419.05 2.77771L1419.32 2.27776L1406.28 2.26716L1406.28 5.77113C1406.28 7.83053 1407.95 9.50828 1410.01 9.50996L1415.07 9.51407C1416.57 9.51529 1417.78 10.7304 1417.78 12.224L1417.78 13.7932L1406.23 13.7838L1406.51 14.2876C1406.84 14.8882 1407.47 15.2623 1408.16 15.2628L1419.26 15.2719L1419.27 11.7663C1419.27 9.70675 1417.59 8.029 1415.53 8.02733ZM1454 5.88446C1454 4.74429 1453.08 3.81927 1451.94 3.81834L1445.98 3.81349C1444.84 3.81256 1443.91 4.73608 1443.91 5.87625L1443.9 11.8426C1443.9 12.9811 1444.83 13.908 1445.97 13.9089L1451.93 13.9138C1453.07 13.9147 1454 12.9892 1454 11.8508L1454 5.88446ZM1445.98 2.29836L1451.94 2.30321C1453.92 2.30482 1455.52 3.90829 1455.52 5.88569L1455.51 11.852C1455.51 13.8278 1453.91 15.4304 1451.93 15.4288L1445.97 15.4239C1443.99 15.4223 1442.39 13.8171 1442.39 11.8414L1442.39 5.87502C1442.4 3.89771 1444 2.29675 1445.98 2.29836Z" fill="url(#paint5_linear_511_2065)"/>
<path fill-rule="evenodd" clip-rule="evenodd" d="M1737.17 3.00056L1736.9 2.49871L1749.98 2.50934L1749.7 3.01075C1749.37 3.61753 1748.73 3.99536 1748.04 3.9948L1744.18 3.99166L1744.17 15.4987L1742.68 15.4975L1742.69 3.99045L1738.83 3.98731C1738.14 3.98675 1737.5 3.60789 1737.17 3.00056ZM1700.7 3.95644L1700.7 2.46941L1713.69 2.47998L1713.69 7.82964C1713.69 8.85587 1712.88 9.68796 1711.86 9.7198L1702.18 9.71028L1702.17 15.4647L1700.69 15.4634L1700.69 8.22195L1712.2 8.23131L1712.2 3.9658L1700.7 3.95644ZM1677.1 2.56729C1676.48 2.73455 1676.04 3.30345 1676.04 3.94977L1676.04 12.9383L1666.14 3.0288C1665.81 2.69283 1665.36 2.5065 1664.88 2.5061L1664.54 2.50583L1664.53 15.5658L1664.96 15.4494C1665.58 15.2803 1666.02 14.7133 1666.02 14.0668L1666.02 5.07823L1675.91 14.9862C1676.25 15.3188 1676.71 15.5101 1677.18 15.5105L1677.52 15.5107L1677.53 2.45068L1677.1 2.56729ZM1658.01 2.43718L1658.51 2.71234C1659.12 3.04515 1659.5 3.68061 1659.5 4.37461L1659.49 15.518L1658.99 15.2427C1658.38 14.9098 1658 14.2747 1658 13.5808L1658.01 2.43718ZM1691.88 8.21496L1686.81 8.21084C1685.32 8.20963 1684.1 6.99462 1684.11 5.49944L1684.11 3.95137L1693.72 3.95918C1694.42 3.95975 1695.05 3.57863 1695.39 2.96534L1695.66 2.4654L1682.62 2.4548L1682.62 5.95877C1682.62 8.01817 1684.29 9.69592 1686.35 9.69759L1691.41 9.70171C1692.91 9.70292 1694.12 10.918 1694.12 12.4116L1694.12 13.9809L1682.57 13.9715L1682.85 14.4752C1683.18 15.0758 1683.81 15.4499 1684.5 15.4505L1695.6 15.4595L1695.61 11.954C1695.61 9.89439 1693.93 8.21664 1691.88 8.21496ZM1730.34 6.07307C1730.34 4.9329 1729.41 4.00788 1728.28 4.00695L1722.31 4.0021C1721.17 4.00118 1720.25 4.92469 1720.24 6.06486L1720.24 12.0312C1720.24 13.1697 1721.16 14.0966 1722.3 14.0975L1728.27 14.1024C1729.41 14.1033 1730.33 13.1778 1730.33 12.0394L1730.34 6.07307ZM1722.31 2.48697L1728.28 2.49182C1730.25 2.49343 1731.86 4.0969 1731.85 6.0743L1731.85 12.0407C1731.85 14.0164 1730.24 15.619 1728.27 15.6174L1722.3 15.6126C1720.32 15.6109 1718.72 14.0057 1718.72 12.03L1718.73 6.06363C1718.73 4.08632 1720.33 2.48536 1722.31 2.48697Z" fill="url(#paint6_linear_511_2065)"/>
<path d="M105.817 14.0954C105.265 14.0949 104.989 13.7789 104.989 13.1473L104.998 1.99547C104.999 1.3507 105.262 1.02853 105.789 1.02896C106.368 1.02943 106.657 1.35205 106.656 1.99682L106.653 6.24043L113.521 6.24602L113.525 2.0024C113.525 1.35764 113.802 1.03548 114.355 1.03593C114.907 1.03638 115.183 1.35898 115.183 2.00375L115.174 13.1556C115.173 13.7872 114.897 14.1028 114.344 14.1023C113.791 14.1019 113.515 13.7858 113.516 13.1542L113.52 7.90399L106.651 7.89841L106.647 13.1486C106.647 13.7803 106.37 14.0958 105.817 14.0954Z" fill="#4A4A4A"/>
<path d="M117.894 14.2828C117.671 14.2827 117.477 14.2101 117.312 14.0653C117.148 13.927 117.066 13.7624 117.066 13.5716C117.066 13.3742 117.089 13.2098 117.135 13.0782L121.852 1.18019L123.629 1.18163L128.327 13.0873C128.373 13.2189 128.395 13.3834 128.395 13.5808C128.395 13.7716 128.313 13.936 128.148 14.0741C127.984 14.2187 127.789 14.2909 127.566 14.2907C127.158 14.2904 126.878 14.0796 126.727 13.6584L125.398 10.2427L120.069 10.2384L118.734 13.6618C118.556 14.0761 118.276 14.2832 117.894 14.2828ZM120.741 8.58095L124.728 8.58419L122.719 3.66785L120.741 8.58095Z" fill="#4A4A4A"/>
<path d="M137.312 14.121C137.069 14.1208 136.872 14.0384 136.721 13.8738C136.576 13.7092 136.504 13.4887 136.504 13.2124L136.513 2.61323C136.513 2.34348 136.589 2.11655 136.74 1.93246C136.892 1.74178 137.105 1.64656 137.382 1.64678C137.908 1.64721 138.171 1.96981 138.171 2.61457L138.167 7.19373L139.746 7.19502C139.923 7.19516 140.124 7.1065 140.348 6.92905C140.572 6.74501 140.835 6.44916 141.138 6.04149C141.441 5.62724 141.8 5.07159 142.215 4.37452C142.354 4.14436 142.522 3.87475 142.719 3.56569C142.917 3.25004 143.144 2.94758 143.401 2.6583C143.664 2.36245 143.961 2.11926 144.29 1.92873C144.626 1.73162 144.994 1.63323 145.395 1.63356C146.08 1.63412 146.421 1.93046 146.421 2.52259C146.421 2.8384 146.322 3.0357 146.124 3.11449C145.934 3.19328 145.69 3.2523 145.394 3.29153C145.111 3.33078 144.854 3.49176 144.624 3.77448C144.4 4.05063 144.11 4.47475 143.754 5.04686C143.451 5.54006 143.208 5.93461 143.023 6.23053C142.845 6.52645 142.687 6.77305 142.549 6.97031C142.41 7.16758 142.246 7.36153 142.055 7.55217C141.87 7.73624 141.614 7.96631 141.285 8.24237L141.245 7.72915C141.653 8.05845 142.011 8.40415 142.32 8.76626C142.636 9.1218 142.915 9.4773 143.158 9.83278C143.401 10.1883 143.625 10.5273 143.829 10.8498C144.177 11.383 144.459 11.7747 144.676 12.0249C144.9 12.2685 145.143 12.4168 145.406 12.4696C145.505 12.4894 145.633 12.5158 145.791 12.5489C145.956 12.5753 146.1 12.6445 146.225 12.7565C146.35 12.8684 146.412 13.056 146.412 13.3191C146.412 13.8586 146.089 14.1281 145.444 14.1276C144.964 14.1272 144.468 13.9689 143.955 13.6527C143.448 13.3299 142.958 12.8492 142.485 12.2106C142.38 12.0592 142.219 11.8288 142.002 11.5194C141.792 11.2034 141.598 10.9138 141.421 10.6505C141.02 10.0449 140.675 9.59391 140.386 9.29761C140.103 9.00131 139.823 8.85305 139.547 8.85283L138.165 8.8517L138.162 13.2137C138.162 13.4769 138.083 13.694 137.925 13.8649C137.773 14.0358 137.569 14.1212 137.312 14.121Z" fill="#4A4A4A"/>
<path d="M148.31 14.3076C148.087 14.3074 147.893 14.2349 147.728 14.09C147.564 13.9517 147.482 13.7871 147.482 13.5963C147.482 13.399 147.505 13.2345 147.551 13.103L152.269 1.20492L154.045 1.20636L158.743 13.1121C158.789 13.2437 158.812 13.4082 158.811 13.6056C158.811 13.7964 158.729 13.9608 158.564 14.0988C158.4 14.2434 158.206 14.3156 157.982 14.3154C157.574 14.3151 157.295 14.1043 157.144 13.6831L155.814 10.2674L150.485 10.2631L149.15 13.6865C148.972 14.1009 148.692 14.3079 148.31 14.3076ZM151.157 8.60568L155.144 8.60892L153.135 3.69258L151.157 8.60568Z" fill="#4A4A4A"/>
<path d="M161.542 14.1407C160.989 14.1402 160.713 13.8374 160.714 13.2321L160.723 2.09999C160.723 1.44207 160.987 1.11332 161.513 1.11375L165.283 1.11681C166.98 1.11819 168.204 1.36591 168.953 1.85996C169.703 2.35401 170.077 3.16028 170.076 4.27875C170.076 5.36433 169.746 6.19962 169.088 6.78464C168.436 7.36309 167.482 7.6518 166.225 7.65078L162.376 7.64765L162.371 13.2334C162.371 13.8387 162.094 14.1411 161.542 14.1407ZM162.377 5.98968L165.279 5.99203C166.003 5.99262 166.595 5.9635 167.055 5.90466C167.522 5.84583 167.865 5.70136 168.082 5.47126C168.306 5.23459 168.418 4.85638 168.418 4.33662C168.419 3.91554 168.33 3.59309 168.153 3.36925C167.982 3.14542 167.67 2.99055 167.216 2.90465C166.762 2.81875 166.117 2.77546 165.281 2.77478L162.38 2.77242L162.377 5.98968Z" fill="#4A4A4A"/>
<path d="M175.735 14.1522C175.452 14.152 175.228 14.0696 175.064 13.905C174.906 13.7469 174.827 13.5265 174.828 13.2436L174.836 2.88124L171.994 2.87893C171.698 2.87869 171.461 2.80612 171.283 2.66123C171.112 2.50977 171.027 2.30575 171.027 2.04916C171.027 1.79256 171.113 1.59197 171.284 1.44736C171.462 1.29618 171.699 1.22072 171.995 1.22096L179.515 1.22707C180.16 1.2276 180.482 1.50419 180.482 2.05684C180.481 2.6095 180.159 2.88557 179.514 2.88504L176.711 2.88276L176.703 13.2451C176.702 13.5148 176.613 13.7319 176.436 13.8962C176.258 14.0671 176.024 14.1525 175.735 14.1522Z" fill="#4A4A4A"/>
<path d="M183.206 14.0201C182.68 14.0197 182.417 13.6905 182.417 13.0326L182.426 2.21633C182.427 1.5584 182.69 1.22965 183.217 1.23008L191.625 1.23692C192.283 1.23745 192.611 1.52721 192.611 2.10618C192.611 2.63252 192.281 2.89542 191.623 2.89489L184.084 2.88876L184.081 6.00732L189.193 6.01148C189.93 6.01208 190.298 6.30186 190.298 6.88084C190.297 7.40718 189.929 7.67005 189.192 7.66945L184.08 7.66529L184.076 12.3629L191.616 12.369C192.274 12.3695 192.602 12.6593 192.602 13.2383C192.602 13.7646 192.272 14.0275 191.614 14.027L183.206 14.0201Z" fill="#4A4A4A"/>
<path d="M202 14.1736C201.448 14.1731 201.171 13.8571 201.172 13.2255L201.181 2.07367C201.182 1.42891 201.445 1.10674 201.971 1.10716C202.294 1.10743 202.577 1.27543 202.82 1.61117L206.467 6.72621L210.142 1.61712C210.38 1.28177 210.656 1.11423 210.972 1.11448C211.511 1.11492 211.781 1.43752 211.78 2.08229L211.771 13.2341C211.771 13.8657 211.494 14.1813 210.941 14.1809C210.389 14.1804 210.113 13.8446 210.113 13.1736L210.121 3.97577L207.186 8.13805C207.074 8.30244 206.966 8.41091 206.86 8.46346C206.755 8.50943 206.63 8.53235 206.485 8.53223C206.334 8.53211 206.202 8.50898 206.091 8.46283C205.985 8.41011 205.877 8.30146 205.765 8.13689L202.838 3.96984L202.83 13.1676C202.829 13.8387 202.553 14.174 202 14.1736Z" fill="#4A4A4A"/>
<path d="M215.666 14.1847C215.126 14.1843 214.857 13.8682 214.857 13.2366L214.866 2.0848C214.867 1.44003 215.144 1.11787 215.696 1.11832C216.249 1.11877 216.525 1.46112 216.524 2.14536L216.517 11.2346L223.413 1.62791C223.664 1.29257 223.947 1.12503 224.262 1.12529C224.789 1.12572 225.052 1.44831 225.051 2.09308L225.042 13.2449C225.041 13.8765 224.765 14.1921 224.212 14.1916C223.66 14.1912 223.384 13.8949 223.384 13.3028L223.391 4.09511L216.574 13.6426C216.416 13.8662 216.278 14.0108 216.159 14.0765C216.047 14.1488 215.883 14.1849 215.666 14.1847Z" fill="#4A4A4A"/>
<path d="M228.947 14.1955C228.394 14.195 228.118 13.8922 228.119 13.2869L228.128 2.1548C228.128 1.49687 228.392 1.16812 228.918 1.16855L232.688 1.17161C234.385 1.17299 235.609 1.42071 236.358 1.91476C237.108 2.40882 237.482 3.21508 237.482 4.33355C237.481 5.41913 237.151 6.25443 236.493 6.83945C235.841 7.41789 234.887 7.7066 233.63 7.70558L229.781 7.70245L229.777 13.2882C229.776 13.8935 229.499 14.1959 228.947 14.1955ZM229.782 6.04448L232.684 6.04684C233.408 6.04743 234 6.0183 234.46 5.95946C234.928 5.90063 235.27 5.75616 235.487 5.52607C235.711 5.2894 235.823 4.91118 235.824 4.39142C235.824 3.97035 235.735 3.64789 235.558 3.42405C235.387 3.20022 235.075 3.04535 234.621 2.95945C234.167 2.87355 233.522 2.83026 232.687 2.82959L229.785 2.82723L229.782 6.04448Z" fill="#4A4A4A"/>
<path d="M239.212 14.3815C238.988 14.3813 238.794 14.3088 238.63 14.1639C238.465 14.0256 238.383 13.861 238.383 13.6702C238.384 13.4729 238.407 13.3084 238.453 13.1769L243.17 1.27883L244.946 1.28027L249.644 13.186C249.69 13.3176 249.713 13.4821 249.713 13.6795C249.713 13.8703 249.63 14.0347 249.466 14.1727C249.301 14.3173 249.107 14.3895 248.883 14.3893C248.475 14.389 248.196 14.1783 248.045 13.7571L246.715 10.3413L241.386 10.337L240.051 13.7604C239.873 14.1748 239.593 14.3818 239.212 14.3815ZM242.059 8.67958L246.046 8.68283L244.036 3.76649L242.059 8.67958Z" fill="#4A4A4A"/>
<path d="M264.51 4.39501C264.839 4.07289 265.165 4.07315 265.487 4.3958C265.816 4.72503 265.815 5.0507 265.486 5.37282L260.311 10.5498C259.982 10.8719 259.656 10.8716 259.334 10.549C259.005 10.2197 259.005 9.89408 259.335 9.57196L264.51 4.39501ZM259.131 5.30844C258.809 4.97921 258.809 4.65354 259.132 4.33142C259.461 4.00272 259.786 4.00299 260.109 4.33221L265.286 9.50772C265.608 9.83694 265.607 10.1626 265.285 10.4847C264.955 10.8134 264.63 10.8132 264.308 10.4839L259.131 5.30844Z" fill="#4A4A4A"/>
<path d="M382.145 14.3201C381.593 14.3196 381.317 14.0036 381.317 13.372L381.326 2.22014C381.327 1.57537 381.59 1.2532 382.117 1.25363C382.696 1.2541 382.985 1.57672 382.984 2.22149L382.981 6.46511L389.85 6.47069L389.853 2.22707C389.854 1.58231 390.13 1.26015 390.683 1.2606C391.235 1.26105 391.512 1.58366 391.511 2.22842L391.502 13.3803C391.501 14.0119 391.225 14.3274 390.672 14.327C390.12 14.3265 389.843 14.0105 389.844 13.3789L389.848 8.12866L382.98 8.12308L382.975 13.3733C382.975 14.0049 382.698 14.3205 382.145 14.3201Z" fill="#4A4A4A"/>
<path d="M394.222 14.5075C393.999 14.5073 393.805 14.4348 393.64 14.2899C393.476 14.1516 393.394 13.9871 393.394 13.7963C393.394 13.5989 393.417 13.4344 393.463 13.3029L398.181 1.40486L399.957 1.4063L404.655 13.312C404.701 13.4436 404.724 13.6081 404.723 13.8055C404.723 13.9963 404.641 14.1607 404.476 14.2987C404.312 14.4433 404.118 14.5156 403.894 14.5154C403.486 14.515 403.206 14.3043 403.055 13.8831L401.726 10.4674L396.397 10.463L395.062 13.8865C394.884 14.3008 394.604 14.5078 394.222 14.5075ZM397.069 8.80562L401.056 8.80886L399.047 3.89252L397.069 8.80562Z" fill="#4A4A4A"/>
<path d="M413.641 14.3457C413.397 14.3455 413.2 14.2631 413.049 14.0985C412.904 13.9339 412.832 13.7134 412.832 13.4371L412.841 2.8379C412.841 2.56815 412.917 2.34122 413.068 2.15713C413.22 1.96645 413.434 1.87123 413.71 1.87145C414.236 1.87188 414.499 2.19448 414.499 2.83924L414.495 7.4184L416.074 7.41969C416.252 7.41983 416.452 7.33117 416.676 7.15372C416.9 6.96968 417.163 6.67383 417.466 6.26616C417.769 5.85191 418.128 5.29626 418.543 4.59919C418.682 4.36903 418.85 4.09942 419.047 3.79036C419.245 3.47471 419.472 3.17225 419.729 2.88297C419.993 2.58712 420.289 2.34393 420.618 2.1534C420.954 1.95629 421.322 1.85791 421.723 1.85823C422.408 1.85879 422.75 2.15513 422.749 2.74726C422.749 3.06307 422.65 3.26037 422.453 3.33916C422.262 3.41795 422.018 3.47697 421.722 3.5162C421.439 3.55545 421.182 3.71643 420.952 3.99915C420.728 4.2753 420.438 4.69942 420.082 5.27153C419.779 5.76473 419.536 6.15928 419.351 6.4552C419.173 6.75112 419.015 6.99772 418.877 7.19498C418.739 7.39225 418.574 7.5862 418.383 7.77684C418.199 7.96091 417.942 8.19098 417.613 8.46704L417.574 7.95383C417.981 8.28312 418.339 8.62882 418.648 8.99093C418.964 9.34647 419.243 9.70198 419.486 10.0575C419.73 10.4129 419.953 10.7519 420.157 11.0745C420.505 11.6077 420.788 11.9994 421.004 12.2496C421.228 12.4932 421.471 12.6414 421.734 12.6943C421.833 12.7141 421.961 12.7405 422.119 12.7735C422.284 12.8 422.428 12.8692 422.553 12.9811C422.678 13.0931 422.741 13.2806 422.74 13.5438C422.74 14.0833 422.417 14.3528 421.773 14.3523C421.292 14.3519 420.796 14.1936 420.283 13.8774C419.776 13.5546 419.287 13.0739 418.813 12.4353C418.708 12.2839 418.547 12.0535 418.33 11.7441C418.12 11.4281 417.926 11.1385 417.749 10.8752C417.348 10.2695 417.003 9.81858 416.714 9.52228C416.431 9.22598 416.152 9.07772 415.875 9.0775L414.494 9.07637L414.49 13.4384C414.49 13.7016 414.411 13.9186 414.253 14.0896C414.101 14.2605 413.897 14.3459 413.641 14.3457Z" fill="#4A4A4A"/>
<path d="M424.638 14.5322C424.415 14.5321 424.221 14.4595 424.056 14.3147C423.892 14.1764 423.81 14.0118 423.81 13.821C423.81 13.6236 423.833 13.4592 423.88 13.3276L428.597 1.42959L430.373 1.43103L435.071 13.3367C435.117 13.4683 435.14 13.6328 435.14 13.8302C435.139 14.021 435.057 14.1854 434.892 14.3235C434.728 14.4681 434.534 14.5403 434.31 14.5401C433.902 14.5398 433.623 14.329 433.472 13.9078L432.142 10.4921L426.813 10.4878L425.478 13.9112C425.3 14.3255 425.02 14.5326 424.638 14.5322ZM427.485 8.83035L431.472 8.83359L429.463 3.91725L427.485 8.83035Z" fill="#4A4A4A"/>
<path d="M437.87 14.3654C437.317 14.3649 437.041 14.062 437.042 13.4568L437.051 2.32466C437.051 1.66674 437.315 1.33799 437.841 1.33842L441.611 1.34148C443.308 1.34286 444.532 1.59058 445.281 2.08463C446.031 2.57868 446.405 3.38495 446.405 4.50342C446.404 5.589 446.074 6.42429 445.416 7.00931C444.764 7.58776 443.81 7.87647 442.553 7.87545L438.704 7.87232L438.7 13.4581C438.699 14.0634 438.422 14.3658 437.87 14.3654ZM438.705 6.21435L441.607 6.21671C442.331 6.21729 442.923 6.18817 443.383 6.12933C443.851 6.0705 444.193 5.92603 444.41 5.69593C444.634 5.45926 444.746 5.08105 444.747 4.56129C444.747 4.14021 444.658 3.81776 444.481 3.59392C444.31 3.37009 443.998 3.21522 443.544 3.12932C443.09 3.04342 442.445 3.00013 441.61 2.99945L438.708 2.99709L438.705 6.21435Z" fill="#4A4A4A"/>
<path d="M452.063 14.3769C451.78 14.3767 451.556 14.2943 451.392 14.1296C451.234 13.9716 451.155 13.7511 451.156 13.4682L451.164 3.10591L448.322 3.1036C448.026 3.10336 447.789 3.03079 447.611 2.88591C447.44 2.73444 447.355 2.53042 447.355 2.27383C447.356 2.01724 447.441 1.81664 447.612 1.67203C447.79 1.52086 448.027 1.44539 448.323 1.44563L455.843 1.45174C456.488 1.45227 456.81 1.72886 456.81 2.28151C456.809 2.83417 456.487 3.11024 455.842 3.10971L453.039 3.10743L453.031 13.4698C453.03 13.7395 452.941 13.9565 452.764 14.1209C452.586 14.2918 452.352 14.3771 452.063 14.3769Z" fill="#4A4A4A"/>
<path d="M459.534 14.2448C459.008 14.2444 458.745 13.9152 458.746 13.2573L458.754 2.441C458.755 1.78307 459.018 1.45432 459.545 1.45475L467.953 1.46159C468.611 1.46212 468.94 1.75188 468.939 2.33085C468.939 2.85719 468.61 3.12009 467.952 3.11956L460.412 3.11343L460.409 6.23199L465.521 6.23615C466.258 6.23675 466.626 6.52654 466.626 7.10551C466.625 7.63185 466.257 7.89472 465.52 7.89412L460.408 7.88996L460.404 12.5875L467.944 12.5937C468.602 12.5942 468.931 12.884 468.93 13.4629C468.93 13.9893 468.6 14.2522 467.943 14.2516L459.534 14.2448Z" fill="#4A4A4A"/>
<path d="M478.328 14.3983C477.776 14.3978 477.5 14.0818 477.5 13.4502L477.509 2.29834C477.51 1.65358 477.773 1.33141 478.299 1.33184C478.622 1.3321 478.905 1.5001 479.148 1.83584L482.795 6.95088L486.47 1.84179C486.708 1.50644 486.984 1.3389 487.3 1.33915C487.839 1.33959 488.109 1.66219 488.108 2.30696L488.099 13.4588C488.099 14.0904 487.822 14.406 487.27 14.4055C486.717 14.4051 486.441 14.0693 486.441 13.3982L486.449 4.20044L483.514 8.36272C483.402 8.52711 483.294 8.63558 483.188 8.68813C483.083 8.7341 482.958 8.75702 482.813 8.7569C482.662 8.75678 482.53 8.73365 482.419 8.6875C482.313 8.63478 482.205 8.52614 482.093 8.36156L479.166 4.19452L479.158 13.3923C479.158 14.0634 478.881 14.3987 478.328 14.3983Z" fill="#4A4A4A"/>
<path d="M491.994 14.4094C491.454 14.4089 491.185 14.0929 491.185 13.4613L491.195 2.30947C491.195 1.6647 491.472 1.34254 492.024 1.34299C492.577 1.34344 492.853 1.68579 492.852 2.37003L492.845 11.4593L499.741 1.85258C499.992 1.51724 500.275 1.3497 500.59 1.34996C501.117 1.35039 501.38 1.67298 501.379 2.31775L501.37 13.4696C501.37 14.1012 501.093 14.4168 500.54 14.4163C499.988 14.4159 499.712 14.1196 499.712 13.5274L499.72 4.31978L492.902 13.8673C492.744 14.0909 492.606 14.2355 492.487 14.3012C492.376 14.3735 492.211 14.4095 491.994 14.4094Z" fill="#4A4A4A"/>
<path d="M505.275 14.4202C504.722 14.4197 504.446 14.1168 504.447 13.5116L504.456 2.37947C504.456 1.72154 504.72 1.39279 505.246 1.39322L509.016 1.39629C510.713 1.39767 511.937 1.64538 512.687 2.13944C513.436 2.63349 513.811 3.43975 513.81 4.55822C513.809 5.6438 513.479 6.4791 512.821 7.06412C512.169 7.64256 511.215 7.93127 509.958 7.93025L506.109 7.92712L506.105 13.5129C506.104 14.1182 505.828 14.4206 505.275 14.4202ZM506.111 6.26915L509.012 6.27151C509.736 6.2721 510.328 6.24297 510.788 6.18413C511.256 6.1253 511.598 5.98084 511.815 5.75074C512.039 5.51407 512.151 5.13585 512.152 4.61609C512.152 4.19502 512.063 3.87256 511.886 3.64872C511.715 3.42489 511.403 3.27002 510.949 3.18412C510.495 3.09822 509.85 3.05494 509.015 3.05426L506.113 3.0519L506.111 6.26915Z" fill="#4A4A4A"/>
<path d="M515.54 14.6062C515.316 14.606 515.122 14.5334 514.958 14.3886C514.793 14.2503 514.711 14.0857 514.712 13.8949C514.712 13.6975 514.735 13.5331 514.781 13.4015L519.498 1.5035L521.275 1.50494L525.972 13.4106C526.018 13.5423 526.041 13.7068 526.041 13.9041C526.041 14.0949 525.958 14.2593 525.794 14.3974C525.629 14.542 525.435 14.6142 525.211 14.614C524.804 14.6137 524.524 14.4029 524.373 13.9817L523.044 10.566L517.714 10.5617L516.379 13.9851C516.201 14.3994 515.922 14.6065 515.54 14.6062ZM518.387 8.90425L522.374 8.9075L520.365 3.99116L518.387 8.90425Z" fill="#4A4A4A"/>
<path d="M540.838 4.61968C541.167 4.29756 541.493 4.29783 541.815 4.62047C542.144 4.9497 542.144 5.27537 541.814 5.59749L536.639 10.7744C536.31 11.0966 535.984 11.0963 535.662 10.7736C535.333 10.4444 535.333 10.1187 535.663 9.79663L540.838 4.61968ZM535.459 5.53311C535.137 5.20388 535.137 4.87821 535.46 4.55609C535.789 4.22739 536.115 4.22766 536.437 4.55688L541.614 9.73239C541.936 10.0616 541.935 10.3873 541.613 10.7094C541.284 11.0381 540.958 11.0378 540.636 10.7086L535.459 5.53311Z" fill="#4A4A4A"/>
<path d="M658.474 14.5447C657.921 14.5443 657.645 14.2282 657.645 13.5966L657.654 2.44481C657.655 1.80004 657.918 1.47788 658.445 1.4783C659.024 1.47877 659.313 1.80139 659.312 2.44616L659.309 6.68978L666.178 6.69536L666.181 2.45174C666.182 1.80698 666.458 1.48482 667.011 1.48527C667.564 1.48572 667.84 1.80833 667.839 2.45309L667.83 13.6049C667.83 14.2365 667.553 14.5521 667 14.5517C666.448 14.5512 666.172 14.2352 666.172 13.6036L666.176 8.35333L659.308 8.34775L659.303 13.598C659.303 14.2296 659.026 14.5452 658.474 14.5447Z" fill="#4A4A4A"/>
<path d="M670.55 14.7322C670.327 14.732 670.133 14.6595 669.968 14.5146C669.804 14.3763 669.722 14.2118 669.722 14.021C669.722 13.8236 669.745 13.6591 669.792 13.5276L674.509 1.62953L676.285 1.63097L680.983 13.5367C681.029 13.6683 681.052 13.8328 681.051 14.0302C681.051 14.221 680.969 14.3854 680.804 14.5234C680.64 14.668 680.446 14.7402 680.222 14.74C679.814 14.7397 679.535 14.529 679.384 14.1078L678.054 10.692L672.725 10.6877L671.39 14.1111C671.212 14.5255 670.932 14.7325 670.55 14.7322ZM673.397 9.03029L677.384 9.03353L675.375 4.11719L673.397 9.03029Z" fill="#4A4A4A"/>
<path d="M689.969 14.5703C689.725 14.5701 689.528 14.4877 689.377 14.3231C689.232 14.1585 689.16 13.9381 689.16 13.6617L689.169 3.06257C689.169 2.79282 689.245 2.5659 689.396 2.3818C689.548 2.19112 689.762 2.0959 690.038 2.09612C690.564 2.09655 690.827 2.41915 690.827 3.06391L690.823 7.64307L692.402 7.64436C692.58 7.6445 692.78 7.55584 693.004 7.37839C693.228 7.19435 693.491 6.8985 693.794 6.49083C694.097 6.07658 694.456 5.52093 694.872 4.82386C695.01 4.5937 695.178 4.32409 695.375 4.01503C695.573 3.69938 695.8 3.39692 696.057 3.10764C696.321 2.81179 696.617 2.5686 696.946 2.37807C697.282 2.18096 697.65 2.08258 698.052 2.0829C698.736 2.08346 699.078 2.3798 699.077 2.97193C699.077 3.28774 698.978 3.48504 698.781 3.56383C698.59 3.64262 698.346 3.70164 698.05 3.74087C697.767 3.78012 697.511 3.9411 697.28 4.22382C697.056 4.49997 696.766 4.92409 696.411 5.4962C696.107 5.9894 695.864 6.38395 695.679 6.67987C695.501 6.97579 695.343 7.22239 695.205 7.41965C695.067 7.61692 694.902 7.81087 694.711 8.00151C694.527 8.18558 694.27 8.41565 693.941 8.69171L693.902 8.1785C694.309 8.50779 694.668 8.85349 694.977 9.2156C695.292 9.57114 695.571 9.92665 695.814 10.2821C696.058 10.6376 696.281 10.9766 696.485 11.2992C696.833 11.8324 697.116 12.2241 697.333 12.4742C697.556 12.7179 697.799 12.8661 698.062 12.9189C698.161 12.9388 698.289 12.9652 698.447 12.9982C698.612 13.0247 698.756 13.0939 698.881 13.2058C699.006 13.3178 699.069 13.5053 699.068 13.7685C699.068 14.308 698.745 14.5775 698.101 14.5769C697.62 14.5766 697.124 14.4182 696.611 14.102C696.104 13.7792 695.615 13.2985 695.141 12.66C695.036 12.5086 694.875 12.2782 694.658 11.9688C694.448 11.6528 694.254 11.3631 694.077 11.0998C693.676 10.4942 693.331 10.0433 693.042 9.74695C692.759 9.45065 692.48 9.30239 692.203 9.30217L690.822 9.30104L690.818 13.6631C690.818 13.9263 690.739 14.1433 690.581 14.3142C690.429 14.4852 690.225 14.5705 689.969 14.5703Z" fill="#4A4A4A"/>
<path d="M700.967 14.7569C700.743 14.7567 700.549 14.6842 700.384 14.5393C700.22 14.401 700.138 14.2365 700.138 14.0457C700.138 13.8483 700.162 13.6838 700.208 13.5523L704.925 1.65426L706.701 1.6557L711.399 13.5614C711.445 13.693 711.468 13.8575 711.468 14.0549C711.467 14.2457 711.385 14.4101 711.22 14.5481C711.056 14.6927 710.862 14.765 710.638 14.7648C710.23 14.7644 709.951 14.5537 709.8 14.1325L708.47 10.7168L703.141 10.7124L701.806 14.1359C701.628 14.5502 701.348 14.7572 700.967 14.7569ZM703.813 9.05502L707.8 9.05826L705.791 4.14192L703.813 9.05502Z" fill="#4A4A4A"/>
<path d="M714.198 14.59C713.645 14.5896 713.369 14.2867 713.37 13.6814L713.379 2.54933C713.379 1.89141 713.643 1.56266 714.169 1.56309L717.939 1.56615C719.636 1.56753 720.86 1.81525 721.61 2.3093C722.359 2.80336 722.734 3.60962 722.733 4.72809C722.732 5.81367 722.402 6.64896 721.744 7.23398C721.092 7.81243 720.138 8.10114 718.881 8.10012L715.032 8.09699L715.028 13.6828C715.027 14.2881 714.751 14.5905 714.198 14.59ZM715.034 6.43902L717.935 6.44138C718.659 6.44196 719.251 6.41284 719.711 6.354C720.179 6.29517 720.521 6.1507 720.738 5.9206C720.962 5.68393 721.074 5.30572 721.075 4.78596C721.075 4.36488 720.986 4.04243 720.809 3.81859C720.638 3.59476 720.326 3.43989 719.872 3.35399C719.418 3.26809 718.773 3.2248 717.938 3.22412L715.036 3.22176L715.034 6.43902Z" fill="#4A4A4A"/>
<path d="M728.391 14.6016C728.108 14.6013 727.884 14.5189 727.72 14.3543C727.562 14.1963 727.483 13.9758 727.484 13.6929L727.492 3.33058L724.65 3.32827C724.354 3.32803 724.117 3.25546 723.94 3.11058C723.769 2.95911 723.683 2.75509 723.683 2.4985C723.684 2.24191 723.769 2.04131 723.941 1.8967C724.118 1.74553 724.355 1.67006 724.651 1.6703L732.171 1.67641C732.816 1.67694 733.138 1.95353 733.138 2.50618C733.137 3.05884 732.815 3.33491 732.17 3.33438L729.367 3.3321L729.359 13.6944C729.359 13.9642 729.27 14.1812 729.092 14.3456C728.914 14.5165 728.68 14.6018 728.391 14.6016Z" fill="#4A4A4A"/>
<path d="M735.862 14.4695C735.336 14.4691 735.073 14.1399 735.074 13.482L735.082 2.66567C735.083 2.00774 735.346 1.67899 735.873 1.67942L744.281 1.68626C744.939 1.68679 745.268 1.97655 745.267 2.55552C745.267 3.08186 744.938 3.34476 744.28 3.34423L736.74 3.3381L736.737 6.45666L741.849 6.46082C742.586 6.46142 742.954 6.75121 742.954 7.33018C742.954 7.85652 742.585 8.11939 741.848 8.11879L736.736 8.11463L736.732 12.8122L744.272 12.8183C744.93 12.8189 745.259 13.1086 745.258 13.6876C745.258 14.214 744.929 14.4769 744.271 14.4763L735.862 14.4695Z" fill="#4A4A4A"/>
<path d="M754.656 14.6229C754.104 14.6225 753.828 14.3065 753.828 13.6748L753.837 2.52301C753.838 1.87825 754.101 1.55608 754.628 1.55651C754.95 1.55677 755.233 1.72477 755.476 2.06051L759.123 7.17555L762.799 2.06646C763.036 1.73111 763.312 1.56357 763.628 1.56382C764.167 1.56426 764.437 1.88686 764.436 2.53163L764.427 13.6835C764.427 14.3151 764.15 14.6306 763.598 14.6302C763.045 14.6297 762.769 14.294 762.769 13.6229L762.777 4.42511L759.842 8.58739C759.73 8.75178 759.622 8.86025 759.517 8.9128C759.411 8.95877 759.286 8.98169 759.141 8.98158C758.99 8.98145 758.859 8.95832 758.747 8.91217C758.642 8.85945 758.533 8.75081 758.421 8.58623L755.494 4.41919L755.486 13.617C755.486 14.2881 755.209 14.6234 754.656 14.6229Z" fill="#4A4A4A"/>
<path d="M768.322 14.634C767.783 14.6336 767.513 14.3176 767.514 13.686L767.523 2.53414C767.523 1.88937 767.8 1.56722 768.352 1.56766C768.905 1.56811 769.181 1.91046 769.18 2.5947L769.173 11.6839L776.069 2.07725C776.32 1.74191 776.603 1.57437 776.919 1.57463C777.445 1.57506 777.708 1.89765 777.707 2.54242L777.698 13.6943C777.698 14.3259 777.421 14.6414 776.868 14.641C776.316 14.6405 776.04 14.3442 776.04 13.7521L776.048 4.54446L769.23 14.092C769.072 14.3156 768.934 14.4602 768.816 14.5259C768.704 14.5982 768.539 14.6342 768.322 14.634Z" fill="#4A4A4A"/>
<path d="M781.603 14.6448C781.05 14.6444 780.774 14.3415 780.775 13.7362L780.784 2.60414C780.784 1.94621 781.048 1.61746 781.574 1.61789L785.344 1.62096C787.042 1.62234 788.265 1.87005 789.015 2.36411C789.764 2.85816 790.139 3.66442 790.138 4.7829C790.137 5.86847 789.807 6.70377 789.149 7.28879C788.497 7.86723 787.543 8.15594 786.286 8.15492L782.437 8.15179L782.433 13.7376C782.432 14.3429 782.156 14.6453 781.603 14.6448ZM782.439 6.49382L785.34 6.49618C786.064 6.49677 786.656 6.46764 787.117 6.4088C787.584 6.34997 787.926 6.20551 788.143 5.97541C788.367 5.73874 788.479 5.36052 788.48 4.84076C788.48 4.41969 788.391 4.09723 788.214 3.87339C788.043 3.64956 787.731 3.49469 787.277 3.40879C786.823 3.3229 786.178 3.27961 785.343 3.27893L782.441 3.27657L782.439 6.49382Z" fill="#4A4A4A"/>
<path d="M791.868 14.8308C791.644 14.8306 791.45 14.7581 791.286 14.6132C791.122 14.4749 791.039 14.3104 791.04 14.1196C791.04 13.9222 791.063 13.7578 791.109 13.6262L795.826 1.72817L797.603 1.72961L802.3 13.6353C802.346 13.7669 802.369 13.9314 802.369 14.1288C802.369 14.3196 802.287 14.484 802.122 14.622C801.957 14.7667 801.763 14.8389 801.54 14.8387C801.132 14.8384 800.852 14.6276 800.701 14.2064L799.372 10.7907L794.042 10.7863L792.707 14.2098C792.529 14.6241 792.25 14.8311 791.868 14.8308ZM794.715 9.12893L798.702 9.13217L796.693 4.21583L794.715 9.12893Z" fill="#4A4A4A"/>
<path d="M817.166 4.84435C817.495 4.52223 817.821 4.5225 818.143 4.84514C818.472 5.17437 818.472 5.50004 818.142 5.82216L812.967 10.9991C812.638 11.3212 812.312 11.321 811.99 10.9983C811.661 10.6691 811.661 10.3434 811.991 10.0213L817.166 4.84435ZM811.787 5.75778C811.465 5.42855 811.465 5.10288 811.788 4.78076C812.117 4.45207 812.443 4.45233 812.765 4.78155L817.942 9.95706C818.264 10.2863 818.264 10.612 817.941 10.9341C817.612 11.2628 817.286 11.2625 816.964 10.9333L811.787 5.75778Z" fill="#4A4A4A"/>
<path d="M934.802 14.7694C934.249 14.7689 933.973 14.4529 933.973 13.8213L933.983 2.66948C933.983 2.02472 934.246 1.70255 934.773 1.70297C935.352 1.70344 935.641 2.02606 935.64 2.67083L935.637 6.91445L942.506 6.92003L942.509 2.67642C942.51 2.03165 942.786 1.70949 943.339 1.70994C943.892 1.71039 944.168 2.033 944.167 2.67776L944.158 13.8296C944.158 14.4612 943.881 14.7768 943.328 14.7763C942.776 14.7759 942.5 14.4599 942.5 13.8282L942.504 8.578L935.636 8.57242L935.631 13.8227C935.631 14.4543 935.354 14.7698 934.802 14.7694Z" fill="#4A4A4A"/>
<path d="M946.879 14.9569C946.655 14.9567 946.461 14.8841 946.296 14.7393C946.132 14.601 946.05 14.4364 946.05 14.2456C946.05 14.0482 946.073 13.8838 946.12 13.7522L950.837 1.8542L952.613 1.85564L957.311 13.7613C957.357 13.893 957.38 14.0575 957.38 14.2548C957.379 14.4456 957.297 14.61 957.132 14.7481C956.968 14.8927 956.774 14.9649 956.55 14.9647C956.142 14.9644 955.863 14.7536 955.712 14.3324L954.382 10.9167L949.053 10.9124L947.718 14.3358C947.54 14.7501 947.26 14.9572 946.879 14.9569ZM949.725 9.25496L953.712 9.2582L951.703 4.34186L949.725 9.25496Z" fill="#4A4A4A"/>
<path d="M966.297 14.795C966.053 14.7948 965.856 14.7124 965.705 14.5478C965.56 14.3832 965.488 14.1627 965.488 13.8864L965.497 3.28724C965.497 3.01749 965.573 2.79057 965.724 2.60647C965.876 2.4158 966.09 2.32057 966.366 2.32079C966.892 2.32122 967.155 2.64382 967.155 3.28859L967.151 7.86774L968.73 7.86903C968.908 7.86917 969.109 7.78052 969.332 7.60306C969.556 7.41902 969.82 7.12317 970.123 6.7155C970.426 6.30125 970.785 5.7456 971.2 5.04854C971.338 4.81837 971.506 4.54876 971.704 4.2397C971.901 3.92405 972.128 3.62159 972.385 3.33231C972.649 3.03646 972.945 2.79327 973.274 2.60274C973.61 2.40564 973.978 2.30725 974.38 2.30757C975.064 2.30813 975.406 2.60447 975.405 3.19661C975.405 3.51241 975.306 3.70971 975.109 3.7885C974.918 3.86729 974.674 3.92631 974.378 3.96554C974.095 4.00479 973.839 4.16577 973.608 4.44849C973.384 4.72464 973.094 5.14877 972.739 5.72087C972.436 6.21407 972.192 6.60863 972.007 6.90454C971.829 7.20046 971.671 7.44706 971.533 7.64432C971.395 7.84159 971.23 8.03554 971.039 8.22618C970.855 8.41025 970.598 8.64032 970.269 8.91638L970.23 8.40317C970.637 8.73246 970.996 9.07816 971.305 9.44027C971.62 9.79581 971.899 10.1513 972.143 10.5068C972.386 10.8623 972.609 11.2013 972.813 11.5238C973.161 12.057 973.444 12.4487 973.661 12.6989C973.884 12.9425 974.127 13.0908 974.391 13.1436C974.489 13.1634 974.617 13.1899 974.775 13.2229C974.94 13.2493 975.085 13.3185 975.209 13.4305C975.334 13.5424 975.397 13.73 975.397 13.9932C975.396 14.5327 975.073 14.8021 974.429 14.8016C973.948 14.8012 973.452 14.6429 972.939 14.3267C972.433 14.0039 971.943 13.5232 971.47 12.8846C971.364 12.7332 971.203 12.5028 970.987 12.1934C970.776 11.8775 970.582 11.5878 970.405 11.3245C970.004 10.7189 969.659 10.2679 969.37 9.97162C969.087 9.67532 968.808 9.52706 968.531 9.52684L967.15 9.52572L967.146 13.8878C967.146 14.1509 967.067 14.368 966.909 14.5389C966.757 14.7098 966.553 14.7952 966.297 14.795Z" fill="#4A4A4A"/>
<path d="M977.295 14.9816C977.071 14.9814 976.877 14.9089 976.713 14.764C976.548 14.6257 976.466 14.4612 976.466 14.2704C976.466 14.073 976.49 13.9085 976.536 13.777L981.253 1.87893L983.029 1.88037L987.727 13.7861C987.773 13.9177 987.796 14.0822 987.796 14.2796C987.796 14.4704 987.713 14.6348 987.549 14.7728C987.384 14.9174 987.19 14.9896 986.966 14.9894C986.558 14.9891 986.279 14.7784 986.128 14.3572L984.798 10.9414L979.469 10.9371L978.134 14.3605C977.956 14.7749 977.676 14.9819 977.295 14.9816ZM980.142 9.27969L984.129 9.28293L982.119 4.36659L980.142 9.27969Z" fill="#4A4A4A"/>
<path d="M990.526 14.8147C989.973 14.8143 989.697 14.5114 989.698 13.9061L989.707 2.774C989.707 2.11608 989.971 1.78733 990.497 1.78776L994.267 1.79082C995.965 1.7922 997.188 2.03992 997.938 2.53397C998.687 3.02803 999.062 3.83429 999.061 4.95276C999.06 6.03834 998.73 6.87364 998.072 7.45865C997.42 8.0371 996.466 8.32581 995.209 8.32479L991.36 8.32166L991.356 13.9074C991.355 14.5127 991.079 14.8152 990.526 14.8147ZM991.362 6.66369L994.263 6.66605C994.987 6.66663 995.579 6.63751 996.04 6.57867C996.507 6.51984 996.849 6.37537 997.066 6.14527C997.29 5.9086 997.402 5.53039 997.403 5.01063C997.403 4.58955 997.314 4.2671 997.137 4.04326C996.966 3.81943 996.654 3.66456 996.2 3.57866C995.746 3.49276 995.101 3.44947 994.266 3.44879L991.364 3.44643L991.362 6.66369Z" fill="#4A4A4A"/>
<path d="M1004.72 14.8262C1004.44 14.826 1004.21 14.7436 1004.05 14.579C1003.89 14.4209 1003.81 14.2005 1003.81 13.9176L1003.82 3.55525L1000.98 3.55294C1000.68 3.5527 1000.45 3.48013 1000.27 3.33525C1000.1 3.18378 1000.01 2.97976 1000.01 2.72317C1000.01 2.46658 1000.1 2.26598 1000.27 2.12138C1000.45 1.9702 1000.68 1.89473 1000.98 1.89497L1008.5 1.90108C1009.14 1.90161 1009.47 2.1782 1009.47 2.73085C1009.47 3.28351 1009.14 3.55958 1008.5 3.55905L1005.7 3.55677L1005.69 13.9191C1005.69 14.1888 1005.6 14.4059 1005.42 14.5702C1005.24 14.7411 1005.01 14.8265 1004.72 14.8262Z" fill="#4A4A4A"/>
<path d="M1012.19 14.6942C1011.66 14.6937 1011.4 14.3645 1011.4 13.7066L1011.41 2.89034C1011.41 2.23241 1011.67 1.90366 1012.2 1.90409L1020.61 1.91093C1021.27 1.91146 1021.6 2.20122 1021.6 2.78019C1021.59 3.30653 1021.27 3.56943 1020.61 3.5689L1013.07 3.56277L1013.07 6.68133L1018.18 6.68549C1018.91 6.68609 1019.28 6.97588 1019.28 7.55485C1019.28 8.08119 1018.91 8.34406 1018.18 8.34346L1013.06 8.3393L1013.06 13.0369L1020.6 13.043C1021.26 13.0436 1021.59 13.3333 1021.59 13.9123C1021.59 14.4386 1021.26 14.7015 1020.6 14.701L1012.19 14.6942Z" fill="#4A4A4A"/>
<path d="M1030.98 14.8476C1030.43 14.8471 1030.16 14.5311 1030.16 13.8995L1030.17 2.74768C1030.17 2.10292 1030.43 1.78075 1030.96 1.78118C1031.28 1.78144 1031.56 1.94944 1031.8 2.28518L1035.45 7.40023L1039.13 2.29113C1039.36 1.95578 1039.64 1.78824 1039.96 1.78849C1040.5 1.78893 1040.77 2.11154 1040.76 2.7563L1040.76 13.9081C1040.75 14.5397 1040.48 14.8553 1039.93 14.8549C1039.37 14.8544 1039.1 14.5187 1039.1 13.8476L1039.1 4.64978L1036.17 8.81206C1036.06 8.97645 1035.95 9.08492 1035.84 9.13747C1035.74 9.18344 1035.61 9.20636 1035.47 9.20625C1035.32 9.20612 1035.19 9.18299 1035.07 9.13684C1034.97 9.08412 1034.86 8.97548 1034.75 8.8109L1031.82 4.64386L1031.81 13.8416C1031.81 14.5127 1031.54 14.848 1030.98 14.8476Z" fill="#4A4A4A"/>
<path d="M1044.65 14.8587C1044.11 14.8583 1043.84 14.5422 1043.84 13.9106L1043.85 2.75881C1043.85 2.11404 1044.13 1.79189 1044.68 1.79234C1045.23 1.79278 1045.51 2.13513 1045.51 2.81937L1045.5 11.9086L1052.4 2.30192C1052.65 1.96658 1052.93 1.79904 1053.25 1.7993C1053.77 1.79973 1054.04 2.12233 1054.04 2.76709L1054.03 13.9189C1054.03 14.5505 1053.75 14.8661 1053.2 14.8657C1052.64 14.8652 1052.37 14.5689 1052.37 13.9768L1052.38 4.76913L1045.56 14.3167C1045.4 14.5402 1045.26 14.6849 1045.14 14.7506C1045.03 14.8228 1044.87 14.8589 1044.65 14.8587Z" fill="#4A4A4A"/>
<path d="M1057.93 14.8695C1057.38 14.8691 1057.1 14.5662 1057.1 13.9609L1057.11 2.82881C1057.11 2.17088 1057.38 1.84213 1057.9 1.84256L1061.67 1.84563C1063.37 1.84701 1064.59 2.09472 1065.34 2.58878C1066.09 3.08283 1066.47 3.88909 1066.47 5.00757C1066.46 6.09314 1066.14 6.92844 1065.48 7.51346C1064.83 8.0919 1063.87 8.38061 1062.61 8.37959L1058.77 8.37646L1058.76 13.9622C1058.76 14.5675 1058.48 14.87 1057.93 14.8695ZM1058.77 6.71849L1061.67 6.72085C1062.39 6.72144 1062.98 6.69231 1063.44 6.63348C1063.91 6.57464 1064.25 6.43018 1064.47 6.20008C1064.7 5.96341 1064.81 5.58519 1064.81 5.06543C1064.81 4.64436 1064.72 4.3219 1064.54 4.09806C1064.37 3.87423 1064.06 3.71936 1063.6 3.63347C1063.15 3.54757 1062.51 3.50428 1061.67 3.5036L1058.77 3.50124L1058.77 6.71849Z" fill="#4A4A4A"/>
<path d="M1068.2 15.0555C1067.97 15.0553 1067.78 14.9828 1067.61 14.8379C1067.45 14.6996 1067.37 14.5351 1067.37 14.3443C1067.37 14.1469 1067.39 13.9824 1067.44 13.8509L1072.15 1.95284L1073.93 1.95428L1078.63 13.86C1078.67 13.9916 1078.7 14.1561 1078.7 14.3535C1078.7 14.5443 1078.61 14.7087 1078.45 14.8467C1078.29 14.9913 1078.09 15.0635 1077.87 15.0634C1077.46 15.063 1077.18 14.8523 1077.03 14.4311L1075.7 11.0154L1070.37 11.011L1069.04 14.4344C1068.86 14.8488 1068.58 15.0558 1068.2 15.0555ZM1071.04 9.3536L1075.03 9.35684L1073.02 4.4405L1071.04 9.3536Z" fill="#4A4A4A"/>
<path d="M1093.49 5.06902C1093.82 4.7469 1094.15 4.74717 1094.47 5.06981C1094.8 5.39904 1094.8 5.72471 1094.47 6.04683L1089.3 11.2238C1088.97 11.5459 1088.64 11.5456 1088.32 11.223C1087.99 10.8938 1087.99 10.5681 1088.32 10.246L1093.49 5.06902ZM1088.12 5.98245C1087.79 5.65322 1087.79 5.32755 1088.12 5.00543C1088.45 4.67674 1088.77 4.677 1089.09 5.00623L1094.27 10.1817C1094.59 10.511 1094.59 10.8366 1094.27 11.1587C1093.94 11.4874 1093.61 11.4872 1093.29 11.158L1088.12 5.98245Z" fill="#4A4A4A"/>
<path d="M1211.13 14.9941C1210.58 14.9936 1210.3 14.6776 1210.3 14.046L1210.31 2.89415C1210.31 2.24939 1210.57 1.92722 1211.1 1.92764C1211.68 1.92812 1211.97 2.25073 1211.97 2.8955L1211.97 7.13912L1218.83 7.1447L1218.84 2.90109C1218.84 2.25632 1219.11 1.93416 1219.67 1.93461C1220.22 1.93506 1220.5 2.25767 1220.5 2.90243L1220.49 14.0543C1220.49 14.6859 1220.21 15.0014 1219.66 15.001C1219.1 15.0006 1218.83 14.6845 1218.83 14.0529L1218.83 8.80267L1211.96 8.79709L1211.96 14.0473C1211.96 14.6789 1211.68 14.9945 1211.13 14.9941Z" fill="#4A4A4A"/>
<path d="M1223.21 15.1815C1222.98 15.1813 1222.79 15.1088 1222.62 14.9639C1222.46 14.8256 1222.38 14.6611 1222.38 14.4703C1222.38 14.2729 1222.4 14.1085 1222.45 13.9769L1227.16 2.07887L1228.94 2.08031L1233.64 13.986C1233.68 14.1176 1233.71 14.2821 1233.71 14.4795C1233.71 14.6703 1233.63 14.8347 1233.46 14.9727C1233.3 15.1174 1233.1 15.1896 1232.88 15.1894C1232.47 15.1891 1232.19 14.9783 1232.04 14.5571L1230.71 11.1414L1225.38 11.1371L1224.05 14.5605C1223.87 14.9748 1223.59 15.1818 1223.21 15.1815ZM1226.05 9.47963L1230.04 9.48287L1228.03 4.56653L1226.05 9.47963Z" fill="#4A4A4A"/>
<path d="M1242.62 15.0197C1242.38 15.0195 1242.18 14.9371 1242.03 14.7725C1241.89 14.6079 1241.82 14.3874 1241.82 14.1111L1241.82 3.51191C1241.83 3.24216 1241.9 3.01524 1242.05 2.83114C1242.2 2.64047 1242.42 2.54524 1242.69 2.54547C1243.22 2.54589 1243.48 2.86849 1243.48 3.51326L1243.48 8.09241L1245.06 8.0937C1245.24 8.09384 1245.44 8.00519 1245.66 7.82773C1245.88 7.64369 1246.15 7.34784 1246.45 6.94017C1246.75 6.52592 1247.11 5.97027 1247.53 5.27321C1247.67 5.04304 1247.83 4.77343 1248.03 4.46437C1248.23 4.14872 1248.46 3.84626 1248.71 3.55699C1248.98 3.26113 1249.27 3.01794 1249.6 2.82741C1249.94 2.63031 1250.31 2.53192 1250.71 2.53224C1251.39 2.5328 1251.73 2.82914 1251.73 3.42128C1251.73 3.73708 1251.63 3.93438 1251.44 4.01317C1251.25 4.09196 1251 4.15098 1250.71 4.19021C1250.42 4.22946 1250.17 4.39044 1249.94 4.67316C1249.71 4.94931 1249.42 5.37344 1249.07 5.94554C1248.76 6.43874 1248.52 6.8333 1248.34 7.12921C1248.16 7.42513 1248 7.67173 1247.86 7.86899C1247.72 8.06626 1247.56 8.26021 1247.37 8.45086C1247.18 8.63492 1246.93 8.86499 1246.6 9.14105L1246.56 8.62784C1246.97 8.95713 1247.32 9.30283 1247.63 9.66494C1247.95 10.0205 1248.23 10.376 1248.47 10.7315C1248.71 11.0869 1248.94 11.426 1249.14 11.7485C1249.49 12.2817 1249.77 12.6734 1249.99 12.9236C1250.21 13.1672 1250.46 13.3154 1250.72 13.3683C1250.82 13.3881 1250.95 13.4145 1251.1 13.4475C1251.27 13.474 1251.41 13.5432 1251.54 13.6551C1251.66 13.7671 1251.72 13.9547 1251.72 14.2178C1251.72 14.7573 1251.4 15.0268 1250.76 15.0263C1250.28 15.0259 1249.78 14.8676 1249.27 14.5514C1248.76 14.2286 1248.27 13.7479 1247.8 13.1093C1247.69 12.9579 1247.53 12.7275 1247.31 12.4181C1247.1 12.1021 1246.91 11.8125 1246.73 11.5492C1246.33 10.9436 1245.99 10.4926 1245.7 10.1963C1245.42 9.89999 1245.14 9.75173 1244.86 9.75151L1243.48 9.75039L1243.47 14.1124C1243.47 14.3756 1243.39 14.5926 1243.24 14.7636C1243.09 14.9345 1242.88 15.0199 1242.62 15.0197Z" fill="#4A4A4A"/>
<path d="M1253.62 15.2063C1253.4 15.2061 1253.21 15.1335 1253.04 14.9887C1252.88 14.8504 1252.79 14.6858 1252.79 14.495C1252.79 14.2976 1252.82 14.1332 1252.86 14.0016L1257.58 2.1036L1259.36 2.10504L1264.06 14.0107C1264.1 14.1424 1264.12 14.3069 1264.12 14.5042C1264.12 14.695 1264.04 14.8594 1263.88 14.9975C1263.71 15.1421 1263.52 15.2143 1263.29 15.2141C1262.89 15.2138 1262.61 15.003 1262.46 14.5818L1261.13 11.1661L1255.8 11.1618L1254.46 14.5852C1254.28 14.9995 1254 15.2066 1253.62 15.2063ZM1256.47 9.50436L1260.46 9.5076L1258.45 4.59126L1256.47 9.50436Z" fill="#4A4A4A"/>
<path d="M1266.85 15.0394C1266.3 15.0389 1266.03 14.7361 1266.03 14.1308L1266.03 2.99867C1266.04 2.34075 1266.3 2.012 1266.83 2.01243L1270.6 2.01549C1272.29 2.01687 1273.52 2.26459 1274.27 2.75864C1275.02 3.2527 1275.39 4.05896 1275.39 5.17743C1275.39 6.26301 1275.06 7.09831 1274.4 7.68332C1273.75 8.26177 1272.79 8.55048 1271.54 8.54946L1267.69 8.54633L1267.68 14.1321C1267.68 14.7374 1267.41 15.0398 1266.85 15.0394ZM1267.69 6.88836L1270.59 6.89072C1271.31 6.89131 1271.91 6.86218 1272.37 6.80334C1272.83 6.74451 1273.18 6.60004 1273.39 6.36995C1273.62 6.13327 1273.73 5.75506 1273.73 5.2353C1273.73 4.81423 1273.64 4.49177 1273.47 4.26793C1273.29 4.0441 1272.98 3.88923 1272.53 3.80333C1272.07 3.71743 1271.43 3.67414 1270.59 3.67346L1267.69 3.6711L1267.69 6.88836Z" fill="#4A4A4A"/>
<path d="M1281.05 15.0509C1280.76 15.0507 1280.54 14.9683 1280.38 14.8036C1280.22 14.6456 1280.14 14.4251 1280.14 14.1422L1280.15 3.77992L1277.31 3.77761C1277.01 3.77737 1276.77 3.70481 1276.6 3.55992C1276.42 3.40846 1276.34 3.20443 1276.34 2.94784C1276.34 2.69125 1276.43 2.49065 1276.6 2.34605C1276.77 2.19487 1277.01 2.1194 1277.31 2.11964L1284.83 2.12575C1285.47 2.12628 1285.79 2.40287 1285.79 2.95553C1285.79 3.50818 1285.47 3.78425 1284.83 3.78372L1282.02 3.78145L1282.01 14.1438C1282.01 14.4135 1281.93 14.6306 1281.75 14.7949C1281.57 14.9658 1281.34 15.0511 1281.05 15.0509Z" fill="#4A4A4A"/>
<path d="M1288.52 14.9188C1287.99 14.9184 1287.73 14.5892 1287.73 13.9313L1287.74 3.11501C1287.74 2.45708 1288 2.12834 1288.53 2.12876L1296.94 2.1356C1297.6 2.13613 1297.92 2.42589 1297.92 3.00486C1297.92 3.5312 1297.59 3.79411 1296.94 3.79357L1289.4 3.78744L1289.39 6.906L1294.51 6.91016C1295.24 6.91076 1295.61 7.20055 1295.61 7.77952C1295.61 8.30586 1295.24 8.56873 1294.5 8.56813L1289.39 8.56398L1289.39 13.2616L1296.93 13.2677C1297.59 13.2682 1297.91 13.558 1297.91 14.137C1297.91 14.6633 1297.58 14.9262 1296.93 14.9257L1288.52 14.9188Z" fill="#4A4A4A"/>
<path d="M1307.31 15.0723C1306.76 15.0718 1306.48 14.7558 1306.48 14.1242L1306.49 2.97236C1306.49 2.32759 1306.76 2.00542 1307.28 2.00585C1307.61 2.00611 1307.89 2.17411 1308.13 2.50985L1311.78 7.6249L1315.45 2.5158C1315.69 2.18045 1315.97 2.01291 1316.28 2.01316C1316.82 2.0136 1317.09 2.33621 1317.09 2.98097L1317.08 14.1328C1317.08 14.7644 1316.81 15.08 1316.25 15.0795C1315.7 15.0791 1315.43 14.7433 1315.43 14.0722L1315.43 4.87445L1312.5 9.03673C1312.39 9.20112 1312.28 9.30959 1312.17 9.36214C1312.07 9.40811 1311.94 9.43103 1311.8 9.43092C1311.65 9.43079 1311.51 9.40766 1311.4 9.36151C1311.3 9.30879 1311.19 9.20015 1311.08 9.03558L1308.15 4.86853L1308.14 14.0663C1308.14 14.7374 1307.87 15.0727 1307.31 15.0723Z" fill="#4A4A4A"/>
<path d="M1320.98 15.0834C1320.44 15.0829 1320.17 14.7669 1320.17 14.1353L1320.18 2.98348C1320.18 2.33872 1320.46 2.01656 1321.01 2.01701C1321.56 2.01746 1321.84 2.3598 1321.84 3.04404L1321.83 12.1333L1328.73 2.52659C1328.98 2.19125 1329.26 2.02371 1329.57 2.02397C1330.1 2.0244 1330.36 2.347 1330.36 2.99176L1330.35 14.1436C1330.35 14.7752 1330.08 15.0908 1329.52 15.0903C1328.97 15.0899 1328.7 14.7936 1328.7 14.2015L1328.7 4.9938L1321.89 14.5413C1321.73 14.7649 1321.59 14.9095 1321.47 14.9752C1321.36 15.0475 1321.2 15.0836 1320.98 15.0834Z" fill="#4A4A4A"/>
<path d="M1334.26 15.0942C1333.71 15.0937 1333.43 14.7909 1333.43 14.1856L1333.44 3.05348C1333.44 2.39555 1333.7 2.0668 1334.23 2.06723L1338 2.0703C1339.7 2.07168 1340.92 2.31939 1341.67 2.81345C1342.42 3.3075 1342.79 4.11376 1342.79 5.23224C1342.79 6.31781 1342.46 7.15311 1341.8 7.73813C1341.15 8.31657 1340.2 8.60528 1338.94 8.60426L1335.09 8.60113L1335.09 14.1869C1335.09 14.7922 1334.81 15.0946 1334.26 15.0942ZM1335.09 6.94316L1338 6.94552C1338.72 6.94611 1339.31 6.91698 1339.77 6.85815C1340.24 6.79931 1340.58 6.65485 1340.8 6.42475C1341.02 6.18808 1341.14 5.80986 1341.14 5.2901C1341.14 4.86903 1341.05 4.54657 1340.87 4.32273C1340.7 4.0989 1340.39 3.94404 1339.93 3.85814C1339.48 3.77224 1338.83 3.72895 1338 3.72827L1335.1 3.72591L1335.09 6.94316Z" fill="#4A4A4A"/>
<path d="M1344.52 15.2802C1344.3 15.28 1344.11 15.2075 1343.94 15.0626C1343.78 14.9243 1343.7 14.7597 1343.7 14.5689C1343.7 14.3716 1343.72 14.2071 1343.77 14.0755L1348.48 2.17751L1350.26 2.17895L1354.96 14.0846C1355 14.2163 1355.03 14.3808 1355.03 14.5781C1355.03 14.7689 1354.94 14.9334 1354.78 15.0714C1354.61 15.216 1354.42 15.2882 1354.2 15.288C1353.79 15.2877 1353.51 15.0769 1353.36 14.6557L1352.03 11.24L1346.7 11.2357L1345.36 14.6591C1345.19 15.0735 1344.91 15.2805 1344.52 15.2802ZM1347.37 9.57827L1351.36 9.58151L1349.35 4.66517L1347.37 9.57827Z" fill="#4A4A4A"/>
<path d="M1369.82 5.29369C1370.15 4.97157 1370.48 4.97184 1370.8 5.29448C1371.13 5.62371 1371.13 5.94939 1370.8 6.2715L1365.62 11.4485C1365.29 11.7706 1364.97 11.7703 1364.65 11.4477C1364.32 11.1184 1364.32 10.7928 1364.65 10.4706L1369.82 5.29369ZM1364.44 6.20712C1364.12 5.8779 1364.12 5.55222 1364.44 5.2301C1364.77 4.90141 1365.1 4.90167 1365.42 5.2309L1370.6 10.4064C1370.92 10.7356 1370.92 11.0613 1370.6 11.3834C1370.27 11.7121 1369.94 11.7118 1369.62 11.3826L1364.44 6.20712Z" fill="#4A4A4A"/>
<path d="M1487.46 15.2187C1486.91 15.2183 1486.63 14.9023 1486.63 14.2707L1486.64 3.11882C1486.64 2.47406 1486.9 2.15189 1487.43 2.15232C1488.01 2.15279 1488.3 2.4754 1488.3 3.12017L1488.29 7.36379L1495.16 7.36937L1495.17 3.12576C1495.17 2.48099 1495.44 2.15883 1496 2.15928C1496.55 2.15973 1496.82 2.48234 1496.82 3.1271L1496.81 14.2789C1496.81 14.9105 1496.54 15.2261 1495.98 15.2257C1495.43 15.2252 1495.16 14.9092 1495.16 14.2776L1495.16 9.02734L1488.29 9.02176L1488.29 14.272C1488.29 14.9036 1488.01 15.2192 1487.46 15.2187Z" fill="#4A4A4A"/>
<path d="M1499.53 15.4062C1499.31 15.406 1499.12 15.3335 1498.95 15.1886C1498.79 15.0503 1498.71 14.8858 1498.71 14.695C1498.71 14.4976 1498.73 14.3331 1498.78 14.2016L1503.49 2.30354L1505.27 2.30499L1509.97 14.2107C1510.01 14.3423 1510.04 14.5068 1510.04 14.7042C1510.04 14.895 1509.95 15.0594 1509.79 15.1974C1509.62 15.342 1509.43 15.4142 1509.21 15.4141C1508.8 15.4137 1508.52 15.203 1508.37 14.7818L1507.04 11.3661L1501.71 11.3617L1500.37 14.7851C1500.2 15.1995 1499.92 15.4065 1499.53 15.4062ZM1502.38 9.7043L1506.37 9.70754L1504.36 4.7912L1502.38 9.7043Z" fill="#4A4A4A"/>
<path d="M1518.95 15.2443C1518.71 15.2441 1518.51 15.1617 1518.36 14.9971C1518.22 14.8325 1518.14 14.6121 1518.14 14.3358L1518.15 3.73658C1518.15 3.46683 1518.23 3.23991 1518.38 3.05581C1518.53 2.86514 1518.75 2.76991 1519.02 2.77014C1519.55 2.77056 1519.81 3.09316 1519.81 3.73793L1519.81 8.31709L1521.39 8.31837C1521.56 8.31851 1521.76 8.22986 1521.99 8.0524C1522.21 7.86836 1522.48 7.57251 1522.78 7.16484C1523.08 6.7506 1523.44 6.19494 1523.86 5.49788C1523.99 5.26772 1524.16 4.9981 1524.36 4.68904C1524.56 4.3734 1524.78 4.07093 1525.04 3.78166C1525.3 3.4858 1525.6 3.24261 1525.93 3.05208C1526.27 2.85498 1526.63 2.75659 1527.04 2.75691C1527.72 2.75747 1528.06 3.05381 1528.06 3.64595C1528.06 3.96175 1527.96 4.15905 1527.76 4.23784C1527.57 4.31663 1527.33 4.37565 1527.03 4.41488C1526.75 4.45413 1526.49 4.61511 1526.26 4.89783C1526.04 5.17398 1525.75 5.59811 1525.39 6.17021C1525.09 6.66341 1524.85 7.05797 1524.66 7.35388C1524.49 7.64981 1524.33 7.8964 1524.19 8.09366C1524.05 8.29093 1523.89 8.48488 1523.7 8.67553C1523.51 8.8596 1523.25 9.08966 1522.93 9.36572L1522.89 8.85251C1523.29 9.1818 1523.65 9.5275 1523.96 9.88961C1524.28 10.2452 1524.56 10.6007 1524.8 10.9561C1525.04 11.3116 1525.27 11.6506 1525.47 11.9732C1525.82 12.5064 1526.1 12.8981 1526.32 13.1483C1526.54 13.3919 1526.78 13.5401 1527.05 13.593C1527.15 13.6128 1527.27 13.6392 1527.43 13.6722C1527.6 13.6987 1527.74 13.7679 1527.87 13.8798C1527.99 13.9918 1528.05 14.1793 1528.05 14.4425C1528.05 14.982 1527.73 15.2515 1527.08 15.251C1526.6 15.2506 1526.11 15.0923 1525.6 14.776C1525.09 14.4532 1524.6 13.9726 1524.13 13.334C1524.02 13.1826 1523.86 12.9522 1523.64 12.6428C1523.43 12.3268 1523.24 12.0372 1523.06 11.7738C1522.66 11.1682 1522.32 10.7173 1522.03 10.421C1521.74 10.1247 1521.46 9.9764 1521.19 9.97618L1519.81 9.97506L1519.8 14.3371C1519.8 14.6003 1519.72 14.8173 1519.57 14.9883C1519.41 15.1592 1519.21 15.2446 1518.95 15.2443Z" fill="#4A4A4A"/>
<path d="M1529.95 15.4309C1529.73 15.4307 1529.53 15.3582 1529.37 15.2133C1529.2 15.075 1529.12 14.9105 1529.12 14.7197C1529.12 14.5223 1529.15 14.3579 1529.19 14.2263L1533.91 2.32827L1535.69 2.32972L1540.38 14.2354C1540.43 14.367 1540.45 14.5315 1540.45 14.7289C1540.45 14.9197 1540.37 15.0841 1540.2 15.2221C1540.04 15.3668 1539.85 15.439 1539.62 15.4388C1539.21 15.4385 1538.94 15.2277 1538.78 14.8065L1537.45 11.3908L1532.13 11.3865L1530.79 14.8099C1530.61 15.2242 1530.33 15.4312 1529.95 15.4309ZM1532.8 9.72903L1536.78 9.73227L1534.78 4.81593L1532.8 9.72903Z" fill="#4A4A4A"/>
<path d="M1543.18 15.264C1542.63 15.2636 1542.35 14.9607 1542.35 14.3554L1542.36 3.22334C1542.36 2.56542 1542.63 2.23667 1543.15 2.2371L1546.92 2.24016C1548.62 2.24154 1549.84 2.48926 1550.59 2.98331C1551.34 3.47737 1551.72 4.28363 1551.72 5.4021C1551.72 6.48768 1551.39 7.32298 1550.73 7.90799C1550.08 8.48644 1549.12 8.77515 1547.87 8.77413L1544.02 8.771L1544.01 14.3568C1544.01 14.9621 1543.73 15.2645 1543.18 15.264ZM1544.02 7.11303L1546.92 7.11539C1547.64 7.11598 1548.24 7.08685 1548.7 7.02801C1549.16 6.96918 1549.51 6.82471 1549.72 6.59462C1549.95 6.35794 1550.06 5.97973 1550.06 5.45997C1550.06 5.0389 1549.97 4.71644 1549.79 4.4926C1549.62 4.26877 1549.31 4.1139 1548.86 4.028C1548.4 3.9421 1547.76 3.89881 1546.92 3.89813L1544.02 3.89578L1544.02 7.11303Z" fill="#4A4A4A"/>
<path d="M1557.38 15.2756C1557.09 15.2754 1556.87 15.1929 1556.7 15.0283C1556.55 14.8703 1556.47 14.6498 1556.47 14.3669L1556.48 4.00459L1553.63 4.00228C1553.34 4.00204 1553.1 3.92948 1552.92 3.78459C1552.75 3.63313 1552.67 3.4291 1552.67 3.17251C1552.67 2.91592 1552.75 2.71532 1552.92 2.57072C1553.1 2.41954 1553.34 2.34407 1553.64 2.34431L1561.16 2.35042C1561.8 2.35095 1562.12 2.62754 1562.12 3.1802C1562.12 3.73285 1561.8 4.00892 1561.15 4.00839L1558.35 4.00612L1558.34 14.3684C1558.34 14.6382 1558.25 14.8552 1558.08 15.0196C1557.9 15.1905 1557.66 15.2758 1557.38 15.2756Z" fill="#4A4A4A"/>
<path d="M1564.85 15.1435C1564.32 15.1431 1564.06 14.8139 1564.06 14.156L1564.07 3.33968C1564.07 2.68175 1564.33 2.35301 1564.86 2.35343L1573.27 2.36027C1573.92 2.3608 1574.25 2.65056 1574.25 3.22953C1574.25 3.75587 1573.92 4.01878 1573.26 4.01824L1565.72 4.01211L1565.72 7.13068L1570.83 7.13483C1571.57 7.13543 1571.94 7.42522 1571.94 8.00419C1571.94 8.53053 1571.57 8.7934 1570.83 8.7928L1565.72 8.78865L1565.72 13.4862L1573.26 13.4924C1573.91 13.4929 1574.24 13.7827 1574.24 14.3616C1574.24 14.888 1573.91 15.1509 1573.25 15.1503L1564.85 15.1435Z" fill="#4A4A4A"/>
<path d="M1583.64 15.2969C1583.09 15.2965 1582.81 14.9805 1582.81 14.3489L1582.82 3.19703C1582.82 2.55226 1583.09 2.23009 1583.61 2.23052C1583.93 2.23078 1584.22 2.39878 1584.46 2.73452L1588.11 7.84957L1591.78 2.74047C1592.02 2.40512 1592.3 2.23758 1592.61 2.23784C1593.15 2.23827 1593.42 2.56088 1593.42 3.20564L1593.41 14.3575C1593.41 14.9891 1593.13 15.3047 1592.58 15.3042C1592.03 15.3038 1591.75 14.968 1591.75 14.2969L1591.76 5.09912L1588.83 9.2614C1588.71 9.42579 1588.61 9.53426 1588.5 9.58681C1588.4 9.63278 1588.27 9.6557 1588.13 9.65559C1587.97 9.65546 1587.84 9.63233 1587.73 9.58618C1587.63 9.53346 1587.52 9.42482 1587.41 9.26025L1584.48 5.0932L1584.47 14.291C1584.47 14.9621 1584.19 15.2974 1583.64 15.2969Z" fill="#4A4A4A"/>
<path d="M1597.31 15.3081C1596.77 15.3076 1596.5 14.9916 1596.5 14.36L1596.51 3.20815C1596.51 2.56339 1596.78 2.24123 1597.34 2.24168C1597.89 2.24213 1598.17 2.58447 1598.16 3.26871L1598.16 12.3579L1605.05 2.75126C1605.3 2.41593 1605.59 2.24838 1605.9 2.24864C1606.43 2.24907 1606.69 2.57167 1606.69 3.21643L1606.68 14.3683C1606.68 14.9999 1606.41 15.3154 1605.85 15.315C1605.3 15.3146 1605.02 15.0183 1605.02 14.4261L1605.03 5.21847L1598.21 14.766C1598.06 14.9896 1597.92 15.1342 1597.8 15.1999C1597.69 15.2722 1597.52 15.3082 1597.31 15.3081Z" fill="#4A4A4A"/>
<path d="M1610.59 15.3188C1610.03 15.3184 1609.76 15.0155 1609.76 14.4102L1609.77 3.27815C1609.77 2.62022 1610.03 2.29147 1610.56 2.2919L1614.33 2.29497C1616.03 2.29635 1617.25 2.54406 1618 3.03812C1618.75 3.53217 1619.12 4.33843 1619.12 5.45691C1619.12 6.54248 1618.79 7.37778 1618.13 7.9628C1617.48 8.54124 1616.53 8.82995 1615.27 8.82893L1611.42 8.8258L1611.42 14.4116C1611.42 15.0169 1611.14 15.3193 1610.59 15.3188ZM1611.42 7.16783L1614.32 7.17019C1615.05 7.17078 1615.64 7.14166 1616.1 7.08282C1616.57 7.02398 1616.91 6.87952 1617.13 6.64942C1617.35 6.41275 1617.46 6.03453 1617.46 5.51477C1617.46 5.0937 1617.38 4.77124 1617.2 4.54741C1617.03 4.32357 1616.72 4.16871 1616.26 4.08281C1615.81 3.99691 1615.16 3.95362 1614.33 3.95294L1611.43 3.95058L1611.42 7.16783Z" fill="#4A4A4A"/>
<path d="M1620.85 15.5048C1620.63 15.5047 1620.43 15.4321 1620.27 15.2872C1620.11 15.1489 1620.02 14.9844 1620.02 14.7936C1620.02 14.5962 1620.05 14.4318 1620.09 14.3002L1624.81 2.40218L1626.59 2.40362L1631.28 14.3093C1631.33 14.4409 1631.35 14.6054 1631.35 14.8028C1631.35 14.9936 1631.27 15.158 1631.11 15.2961C1630.94 15.4407 1630.75 15.5129 1630.52 15.5127C1630.12 15.5124 1629.84 15.3016 1629.69 14.8804L1628.36 11.4647L1623.03 11.4604L1621.69 14.8838C1621.51 15.2981 1621.23 15.5051 1620.85 15.5048ZM1623.7 9.80294L1627.69 9.80618L1625.68 4.88984L1623.7 9.80294Z" fill="#4A4A4A"/>
<path d="M1646.15 5.51836C1646.48 5.19624 1646.81 5.19651 1647.13 5.51915C1647.46 5.84838 1647.46 6.17406 1647.13 6.49617L1641.95 11.6731C1641.62 11.9952 1641.3 11.995 1640.97 11.6723C1640.65 11.3431 1640.65 11.0174 1640.97 10.6953L1646.15 5.51836ZM1640.77 6.43179C1640.45 6.10257 1640.45 5.77689 1640.77 5.45477C1641.1 5.12608 1641.43 5.12634 1641.75 5.45557L1646.93 10.6311C1647.25 10.9603 1647.25 11.286 1646.93 11.6081C1646.6 11.9368 1646.27 11.9365 1645.95 11.6073L1640.77 6.43179Z" fill="#4A4A4A"/>
<path d="M1763.79 15.4434C1763.23 15.443 1762.96 15.1269 1762.96 14.4953L1762.97 3.34349C1762.97 2.69873 1763.23 2.37656 1763.76 2.37699C1764.34 2.37746 1764.63 2.70008 1764.62 3.34484L1764.62 7.58846L1771.49 7.59404L1771.49 3.35043C1771.49 2.70566 1771.77 2.3835 1772.32 2.38395C1772.88 2.3844 1773.15 2.70701 1773.15 3.35177L1773.14 14.5036C1773.14 15.1352 1772.87 15.4508 1772.31 15.4503C1771.76 15.4499 1771.48 15.1339 1771.48 14.5023L1771.49 9.25201L1764.62 9.24643L1764.62 14.4967C1764.62 15.1283 1764.34 15.4439 1763.79 15.4434Z" fill="#4A4A4A"/>
<path d="M1775.86 15.6309C1775.64 15.6307 1775.45 15.5582 1775.28 15.4133C1775.12 15.275 1775.03 15.1104 1775.03 14.9196C1775.03 14.7223 1775.06 14.5578 1775.1 14.4262L1779.82 2.52821L1781.6 2.52966L1786.3 14.4353C1786.34 14.567 1786.36 14.7315 1786.36 14.9288C1786.36 15.1196 1786.28 15.2841 1786.12 15.4221C1785.95 15.5667 1785.76 15.6389 1785.53 15.6387C1785.13 15.6384 1784.85 15.4276 1784.7 15.0064L1783.37 11.5907L1778.04 11.5864L1776.7 15.0098C1776.52 15.4242 1776.24 15.6312 1775.86 15.6309ZM1778.71 9.92897L1782.7 9.93221L1780.69 5.01587L1778.71 9.92897Z" fill="#4A4A4A"/>
<path d="M1795.28 15.469C1795.04 15.4688 1794.84 15.3864 1794.69 15.2218C1794.54 15.0572 1794.47 14.8368 1794.47 14.5604L1794.48 3.96125C1794.48 3.6915 1794.56 3.46458 1794.71 3.28048C1794.86 3.08981 1795.07 2.99458 1795.35 2.99481C1795.88 2.99523 1796.14 3.31783 1796.14 3.9626L1796.14 8.54176L1797.71 8.54304C1797.89 8.54318 1798.09 8.45453 1798.32 8.27707C1798.54 8.09303 1798.8 7.79718 1799.11 7.38951C1799.41 6.97527 1799.77 6.41961 1800.18 5.72255C1800.32 5.49239 1800.49 5.22277 1800.69 4.91371C1800.89 4.59807 1801.11 4.2956 1801.37 4.00633C1801.63 3.71047 1801.93 3.46728 1802.26 3.27675C1802.59 3.07965 1802.96 2.98126 1803.36 2.98158C1804.05 2.98214 1804.39 3.27848 1804.39 3.87062C1804.39 4.18642 1804.29 4.38372 1804.09 4.46251C1803.9 4.5413 1803.66 4.60032 1803.36 4.63956C1803.08 4.6788 1802.82 4.83978 1802.59 5.1225C1802.37 5.39865 1802.08 5.82278 1801.72 6.39488C1801.42 6.88808 1801.18 7.28264 1800.99 7.57855C1800.81 7.87448 1800.66 8.12107 1800.52 8.31833C1800.38 8.5156 1800.21 8.70955 1800.02 8.9002C1799.84 9.08427 1799.58 9.31433 1799.25 9.59039L1799.21 9.07718C1799.62 9.40647 1799.98 9.75217 1800.29 10.1143C1800.6 10.4698 1800.88 10.8253 1801.13 11.1808C1801.37 11.5363 1801.59 11.8753 1801.8 12.1978C1802.15 12.731 1802.43 13.1227 1802.64 13.3729C1802.87 13.6165 1803.11 13.7648 1803.37 13.8176C1803.47 13.8374 1803.6 13.8639 1803.76 13.8969C1803.92 13.9233 1804.07 13.9925 1804.19 14.1045C1804.32 14.2164 1804.38 14.404 1804.38 14.6672C1804.38 15.2067 1804.06 15.4762 1803.41 15.4756C1802.93 15.4752 1802.44 15.3169 1801.92 15.0007C1801.42 14.6779 1800.93 14.1972 1800.45 13.5587C1800.35 13.4073 1800.19 13.1768 1799.97 12.8674C1799.76 12.5515 1799.57 12.2618 1799.39 11.9985C1798.99 11.3929 1798.64 10.9419 1798.35 10.6456C1798.07 10.3493 1797.79 10.2011 1797.52 10.2009L1796.13 10.1997L1796.13 14.5618C1796.13 14.8249 1796.05 15.042 1795.89 15.2129C1795.74 15.3839 1795.54 15.4692 1795.28 15.469Z" fill="#4A4A4A"/>
<path d="M1806.28 15.6556C1806.06 15.6554 1805.86 15.5829 1805.7 15.438C1805.53 15.2997 1805.45 15.1352 1805.45 14.9444C1805.45 14.747 1805.47 14.5825 1805.52 14.451L1810.24 2.55294L1812.01 2.55439L1816.71 14.4601C1816.76 14.5917 1816.78 14.7562 1816.78 14.9536C1816.78 15.1444 1816.7 15.3088 1816.53 15.4468C1816.37 15.5914 1816.17 15.6636 1815.95 15.6635C1815.54 15.6631 1815.26 15.4524 1815.11 15.0312L1813.78 11.6155L1808.45 11.6111L1807.12 15.0345C1806.94 15.4489 1806.66 15.6559 1806.28 15.6556ZM1809.13 9.9537L1813.11 9.95694L1811.1 5.0406L1809.13 9.9537Z" fill="#4A4A4A"/>
<path d="M1819.51 15.4887C1818.96 15.4883 1818.68 15.1854 1818.68 14.5801L1818.69 3.44801C1818.69 2.79009 1818.96 2.46134 1819.48 2.46177L1823.25 2.46483C1824.95 2.46621 1826.17 2.71393 1826.92 3.20798C1827.67 3.70204 1828.05 4.5083 1828.05 5.62677C1828.04 6.71235 1827.71 7.54765 1827.06 8.13267C1826.4 8.71111 1825.45 8.99982 1824.19 8.9988L1820.34 8.99567L1820.34 14.5815C1820.34 15.1867 1820.06 15.4892 1819.51 15.4887ZM1820.35 7.3377L1823.25 7.34006C1823.97 7.34065 1824.56 7.31152 1825.02 7.25268C1825.49 7.19385 1825.83 7.04938 1826.05 6.81929C1826.27 6.58262 1826.39 6.2044 1826.39 5.68464C1826.39 5.26357 1826.3 4.94111 1826.12 4.71727C1825.95 4.49344 1825.64 4.33857 1825.18 4.25267C1824.73 4.16677 1824.09 4.12348 1823.25 4.1228L1820.35 4.12045L1820.35 7.3377Z" fill="#4A4A4A"/>
<path d="M1833.7 15.5003C1833.42 15.5 1833.2 15.4176 1833.03 15.253C1832.87 15.095 1832.8 14.8745 1832.8 14.5916L1832.8 4.22926L1829.96 4.22695C1829.67 4.22671 1829.43 4.15415 1829.25 4.00926C1829.08 3.8578 1829 3.65377 1829 3.39718C1829 3.14059 1829.08 2.93999 1829.25 2.79539C1829.43 2.64421 1829.67 2.56874 1829.96 2.56898L1837.48 2.57509C1838.13 2.57562 1838.45 2.85221 1838.45 3.40487C1838.45 3.95752 1838.13 4.23359 1837.48 4.23307L1834.68 4.23079L1834.67 14.5931C1834.67 14.8629 1834.58 15.0799 1834.4 15.2442C1834.23 15.4152 1833.99 15.5005 1833.7 15.5003Z" fill="#4A4A4A"/>
<path d="M1841.17 15.3682C1840.65 15.3677 1840.39 15.0386 1840.39 14.3806L1840.39 3.56435C1840.4 2.90642 1840.66 2.57768 1841.19 2.5781L1849.59 2.58494C1850.25 2.58548 1850.58 2.87523 1850.58 3.4542C1850.58 3.98054 1850.25 4.24345 1849.59 4.24291L1842.05 4.23678L1842.05 7.35535L1847.16 7.3595C1847.9 7.3601 1848.27 7.64989 1848.27 8.22886C1848.27 8.7552 1847.9 9.01807 1847.16 9.01747L1842.05 9.01332L1842.04 13.7109L1849.58 13.717C1850.24 13.7176 1850.57 14.0073 1850.57 14.5863C1850.57 15.1126 1850.24 15.3755 1849.58 15.375L1841.17 15.3682Z" fill="#4A4A4A"/>
<path d="M1859.97 15.5216C1859.42 15.5212 1859.14 15.2051 1859.14 14.5735L1859.15 3.4217C1859.15 2.77693 1859.41 2.45476 1859.94 2.45519C1860.26 2.45545 1860.55 2.62345 1860.79 2.95919L1864.44 8.07424L1868.11 2.96514C1868.35 2.6298 1868.62 2.46225 1868.94 2.46251C1869.48 2.46294 1869.75 2.78555 1869.75 3.43031L1869.74 14.5821C1869.74 15.2138 1869.46 15.5293 1868.91 15.5289C1868.36 15.5284 1868.08 15.1927 1868.08 14.5216L1868.09 5.32379L1865.15 9.48607C1865.04 9.65046 1864.93 9.75893 1864.83 9.81148C1864.72 9.85745 1864.6 9.88038 1864.45 9.88026C1864.3 9.88013 1864.17 9.857 1864.06 9.81085C1863.95 9.75813 1863.85 9.64949 1863.73 9.48492L1860.81 5.31787L1860.8 14.5157C1860.8 15.1867 1860.52 15.5221 1859.97 15.5216Z" fill="#4A4A4A"/>
<path d="M1873.63 15.5327C1873.09 15.5323 1872.83 15.2163 1872.83 14.5847L1872.83 3.43282C1872.84 2.78806 1873.11 2.4659 1873.66 2.46635C1874.22 2.4668 1874.49 2.80914 1874.49 3.49339L1874.49 12.5826L1881.38 2.97593C1881.63 2.6406 1881.92 2.47306 1882.23 2.47331C1882.76 2.47374 1883.02 2.79634 1883.02 3.4411L1883.01 14.5929C1883.01 15.2245 1882.73 15.5401 1882.18 15.5397C1881.63 15.5392 1881.35 15.2429 1881.35 14.6508L1881.36 5.44314L1874.54 14.9907C1874.38 15.2142 1874.25 15.3589 1874.13 15.4246C1874.02 15.4968 1873.85 15.5329 1873.63 15.5327Z" fill="#4A4A4A"/>
<path d="M1886.92 15.5435C1886.36 15.5431 1886.09 15.2402 1886.09 14.6349L1886.1 3.50282C1886.1 2.84489 1886.36 2.51615 1886.89 2.51657L1890.66 2.51964C1892.35 2.52102 1893.58 2.76874 1894.33 3.26279C1895.08 3.75684 1895.45 4.56311 1895.45 5.68158C1895.45 6.76715 1895.12 7.60245 1894.46 8.18747C1893.81 8.76591 1892.86 9.05463 1891.6 9.0536L1887.75 9.05047L1887.75 14.6363C1887.74 15.2415 1887.47 15.544 1886.92 15.5435ZM1887.75 7.3925L1890.65 7.39486C1891.38 7.39545 1891.97 7.36633 1892.43 7.30749C1892.9 7.24865 1893.24 7.10419 1893.46 6.87409C1893.68 6.63742 1893.79 6.2592 1893.79 5.73944C1893.79 5.31837 1893.7 4.99592 1893.53 4.77208C1893.36 4.54824 1893.04 4.39338 1892.59 4.30748C1892.14 4.22158 1891.49 4.17829 1890.65 4.17761L1887.75 4.17525L1887.75 7.3925Z" fill="#4A4A4A"/>
<path d="M1897.18 15.7295C1896.96 15.7293 1896.76 15.6568 1896.6 15.5119C1896.43 15.3736 1896.35 15.2091 1896.35 15.0183C1896.35 14.8209 1896.38 14.6564 1896.42 14.5249L1901.14 2.62685L1902.92 2.62829L1907.61 14.534C1907.66 14.6656 1907.68 14.8301 1907.68 15.0275C1907.68 15.2183 1907.6 15.3827 1907.43 15.5207C1907.27 15.6653 1907.08 15.7376 1906.85 15.7374C1906.44 15.737 1906.16 15.5263 1906.01 15.1051L1904.68 11.6894L1899.35 11.685L1898.02 15.1084C1897.84 15.5228 1897.56 15.7298 1897.18 15.7295ZM1900.03 10.0276L1904.01 10.0308L1902 5.11451L1900.03 10.0276Z" fill="#4A4A4A"/>
<path d="M1922.48 5.74303C1922.81 5.42091 1923.13 5.42118 1923.46 5.74382C1923.78 6.07305 1923.78 6.39873 1923.45 6.72084L1918.28 11.8978C1917.95 12.2199 1917.62 12.2196 1917.3 11.897C1916.97 11.5678 1916.97 11.2421 1917.3 10.92L1922.48 5.74303ZM1917.1 6.65646C1916.78 6.32724 1916.78 6.00156 1917.1 5.67944C1917.43 5.35075 1917.75 5.35101 1918.08 5.68024L1923.25 10.8557C1923.58 11.185 1923.58 11.5106 1923.25 11.8328C1922.92 12.1615 1922.6 12.1612 1922.28 11.832L1917.1 6.65646Z" fill="#4A4A4A"/>
<path d="M2040.11 15.6681C2039.56 15.6676 2039.29 15.3516 2039.29 14.72L2039.29 3.56816C2039.3 2.9234 2039.56 2.60123 2040.09 2.60166C2040.66 2.60213 2040.95 2.92475 2040.95 3.56951L2040.95 7.81313L2047.82 7.81871L2047.82 3.5751C2047.82 2.93033 2048.1 2.60817 2048.65 2.60862C2049.2 2.60907 2049.48 2.93168 2049.48 3.57645L2049.47 14.7283C2049.47 15.3599 2049.19 15.6755 2048.64 15.675C2048.09 15.6746 2047.81 15.3585 2047.81 14.7269L2047.82 9.47668L2040.95 9.4711L2040.94 14.7213C2040.94 15.3529 2040.67 15.6685 2040.11 15.6681Z" fill="#4A4A4A"/>
<path d="M2052.19 15.8555C2051.97 15.8554 2051.77 15.7828 2051.61 15.638C2051.44 15.4997 2051.36 15.3351 2051.36 15.1443C2051.36 14.9469 2051.39 14.7825 2051.43 14.6509L2056.15 2.75288L2057.93 2.75433L2062.62 14.66C2062.67 14.7916 2062.69 14.9561 2062.69 15.1535C2062.69 15.3443 2062.61 15.5087 2062.44 15.6468C2062.28 15.7914 2062.09 15.8636 2061.86 15.8634C2061.45 15.8631 2061.18 15.6523 2061.02 15.2311L2059.69 11.8154L2054.37 11.8111L2053.03 15.2345C2052.85 15.6488 2052.57 15.8558 2052.19 15.8555ZM2055.04 10.1536L2059.02 10.1569L2057.02 5.24054L2055.04 10.1536Z" fill="#4A4A4A"/>
<path d="M2071.61 15.6937C2071.37 15.6935 2071.17 15.6111 2071.02 15.4465C2070.87 15.2819 2070.8 15.0614 2070.8 14.7851L2070.81 4.18592C2070.81 3.91617 2070.89 3.68925 2071.04 3.50515C2071.19 3.31448 2071.4 3.21925 2071.68 3.21948C2072.2 3.21991 2072.47 3.5425 2072.47 4.18727L2072.46 8.76643L2074.04 8.76771C2074.22 8.76785 2074.42 8.6792 2074.64 8.50174C2074.87 8.3177 2075.13 8.02185 2075.43 7.61418C2075.74 7.19994 2076.1 6.64428 2076.51 5.94722C2076.65 5.71706 2076.82 5.44744 2077.02 5.13838C2077.21 4.82274 2077.44 4.52028 2077.7 4.231C2077.96 3.93514 2078.26 3.69195 2078.59 3.50142C2078.92 3.30432 2079.29 3.20593 2079.69 3.20626C2080.38 3.20681 2080.72 3.50316 2080.72 4.09529C2080.72 4.41109 2080.62 4.60839 2080.42 4.68718C2080.23 4.76598 2079.99 4.82499 2079.69 4.86423C2079.41 4.90347 2079.15 5.06445 2078.92 5.34717C2078.7 5.62332 2078.41 6.04745 2078.05 6.61955C2077.75 7.11275 2077.5 7.50731 2077.32 7.80322C2077.14 8.09915 2076.98 8.34574 2076.85 8.543C2076.71 8.74027 2076.54 8.93422 2076.35 9.12487C2076.17 9.30894 2075.91 9.539 2075.58 9.81506L2075.54 9.30185C2075.95 9.63114 2076.31 9.97685 2076.62 10.339C2076.93 10.6945 2077.21 11.05 2077.46 11.4055C2077.7 11.761 2077.92 12.1 2078.13 12.4225C2078.47 12.9557 2078.76 13.3474 2078.97 13.5976C2079.2 13.8412 2079.44 13.9894 2079.7 14.0423C2079.8 14.0621 2079.93 14.0885 2080.09 14.1216C2080.25 14.148 2080.4 14.2172 2080.52 14.3292C2080.65 14.4411 2080.71 14.6287 2080.71 14.8918C2080.71 15.4313 2080.39 15.7008 2079.74 15.7003C2079.26 15.6999 2078.76 15.5416 2078.25 15.2254C2077.74 14.9026 2077.26 14.4219 2076.78 13.7833C2076.68 13.6319 2076.52 13.4015 2076.3 13.0921C2076.09 12.7761 2075.89 12.4865 2075.72 12.2232C2075.32 11.6176 2074.97 11.1666 2074.68 10.8703C2074.4 10.574 2074.12 10.4257 2073.84 10.4255L2072.46 10.4244L2072.46 14.7864C2072.46 15.0496 2072.38 15.2667 2072.22 15.4376C2072.07 15.6085 2071.87 15.6939 2071.61 15.6937Z" fill="#4A4A4A"/>
<path d="M2082.61 15.8803C2082.38 15.8801 2082.19 15.8076 2082.02 15.6627C2081.86 15.5244 2081.78 15.3598 2081.78 15.169C2081.78 14.9717 2081.8 14.8072 2081.85 14.6756L2086.57 2.77761L2088.34 2.77906L2093.04 14.6847C2093.09 14.8164 2093.11 14.9809 2093.11 15.1782C2093.11 15.369 2093.03 15.5335 2092.86 15.6715C2092.7 15.8161 2092.5 15.8883 2092.28 15.8881C2091.87 15.8878 2091.59 15.677 2091.44 15.2558L2090.11 11.8401L2084.78 11.8358L2083.45 15.2592C2083.27 15.6736 2082.99 15.8806 2082.61 15.8803ZM2085.45 10.1784L2089.44 10.1816L2087.43 5.26527L2085.45 10.1784Z" fill="#4A4A4A"/>
<path d="M2095.84 15.7134C2095.29 15.7129 2095.01 15.4101 2095.01 14.8048L2095.02 3.67269C2095.02 3.01476 2095.28 2.68601 2095.81 2.68644L2099.58 2.6895C2101.28 2.69088 2102.5 2.9386 2103.25 3.43265C2104 3.92671 2104.37 4.73297 2104.37 5.85144C2104.37 6.93702 2104.04 7.77232 2103.38 8.35734C2102.73 8.93578 2101.78 9.22449 2100.52 9.22347L2096.67 9.22034L2096.67 14.8061C2096.67 15.4114 2096.39 15.7138 2095.84 15.7134ZM2096.67 7.56237L2099.58 7.56473C2100.3 7.56532 2100.89 7.53619 2101.35 7.47735C2101.82 7.41852 2102.16 7.27405 2102.38 7.04396C2102.6 6.80729 2102.71 6.42907 2102.72 5.90931C2102.72 5.48824 2102.63 5.16578 2102.45 4.94194C2102.28 4.71811 2101.97 4.56324 2101.51 4.47734C2101.06 4.39144 2100.41 4.34815 2099.58 4.34748L2096.68 4.34512L2096.67 7.56237Z" fill="#4A4A4A"/>
<path d="M2110.03 15.7249C2109.75 15.7247 2109.52 15.6423 2109.36 15.4777C2109.2 15.3196 2109.12 15.0992 2109.12 14.8163L2109.13 4.45393L2106.29 4.45162C2105.99 4.45138 2105.76 4.37882 2105.58 4.23393C2105.41 4.08247 2105.32 3.87844 2105.32 3.62185C2105.32 3.36526 2105.41 3.16466 2105.58 3.02006C2105.76 2.86888 2106 2.79341 2106.29 2.79365L2113.81 2.79977C2114.46 2.80029 2114.78 3.07688 2114.78 3.62954C2114.78 4.18219 2114.46 4.45826 2113.81 4.45774L2111.01 4.45546L2111 14.8178C2111 15.0875 2110.91 15.3046 2110.73 15.4689C2110.55 15.6398 2110.32 15.7252 2110.03 15.7249Z" fill="#4A4A4A"/>
<path d="M2117.5 15.5928C2116.98 15.5924 2116.71 15.2632 2116.71 14.6053L2116.72 3.78902C2116.72 3.1311 2116.99 2.80235 2117.51 2.80277L2125.92 2.80961C2126.58 2.81015 2126.91 3.0999 2126.91 3.67887C2126.91 4.20521 2126.58 4.46812 2125.92 4.46758L2118.38 4.46145L2118.38 7.58002L2123.49 7.58417C2124.23 7.58477 2124.6 7.87456 2124.59 8.45353C2124.59 8.97987 2124.23 9.24274 2123.49 9.24214L2118.38 9.23799L2118.37 13.9356L2125.91 13.9417C2126.57 13.9422 2126.9 14.232 2126.9 14.811C2126.9 15.3373 2126.57 15.6002 2125.91 15.5997L2117.5 15.5928Z" fill="#4A4A4A"/>
<path d="M2136.3 15.7463C2135.74 15.7458 2135.47 15.4298 2135.47 14.7982L2135.48 3.64637C2135.48 3.0016 2135.74 2.67943 2136.27 2.67986C2136.59 2.68012 2136.87 2.84812 2137.12 3.18386L2140.76 8.29891L2144.44 3.18982C2144.68 2.85447 2144.95 2.68692 2145.27 2.68718C2145.81 2.68762 2146.08 3.01022 2146.08 3.65498L2146.07 14.8068C2146.07 15.4384 2145.79 15.754 2145.24 15.7536C2144.69 15.7531 2144.41 15.4173 2144.41 14.7463L2144.42 5.54846L2141.48 9.71074C2141.37 9.87513 2141.26 9.9836 2141.16 10.0362C2141.05 10.0821 2140.93 10.105 2140.78 10.1049C2140.63 10.1048 2140.5 10.0817 2140.39 10.0355C2140.28 9.98281 2140.17 9.87416 2140.06 9.70959L2137.13 5.54254L2137.13 14.7403C2137.13 15.4114 2136.85 15.7467 2136.3 15.7463Z" fill="#4A4A4A"/>
<path d="M2149.96 15.7574C2149.42 15.757 2149.15 15.4409 2149.15 14.8093L2149.16 3.65749C2149.16 3.01273 2149.44 2.69057 2149.99 2.69102C2150.55 2.69147 2150.82 3.03381 2150.82 3.71806L2150.81 12.8073L2157.71 3.2006C2157.96 2.86527 2158.24 2.69773 2158.56 2.69798C2159.09 2.69841 2159.35 3.02101 2159.35 3.66577L2159.34 14.8176C2159.34 15.4492 2159.06 15.7648 2158.51 15.7643C2157.96 15.7639 2157.68 15.4676 2157.68 14.8755L2157.69 5.66781L2150.87 15.2153C2150.71 15.4389 2150.57 15.5835 2150.46 15.6492C2150.34 15.7215 2150.18 15.7576 2149.96 15.7574Z" fill="#4A4A4A"/>
<path d="M2163.24 15.7682C2162.69 15.7677 2162.41 15.4649 2162.42 14.8596L2162.42 3.72749C2162.42 3.06956 2162.69 2.74082 2163.21 2.74124L2166.98 2.74431C2168.68 2.74569 2169.91 2.99341 2170.66 3.48746C2171.4 3.98151 2171.78 4.78778 2171.78 5.90625C2171.78 6.99182 2171.45 7.82712 2170.79 8.41214C2170.14 8.99058 2169.18 9.2793 2167.93 9.27827L2164.08 9.27515L2164.07 14.8609C2164.07 15.4662 2163.8 15.7686 2163.24 15.7682ZM2164.08 7.61717L2166.98 7.61953C2167.7 7.62012 2168.3 7.591 2168.76 7.53216C2169.22 7.47332 2169.57 7.32886 2169.78 7.09876C2170.01 6.86209 2170.12 6.48387 2170.12 5.96411C2170.12 5.54304 2170.03 5.22059 2169.85 4.99675C2169.68 4.77291 2169.37 4.61805 2168.92 4.53215C2168.46 4.44625 2167.82 4.40296 2166.98 4.40228L2164.08 4.39992L2164.08 7.61717Z" fill="#4A4A4A"/>
<path d="M2173.51 15.9542C2173.28 15.954 2173.09 15.8815 2172.93 15.7366C2172.76 15.5983 2172.68 15.4337 2172.68 15.2429C2172.68 15.0456 2172.7 14.8811 2172.75 14.7496L2177.47 2.85152L2179.24 2.85296L2183.94 14.7587C2183.99 14.8903 2184.01 15.0548 2184.01 15.2522C2184.01 15.443 2183.93 15.6074 2183.76 15.7454C2183.6 15.89 2183.4 15.9622 2183.18 15.962C2182.77 15.9617 2182.49 15.7509 2182.34 15.3298L2181.01 11.914L2175.68 11.9097L2174.35 15.3331C2174.17 15.7475 2173.89 15.9545 2173.51 15.9542ZM2176.36 10.2523L2180.34 10.2555L2178.33 5.33918L2176.36 10.2523Z" fill="#4A4A4A"/>
<path d="M2198.81 5.9677C2199.14 5.64558 2199.46 5.64585 2199.78 5.96849C2200.11 6.29772 2200.11 6.6234 2199.78 6.94551L2194.61 12.1225C2194.28 12.4446 2193.95 12.4443 2193.63 12.1217C2193.3 11.7924 2193.3 11.4668 2193.63 11.1447L2198.81 5.9677ZM2193.43 6.88113C2193.11 6.55191 2193.11 6.22623 2193.43 5.90411C2193.76 5.57542 2194.08 5.57568 2194.41 5.90491L2199.58 11.0804C2199.9 11.4096 2199.9 11.7353 2199.58 12.0574C2199.25 12.3861 2198.93 12.3859 2198.6 12.0566L2193.43 6.88113Z" fill="#4A4A4A"/>
<path fill-rule="evenodd" clip-rule="evenodd" d="M1934.33 2.70703L1934.83 2.98219C1935.44 3.31499 1935.82 3.95046 1935.81 4.64446L1935.81 15.7879L1935.3 15.5125C1934.7 15.1796 1934.32 14.5446 1934.32 13.8506L1934.33 2.70703ZM1977 4.22901L1977 2.74198L1990 2.75254L1989.99 8.10221C1989.99 9.12843 1989.19 9.96052 1988.16 9.99236L1978.49 9.98285L1978.48 15.7372L1976.99 15.736L1977 8.49452L1988.51 8.50387L1988.51 4.23836L1977 4.22901ZM2013.49 3.27333L2013.21 2.77148L2026.29 2.78212L2026.02 3.28352C2025.69 3.89031 2025.05 4.26814 2024.36 4.26758L2020.5 4.26444L2020.49 15.7714L2019 15.7702L2019.01 4.26323L2015.15 4.26009C2014.46 4.25953 2013.82 3.88066 2013.49 3.27333ZM1953.42 2.84202C1952.8 3.00928 1952.36 3.57818 1952.36 4.2245L1952.36 13.2131L1942.46 3.30353C1942.13 2.96756 1941.68 2.78122 1941.2 2.78083L1940.86 2.78056L1940.85 15.8405L1941.27 15.7242C1941.9 15.555 1942.33 14.988 1942.33 14.3415L1942.34 5.35296L1952.23 15.2609C1952.56 15.5935 1953.03 15.7848 1953.5 15.7852L1953.84 15.7855L1953.85 2.72541L1953.42 2.84202ZM1968.18 8.49848L1963.12 8.49436C1961.63 8.49315 1960.41 7.27814 1960.41 5.78296L1960.42 4.23489L1970.03 4.2427C1970.72 4.24327 1971.36 3.86214 1971.7 3.24886L1971.97 2.74892L1958.93 2.73832L1958.93 6.24228C1958.93 8.30169 1960.6 9.97944 1962.66 9.98111L1967.72 9.98523C1969.22 9.98644 1970.43 11.2015 1970.43 12.6952L1970.43 14.2644L1958.88 14.255L1959.16 14.7588C1959.49 15.3593 1960.12 15.7334 1960.81 15.734L1971.91 15.743L1971.92 12.2375C1971.92 10.1779 1970.24 8.50015 1968.18 8.49848ZM2006.66 6.35659C2006.66 5.21642 2005.73 4.2914 2004.6 4.29047L1998.63 4.28562C1997.49 4.28469 1996.56 5.20821 1996.56 6.34838L1996.56 12.3147C1996.56 13.4533 1997.48 14.3801 1998.62 14.381L2004.59 14.3859C2005.72 14.3868 2006.65 13.4614 2006.65 12.3229L2006.66 6.35659ZM1998.63 2.77049L2004.6 2.77534C2006.57 2.77695 2008.17 4.38042 2008.17 6.35782L2008.17 12.3242C2008.17 14.2999 2006.56 15.9025 2004.59 15.9009L1998.62 15.8961C1996.64 15.8945 1995.04 14.2893 1995.04 12.3135L1995.05 6.34715C1995.05 4.36984 1996.65 2.76888 1998.63 2.77049Z" fill="url(#paint7_linear_511_2065)"/>
<defs>
<linearGradient id="paint0_linear_511_2065" x1="0.0336914" y1="1.11523" x2="91.9716" y2="2.75971" gradientUnits="userSpaceOnUse">
<stop stop-color="#E12555"/>
<stop offset="1" stop-color="#4BA1D9"/>
</linearGradient>
<linearGradient id="paint1_linear_511_2065" x1="276.365" y1="1.31543" x2="368.307" y2="2.96136" gradientUnits="userSpaceOnUse">
<stop stop-color="#E12555"/>
<stop offset="1" stop-color="#4BA1D9"/>
</linearGradient>
<linearGradient id="paint2_linear_511_2065" x1="552.686" y1="1.60449" x2="644.627" y2="3.25002" gradientUnits="userSpaceOnUse">
<stop stop-color="#E12555"/>
<stop offset="1" stop-color="#4BA1D9"/>
</linearGradient>
<linearGradient id="paint3_linear_511_2065" x1="829.017" y1="1.81543" x2="920.961" y2="3.46054" gradientUnits="userSpaceOnUse">
<stop stop-color="#E12555"/>
<stop offset="1" stop-color="#4BA1D9"/>
</linearGradient>
<linearGradient id="paint4_linear_511_2065" x1="1105.35" y1="2.02051" x2="1197.29" y2="3.66634" gradientUnits="userSpaceOnUse">
<stop stop-color="#E12555"/>
<stop offset="1" stop-color="#4BA1D9"/>
</linearGradient>
<linearGradient id="paint5_linear_511_2065" x1="1381.67" y1="2.23535" x2="1473.62" y2="3.88049" gradientUnits="userSpaceOnUse">
<stop stop-color="#E12555"/>
<stop offset="1" stop-color="#4BA1D9"/>
</linearGradient>
<linearGradient id="paint6_linear_511_2065" x1="1658.01" y1="2.43457" x2="1749.96" y2="4.08083" gradientUnits="userSpaceOnUse">
<stop stop-color="#E12555"/>
<stop offset="1" stop-color="#4BA1D9"/>
</linearGradient>
<linearGradient id="paint7_linear_511_2065" x1="1934.33" y1="2.70703" x2="2026.27" y2="4.35197" gradientUnits="userSpaceOnUse">
<stop stop-color="#E12555"/>
<stop offset="1" stop-color="#4BA1D9"/>
</linearGradient>
</defs>
</svg>
