<svg width="120" height="65" viewBox="0 0 120 65" fill="none" xmlns="http://www.w3.org/2000/svg">
<path fill-rule="evenodd" clip-rule="evenodd" d="M0 32.3635C0 29.977 0.947851 27.6882 2.63511 26.0005L25.9918 2.63696C27.6797 0.948569 29.9693 0 32.3567 0H115C117.761 0 120 2.23858 120 5V32.6302C120 35.0204 119.049 37.3124 117.357 39.0008L93.9389 62.3706C92.2516 64.0544 89.9653 65 87.5816 65H66.3173L67.4069 60.4675C67.7092 59.2096 66.7559 58 65.4623 58H58.4224C57.4979 58 56.6938 58.6337 56.4778 59.5325L55.1635 65H48.3173L49.4069 60.4675C49.7092 59.2096 48.7559 58 47.4623 58H40.4224C39.4979 58 38.6938 58.6337 38.4778 59.5325L37.1635 65H30.3173L31.4069 60.4675C31.7092 59.2096 30.7559 58 29.4623 58H22.4224C21.4979 58 20.6938 58.6337 20.4778 59.5325L19.1635 65H5C2.23858 65 0 62.7614 0 60V32.3635ZM105 20C107.761 20 110 17.7614 110 15C110 12.2386 107.761 10 105 10C102.239 10 100 12.2386 100 15C100 17.7614 102.239 20 105 20Z" fill="#323232"/>
</svg>
