<svg width="897" height="172" viewBox="0 0 897 172" fill="none" xmlns="http://www.w3.org/2000/svg">
<path d="M810.396 0.269531L812.209 3.59071C814.415 7.60993 818.629 10.1149 823.22 10.1149H848.777V86.3008H858.617V10.1149H884.174C888.766 10.1149 892.979 7.60993 895.18 3.59071L896.999 0.269531H810.396Z" fill="white"/>
<path d="M460.028 0.269531V10.1149H536.213V38.3561H460.028V86.3008H469.869L469.874 48.2021L533.938 48.213C540.732 47.9967 546.059 42.4832 546.059 35.6887V0.269531H460.028Z" fill="white"/>
<path d="M193.149 1.04393C189.023 2.15462 186.14 5.92359 186.14 10.2028L186.146 69.7143L120.588 4.15847C118.358 1.93588 115.398 0.704599 112.201 0.704599H109.955V87.1721L112.791 86.3995C116.92 85.2761 119.803 81.5199 119.803 77.2395V17.728L185.342 83.2735C187.539 85.4736 190.589 86.7376 193.701 86.7376H195.986V0.269531L193.149 1.04393Z" fill="white"/>
<path d="M14.7098 2.08857L11.3789 0.269531V74.0492C11.3789 78.6434 13.8857 82.8463 17.8983 85.0471L21.2225 86.8673V13.0889C21.2218 8.494 18.7308 4.28875 14.7098 2.08857Z" fill="white"/>
<path d="M346.291 38.3567H312.77C302.878 38.3567 294.836 30.3189 294.836 20.4196V10.17H358.481C363.09 10.17 367.318 7.64326 369.515 3.58101L371.3 0.269531H284.993V23.4687C284.993 37.1036 296.091 48.2027 309.72 48.2027H343.247C353.134 48.2027 361.174 56.2411 361.174 66.1301V76.5196H284.7L286.552 79.8535C288.754 83.8279 292.964 86.3014 297.53 86.3014H371.022V63.0919C371.022 49.4558 359.929 38.3567 346.291 38.3567Z" fill="white"/>
<path d="M697.977 10.3009C705.509 10.3009 711.642 16.4203 711.642 23.9692V63.4712C711.642 71.0086 705.509 77.1407 697.977 77.1407H658.474C650.937 77.1407 644.806 71.0092 644.806 63.4712V23.9692C644.806 16.4203 650.937 10.3009 658.474 10.3009H697.977ZM697.977 0.269531H658.474C645.383 0.269531 634.774 10.8778 634.774 23.9692V63.4712C634.774 76.5523 645.383 87.1715 658.474 87.1715H697.977C711.064 87.1715 721.677 76.5523 721.677 63.4712V23.9692C721.677 10.8772 711.063 0.269531 697.977 0.269531Z" fill="white"/>
<path d="M0.742188 138.666H4.76922L9.61996 160.151C10.1996 163.18 10.5962 165.345 10.8098 166.647H11.0843C11.847 163.251 12.3352 161.085 12.5487 160.151L18.0859 138.666H22.0214L27.6501 160.151C28.0772 161.934 28.5653 164.1 29.1144 166.647H29.2975C29.328 166.364 29.7399 164.199 30.5331 160.151L35.4296 138.666H39.4566L31.4025 170.469H27.1009L21.5638 149.238C20.7401 145.53 20.2824 143.45 20.1909 142.997H20.0079C19.8553 143.761 19.596 144.893 19.2299 146.394C18.8638 147.894 18.635 148.842 18.5435 149.238L13.0978 170.469H8.79625L0.742188 138.666Z" fill="white"/>
<path d="M73.258 170.469V138.666H94.6745V141.553H76.9189V152.593H92.9355V155.438H76.9189V167.582H95.0406V170.469H73.258Z" fill="white"/>
<path d="M170.24 170.469V138.666H174.45L187.08 158.962L191.199 165.671H191.473C191.107 163.038 190.924 160.038 190.924 156.669V138.666H194.585V170.469H190.375L177.699 150.045L173.626 143.506H173.443C173.748 146.337 173.901 149.323 173.901 152.465V170.469H170.24Z" fill="white"/>
<path d="M236.349 158.58H249.254L245.227 147.88C244.983 147.229 244.586 146.195 244.037 144.78C243.518 143.336 243.152 142.331 242.939 141.765H242.664C241.383 145.247 240.635 147.285 240.422 147.88L236.349 158.58ZM227.746 170.469L240.559 138.666H245.044L257.857 170.469H253.83L250.352 161.297H235.251L231.773 170.469H227.746Z" fill="white"/>
<path d="M291.018 170.469V138.666H295.777L303.282 155.777C303.77 156.966 304.426 158.594 305.25 160.66C306.104 162.699 306.546 163.76 306.577 163.845H306.76C306.943 163.42 308.056 160.731 310.1 155.777L317.56 138.666H322.41V170.469H318.749V152.508C318.749 150.215 318.902 147.002 319.207 142.869H319.024L317.285 147.115L308.316 168.091H305.112L296.143 147.115L294.313 142.869H294.13C294.496 147.427 294.679 150.64 294.679 152.508V170.469H291.018Z" fill="white"/>
<path d="M360.468 170.469V138.666H381.884V141.553H364.129V152.593H380.145V155.438H364.129V167.582H382.25V170.469H360.468Z" fill="white"/>
<path d="M453.239 141.553V138.666H477.768V141.553H467.334V170.469H463.673V141.553H453.239Z" fill="white"/>
<path d="M511.569 170.469V138.666H515.23V152.678H532.07V138.666H535.731V170.469H532.07V155.523H515.23V170.469H511.569Z" fill="white"/>
<path d="M573.834 170.469V138.666H595.251V141.553H577.495V152.593H593.512V155.438H577.495V167.582H595.617V170.469H573.834Z" fill="white"/>
<path d="M668.437 154.589C668.437 149.663 669.764 145.658 672.418 142.572C675.102 139.458 678.748 137.901 683.355 137.901C684.911 137.901 686.36 138.128 687.702 138.581C689.045 139.005 690.158 139.586 691.043 140.322C691.958 141.058 692.706 141.779 693.285 142.487C693.895 143.167 694.399 143.888 694.795 144.653L691.683 145.672C689.517 142.416 686.741 140.789 683.355 140.789C679.846 140.789 677.101 142.063 675.118 144.61C673.165 147.13 672.189 150.456 672.189 154.589C672.189 158.891 673.196 162.26 675.209 164.694C677.223 167.1 679.877 168.303 683.172 168.303C686.162 168.303 688.465 167.398 690.082 165.586C691.699 163.774 692.507 161.637 692.507 159.174V156.202H682.806V153.315H696.077V170.469H693.422L693.148 165.798C691.348 169.422 687.992 171.233 683.08 171.233C678.718 171.233 675.179 169.747 672.464 166.775C669.779 163.803 668.437 159.74 668.437 154.589Z" fill="white"/>
<path d="M736.285 158.58H749.189L745.162 147.88C744.918 147.229 744.522 146.195 743.973 144.78C743.454 143.336 743.088 142.331 742.874 141.765H742.6C741.318 145.247 740.571 147.285 740.357 147.88L736.285 158.58ZM727.681 170.469L740.495 138.666H744.979L757.793 170.469H753.766L750.288 161.297H735.186L731.708 170.469H727.681Z" fill="white"/>
<path d="M790.953 170.469V138.666H795.713L803.218 155.777C803.706 156.966 804.362 158.594 805.185 160.66C806.039 162.699 806.482 163.76 806.512 163.845H806.695C806.878 163.42 807.992 160.731 810.036 155.777L817.495 138.666H822.346V170.469H818.685V152.508C818.685 150.215 818.838 147.002 819.143 142.869H818.96L817.221 147.115L808.251 168.091H805.048L796.079 147.115L794.248 142.869H794.065C794.431 147.427 794.614 150.64 794.614 152.508V170.469H790.953Z" fill="white"/>
<path d="M860.403 170.469V138.666H881.82V141.553H864.064V152.593H880.081V155.438H864.064V167.582H882.186V170.469H860.403Z" fill="white"/>
</svg>
