<svg width="48" height="48" viewBox="0 0 48 48" fill="none" xmlns="http://www.w3.org/2000/svg">
<path d="M24.0957 47.9124C19.7745 47.8706 15.8499 46.8895 12.2384 44.8228C11.7791 44.5723 11.4034 44.5514 10.9024 44.6976C8.04243 45.5952 5.14073 46.4511 2.28078 47.3488C1.88414 47.474 1.52926 47.4531 1.237 47.1818C0.923869 46.8895 0.882118 46.5346 1.00737 46.0962C1.86327 43.111 2.65654 40.1049 3.49156 37.1197C3.59594 36.7649 3.55419 36.5144 3.38718 36.2221C1.69626 33.4248 0.652487 30.3769 0.214101 27.1204C-0.140783 24.4692 -0.0572813 21.7971 0.485483 19.1668C1.46663 14.6159 3.53331 10.6496 6.78989 7.30948C10.13 3.88589 14.1172 1.63133 18.7933 0.587553C21.4654 -0.0178378 24.1792 -0.163967 26.893 0.190918C32.7799 0.963312 37.7901 3.55188 41.7773 7.99837C44.9504 11.5263 46.8918 15.6597 47.6224 20.3776C49.4177 31.9635 42.4453 42.9231 31.7779 46.5972C29.2311 47.4531 26.6217 47.8706 24.0957 47.9124ZM3.1993 45.1151C3.55419 45.0107 3.74207 44.9689 3.92995 44.9063C6.26801 44.1966 8.60607 43.5077 10.9024 42.7561C11.5913 42.5265 12.1132 42.61 12.7185 42.9649C15.495 44.6349 18.5011 45.6161 21.7159 45.9292C25.2856 46.2841 28.7927 45.8875 32.1119 44.4679C40.149 41.0235 44.7834 34.9069 45.9107 26.2227C46.3699 22.653 45.8271 19.1668 44.4702 15.8267C40.4413 5.72294 29.6904 -0.122215 18.8351 2.46635C9.79597 4.61653 3.05317 12.1317 1.98852 21.5883C1.57101 25.2833 2.07202 28.8948 3.53331 32.3392C4.01345 33.4665 4.61884 34.5312 5.18248 35.5958C5.45386 36.0968 5.59999 36.5561 5.41211 37.1406C5.05723 38.247 4.78584 39.3952 4.47271 40.5225C4.07608 42.0046 3.65856 43.4868 3.1993 45.1151Z" fill="url(#paint0_linear_154_3688)"/>
<path d="M8.62696 17.8932C8.71046 14.6993 10.0256 12.0272 12.1132 9.68912C12.2802 9.50124 12.5516 9.29249 12.7812 9.27161C13.6997 9.18811 14.6182 9.10461 15.5159 9.14636C15.8708 9.16723 16.33 9.48037 16.5179 9.7935C17.7496 11.6514 18.7933 13.5928 19.6075 15.6804C20.0041 16.7033 19.8162 17.6427 19.2526 18.5195C18.8768 19.104 18.4385 19.6468 17.9583 20.1478C17.6034 20.5235 17.5199 20.8784 17.7704 21.275C18.355 22.1727 18.8768 23.1121 19.5866 23.9054C21.695 26.2434 24.2001 28.0805 26.9348 29.6044C27.7072 30.0219 27.8325 30.0428 28.417 29.3956C29.2102 28.5189 30.0244 27.6212 30.6924 26.6401C31.4022 25.6172 32.4042 25.2623 33.6776 25.9303C34.4082 26.3269 35.0763 26.8071 35.7652 27.2246C36.9551 27.9552 38.145 28.6859 39.3349 29.3956C40.0655 29.834 40.1699 30.0428 40.0029 30.8569C39.5645 33.195 38.6669 35.2825 36.6837 36.7647C35.4729 37.6623 34.0951 38.1425 32.613 38.2886C27.2897 38.8523 22.6553 37.1196 18.522 33.9047C14.4512 30.7317 11.4869 26.6818 9.48286 21.9222C8.91922 20.6697 8.60608 19.3127 8.62696 17.8932ZM32.4668 27.3707C32.0911 27.8717 31.8614 28.2892 31.5483 28.6232C30.7759 29.4583 30.0244 30.3142 29.1894 31.1074C28.3752 31.8589 27.4567 31.9424 26.4338 31.4206C22.9267 29.6044 19.8162 27.2663 17.3321 24.1559C16.6432 23.3 16.1004 22.3397 15.8081 21.275C15.5994 20.5027 15.6411 19.8346 16.2883 19.2292C16.7684 18.77 17.1859 18.2272 17.5826 17.6845C17.9374 17.2043 18.1045 16.6616 17.8122 16.077C16.9772 14.4696 16.1422 12.8413 15.2863 11.2548C15.2028 11.0878 14.9105 10.9417 14.7017 10.9208C13.9085 10.8373 13.1778 10.9625 12.7603 11.7976C12.4889 12.3194 12.0923 12.7996 11.8209 13.3215C10.2344 16.1605 10.0465 19.0414 11.4869 22.0266C12.6559 24.4064 14.0128 26.6609 15.7246 28.6859C19.1482 32.7566 23.2398 35.7209 28.6675 36.4516C30.5254 36.7021 32.3833 36.7438 34.1995 36.0758C36.3288 35.2825 38.0406 32.9653 38.0197 30.836C36.1827 29.7088 34.3665 28.5606 32.4668 27.3707Z" fill="url(#paint1_linear_154_3688)"/>
<defs>
<linearGradient id="paint0_linear_154_3688" x1="-6.73813e-07" y1="26.6715" x2="47.9072" y2="27.4173" gradientUnits="userSpaceOnUse">
<stop stop-color="#1CA031"/>
<stop offset="1" stop-color="#00FF28"/>
</linearGradient>
<linearGradient id="paint1_linear_154_3688" x1="8.62598" y1="25.4226" x2="40.0729" y2="25.9488" gradientUnits="userSpaceOnUse">
<stop stop-color="#1CA031"/>
<stop offset="1" stop-color="#00FF28"/>
</linearGradient>
</defs>
</svg>
