<svg width="56" height="37" viewBox="0 0 56 37" fill="none" xmlns="http://www.w3.org/2000/svg">
<path d="M30.6361 29.8858C29.448 30.6728 28.2808 31.4391 27.1137 32.2054C24.8002 33.738 22.4658 35.2913 20.1523 36.8239C19.527 37.2381 18.7558 36.886 18.6516 36.1404C18.464 34.8978 18.2348 33.6759 18.0263 32.4332C17.8805 31.5427 17.7137 30.6728 17.5678 29.7823C17.3177 28.4568 17.0676 27.1106 16.8383 25.7852C16.6716 24.9153 16.5257 24.0248 16.3798 23.1342C16.2756 22.4922 16.1505 21.8502 16.0463 21.2288C16.0046 20.9596 15.817 20.8561 15.6086 20.7318C14.6707 20.2347 13.7328 19.7377 12.7949 19.2613C10.4605 18.0394 8.14702 16.8175 5.81266 15.6163C4.10357 14.7257 2.39447 13.8352 0.685386 12.9239C0.456119 12.7997 0.226862 12.634 0.122649 12.4269C-0.189988 11.8884 0.122649 11.2671 0.747924 11.1221C1.41488 10.9564 2.08184 10.8322 2.7488 10.6872C3.89513 10.4594 5.06231 10.2315 6.20864 9.98302C7.39667 9.73449 8.60555 9.50667 9.79357 9.25815C10.8774 9.03033 11.982 8.80252 13.0658 8.5747C14.0454 8.3676 15.025 8.1812 16.0046 7.9741C17.1926 7.72557 18.3598 7.47704 19.5478 7.22852C20.6733 7.0007 21.7988 6.77288 22.9243 6.54507C24.425 6.23441 25.9256 5.92375 27.4471 5.61309C28.5935 5.38528 29.719 5.15746 30.8653 4.92965C32.0325 4.68112 33.1997 4.4533 34.3669 4.20478C35.6383 3.93554 36.9305 3.6663 38.2019 3.41778C39.5358 3.14854 40.8697 2.8793 42.2036 2.61007C43.5376 2.34083 44.8715 2.05088 46.2054 1.78164C47.7477 1.47099 49.2692 1.13962 50.8116 0.82896C52.0621 0.580433 53.3127 0.311196 54.5632 0.0626697C54.7091 0.0419591 54.855 0.0212487 55.0009 0.000538193C55.7304 -0.0201723 56.1681 0.559723 55.9388 1.24317C55.6679 2.03017 55.3761 2.79646 55.0843 3.56275C53.9171 6.71075 52.7499 9.85876 51.5827 13.0068C51.0617 14.4151 50.5198 15.8027 49.9987 17.211C49.4985 18.5572 49.0191 19.9034 48.5398 21.2288C47.9145 22.9478 47.2683 24.6668 46.6222 26.3858C45.7468 28.7468 44.8715 31.1285 43.9752 33.4895C43.6418 34.4007 43.3083 35.312 42.9748 36.2026C42.7247 36.886 42.1203 37.2588 41.2657 36.6996C40.0985 35.9333 38.9314 35.1877 37.7642 34.4215C35.7633 33.1167 33.7416 31.8119 31.7407 30.5279C31.3447 30.3208 31.0112 30.1137 30.6361 29.8858ZM24.9669 24.0041C30.511 27.587 35.9717 31.1078 41.495 34.67C45.3508 24.294 49.165 13.9594 53 3.64559C52.9792 3.62488 52.9375 3.60417 52.9167 3.58346C43.6001 10.3765 34.3252 17.1696 24.9669 24.0041ZM48.102 3.35565C48.102 3.33494 48.0812 3.31422 48.0812 3.2728C33.3039 6.29654 18.5474 9.34099 3.68671 12.3854C3.83261 12.489 3.91598 12.5511 3.99935 12.5925C5.7918 13.5452 7.6051 14.4772 9.39756 15.4299C11.7736 16.6725 14.1288 17.8944 16.5048 19.1371C16.7133 19.2613 16.88 19.2613 17.1093 19.1371C19.9022 17.708 22.7159 16.279 25.5296 14.85C27.5931 13.7938 29.6773 12.7582 31.7407 11.702C34.075 10.5215 36.3886 9.32028 38.7229 8.13978C41.495 6.73146 44.2879 5.32315 47.0599 3.91483C47.3934 3.72844 47.7477 3.54204 48.102 3.35565ZM19.8396 31.8326C19.8813 31.8326 19.9022 31.8326 19.9438 31.8326C20.1106 31.3149 20.2565 30.7971 20.4232 30.2793C21.0694 28.1876 21.7155 26.0958 22.3616 24.0041C22.4658 23.652 22.6325 23.3827 22.9452 23.1756C23.4037 22.865 23.8622 22.5129 24.3208 22.1815C26.676 20.4418 29.052 18.7229 31.4072 16.9832C33.1163 15.7405 34.8462 14.4979 36.5553 13.2553C39.0356 11.4535 41.495 9.65165 43.9752 7.82912C44.1837 7.68415 44.3712 7.51846 44.5588 7.37349C44.538 7.35278 44.5171 7.33207 44.4963 7.29065C35.6174 11.8055 26.7593 16.3204 17.8596 20.8561C18.5057 24.5218 19.1727 28.1876 19.8396 31.8326ZM23.8622 25.4952C23.5704 26.4686 23.2995 27.3799 23.0077 28.2911C22.7368 29.1817 22.445 30.0722 22.1948 30.9835C21.9239 31.8741 21.6112 32.7646 21.4028 33.6759C21.4237 33.6966 21.4654 33.7173 21.4862 33.7173C23.9456 32.0812 26.4259 30.445 28.9478 28.7675C27.2179 27.6698 25.5713 26.6136 23.8622 25.4952Z" fill="#E7E7E7"/>
</svg>
