<svg width="48" height="48" viewBox="0 0 48 48" fill="none" xmlns="http://www.w3.org/2000/svg">
<path d="M24.0957 47.9119C19.7745 47.8702 15.8499 46.889 12.2384 44.8223C11.7791 44.5718 11.4034 44.5509 10.9024 44.6971C8.04243 45.5947 5.14073 46.4506 2.28078 47.3483C1.88414 47.4735 1.52926 47.4526 1.237 47.1813C0.923869 46.889 0.882118 46.5341 1.00737 46.0957C1.86327 43.1105 2.65654 40.1045 3.49156 37.1193C3.59594 36.7644 3.55419 36.5139 3.38718 36.2216C1.69626 33.4243 0.652487 30.3765 0.214101 27.1199C-0.140783 24.4687 -0.0572813 21.7966 0.485483 19.1663C1.46663 14.6154 3.53331 10.6491 6.78989 7.30899C10.13 3.8854 14.1172 1.63084 18.7933 0.587065C21.4654 -0.0183261 24.1792 -0.164455 26.893 0.190429C32.7799 0.962824 37.7901 3.55139 41.7773 7.99788C44.9504 11.5258 46.8918 15.6592 47.6224 20.3771C49.4177 31.963 42.4453 42.9227 31.7779 46.5967C29.2311 47.4526 26.6217 47.8702 24.0957 47.9119ZM3.1993 45.1146C3.55419 45.0102 3.74207 44.9685 3.92995 44.9058C6.26801 44.1961 8.60607 43.5072 10.9024 42.7556C11.5913 42.526 12.1132 42.6095 12.7185 42.9644C15.495 44.6344 18.5011 45.6156 21.7159 45.9287C25.2856 46.2836 28.7927 45.887 32.1119 44.4674C40.149 41.023 44.7834 34.9064 45.9107 26.2222C46.3699 22.6525 45.8271 19.1663 44.4702 15.8262C40.4413 5.72245 29.6904 -0.122704 18.8351 2.46586C9.79597 4.61604 3.05317 12.1312 1.98852 21.5879C1.57101 25.2828 2.07202 28.8943 3.53331 32.3388C4.01345 33.466 4.61884 34.5307 5.18248 35.5953C5.45386 36.0964 5.59999 36.5556 5.41211 37.1401C5.05723 38.2465 4.78584 39.3947 4.47271 40.522C4.07608 42.0041 3.65856 43.4863 3.1993 45.1146Z" fill="#E7E7E7"/>
<path d="M8.62696 17.8927C8.71046 14.6988 10.0256 12.0267 12.1132 9.68864C12.2802 9.50076 12.5516 9.292 12.7812 9.27112C13.6997 9.18762 14.6182 9.10412 15.5159 9.14587C15.8708 9.16675 16.33 9.47988 16.5179 9.79301C17.7496 11.6509 18.7933 13.5924 19.6075 15.6799C20.0041 16.7028 19.8162 17.6422 19.2526 18.519C18.8768 19.1035 18.4385 19.6463 17.9583 20.1473C17.6034 20.523 17.5199 20.8779 17.7704 21.2746C18.355 22.1722 18.8768 23.1116 19.5866 23.9049C21.695 26.2429 24.2001 28.08 26.9348 29.6039C27.7072 30.0214 27.8325 30.0423 28.417 29.3951C29.2102 28.5184 30.0244 27.6207 30.6924 26.6396C31.4022 25.6167 32.4042 25.2618 33.6776 25.9298C34.4082 26.3264 35.0763 26.8066 35.7652 27.2241C36.9551 27.9547 38.145 28.6854 39.3349 29.3951C40.0655 29.8335 40.1699 30.0423 40.0029 30.8564C39.5645 33.1945 38.6669 35.282 36.6837 36.7642C35.4729 37.6619 34.0951 38.142 32.613 38.2881C27.2897 38.8518 22.6553 37.1191 18.522 33.9043C14.4512 30.7312 11.4869 26.6813 9.48286 21.9217C8.91922 20.6692 8.60608 19.3123 8.62696 17.8927ZM32.4668 27.3702C32.0911 27.8712 31.8614 28.2887 31.5483 28.6227C30.7759 29.4578 30.0244 30.3137 29.1894 31.1069C28.3752 31.8585 27.4567 31.942 26.4338 31.4201C22.9267 29.6039 19.8162 27.2658 17.3321 24.1554C16.6432 23.2995 16.1004 22.3392 15.8081 21.2746C15.5994 20.5022 15.6411 19.8341 16.2883 19.2288C16.7684 18.7695 17.1859 18.2267 17.5826 17.684C17.9374 17.2038 18.1045 16.6611 17.8122 16.0765C16.9772 14.4691 16.1422 12.8408 15.2863 11.2543C15.2028 11.0873 14.9105 10.9412 14.7017 10.9203C13.9085 10.8368 13.1778 10.962 12.7603 11.7971C12.4889 12.319 12.0923 12.7991 11.8209 13.321C10.2344 16.1601 10.0465 19.0409 11.4869 22.0261C12.6559 24.4059 14.0128 26.6604 15.7246 28.6854C19.1482 32.7561 23.2398 35.7204 28.6675 36.4511C30.5254 36.7016 32.3833 36.7433 34.1995 36.0753C36.3288 35.282 38.0406 32.9649 38.0197 30.8356C36.1827 29.7083 34.3665 28.5601 32.4668 27.3702Z" fill="#E7E7E7"/>
</svg>
