<svg width="61" height="45" viewBox="0 0 61 45" fill="none" xmlns="http://www.w3.org/2000/svg">
<path d="M60.5808 35.77C60.5599 35.2063 60.5391 34.6218 60.5182 34.0582C60.4764 33.0979 60.4556 32.0959 60.3721 31.0938C60.0798 27.5867 59.4744 24.017 58.5767 20.4891C57.3242 15.4789 55.6124 10.7402 53.5249 6.39807C53.2952 5.91793 52.9612 5.5213 52.502 5.20816C50.9572 4.10176 49.4333 3.18324 47.8676 2.45259C45.1747 1.17918 42.3147 0.365038 39.3713 0.0310293C38.3066 -0.094224 37.5551 0.156282 36.9706 0.845175C36.6574 1.20006 36.5322 1.53407 36.5948 1.8472C36.6783 2.13946 36.9288 2.36909 37.3672 2.53609C37.6177 2.6196 37.8682 2.7031 38.1187 2.80748C38.4945 2.93273 38.8911 3.07886 39.2669 3.22499C40.6238 3.74688 41.7302 4.26876 42.7322 4.8324C42.5652 4.79065 42.3982 4.7489 42.2521 4.70715C40.9787 4.35227 39.7679 4.01826 38.5362 3.76775C36.6574 3.39199 34.8204 3.14148 33.046 3.03711C31.1881 2.91185 29.3301 2.91185 27.514 3.03711C25.8022 3.16236 23.9651 3.41287 22.0446 3.78863C20.8129 4.03913 19.623 4.35227 18.3496 4.70715C18.2035 4.7489 18.0365 4.79065 17.8904 4.8324C19.3934 3.99738 20.9799 3.30849 22.7752 2.7031C22.8378 2.68222 22.8796 2.66135 22.9422 2.66135C23.151 2.59872 23.3597 2.53609 23.5476 2.43172C23.7981 2.28559 23.986 2.05596 24.0486 1.80545C24.0904 1.59669 24.0486 1.40881 23.9234 1.26269L23.8399 1.15831C23.3806 0.594669 22.8796 -0.0315973 21.9193 0.0519049C21.7106 0.0727804 21.5018 0.093656 21.293 0.114532C20.7503 0.156283 20.1866 0.218909 19.623 0.302411C15.4061 1.03306 11.5024 2.74485 7.95357 5.37517C7.61957 5.62567 7.34819 5.95968 7.18119 6.29369L6.88893 6.91996C6.20003 8.40212 5.49027 9.92603 4.88488 11.4708C3.02696 16.1887 1.67004 21.1362 0.835021 26.1881C0.292258 29.5699 0.0208755 32.7012 0 35.77C0 36.3336 0.146144 36.7511 0.459277 37.0642C0.730659 37.3565 1.02292 37.6487 1.2943 37.941C1.92056 38.6299 2.56771 39.3188 3.27747 39.9242C6.65931 42.7633 10.7092 44.3707 15.7193 44.8091C15.8445 44.8299 15.9907 44.8299 16.1159 44.8299C16.8257 44.8299 17.5355 44.6212 17.8904 43.64C17.8904 43.6192 17.9112 43.5774 17.953 43.5565C17.9738 43.5356 17.9739 43.5148 17.9947 43.4939C18.1409 43.2434 18.287 42.9929 18.454 42.7424C18.8089 42.1579 19.1637 41.5733 19.5186 40.968C19.7274 40.6131 19.79 40.3208 19.7065 40.0703C19.623 39.8198 19.4143 39.611 19.0385 39.4649C18.8715 39.3814 18.6836 39.3188 18.5166 39.2562C18.4331 39.2353 18.3705 39.1935 18.287 39.1727C16.4082 38.442 14.759 37.3565 13.3812 35.9578C19.0176 38.5046 24.7167 39.7989 30.3113 39.8198C30.353 39.8198 30.3739 39.8198 30.4157 39.8198C35.9268 39.8198 41.5214 38.5673 47.0952 36.1248C45.6757 37.5235 43.9848 38.5673 41.939 39.3188C41.5006 39.4858 41.0831 39.6737 40.9578 40.0286C40.8326 40.3834 41.0204 40.7801 41.2501 41.1558C41.4379 41.469 41.6258 41.7821 41.8137 42.0952C42.1895 42.7006 42.5652 43.306 42.8992 43.9323C43.2541 44.6003 43.7551 44.8717 44.5901 44.8091C48.5147 44.5377 51.8966 43.5148 54.9235 41.6777C57.032 40.4043 58.8064 38.8387 60.2051 37.0225C60.4556 36.605 60.6017 36.2083 60.5808 35.77ZM43.1915 40.6966C43.3585 40.6131 43.4837 40.5504 43.6299 40.4878C46.6568 39.11 49.0575 37.0434 50.7484 34.3087C50.8528 34.1417 50.9363 33.9747 51.0407 33.7868C51.0824 33.7241 51.1033 33.6615 51.1451 33.5989C51.3747 33.1814 51.3121 32.7847 50.9572 32.4716C50.7275 32.2629 50.3518 32.0959 49.8299 32.4299L49.7882 32.4716C49.7673 32.4925 49.7464 32.4925 49.7255 32.5134C46.7612 34.4548 43.3585 35.8743 39.3295 36.8764C35.0083 37.941 30.6453 38.2541 26.3867 37.774C20.4789 37.106 15.427 35.3942 10.9388 32.5134C10.5839 32.2837 10.1246 32.075 9.68625 32.4925C9.20612 32.9309 9.39399 33.4319 9.62362 33.8076C11.0432 36.3336 13.1098 38.3585 15.7402 39.8407C16.1577 40.0703 16.5961 40.2999 17.0553 40.5087C17.2223 40.5922 17.3893 40.6757 17.5563 40.7592C17.4728 40.9053 17.3893 41.0515 17.3058 41.1976C16.9718 41.7612 16.6587 42.2831 16.3038 42.805C16.262 42.8468 16.0742 42.9303 15.9072 42.9303C10.9805 42.5545 7.01417 40.9471 3.77847 38.0036C3.38183 37.6488 3.02696 37.2312 2.67208 36.8555C2.50507 36.6676 2.33807 36.4797 2.17106 36.2918C1.94143 36.0413 1.83706 35.7491 1.83706 35.3107C1.92056 31.4487 2.35893 27.5659 3.1522 23.7456C4.15423 18.8816 5.63639 14.1846 7.53606 9.80078C7.64044 9.57115 7.74482 9.34152 7.8492 9.13276C8.0162 8.77788 8.18322 8.40212 8.32934 8.04724C8.6216 7.27484 9.14349 6.66945 9.91588 6.14756C13.1098 4.03913 16.2829 2.7031 19.6439 2.09771L19.4351 2.18121C17.2849 3.09973 14.5294 4.41489 12.1913 6.41894C11.7947 6.77383 11.3981 7.14959 11.0223 7.52535C10.8762 7.67148 10.73 7.81761 10.5839 7.96373C10.4795 8.04724 10.396 8.15161 10.3334 8.25599C10.0829 8.63175 10.0829 9.00751 10.3334 9.32064C10.6256 9.6964 11.0223 9.7799 11.4398 9.57115C11.7529 9.40415 12.0869 9.23714 12.4001 9.07014C12.6297 8.94488 12.8593 8.81963 13.1098 8.71525C17.2015 6.6277 21.5644 5.33342 26.0944 4.89503C34.2568 4.08088 41.8555 5.54217 48.7026 9.25802L48.7235 9.27889C48.9531 9.40415 49.1828 9.5294 49.4124 9.63378C49.7882 9.80078 50.1639 9.67553 50.4353 9.32064C50.6858 8.98664 50.6858 8.61088 50.4353 8.29774C50.1222 7.92198 49.7882 7.5671 49.4542 7.23309C47.5127 5.35429 45.1329 3.87213 41.7511 2.36909C41.5423 2.28559 41.3544 2.20209 41.1457 2.11858C41.1666 2.11858 41.1874 2.11858 41.2083 2.13946C41.8763 2.28559 42.5652 2.41084 43.2332 2.59872C46.1976 3.43374 48.9949 4.8324 51.5417 6.7112C51.7922 6.89908 52.001 7.25396 52.1053 7.4836C53.3161 9.92603 54.4225 12.6607 55.4663 15.8338C56.6145 19.3409 57.4912 22.9524 58.0758 26.5847C58.535 29.4447 58.8064 32.3881 58.869 35.3316C58.869 35.7282 58.7855 36.0205 58.535 36.3336C56.6562 38.6925 54.2138 40.4043 51.1242 41.6151C49.1828 42.3666 47.1161 42.805 44.8198 42.9511C44.6528 42.972 44.444 42.8885 44.4231 42.8468C44.0891 42.3249 43.776 41.7821 43.442 41.2185C43.3585 41.0723 43.275 40.9262 43.1915 40.7801C43.108 40.7383 43.1497 40.7175 43.1915 40.6966Z" fill="#E7E7E7"/>
<path d="M17.5561 20.6979C15.9487 21.9713 15.1136 23.7457 15.051 25.9586C15.0301 27.0232 15.2807 28.067 15.8234 29.1525C16.6793 30.8852 18.245 32.096 20.1029 32.4717C20.5204 32.5552 20.9171 32.597 21.3346 32.597C22.7332 32.597 24.111 32.096 25.2174 31.1774C26.6161 29.9875 27.4928 28.2131 27.5763 26.3343C27.6807 24.4346 26.9918 22.5976 25.6975 21.2616C23.4639 18.9444 20.0403 18.7147 17.5561 20.6979ZM25.8019 25.9586C25.8019 27.3572 25.3009 28.568 24.3615 29.5074C22.6706 31.2192 20.0612 31.2192 18.3076 29.5491C17.3682 28.6515 16.8254 27.3155 16.8463 25.9168C16.8672 24.5181 17.4308 23.203 18.3911 22.3053C19.2261 21.5538 20.2699 21.1363 21.3346 21.1363C21.5433 21.1363 21.7521 21.1572 21.9817 21.1781C23.276 21.3868 24.4241 22.1801 25.0922 23.37C25.5723 24.205 25.781 25.04 25.8019 25.9586Z" fill="#E7E7E7"/>
<path d="M40.1441 19.4246C38.3488 19.1532 36.5326 19.7168 35.134 20.9694C33.7562 22.201 32.9838 24.0172 32.9629 25.9586C32.9629 27.9 33.7353 29.7162 35.0922 30.9479C36.303 32.0543 37.6599 32.6179 39.1212 32.6179C39.4969 32.6179 39.8936 32.5762 40.2693 32.5135C43.4424 31.9081 45.4882 29.1735 45.5091 25.5829C45.5091 24.6435 45.1333 23.4536 44.5279 22.4515C43.5677 20.8024 41.9603 19.696 40.1441 19.4246ZM42.3986 29.4031C41.4801 30.426 40.1441 30.927 38.7872 30.7809C37.3676 30.6139 36.136 29.7788 35.4262 28.5054C34.967 27.6913 34.7582 26.7728 34.7791 25.6037C34.8626 24.3303 35.4053 22.5977 37.3885 21.5956C39.142 20.698 41.2714 21.1572 42.5448 22.702C44.1731 24.6852 44.1313 27.5034 42.3986 29.4031Z" fill="#E7E7E7"/>
</svg>
