<svg width="61" height="45" viewBox="0 0 61 45" fill="none" xmlns="http://www.w3.org/2000/svg">
<path d="M60.5808 35.7704C60.5599 35.2068 60.5391 34.6223 60.5182 34.0586C60.4764 33.0984 60.4556 32.0963 60.3721 31.0943C60.0798 27.5872 59.4744 24.0175 58.5767 20.4895C57.3242 15.4794 55.6124 10.7407 53.5249 6.39856C53.2952 5.91842 52.9612 5.52178 52.502 5.20865C50.9572 4.10225 49.4333 3.18372 47.8676 2.45308C45.1747 1.17967 42.3147 0.365526 39.3713 0.0315175C38.3066 -0.0937357 37.5551 0.156771 36.9706 0.845663C36.6574 1.20055 36.5322 1.53456 36.5948 1.84769C36.6783 2.13995 36.9288 2.36958 37.3672 2.53658C37.6177 2.62008 37.8682 2.70359 38.1187 2.80796C38.4945 2.93322 38.8911 3.07935 39.2669 3.22548C40.6238 3.74736 41.7302 4.26925 42.7322 4.83289C42.5652 4.79114 42.3982 4.74939 42.2521 4.70764C40.9787 4.35275 39.7679 4.01875 38.5362 3.76824C36.6574 3.39248 34.8204 3.14197 33.046 3.0376C31.1881 2.91234 29.3301 2.91234 27.514 3.0376C25.8022 3.16285 23.9651 3.41335 22.0446 3.78911C20.8129 4.03962 19.623 4.35275 18.3496 4.70764C18.2035 4.74939 18.0365 4.79114 17.8904 4.83289C19.3934 3.99787 20.9799 3.30898 22.7752 2.70359C22.8378 2.68271 22.8796 2.66184 22.9422 2.66184C23.151 2.59921 23.3597 2.53658 23.5476 2.4322C23.7981 2.28608 23.986 2.05644 24.0486 1.80594C24.0904 1.59718 24.0486 1.4093 23.9234 1.26317L23.8399 1.1588C23.3806 0.595157 22.8796 -0.031109 21.9193 0.0523932C21.7106 0.0732687 21.5018 0.0941443 21.293 0.11502C20.7503 0.156771 20.1866 0.219397 19.623 0.3029C15.4061 1.03354 11.5024 2.74534 7.95357 5.37566C7.61957 5.62616 7.34819 5.96017 7.18119 6.29418L6.88893 6.92044C6.20003 8.40261 5.49027 9.92652 4.88488 11.4713C3.02696 16.1892 1.67004 21.1367 0.835021 26.1886C0.292258 29.5704 0.0208755 32.7017 0 35.7704C0 36.3341 0.146144 36.7516 0.459277 37.0647C0.730659 37.357 1.02292 37.6492 1.2943 37.9415C1.92056 38.6304 2.56771 39.3193 3.27747 39.9247C6.65931 42.7637 10.7092 44.3712 15.7193 44.8095C15.8445 44.8304 15.9907 44.8304 16.1159 44.8304C16.8257 44.8304 17.5355 44.6217 17.8904 43.6405C17.8904 43.6196 17.9112 43.5779 17.953 43.557C17.9738 43.5361 17.9739 43.5153 17.9947 43.4944C18.1409 43.2439 18.287 42.9934 18.454 42.7429C18.8089 42.1584 19.1637 41.5738 19.5186 40.9684C19.7274 40.6136 19.79 40.3213 19.7065 40.0708C19.623 39.8203 19.4143 39.6115 19.0385 39.4654C18.8715 39.3819 18.6836 39.3193 18.5166 39.2567C18.4331 39.2358 18.3705 39.194 18.287 39.1731C16.4082 38.4425 14.759 37.357 13.3812 35.9583C19.0176 38.5051 24.7167 39.7994 30.3113 39.8203C30.353 39.8203 30.3739 39.8203 30.4157 39.8203C35.9268 39.8203 41.5214 38.5678 47.0952 36.1253C45.6757 37.524 43.9848 38.5678 41.939 39.3193C41.5006 39.4863 41.0831 39.6742 40.9578 40.029C40.8326 40.3839 41.0204 40.7806 41.2501 41.1563C41.4379 41.4695 41.6258 41.7826 41.8137 42.0957C42.1895 42.7011 42.5652 43.3065 42.8992 43.9328C43.2541 44.6008 43.7551 44.8722 44.5901 44.8095C48.5147 44.5382 51.8966 43.5153 54.9235 41.6782C57.032 40.4048 58.8064 38.8391 60.2051 37.023C60.4556 36.6055 60.6017 36.2088 60.5808 35.7704ZM43.1915 40.6971C43.3585 40.6136 43.4837 40.5509 43.6299 40.4883C46.6568 39.1105 49.0575 37.0438 50.7484 34.3092C50.8528 34.1421 50.9363 33.9751 51.0407 33.7873C51.0824 33.7246 51.1033 33.662 51.1451 33.5994C51.3747 33.1819 51.3121 32.7852 50.9572 32.4721C50.7275 32.2633 50.3518 32.0963 49.8299 32.4304L49.7882 32.4721C49.7673 32.493 49.7464 32.493 49.7255 32.5139C46.7612 34.4553 43.3585 35.8748 39.3295 36.8768C35.0083 37.9415 30.6453 38.2546 26.3867 37.7745C20.4789 37.1065 15.427 35.3947 10.9388 32.5139C10.5839 32.2842 10.1246 32.0755 9.68625 32.493C9.20612 32.9314 9.39399 33.4324 9.62362 33.8081C11.0432 36.3341 13.1098 38.359 15.7402 39.8412C16.1577 40.0708 16.5961 40.3004 17.0553 40.5092C17.2223 40.5927 17.3893 40.6762 17.5563 40.7597C17.4728 40.9058 17.3893 41.0519 17.3058 41.1981C16.9718 41.7617 16.6587 42.2836 16.3038 42.8055C16.262 42.8472 16.0742 42.9307 15.9072 42.9307C10.9805 42.555 7.01417 40.9476 3.77847 38.0041C3.38183 37.6492 3.02696 37.2317 2.67208 36.856C2.50507 36.6681 2.33807 36.4802 2.17106 36.2923C1.94143 36.0418 1.83706 35.7496 1.83706 35.3112C1.92056 31.4492 2.35893 27.5664 3.1522 23.7461C4.15423 18.8821 5.63639 14.1851 7.53606 9.80127C7.64044 9.57164 7.74482 9.34201 7.8492 9.13325C8.0162 8.77837 8.18322 8.40261 8.32934 8.04772C8.6216 7.27533 9.14349 6.66994 9.91588 6.14805C13.1098 4.03962 16.2829 2.70359 19.6439 2.0982L19.4351 2.1817C17.2849 3.10022 14.5294 4.41538 12.1913 6.41943C11.7947 6.77432 11.3981 7.15008 11.0223 7.52584C10.8762 7.67196 10.73 7.81809 10.5839 7.96422C10.4795 8.04772 10.396 8.1521 10.3334 8.25648C10.0829 8.63224 10.0829 9.008 10.3334 9.32113C10.6256 9.69689 11.0223 9.78039 11.4398 9.57164C11.7529 9.40463 12.0869 9.23763 12.4001 9.07063C12.6297 8.94537 12.8593 8.82012 13.1098 8.71574C17.2015 6.62819 21.5644 5.3339 26.0944 4.89552C34.2568 4.08137 41.8555 5.54266 48.7026 9.2585L48.7235 9.27938C48.9531 9.40463 49.1828 9.52989 49.4124 9.63426C49.7882 9.80127 50.1639 9.67602 50.4353 9.32113C50.6858 8.98712 50.6858 8.61136 50.4353 8.29823C50.1222 7.92247 49.7882 7.56759 49.4542 7.23358C47.5127 5.35478 45.1329 3.87262 41.7511 2.36958C41.5423 2.28608 41.3544 2.20257 41.1457 2.11907C41.1666 2.11907 41.1874 2.11907 41.2083 2.13995C41.8763 2.28608 42.5652 2.41133 43.2332 2.59921C46.1976 3.43423 48.9949 4.83289 51.5417 6.71169C51.7922 6.89957 52.001 7.25445 52.1053 7.48408C53.3161 9.92652 54.4225 12.6612 55.4663 15.8343C56.6145 19.3414 57.4912 22.9529 58.0758 26.5852C58.535 29.4452 58.8064 32.3886 58.869 35.3321C58.869 35.7287 58.7855 36.0209 58.535 36.3341C56.6562 38.693 54.2138 40.4048 51.1242 41.6156C49.1828 42.3671 47.1161 42.8055 44.8198 42.9516C44.6528 42.9725 44.444 42.889 44.4231 42.8472C44.0891 42.3254 43.776 41.7826 43.442 41.219C43.3585 41.0728 43.275 40.9267 43.1915 40.7806C43.108 40.7388 43.1497 40.7179 43.1915 40.6971Z" fill="url(#paint0_linear_154_3703)"/>
<path d="M17.5561 20.6983C15.9487 21.9717 15.1136 23.7461 15.051 25.9589C15.0301 27.0236 15.2807 28.0673 15.8234 29.1529C16.6793 30.8855 18.245 32.0963 20.1029 32.4721C20.5204 32.5556 20.9171 32.5973 21.3346 32.5973C22.7332 32.5973 24.111 32.0963 25.2174 31.1778C26.6161 29.9879 27.4928 28.2135 27.5763 26.3347C27.6807 24.435 26.9918 22.598 25.6975 21.2619C23.4639 18.9447 20.0403 18.7151 17.5561 20.6983ZM25.8019 25.9589C25.8019 27.3576 25.3009 28.5684 24.3615 29.5078C22.6706 31.2196 20.0612 31.2196 18.3076 29.5495C17.3682 28.6519 16.8254 27.3158 16.8463 25.9172C16.8672 24.5185 17.4308 23.2033 18.3911 22.3057C19.2261 21.5542 20.2699 21.1367 21.3346 21.1367C21.5433 21.1367 21.7521 21.1575 21.9817 21.1784C23.276 21.3872 24.4241 22.1804 25.0922 23.3703C25.5723 24.2054 25.781 25.0404 25.8019 25.9589Z" fill="url(#paint1_linear_154_3703)"/>
<path d="M40.1436 19.4252C38.3483 19.1538 36.5321 19.7174 35.1335 20.97C33.7557 22.2016 32.9833 24.0178 32.9624 25.9592C32.9624 27.9007 33.7348 29.7168 35.0917 30.9485C36.3025 32.0549 37.6594 32.6185 39.1207 32.6185C39.4964 32.6185 39.8931 32.5768 40.2688 32.5142C43.4419 31.9088 45.4877 29.1741 45.5086 25.5835C45.5086 24.6441 45.1328 23.4542 44.5275 22.4521C43.5672 20.803 41.9598 19.6966 40.1436 19.4252ZM42.3981 29.4037C41.4796 30.4266 40.1436 30.9276 38.7867 30.7815C37.3671 30.6145 36.1355 29.7795 35.4257 28.506C34.9665 27.6919 34.7577 26.7734 34.7786 25.6043C34.8621 24.3309 35.4048 22.5983 37.388 21.5962C39.1416 20.6986 41.2709 21.1579 42.5443 22.7026C44.1726 24.6858 44.1308 27.504 42.3981 29.4037Z" fill="url(#paint2_linear_154_3703)"/>
<defs>
<linearGradient id="paint0_linear_154_3703" x1="-8.52155e-07" y1="24.9558" x2="60.5748" y2="26.2305" gradientUnits="userSpaceOnUse">
<stop stop-color="#5165F6"/>
<stop offset="1" stop-color="#001FFF"/>
</linearGradient>
<linearGradient id="paint1_linear_154_3703" x1="15.0498" y1="26.726" x2="27.5879" y2="26.9108" gradientUnits="userSpaceOnUse">
<stop stop-color="#5165F6"/>
<stop offset="1" stop-color="#001FFF"/>
</linearGradient>
<linearGradient id="paint2_linear_154_3703" x1="32.9624" y1="26.7399" x2="45.5098" y2="26.9247" gradientUnits="userSpaceOnUse">
<stop stop-color="#5165F6"/>
<stop offset="1" stop-color="#001FFF"/>
</linearGradient>
</defs>
</svg>
