<svg width="56" height="37" viewBox="0 0 56 37" fill="none" xmlns="http://www.w3.org/2000/svg">
<path d="M30.6361 29.8863C29.448 30.6733 28.2808 31.4396 27.1137 32.2059C24.8002 33.7385 22.4658 35.2918 20.1523 36.8244C19.527 37.2386 18.7558 36.8865 18.6516 36.1409C18.464 34.8983 18.2348 33.6764 18.0263 32.4337C17.8805 31.5432 17.7137 30.6733 17.5678 29.7828C17.3177 28.4573 17.0676 27.1111 16.8383 25.7856C16.6716 24.9158 16.5257 24.0253 16.3798 23.1347C16.2756 22.4927 16.1505 21.8506 16.0463 21.2293C16.0046 20.9601 15.817 20.8565 15.6086 20.7323C14.6707 20.2352 13.7328 19.7382 12.7949 19.2618C10.4605 18.0399 8.14702 16.818 5.81266 15.6168C4.10357 14.7262 2.39447 13.8357 0.685386 12.9244C0.456119 12.8001 0.226862 12.6345 0.122649 12.4274C-0.189988 11.8889 0.122649 11.2676 0.747924 11.1226C1.41488 10.9569 2.08184 10.8326 2.7488 10.6877C3.89513 10.4598 5.06231 10.232 6.20864 9.98351C7.39667 9.73498 8.60555 9.50716 9.79357 9.25864C10.8774 9.03082 11.982 8.80301 13.0658 8.57519C14.0454 8.36808 15.025 8.18169 16.0046 7.97458C17.1926 7.72606 18.3598 7.47753 19.5478 7.229C20.6733 7.00119 21.7988 6.77337 22.9243 6.54556C24.425 6.2349 25.9256 5.92424 27.4471 5.61358C28.5935 5.38577 29.719 5.15795 30.8653 4.93013C32.0325 4.68161 33.1997 4.45379 34.3669 4.20527C35.6383 3.93603 36.9305 3.66679 38.2019 3.41827C39.5358 3.14903 40.8697 2.87979 42.2036 2.61055C43.5376 2.34132 44.8715 2.05137 46.2054 1.78213C47.7477 1.47147 49.2692 1.14011 50.8116 0.829448C52.0621 0.580922 53.3127 0.311684 54.5632 0.0631579C54.7091 0.0424474 54.855 0.021737 55.0009 0.00102647C55.7304 -0.0196841 56.1681 0.560211 55.9388 1.24366C55.6679 2.03066 55.3761 2.79695 55.0843 3.56324C53.9171 6.71124 52.7499 9.85924 51.5827 13.0072C51.0617 14.4156 50.5198 15.8032 49.9987 17.2115C49.4985 18.5577 49.0191 19.9039 48.5398 21.2293C47.9145 22.9483 47.2683 24.6673 46.6222 26.3863C45.7468 28.7473 44.8715 31.129 43.9752 33.49C43.6418 34.4012 43.3083 35.3125 42.9748 36.203C42.7247 36.8865 42.1203 37.2593 41.2657 36.7001C40.0985 35.9338 38.9314 35.1882 37.7642 34.4219C35.7633 33.1172 33.7416 31.8124 31.7407 30.5284C31.3447 30.3213 31.0112 30.1142 30.6361 29.8863ZM24.9669 24.0045C30.511 27.5875 35.9717 31.1083 41.495 34.6705C45.3508 24.2945 49.165 13.9599 53 3.64608C52.9792 3.62537 52.9375 3.60466 52.9167 3.58395C43.6001 10.377 34.3252 17.1701 24.9669 24.0045ZM48.102 3.35613C48.102 3.33542 48.0812 3.31471 48.0812 3.27329C33.3039 6.29703 18.5474 9.34148 3.68671 12.3859C3.83261 12.4895 3.91598 12.5516 3.99935 12.593C5.7918 13.5457 7.6051 14.4777 9.39756 15.4304C11.7736 16.673 14.1288 17.8949 16.5048 19.1376C16.7133 19.2618 16.88 19.2618 17.1093 19.1376C19.9022 17.7085 22.7159 16.2795 25.5296 14.8505C27.5931 13.7942 29.6773 12.7587 31.7407 11.7025C34.075 10.522 36.3886 9.32077 38.7229 8.14027C41.495 6.73195 44.2879 5.32364 47.0599 3.91532C47.3934 3.72892 47.7477 3.54253 48.102 3.35613ZM19.8396 31.8331C19.8813 31.8331 19.9022 31.8331 19.9438 31.8331C20.1106 31.3154 20.2565 30.7976 20.4232 30.2798C21.0694 28.1881 21.7155 26.0963 22.3616 24.0045C22.4658 23.6525 22.6325 23.3832 22.9452 23.1761C23.4037 22.8655 23.8622 22.5134 24.3208 22.182C26.676 20.4423 29.052 18.7234 31.4072 16.9837C33.1163 15.741 34.8462 14.4984 36.5553 13.2558C39.0356 11.454 41.495 9.65214 43.9752 7.82961C44.1837 7.68464 44.3712 7.51895 44.5588 7.37398C44.538 7.35327 44.5171 7.33256 44.4963 7.29114C35.6174 11.806 26.7593 16.3209 17.8596 20.8565C18.5057 24.5223 19.1727 28.1881 19.8396 31.8331ZM23.8622 25.4957C23.5704 26.4691 23.2995 27.3804 23.0077 28.2916C22.7368 29.1822 22.445 30.0727 22.1948 30.984C21.9239 31.8745 21.6112 32.7651 21.4028 33.6764C21.4237 33.6971 21.4654 33.7178 21.4862 33.7178C23.9456 32.0817 26.4259 30.4455 28.9478 28.768C27.2179 27.6703 25.5713 26.6141 23.8622 25.4957Z" fill="url(#paint0_linear_154_3709)"/>
<defs>
<linearGradient id="paint0_linear_154_3709" x1="-7.87693e-07" y1="20.5972" x2="55.9863" y2="21.9166" gradientUnits="userSpaceOnUse">
<stop stop-color="#00B0FF"/>
<stop offset="1" stop-color="#026B9E"/>
</linearGradient>
</defs>
</svg>
