<svg width="49" height="49" viewBox="0 0 49 49" fill="none" xmlns="http://www.w3.org/2000/svg">
<path d="M40.2063 48.7861H8.57985C3.84111 48.7861 0 44.9242 0 40.2063V8.57985C0 3.8411 3.86198 0 8.57985 0H40.1854C44.9242 0 48.7653 3.86197 48.7653 8.57985V40.1854C48.7861 44.945 44.945 48.7861 40.2063 48.7861ZM8.57985 2.00405C4.94751 2.00405 2.00406 4.9475 2.00406 8.57985V40.1854C2.00406 43.8178 4.94751 46.7612 8.57985 46.7612H40.1854C43.8178 46.7612 46.7612 43.8178 46.7612 40.1854V8.57985C46.7612 4.9475 43.8178 2.00405 40.1854 2.00405H8.57985Z" fill="#E7E7E7"/>
<path d="M24.4041 35.5927C18.225 35.5927 13.2148 30.5617 13.2148 24.4034C13.2148 18.2451 18.2458 13.2141 24.4041 13.2141C30.5624 13.2141 35.5934 18.2451 35.5934 24.4034C35.5934 30.5617 30.5624 35.5927 24.4041 35.5927ZM24.4041 15.2182C19.3314 15.2182 15.2189 19.3306 15.2189 24.4034C15.2189 29.4762 19.3314 33.5886 24.4041 33.5886C29.4769 33.5886 33.5894 29.4762 33.5894 24.4034C33.5894 19.3306 29.456 15.2182 24.4041 15.2182Z" fill="#E7E7E7"/>
<path d="M38.8911 13.3815C36.9706 13.3815 35.4258 11.8158 35.4258 9.91615C35.4258 8.01647 36.9914 6.45081 38.8911 6.45081C40.7908 6.45081 42.3564 8.01647 42.3564 9.91615C42.3564 11.8158 40.8117 13.3815 38.8911 13.3815ZM38.8911 8.20435C37.9517 8.20435 37.2002 8.97675 37.2002 9.89527C37.2002 10.8138 37.9726 11.5862 38.8911 11.5862C39.8096 11.5862 40.582 10.8138 40.582 9.89527C40.582 8.97675 39.8305 8.20435 38.8911 8.20435Z" fill="#E7E7E7"/>
</svg>
