<svg width="49" height="49" viewBox="0 0 49 49" fill="none" xmlns="http://www.w3.org/2000/svg">
<path d="M49 28.7709V4.44931C49 3.33711 48.7063 2.41376 48.0978 1.63732C47.2376 0.546099 46.0627 0.000488281 44.4891 0.000488281H30.8095C22.0184 0.000488281 13.2274 0.000488281 4.43633 0.000488281C4.07965 0.000488281 3.74394 0.0214733 3.42923 0.0844283C1.81369 0.399204 0.701698 1.36451 0.219135 2.9174C0.0303059 3.52597 0.0093249 4.19749 0.0093249 4.76409C-0.0116561 18.2155 0.0093249 31.6669 0.0093249 44.2159C0.0093249 44.6356 0.030311 45.0973 0.0932541 45.538C0.386988 47.1538 1.33113 48.245 2.9047 48.7697C3.3453 48.9165 3.89082 49.0005 4.54123 49.0005C12.0944 49.0005 19.6476 49.0005 27.0748 49.0005C32.9915 49.0005 38.8032 49.0005 44.4471 49.0005C44.8667 49.0005 45.2234 48.9795 45.5381 48.9165C47.1537 48.6228 48.2867 47.6574 48.7692 46.1255C48.979 45.496 49 44.8035 49 44.2789C49 39.0956 49 33.8493 49 28.7709ZM46.9858 31.0793C46.9858 35.4861 46.9858 39.872 46.9858 44.2789C46.9858 44.9084 46.9229 45.3911 46.755 45.7688C46.4613 46.5452 45.8109 46.9859 44.9716 46.9859C41.8665 47.0069 38.6983 47.0069 35.6351 47.0069H32.8866C32.8656 47.0069 32.8446 47.0069 32.8027 46.9859V32.821H40.6915L40.7335 32.6951C40.9433 32.0026 40.9433 23.7345 40.7964 22.8741L40.7754 22.7273H32.8236C32.8236 22.7063 32.8236 22.6853 32.8027 22.6643C32.7817 22.5594 32.7607 22.4754 32.7607 22.4125V22.2236C32.7607 21.2373 32.7397 20.23 32.7607 19.2228C32.7817 18.3834 32.9495 18.2155 33.7678 18.2155C35.4043 18.2155 37.0408 18.2155 38.6773 18.2155H41.6566V8.07972H33.4111C28.7323 8.07972 24.5152 11.2065 23.1724 15.6973C22.8367 16.7885 22.6688 17.9637 22.6688 19.2018V22.6643H16.2906V32.7791H22.6269V46.9649C22.6059 46.9649 22.6059 46.9649 22.5849 46.9649C22.438 46.9859 22.2912 46.9859 22.1653 46.9859C20.4448 46.9859 18.7244 46.9859 17.0039 46.9859C12.8917 46.9859 8.63253 46.9859 4.4573 47.0069H4.43633C3.76494 47.0069 3.13549 46.7551 2.69489 46.3354C2.25429 45.8947 2.00252 45.2442 2.00252 44.5517C2.0235 34.9195 2.02351 25.1195 2.02351 15.6553C2.02351 11.92 2.02351 8.16366 2.02351 4.42833C2.02351 3.21119 2.50607 2.47672 3.51316 2.14096C3.76493 2.05702 4.07964 2.03603 4.26847 2.03603C4.58318 2.03603 4.91888 2.03603 5.25458 2.03603C5.44341 2.03603 5.63224 2.03603 5.82107 2.03603C9.15705 2.05702 12.472 2.03603 15.808 2.03603C25.1026 2.03603 34.7119 2.03603 44.1744 2.01505H44.1954C45.1395 2.01505 45.8528 2.24588 46.3354 2.72854C46.818 3.21119 47.0488 3.92469 47.0488 4.86901C46.9858 13.5778 46.9858 22.4754 46.9858 31.0793ZM30.8095 33.7654C30.8095 34.1851 30.8095 34.6048 30.8095 35.0245C30.8095 35.9688 30.8095 36.9131 30.8095 37.8365V46.944H24.683V30.8275H18.2418V24.6789H24.683V23.6926C24.683 23.1889 24.683 22.6643 24.683 22.1607C24.683 21.0694 24.683 19.9362 24.683 18.824C24.725 14.9208 27.0539 11.7311 30.7465 10.493C31.4599 10.2622 32.2572 10.1153 33.0754 10.0943C34.67 10.0523 36.2226 10.0733 37.8801 10.0733C38.4675 10.0733 39.076 10.0733 39.6634 10.0733V16.2009H39.1179C38.6354 16.2009 38.1528 16.2009 37.6493 16.2009C36.3904 16.2009 35.0686 16.2009 33.7888 16.2219C33.3691 16.2219 32.8027 16.2639 32.3201 16.4527C31.4389 16.8095 30.8934 17.544 30.8724 18.4043C30.8304 19.8313 30.8304 21.2163 30.8514 22.6853C30.8514 23.2729 30.8514 23.8604 30.8514 24.469V24.6579H38.8662V30.7855H30.8304V30.9534C30.8095 31.9187 30.8095 32.863 30.8095 33.7654Z" fill="url(#paint0_linear_154_3700)"/>
<defs>
<linearGradient id="paint0_linear_154_3700" x1="-6.89232e-07" y1="27.2772" x2="49.0034" y2="28.0402" gradientUnits="userSpaceOnUse">
<stop stop-color="#528CFF"/>
<stop offset="1" stop-color="#003EC4"/>
</linearGradient>
</defs>
</svg>
