<svg width="49" height="49" viewBox="0 0 49 49" fill="none" xmlns="http://www.w3.org/2000/svg">
<path d="M49 28.7705V4.44882C49 3.33662 48.7063 2.41328 48.0978 1.63683C47.2376 0.54561 46.0627 0 44.4891 0H30.8095C22.0184 0 13.2274 0 4.43633 0C4.07965 0 3.74394 0.020985 3.42923 0.0839401C1.81369 0.398715 0.701698 1.36403 0.219135 2.91692C0.0303059 3.52548 0.0093249 4.197 0.0093249 4.7636C-0.0116561 18.215 0.0093249 31.6664 0.0093249 44.2154C0.0093249 44.6351 0.030311 45.0968 0.0932541 45.5375C0.386988 47.1533 1.33113 48.2445 2.9047 48.7692C3.3453 48.9161 3.89082 49 4.54123 49C12.0944 49 19.6476 49 27.0748 49C32.9915 49 38.8032 49 44.4471 49C44.8667 49 45.2234 48.979 45.5381 48.9161C47.1537 48.6223 48.2867 47.657 48.7692 46.1251C48.979 45.4955 49 44.803 49 44.2784C49 39.0951 49 33.8488 49 28.7705ZM46.9858 31.0788C46.9858 35.4857 46.9858 39.8715 46.9858 44.2784C46.9858 44.9079 46.9229 45.3906 46.755 45.7683C46.4613 46.5448 45.8109 46.9854 44.9716 46.9854C41.8665 47.0064 38.6983 47.0064 35.6351 47.0064H32.8866C32.8656 47.0064 32.8446 47.0064 32.8027 46.9854V32.8206H40.6915L40.7335 32.6946C40.9433 32.0021 40.9433 23.734 40.7964 22.8737L40.7754 22.7268H32.8236C32.8236 22.7058 32.8236 22.6848 32.8027 22.6638C32.7817 22.5589 32.7607 22.4749 32.7607 22.412V22.2231C32.7607 21.2368 32.7397 20.2296 32.7607 19.2223C32.7817 18.3829 32.9495 18.215 33.7678 18.215C35.4043 18.215 37.0408 18.215 38.6773 18.215H41.6566V8.07923H33.4111C28.7323 8.07923 24.5152 11.206 23.1724 15.6968C22.8367 16.788 22.6688 17.9632 22.6688 19.2013V22.6638H16.2906V32.7786H22.6269V46.9645C22.6059 46.9645 22.6059 46.9645 22.5849 46.9645C22.438 46.9854 22.2912 46.9854 22.1653 46.9854C20.4448 46.9854 18.7244 46.9854 17.0039 46.9854C12.8917 46.9854 8.63253 46.9854 4.4573 47.0064H4.43633C3.76493 47.0064 3.13549 46.7546 2.69489 46.3349C2.25429 45.8942 2.00252 45.2437 2.00252 44.5512C2.0235 34.9191 2.02351 25.1191 2.02351 15.6548C2.02351 11.9195 2.02351 8.16317 2.02351 4.42784C2.02351 3.21071 2.50607 2.47623 3.51316 2.14047C3.76493 2.05653 4.07964 2.03555 4.26847 2.03555C4.58318 2.03555 4.91888 2.03555 5.25458 2.03555C5.44341 2.03555 5.63224 2.03555 5.82107 2.03555C9.15705 2.05653 12.472 2.03555 15.808 2.03555C25.1026 2.03555 34.7119 2.03555 44.1744 2.01456H44.1954C45.1395 2.01456 45.8528 2.2454 46.3354 2.72805C46.818 3.21071 47.0488 3.9242 47.0488 4.86852C46.9858 13.5773 46.9858 22.4749 46.9858 31.0788ZM30.8095 33.7649C30.8095 34.1846 30.8095 34.6043 30.8095 35.024C30.8095 35.9683 30.8095 36.9126 30.8095 37.836V46.9435H24.683V30.827H18.2418V24.6784H24.683V23.6921C24.683 23.1884 24.683 22.6638 24.683 22.1602C24.683 21.069 24.683 19.9358 24.683 18.8236C24.725 14.9203 27.0539 11.7306 30.7465 10.4925C31.4599 10.2617 32.2572 10.1148 33.0754 10.0938C34.67 10.0518 36.2226 10.0728 37.8801 10.0728C38.4675 10.0728 39.076 10.0728 39.6634 10.0728V16.2004H39.1179C38.6354 16.2004 38.1528 16.2004 37.6493 16.2004C36.3904 16.2004 35.0686 16.2004 33.7888 16.2214C33.3691 16.2214 32.8027 16.2634 32.3201 16.4522C31.4389 16.809 30.8934 17.5435 30.8724 18.4039C30.8304 19.8308 30.8304 21.2158 30.8514 22.6848C30.8514 23.2724 30.8514 23.86 30.8514 24.4685V24.6574H38.8662V30.785H30.8304V30.9529C30.8095 31.9182 30.8095 32.8625 30.8095 33.7649Z" fill="#E7E7E7"/>
</svg>
