<svg width="58" height="45" viewBox="0 0 58 45" fill="none" xmlns="http://www.w3.org/2000/svg">
<path d="M25.614 43.9814C21.5433 43.877 17.4726 43.7935 13.4018 43.6265C11.5648 43.543 9.70687 43.3969 7.86982 43.1255C4.46711 42.6454 2.37955 40.5996 1.33577 37.3847C0.793009 35.6938 0.563378 33.9612 0.396374 32.2076C-0.104639 26.1955 -0.104635 20.1416 0.250249 14.1085C0.396378 11.6035 0.563381 9.09839 1.37753 6.69771C2.23342 4.21352 3.71559 2.35559 6.19978 1.35357C6.88867 1.08219 7.64019 0.894306 8.37083 0.831679C11.4604 0.602048 14.5709 0.414168 17.6813 0.226288C19.4975 0.121911 21.3345 0.0175331 23.1507 0.0175331C28.0356 -0.00334247 32.8996 -0.024218 37.7845 0.0801597C41.5421 0.163662 45.3205 0.330666 49.0781 0.622924C52.0842 0.852555 55.0068 2.66873 56.1967 6.42632C56.7395 8.13812 56.99 9.91254 57.157 11.7078C57.6788 17.7409 57.658 23.7739 57.324 29.8069C57.1778 32.312 57.0108 34.8171 56.1967 37.2177C55.3408 39.7019 53.8586 41.5598 51.3744 42.5619C50.6855 42.8333 49.934 43.0211 49.2034 43.0838C46.1973 43.3343 43.1912 43.5639 40.1643 43.6892C35.9892 43.8562 31.7932 43.9188 27.5972 44.0232C26.9292 44.0232 26.2612 44.0023 25.614 43.9814C25.614 44.0023 25.614 44.0023 25.614 43.9814ZM29.6639 42.207C35.8013 41.9774 42.1266 41.7686 48.4727 41.4972C50.2472 41.4137 51.7711 40.7248 52.961 39.347C53.7125 38.4911 54.0883 37.4682 54.4223 36.4036C55.299 33.5645 55.4034 30.6211 55.5078 27.7194C55.6748 22.2917 55.7374 16.8432 55.1947 11.4156C55.0068 9.59941 54.6519 7.80411 53.9212 6.13407C53.0236 4.02564 51.3744 2.85661 49.1199 2.6061C47.763 2.45997 46.3852 2.39734 45.0074 2.35559C39.1414 2.16771 33.2962 1.87546 27.4302 1.87546C21.6894 1.87546 15.9486 2.20946 10.2079 2.41822C9.22673 2.45997 8.2247 2.54347 7.2853 2.81486C5.21862 3.42025 3.92434 4.86066 3.23545 6.88559C2.35868 9.4324 2.21255 12.1045 2.06642 14.7557C1.77416 20.2459 1.75329 25.7571 2.21255 31.2473C2.37955 33.2096 2.56743 35.1719 3.21457 37.0507C3.96609 39.2635 5.46913 40.6205 7.70281 41.1215C8.68396 41.3511 9.70686 41.4555 10.7298 41.4972C16.9507 41.7477 23.1925 41.9774 29.6639 42.207Z" fill="url(#paint0_linear_154_3693)"/>
<path d="M21.0428 22.668C21.0428 19.4323 21.0428 16.2175 21.0428 12.9817C21.0428 12.7521 21.022 12.5016 21.0428 12.272C21.1263 11.437 21.7526 11.0821 22.5041 11.437C22.9425 11.6457 23.3392 11.9171 23.7567 12.1467C29.2261 15.3407 34.6954 18.5346 40.144 21.7286C40.3318 21.833 40.5197 21.9165 40.6867 22.0417C41.3547 22.5427 41.3339 23.2734 40.6658 23.7535C40.478 23.8997 40.2483 24.004 40.0396 24.1084C34.4032 27.2397 28.7668 30.3919 23.1304 33.5233C22.9216 33.6485 22.7129 33.7738 22.5041 33.8573C21.6691 34.2122 21.0846 33.8364 21.022 32.9388C21.0011 32.5421 21.022 32.1664 21.022 31.7697C21.0428 28.7637 21.0428 25.7158 21.0428 22.668ZM23.026 13.942C23.026 19.808 23.026 25.5279 23.026 31.4148C28.1405 28.5758 33.1715 25.7785 38.3069 22.9185C33.1507 19.8707 28.1405 16.9481 23.026 13.942Z" fill="url(#paint1_linear_154_3693)"/>
<defs>
<linearGradient id="paint0_linear_154_3693" x1="-8.09689e-07" y1="24.5064" x2="57.5578" y2="25.6783" gradientUnits="userSpaceOnUse">
<stop stop-color="#C50000"/>
<stop offset="1" stop-color="#FF4949"/>
</linearGradient>
<linearGradient id="paint1_linear_154_3693" x1="21.0127" y1="23.9306" x2="41.1798" y2="24.2097" gradientUnits="userSpaceOnUse">
<stop stop-color="#C50000"/>
<stop offset="1" stop-color="#FF4949"/>
</linearGradient>
</defs>
</svg>
