<svg width="58" height="45" viewBox="0 0 58 45" fill="none" xmlns="http://www.w3.org/2000/svg">
<path d="M25.614 43.9809C21.5433 43.8765 17.4726 43.793 13.4018 43.626C11.5648 43.5425 9.70687 43.3964 7.86982 43.125C4.46711 42.6449 2.37955 40.5991 1.33577 37.3843C0.793009 35.6933 0.563378 33.9607 0.396374 32.2071C-0.104639 26.195 -0.104635 20.1411 0.250249 14.108C0.396378 11.603 0.563381 9.0979 1.37753 6.69722C2.23342 4.21303 3.71559 2.35511 6.19978 1.35308C6.88867 1.0817 7.64019 0.893817 8.37083 0.831191C11.4604 0.60156 14.5709 0.41368 17.6813 0.2258C19.4975 0.121422 21.3345 0.0170448 23.1507 0.0170448C28.0356 -0.00383075 32.8996 -0.0247062 37.7845 0.0796714C41.5421 0.163174 45.3205 0.330178 49.0781 0.622435C52.0842 0.852066 55.0068 2.66824 56.1967 6.42583C56.7395 8.13763 56.99 9.91205 57.157 11.7073C57.6788 17.7404 57.658 23.7734 57.324 29.8064C57.1778 32.3115 57.0108 34.8166 56.1967 37.2173C55.3408 39.7014 53.8586 41.5594 51.3744 42.5614C50.6855 42.8328 49.934 43.0206 49.2034 43.0833C46.1973 43.3338 43.1912 43.5634 40.1643 43.6887C35.9892 43.8557 31.7932 43.9183 27.5972 44.0227C26.9292 44.0227 26.2612 44.0018 25.614 43.9809C25.614 44.0018 25.614 44.0018 25.614 43.9809ZM29.6639 42.2065C35.8013 41.9769 42.1266 41.7681 48.4727 41.4967C50.2472 41.4132 51.7711 40.7243 52.961 39.3466C53.7125 38.4907 54.0883 37.4678 54.4223 36.4031C55.299 33.564 55.4034 30.6206 55.5078 27.7189C55.6748 22.2912 55.7374 16.8427 55.1947 11.4151C55.0068 9.59892 54.6519 7.80362 53.9212 6.13358C53.0236 4.02515 51.3744 2.85612 49.1199 2.60561C47.763 2.45948 46.3852 2.39686 45.0074 2.3551C39.1414 2.16722 33.2962 1.87497 27.4302 1.87497C21.6894 1.87497 15.9486 2.20898 10.2079 2.41773C9.22673 2.45948 8.2247 2.54298 7.2853 2.81437C5.21862 3.41976 3.92434 4.86017 3.23545 6.8851C2.35868 9.43191 2.21255 12.104 2.06642 14.7552C1.77416 20.2454 1.75329 25.7566 2.21255 31.2468C2.37955 33.2091 2.56743 35.1714 3.21457 37.0502C3.96609 39.2631 5.46913 40.62 7.70281 41.121C8.68396 41.3506 9.70686 41.455 10.7298 41.4967C16.9507 41.7472 23.1925 41.9769 29.6639 42.2065Z" fill="#E7E7E7"/>
<path d="M21.0428 22.6675C21.0428 19.4318 21.0428 16.217 21.0428 12.9813C21.0428 12.7516 21.022 12.5011 21.0428 12.2715C21.1263 11.4365 21.7526 11.0816 22.5041 11.4365C22.9425 11.6452 23.3392 11.9166 23.7567 12.1462C29.2261 15.3402 34.6954 18.5341 40.144 21.7281C40.3318 21.8325 40.5197 21.916 40.6867 22.0412C41.3547 22.5423 41.3339 23.2729 40.6658 23.753C40.478 23.8992 40.2483 24.0035 40.0396 24.1079C34.4032 27.2392 28.7668 30.3915 23.1304 33.5228C22.9216 33.648 22.7129 33.7733 22.5041 33.8568C21.6691 34.2117 21.0846 33.8359 21.022 32.9383C21.0011 32.5416 21.022 32.1659 21.022 31.7692C21.0428 28.7632 21.0428 25.7153 21.0428 22.6675ZM23.026 13.9415C23.026 19.8076 23.026 25.5275 23.026 31.4144C28.1405 28.5753 33.1715 25.778 38.3069 22.918C33.1507 19.8702 28.1405 16.9476 23.026 13.9415Z" fill="#E7E7E7"/>
</svg>
