<svg width="49" height="49" viewBox="0 0 49 49" fill="none" xmlns="http://www.w3.org/2000/svg">
<path d="M40.2063 48.7866H8.57985C3.84111 48.7866 0 44.9246 0 40.2068V8.58033C0 3.84159 3.86198 0.000488281 8.57985 0.000488281H40.1854C44.9242 0.000488281 48.7653 3.86246 48.7653 8.58033V40.1859C48.7861 44.9455 44.945 48.7866 40.2063 48.7866ZM8.57985 2.00454C4.94751 2.00454 2.00406 4.94799 2.00406 8.58033V40.1859C2.00406 43.8182 4.94751 46.7617 8.57985 46.7617H40.1854C43.8178 46.7617 46.7612 43.8182 46.7612 40.1859V8.58033C46.7612 4.94799 43.8178 2.00454 40.1854 2.00454H8.57985Z" fill="url(#paint0_linear_154_3712)"/>
<path d="M24.4041 35.5932C18.225 35.5932 13.2148 30.5622 13.2148 24.4039C13.2148 18.2456 18.2458 13.2146 24.4041 13.2146C30.5624 13.2146 35.5934 18.2456 35.5934 24.4039C35.5934 30.5622 30.5624 35.5932 24.4041 35.5932ZM24.4041 15.2187C19.3314 15.2187 15.2189 19.3311 15.2189 24.4039C15.2189 29.4766 19.3314 33.5891 24.4041 33.5891C29.4769 33.5891 33.5894 29.4766 33.5894 24.4039C33.5894 19.3311 29.456 15.2187 24.4041 15.2187Z" fill="url(#paint1_linear_154_3712)"/>
<path d="M38.8911 13.3821C36.9706 13.3821 35.4258 11.8164 35.4258 9.91676C35.4258 8.01708 36.9914 6.45142 38.8911 6.45142C40.7908 6.45142 42.3564 8.01708 42.3564 9.91676C42.3564 11.8164 40.8117 13.3821 38.8911 13.3821ZM38.8911 8.20496C37.9517 8.20496 37.2002 8.97736 37.2002 9.89588C37.2002 10.8144 37.9726 11.5868 38.8911 11.5868C39.8096 11.5868 40.582 10.8144 40.582 9.89588C40.582 8.97736 39.8305 8.20496 38.8911 8.20496Z" fill="url(#paint2_linear_154_3712)"/>
<defs>
<linearGradient id="paint0_linear_154_3712" x1="-6.85931e-07" y1="27.1581" x2="48.7687" y2="27.9172" gradientUnits="userSpaceOnUse">
<stop stop-color="#B100FF"/>
<stop offset="1" stop-color="#FF0076"/>
</linearGradient>
<linearGradient id="paint1_linear_154_3712" x1="13.2148" y1="25.672" x2="35.595" y2="26.0205" gradientUnits="userSpaceOnUse">
<stop stop-color="#B100FF"/>
<stop offset="1" stop-color="#FF0076"/>
</linearGradient>
<linearGradient id="paint2_linear_154_3712" x1="35.4258" y1="10.3095" x2="42.3569" y2="10.4174" gradientUnits="userSpaceOnUse">
<stop stop-color="#B100FF"/>
<stop offset="1" stop-color="#FF0076"/>
</linearGradient>
</defs>
</svg>
