<svg width="59" height="35" viewBox="0 0 59 35" fill="none" xmlns="http://www.w3.org/2000/svg">
<path d="M57.7877 27.9676C56.1587 25.6968 54.4803 23.3767 52.8759 21.1553C52.2342 20.242 51.5678 19.3535 50.926 18.4402C50.1362 17.3542 50.1362 16.984 50.926 15.898C53.3449 12.5412 55.7638 9.18437 58.1579 5.85226C59.0959 4.5441 59.2193 3.21125 58.5282 1.90309C57.8371 0.619608 56.7017 -0.022132 55.122 0.00255032C52.95 0.0272326 50.6298 0.0519149 48.3591 0.00255032C46.7053 -0.0468143 45.5453 0.619608 44.6814 2.07586C43.1511 4.61814 41.5714 7.1851 40.0164 9.67802C39.4734 10.5666 38.9304 11.4305 38.3874 12.319L38.3134 12.4424C38.1899 12.6646 38.0419 12.9114 37.8444 13.1089C37.4988 13.4791 37.0052 13.6519 36.5609 13.5285C36.1166 13.4297 35.7464 13.0595 35.623 12.5658C35.5243 12.2203 35.4996 11.8254 35.4996 11.4305C35.4996 10.5172 35.4996 9.57929 35.4996 8.66604C35.4996 6.96296 35.4996 5.21052 35.4749 3.48276C35.4255 1.43412 33.994 0.0519149 31.9206 0.0272326C29.0328 0.00255032 25.9228 0.00255032 22.0971 0.0272326C21.6034 0.0272326 21.1098 0.125962 20.7149 0.298738C19.4067 0.841749 18.6416 1.87841 18.5181 3.30998C18.3947 4.74155 18.9871 5.87694 20.2212 6.61741C20.7642 6.93828 20.9617 7.28383 20.937 7.87621C20.9123 8.59199 20.9123 9.33246 20.9123 10.0236C20.9123 10.4185 20.9123 10.8134 20.9123 11.2083C20.9123 11.4058 20.8876 11.6279 20.8876 11.8254C20.8876 11.9241 20.863 12.0228 20.863 12.0969V12.1709L20.468 12.3684L20.4187 12.319C20.3693 12.2697 20.2953 12.2203 20.2212 12.1709C20.0731 12.0475 19.925 11.9488 19.8263 11.8007C19.5548 11.4305 19.308 11.0849 19.0365 10.7147C18.3207 9.75206 17.5802 8.76477 16.9878 7.70343C16.198 6.32122 15.5069 4.84028 14.8652 3.43339C14.6924 3.08784 14.5443 2.74229 14.3962 2.39673C13.6064 0.792384 12.4463 0.00255032 10.8173 0.00255032H10.7926C9.68188 0.00255032 8.59586 0.00255032 7.48515 0.00255032C6.22635 0.00255032 4.94287 0.00255032 3.65939 0.00255032C3.14106 0.00255032 2.69678 0.0765973 2.35123 0.200009C1.36394 0.570243 0.598787 1.26135 0.253234 2.17459C-0.141683 3.11252 -0.0676357 4.22323 0.426011 5.28456C3.01765 10.8134 5.80675 15.4537 8.91673 19.5263C12.8906 24.7095 17.8517 29.2264 23.6521 32.9534C26.5152 34.8046 30.4891 34.7306 33.0807 32.7807C34.7344 31.5465 35.5243 30.0409 35.5243 28.1651C35.5243 27.079 35.5243 26.1164 35.5243 25.2032C35.5243 24.8823 35.5489 24.5614 35.623 24.2653C35.7464 23.7716 36.092 23.4261 36.5362 23.278C36.6596 23.2533 36.7584 23.2286 36.8818 23.2286C37.2273 23.2286 37.5729 23.3767 37.8691 23.6235C38.0419 23.7716 38.1899 23.9691 38.3134 24.1418L38.4121 24.2653C39.0045 25.0304 39.6215 25.7956 40.2139 26.536C41.7195 28.4613 43.2992 30.4358 44.8048 32.4104C45.7921 33.7186 47.0262 34.311 48.6799 34.2863C49.914 34.2616 51.1482 34.2616 52.3576 34.2863C53.1968 34.2863 54.036 34.2863 54.8752 34.2863C55.2454 34.2863 55.6403 34.2616 56.0599 34.1875C57.0719 34.0148 57.9605 33.4471 58.4788 32.5832C58.9971 31.744 59.1452 30.7567 58.849 29.8188C58.6269 29.1524 58.1826 28.5106 57.7877 27.9676ZM56.5783 31.3244C56.2574 31.9661 55.6403 32.0649 55.0973 32.0649H55.0727H54.1841C52.3082 32.0649 50.383 32.0402 48.5072 32.0896H48.4331C47.6433 32.0896 47.0756 31.7934 46.5819 31.1763C44.9529 29.0536 43.2498 26.9063 41.6208 24.833L40.3126 23.1792C40.0411 22.8337 39.7696 22.4881 39.4734 22.1673C38.4121 21.0319 37.0792 20.6863 35.6477 21.2047C34.1914 21.723 33.3769 22.8584 33.2782 24.4627C33.2535 25.1045 33.2535 25.7709 33.2535 26.4126C33.2535 26.6841 33.2535 26.9556 33.2535 27.2271C33.2535 30.1397 31.6245 31.8427 28.7119 32.0402C27.231 32.1389 25.8735 31.7687 24.5406 30.9048C17.0372 26.0671 10.99 19.7484 6.57191 12.1462C5.58461 10.4679 4.67137 8.69072 3.7828 6.98764C3.36321 6.19781 2.96829 5.43266 2.54869 4.64282C2.47464 4.49473 2.4006 4.34664 2.35123 4.22323C2.15377 3.68021 2.17845 3.16189 2.42528 2.79165C2.6721 2.4461 3.06702 2.24864 3.58535 2.24864C5.65866 2.19928 7.78134 2.19928 9.82997 2.22396H10.916C11.7552 2.22396 12.1007 2.81633 12.3969 3.45807C12.5944 3.87767 12.8165 4.32195 13.014 4.74155C13.7051 6.19781 14.4209 7.72811 15.2601 9.135C16.1486 10.6406 17.2347 12.0475 18.296 13.405L18.4194 13.5531C19.1105 14.417 20.0238 14.7379 21.0851 14.4664C22.2452 14.1702 22.9116 13.4544 23.1091 12.2697C23.1584 12.0228 23.1831 11.7513 23.1831 11.4551C23.1831 9.72738 23.1831 7.90089 23.1831 5.53139C23.1831 5.40798 23.1584 5.25988 23.1584 5.11179C23.1584 5.06242 23.1337 5.03774 23.1337 4.98838C23.035 4.98838 22.9116 4.96369 22.8129 4.96369C22.5167 4.93901 22.2205 4.91433 21.9243 4.86497C21.1838 4.74155 20.7396 4.24791 20.7396 3.58149C20.7396 2.8657 21.2085 2.34737 21.9984 2.22396C22.1958 2.19928 22.3933 2.19928 22.5907 2.19928H22.6648C25.0343 2.19928 27.4038 2.19928 29.7733 2.19928H31.4517C32.8339 2.22396 33.3029 2.66824 33.3029 4.05045C33.3029 5.16115 33.3029 6.27186 33.3029 7.40724C33.3029 8.8635 33.3029 10.2951 33.3029 11.7513C33.3029 12.2943 33.3522 12.7139 33.4263 13.0842C33.7471 14.4417 34.6357 15.3549 35.9932 15.6758C37.4248 16.0214 38.6589 15.6511 39.6215 14.5157C39.8437 14.2442 40.0411 13.9234 40.2386 13.6272L41.7195 11.233C43.2992 8.66604 44.9529 6.00035 46.5326 3.38403C47.0262 2.54483 47.6433 2.19928 48.5812 2.22396C50.0128 2.22396 51.4937 2.22396 52.9253 2.22396C53.5423 2.22396 54.1594 2.22396 54.7518 2.22396H54.8752C55.0233 2.22396 55.1714 2.22396 55.3195 2.22396C55.9365 2.29801 56.4055 2.56951 56.603 3.01379C56.8004 3.43339 56.7264 3.9764 56.4055 4.47005C56.1587 4.84028 55.9118 5.18584 55.6403 5.53139C55.5416 5.67948 55.4182 5.82758 55.3195 5.97567L49.2476 14.3677C49.1489 14.5157 49.0255 14.6638 48.9268 14.8119C47.7914 16.4657 47.7914 17.8479 48.9268 19.4522C50.1609 21.18 51.4197 22.9324 52.6291 24.6108C53.1474 25.3266 53.6411 26.0177 54.1594 26.7335L54.6777 27.4493C55.1961 28.1897 55.7391 28.9302 56.2821 29.646C56.6276 30.115 56.9238 30.658 56.5783 31.3244Z" fill="url(#paint0_linear_464_4755)"/>
<defs>
<linearGradient id="paint0_linear_464_4755" x1="-8.29891e-07" y1="19.0903" x2="58.976" y2="20.6702" gradientUnits="userSpaceOnUse">
<stop stop-color="#528CFF"/>
<stop offset="1" stop-color="#003EC4"/>
</linearGradient>
</defs>
</svg>
